<?xml version="1.0" encoding="utf-8" standalone="no"?>
<!DOCTYPE svg PUBLIC "-//W3C//DTD SVG 1.1//EN"
  "http://www.w3.org/Graphics/SVG/1.1/DTD/svg11.dtd">
<svg xmlns:xlink="http://www.w3.org/1999/xlink" width="720pt" height="360pt" viewBox="0 0 720 360" xmlns="http://www.w3.org/2000/svg" version="1.1">
 <metadata>
  <rdf:RDF xmlns:dc="http://purl.org/dc/elements/1.1/" xmlns:cc="http://creativecommons.org/ns#" xmlns:rdf="http://www.w3.org/1999/02/22-rdf-syntax-ns#">
   <cc:Work>
    <dc:type rdf:resource="http://purl.org/dc/dcmitype/StillImage"/>
    <dc:date>2025-10-14T13:38:34.971482</dc:date>
    <dc:format>image/svg+xml</dc:format>
    <dc:creator>
     <cc:Agent>
      <dc:title>Matplotlib v3.10.5, https://matplotlib.org/</dc:title>
     </cc:Agent>
    </dc:creator>
   </cc:Work>
  </rdf:RDF>
 </metadata>
 <defs>
  <style type="text/css">*{stroke-linejoin: round; stroke-linecap: butt}</style>
 </defs>
 <g id="figure_1">
  <g id="patch_1">
   <path d="M 0 360 
L 720 360 
L 720 0 
L 0 0 
L 0 360 
z
" style="fill: none"/>
  </g>
  <g id="axes_1">
   <g id="patch_2">
    <path d="M 90 320.4 
L 343.636364 320.4 
L 343.636364 43.2 
L 90 43.2 
L 90 320.4 
z
" style="fill: none"/>
   </g>
   <g id="FillBetweenPolyCollection_1"/>
   <g id="FillBetweenPolyCollection_2"/>
   <g id="matplotlib.axis_1">
    <g id="xtick_1">
     <g id="line2d_1">
      <defs>
       <path id="me8c95b2b7c" d="M 0 0 
L 0 3.5 
" style="stroke: #ffffff; stroke-width: 0.8"/>
      </defs>
      <g>
       <use xlink:href="#me8c95b2b7c" x="101.297885" y="320.4" style="stroke: #ffffff; stroke-width: 0.8"/>
      </g>
     </g>
     <g id="text_1">
      <!-- 0 -->
      <g transform="translate(97.480385 336.518125) scale(0.12 -0.12)" fill="#ffffff">
       <defs>
        <path id="DejaVuSerif-30" d="M 2034 219 
Q 2513 219 2750 744 
Q 2988 1269 2988 2328 
Q 2988 3391 2750 3916 
Q 2513 4441 2034 4441 
Q 1556 4441 1318 3916 
Q 1081 3391 1081 2328 
Q 1081 1269 1318 744 
Q 1556 219 2034 219 
z
M 2034 -91 
Q 1275 -91 848 546 
Q 422 1184 422 2328 
Q 422 3475 848 4112 
Q 1275 4750 2034 4750 
Q 2797 4750 3222 4112 
Q 3647 3475 3647 2328 
Q 3647 1184 3222 546 
Q 2797 -91 2034 -91 
z
" transform="scale(0.015625)"/>
       </defs>
       <use xlink:href="#DejaVuSerif-30"/>
      </g>
     </g>
    </g>
    <g id="xtick_2">
     <g id="line2d_2">
      <g>
       <use xlink:href="#me8c95b2b7c" x="147.506004" y="320.4" style="stroke: #ffffff; stroke-width: 0.8"/>
      </g>
     </g>
     <g id="text_2">
      <!-- 200 -->
      <g transform="translate(136.053504 336.518125) scale(0.12 -0.12)" fill="#ffffff">
       <defs>
        <path id="DejaVuSerif-32" d="M 819 3553 
L 469 3553 
L 469 4384 
Q 803 4563 1142 4656 
Q 1481 4750 1806 4750 
Q 2534 4750 2956 4397 
Q 3378 4044 3378 3438 
Q 3378 2753 2422 1800 
Q 2347 1728 2309 1691 
L 1131 513 
L 3078 513 
L 3078 1088 
L 3444 1088 
L 3444 0 
L 434 0 
L 434 341 
L 1850 1753 
Q 2319 2222 2519 2614 
Q 2719 3006 2719 3438 
Q 2719 3909 2473 4175 
Q 2228 4441 1797 4441 
Q 1350 4441 1106 4219 
Q 863 3997 819 3553 
z
" transform="scale(0.015625)"/>
       </defs>
       <use xlink:href="#DejaVuSerif-32"/>
       <use xlink:href="#DejaVuSerif-30" transform="translate(63.623047 0)"/>
       <use xlink:href="#DejaVuSerif-30" transform="translate(127.246094 0)"/>
      </g>
     </g>
    </g>
    <g id="xtick_3">
     <g id="line2d_3">
      <g>
       <use xlink:href="#me8c95b2b7c" x="193.714122" y="320.4" style="stroke: #ffffff; stroke-width: 0.8"/>
      </g>
     </g>
     <g id="text_3">
      <!-- 400 -->
      <g transform="translate(182.261622 336.518125) scale(0.12 -0.12)" fill="#ffffff">
       <defs>
        <path id="DejaVuSerif-34" d="M 2234 1581 
L 2234 4063 
L 641 1581 
L 2234 1581 
z
M 3609 0 
L 1484 0 
L 1484 331 
L 2234 331 
L 2234 1247 
L 197 1247 
L 197 1588 
L 2241 4750 
L 2859 4750 
L 2859 1581 
L 3750 1581 
L 3750 1247 
L 2859 1247 
L 2859 331 
L 3609 331 
L 3609 0 
z
" transform="scale(0.015625)"/>
       </defs>
       <use xlink:href="#DejaVuSerif-34"/>
       <use xlink:href="#DejaVuSerif-30" transform="translate(63.623047 0)"/>
       <use xlink:href="#DejaVuSerif-30" transform="translate(127.246094 0)"/>
      </g>
     </g>
    </g>
    <g id="xtick_4">
     <g id="line2d_4">
      <g>
       <use xlink:href="#me8c95b2b7c" x="239.922241" y="320.4" style="stroke: #ffffff; stroke-width: 0.8"/>
      </g>
     </g>
     <g id="text_4">
      <!-- 600 -->
      <g transform="translate(228.469741 336.518125) scale(0.12 -0.12)" fill="#ffffff">
       <defs>
        <path id="DejaVuSerif-36" d="M 2094 219 
Q 2534 219 2771 542 
Q 3009 866 3009 1472 
Q 3009 2078 2771 2401 
Q 2534 2725 2094 2725 
Q 1647 2725 1412 2412 
Q 1178 2100 1178 1509 
Q 1178 888 1415 553 
Q 1653 219 2094 219 
z
M 1075 2569 
Q 1288 2803 1556 2918 
Q 1825 3034 2163 3034 
Q 2859 3034 3264 2615 
Q 3669 2197 3669 1472 
Q 3669 763 3233 336 
Q 2797 -91 2069 -91 
Q 1278 -91 853 498 
Q 428 1088 428 2181 
Q 428 3406 931 4078 
Q 1434 4750 2350 4750 
Q 2597 4750 2869 4703 
Q 3141 4656 3425 4563 
L 3425 3794 
L 3072 3794 
Q 3034 4109 2831 4275 
Q 2628 4441 2284 4441 
Q 1678 4441 1381 3981 
Q 1084 3522 1075 2569 
z
" transform="scale(0.015625)"/>
       </defs>
       <use xlink:href="#DejaVuSerif-36"/>
       <use xlink:href="#DejaVuSerif-30" transform="translate(63.623047 0)"/>
       <use xlink:href="#DejaVuSerif-30" transform="translate(127.246094 0)"/>
      </g>
     </g>
    </g>
    <g id="xtick_5">
     <g id="line2d_5">
      <g>
       <use xlink:href="#me8c95b2b7c" x="286.13036" y="320.4" style="stroke: #ffffff; stroke-width: 0.8"/>
      </g>
     </g>
     <g id="text_5">
      <!-- 800 -->
      <g transform="translate(274.67786 336.518125) scale(0.12 -0.12)" fill="#ffffff">
       <defs>
        <path id="DejaVuSerif-38" d="M 2981 1275 
Q 2981 1775 2732 2051 
Q 2484 2328 2034 2328 
Q 1584 2328 1336 2051 
Q 1088 1775 1088 1275 
Q 1088 772 1336 495 
Q 1584 219 2034 219 
Q 2484 219 2732 495 
Q 2981 772 2981 1275 
z
M 2853 3541 
Q 2853 3966 2637 4203 
Q 2422 4441 2034 4441 
Q 1650 4441 1433 4203 
Q 1216 3966 1216 3541 
Q 1216 3113 1433 2875 
Q 1650 2638 2034 2638 
Q 2422 2638 2637 2875 
Q 2853 3113 2853 3541 
z
M 2516 2484 
Q 3047 2413 3344 2092 
Q 3641 1772 3641 1275 
Q 3641 619 3225 264 
Q 2809 -91 2034 -91 
Q 1263 -91 845 264 
Q 428 619 428 1275 
Q 428 1772 725 2092 
Q 1022 2413 1556 2484 
Q 1084 2569 832 2842 
Q 581 3116 581 3541 
Q 581 4103 968 4426 
Q 1356 4750 2034 4750 
Q 2713 4750 3100 4426 
Q 3488 4103 3488 3541 
Q 3488 3116 3236 2842 
Q 2984 2569 2516 2484 
z
" transform="scale(0.015625)"/>
       </defs>
       <use xlink:href="#DejaVuSerif-38"/>
       <use xlink:href="#DejaVuSerif-30" transform="translate(63.623047 0)"/>
       <use xlink:href="#DejaVuSerif-30" transform="translate(127.246094 0)"/>
      </g>
     </g>
    </g>
    <g id="xtick_6">
     <g id="line2d_6">
      <g>
       <use xlink:href="#me8c95b2b7c" x="332.338479" y="320.4" style="stroke: #ffffff; stroke-width: 0.8"/>
      </g>
     </g>
     <g id="text_6">
      <!-- 1000 -->
      <g transform="translate(317.068479 336.518125) scale(0.12 -0.12)" fill="#ffffff">
       <defs>
        <path id="DejaVuSerif-31" d="M 909 0 
L 909 331 
L 1722 331 
L 1722 4213 
L 781 3603 
L 781 4013 
L 1919 4750 
L 2350 4750 
L 2350 331 
L 3163 331 
L 3163 0 
L 909 0 
z
" transform="scale(0.015625)"/>
       </defs>
       <use xlink:href="#DejaVuSerif-31"/>
       <use xlink:href="#DejaVuSerif-30" transform="translate(63.623047 0)"/>
       <use xlink:href="#DejaVuSerif-30" transform="translate(127.246094 0)"/>
       <use xlink:href="#DejaVuSerif-30" transform="translate(190.869141 0)"/>
      </g>
     </g>
    </g>
    <g id="text_7">
     <!-- Training Steps -->
     <g transform="translate(172.063807 351.96125) scale(0.12 -0.12)" fill="#ffffff">
      <defs>
       <path id="DejaVuSerif-54" d="M 1222 0 
L 1222 331 
L 1819 331 
L 1819 4294 
L 447 4294 
L 447 3566 
L 63 3566 
L 63 4666 
L 4206 4666 
L 4206 3566 
L 3822 3566 
L 3822 4294 
L 2450 4294 
L 2450 331 
L 3047 331 
L 3047 0 
L 1222 0 
z
" transform="scale(0.015625)"/>
       <path id="DejaVuSerif-72" d="M 3059 3328 
L 3059 2497 
L 2728 2497 
Q 2713 2744 2591 2866 
Q 2469 2988 2234 2988 
Q 1809 2988 1582 2694 
Q 1356 2400 1356 1850 
L 1356 331 
L 2022 331 
L 2022 0 
L 263 0 
L 263 331 
L 781 331 
L 781 2994 
L 231 2994 
L 231 3322 
L 1356 3322 
L 1356 2731 
Q 1525 3078 1790 3245 
Q 2056 3413 2438 3413 
Q 2578 3413 2733 3391 
Q 2888 3369 3059 3328 
z
" transform="scale(0.015625)"/>
       <path id="DejaVuSerif-61" d="M 2547 1044 
L 2547 1747 
L 1806 1747 
Q 1378 1747 1168 1562 
Q 959 1378 959 997 
Q 959 650 1171 447 
Q 1384 244 1747 244 
Q 2106 244 2326 466 
Q 2547 688 2547 1044 
z
M 3122 2075 
L 3122 331 
L 3634 331 
L 3634 0 
L 2547 0 
L 2547 359 
Q 2356 128 2106 18 
Q 1856 -91 1522 -91 
Q 969 -91 644 203 
Q 319 497 319 997 
Q 319 1513 691 1797 
Q 1063 2081 1741 2081 
L 2547 2081 
L 2547 2309 
Q 2547 2688 2317 2895 
Q 2088 3103 1672 3103 
Q 1328 3103 1125 2947 
Q 922 2791 872 2484 
L 575 2484 
L 575 3156 
Q 875 3284 1158 3348 
Q 1441 3413 1709 3413 
Q 2400 3413 2761 3070 
Q 3122 2728 3122 2075 
z
" transform="scale(0.015625)"/>
       <path id="DejaVuSerif-69" d="M 622 4353 
Q 622 4497 726 4603 
Q 831 4709 978 4709 
Q 1122 4709 1226 4603 
Q 1331 4497 1331 4353 
Q 1331 4206 1228 4103 
Q 1125 4000 978 4000 
Q 831 4000 726 4103 
Q 622 4206 622 4353 
z
M 1356 331 
L 1900 331 
L 1900 0 
L 231 0 
L 231 331 
L 781 331 
L 781 2988 
L 231 2988 
L 231 3322 
L 1356 3322 
L 1356 331 
z
" transform="scale(0.015625)"/>
       <path id="DejaVuSerif-6e" d="M 263 0 
L 263 331 
L 781 331 
L 781 2988 
L 231 2988 
L 231 3322 
L 1356 3322 
L 1356 2731 
Q 1516 3069 1770 3241 
Q 2025 3413 2363 3413 
Q 2913 3413 3172 3097 
Q 3431 2781 3431 2113 
L 3431 331 
L 3944 331 
L 3944 0 
L 2356 0 
L 2356 331 
L 2853 331 
L 2853 1931 
Q 2853 2541 2703 2767 
Q 2553 2994 2175 2994 
Q 1775 2994 1565 2701 
Q 1356 2409 1356 1850 
L 1356 331 
L 1856 331 
L 1856 0 
L 263 0 
z
" transform="scale(0.015625)"/>
       <path id="DejaVuSerif-67" d="M 3359 2988 
L 3359 72 
Q 3359 -644 2965 -1033 
Q 2572 -1422 1844 -1422 
Q 1516 -1422 1216 -1362 
Q 916 -1303 641 -1184 
L 641 -488 
L 941 -488 
Q 997 -813 1206 -963 
Q 1416 -1113 1806 -1113 
Q 2313 -1113 2548 -827 
Q 2784 -541 2784 72 
L 2784 519 
Q 2616 206 2355 57 
Q 2094 -91 1709 -91 
Q 1097 -91 708 395 
Q 319 881 319 1663 
Q 319 2444 706 2928 
Q 1094 3413 1709 3413 
Q 2094 3413 2355 3264 
Q 2616 3116 2784 2803 
L 2784 3322 
L 3909 3322 
L 3909 2988 
L 3359 2988 
z
M 2784 1825 
Q 2784 2422 2554 2737 
Q 2325 3053 1888 3053 
Q 1444 3053 1217 2703 
Q 991 2353 991 1663 
Q 991 975 1217 622 
Q 1444 269 1888 269 
Q 2325 269 2554 583 
Q 2784 897 2784 1497 
L 2784 1825 
z
" transform="scale(0.015625)"/>
       <path id="DejaVuSerif-20" transform="scale(0.015625)"/>
       <path id="DejaVuSerif-53" d="M 594 225 
L 594 1288 
L 953 1284 
Q 969 753 1261 498 
Q 1553 244 2150 244 
Q 2706 244 2998 464 
Q 3291 684 3291 1106 
Q 3291 1444 3114 1625 
Q 2938 1806 2369 1978 
L 1753 2163 
Q 1084 2366 811 2669 
Q 538 2972 538 3500 
Q 538 4094 959 4422 
Q 1381 4750 2144 4750 
Q 2469 4750 2856 4679 
Q 3244 4609 3681 4475 
L 3681 3481 
L 3328 3481 
Q 3275 3975 2998 4195 
Q 2722 4416 2156 4416 
Q 1663 4416 1405 4214 
Q 1147 4013 1147 3628 
Q 1147 3294 1340 3103 
Q 1534 2913 2163 2725 
L 2741 2553 
Q 3375 2363 3645 2067 
Q 3916 1772 3916 1275 
Q 3916 597 3481 253 
Q 3047 -91 2188 -91 
Q 1803 -91 1404 -12 
Q 1006 66 594 225 
z
" transform="scale(0.015625)"/>
       <path id="DejaVuSerif-74" d="M 691 2988 
L 184 2988 
L 184 3322 
L 691 3322 
L 691 4353 
L 1269 4353 
L 1269 3322 
L 2350 3322 
L 2350 2988 
L 1269 2988 
L 1269 878 
Q 1269 456 1350 337 
Q 1431 219 1650 219 
Q 1875 219 1978 351 
Q 2081 484 2088 781 
L 2522 781 
Q 2497 328 2275 118 
Q 2053 -91 1600 -91 
Q 1103 -91 897 129 
Q 691 350 691 878 
L 691 2988 
z
" transform="scale(0.015625)"/>
       <path id="DejaVuSerif-65" d="M 3469 1600 
L 991 1600 
L 991 1575 
Q 991 903 1244 561 
Q 1497 219 1991 219 
Q 2369 219 2611 417 
Q 2853 616 2950 1006 
L 3413 1006 
Q 3275 459 2904 184 
Q 2534 -91 1931 -91 
Q 1203 -91 761 389 
Q 319 869 319 1663 
Q 319 2450 753 2931 
Q 1188 3413 1894 3413 
Q 2647 3413 3050 2948 
Q 3453 2484 3469 1600 
z
M 2791 1931 
Q 2772 2513 2545 2808 
Q 2319 3103 1894 3103 
Q 1497 3103 1269 2806 
Q 1041 2509 991 1931 
L 2791 1931 
z
" transform="scale(0.015625)"/>
       <path id="DejaVuSerif-70" d="M 1313 1825 
L 1313 1497 
Q 1313 897 1542 583 
Q 1772 269 2209 269 
Q 2650 269 2876 622 
Q 3103 975 3103 1663 
Q 3103 2353 2876 2703 
Q 2650 3053 2209 3053 
Q 1772 3053 1542 2737 
Q 1313 2422 1313 1825 
z
M 738 2988 
L 184 2988 
L 184 3322 
L 1313 3322 
L 1313 2803 
Q 1481 3116 1742 3264 
Q 2003 3413 2388 3413 
Q 3000 3413 3387 2928 
Q 3775 2444 3775 1663 
Q 3775 881 3387 395 
Q 3000 -91 2388 -91 
Q 2003 -91 1742 57 
Q 1481 206 1313 519 
L 1313 -997 
L 1856 -997 
L 1856 -1331 
L 184 -1331 
L 184 -997 
L 738 -997 
L 738 2988 
z
" transform="scale(0.015625)"/>
       <path id="DejaVuSerif-73" d="M 359 184 
L 359 959 
L 691 959 
Q 703 588 923 403 
Q 1144 219 1575 219 
Q 1963 219 2166 364 
Q 2369 509 2369 788 
Q 2369 1006 2220 1140 
Q 2072 1275 1594 1428 
L 1178 1569 
Q 750 1706 558 1912 
Q 366 2119 366 2438 
Q 366 2894 700 3153 
Q 1034 3413 1625 3413 
Q 1888 3413 2178 3344 
Q 2469 3275 2778 3144 
L 2778 2419 
L 2447 2419 
Q 2434 2741 2221 2922 
Q 2009 3103 1644 3103 
Q 1281 3103 1095 2975 
Q 909 2847 909 2591 
Q 909 2381 1050 2254 
Q 1191 2128 1613 1997 
L 2069 1856 
Q 2541 1709 2748 1489 
Q 2956 1269 2956 922 
Q 2956 450 2595 179 
Q 2234 -91 1600 -91 
Q 1278 -91 972 -22 
Q 666 47 359 184 
z
" transform="scale(0.015625)"/>
      </defs>
      <use xlink:href="#DejaVuSerif-54"/>
      <use xlink:href="#DejaVuSerif-72" transform="translate(66.699219 0)"/>
      <use xlink:href="#DejaVuSerif-61" transform="translate(114.501953 0)"/>
      <use xlink:href="#DejaVuSerif-69" transform="translate(174.121094 0)"/>
      <use xlink:href="#DejaVuSerif-6e" transform="translate(206.103516 0)"/>
      <use xlink:href="#DejaVuSerif-69" transform="translate(270.507812 0)"/>
      <use xlink:href="#DejaVuSerif-6e" transform="translate(302.490234 0)"/>
      <use xlink:href="#DejaVuSerif-67" transform="translate(366.894531 0)"/>
      <use xlink:href="#DejaVuSerif-20" transform="translate(430.908203 0)"/>
      <use xlink:href="#DejaVuSerif-53" transform="translate(462.695312 0)"/>
      <use xlink:href="#DejaVuSerif-74" transform="translate(531.201172 0)"/>
      <use xlink:href="#DejaVuSerif-65" transform="translate(571.386719 0)"/>
      <use xlink:href="#DejaVuSerif-70" transform="translate(630.566406 0)"/>
      <use xlink:href="#DejaVuSerif-73" transform="translate(694.580078 0)"/>
     </g>
    </g>
   </g>
   <g id="matplotlib.axis_2">
    <g id="ytick_1">
     <g id="line2d_7">
      <defs>
       <path id="m66eb6273ee" d="M 0 0 
L -3.5 0 
" style="stroke: #ffffff; stroke-width: 0.8"/>
      </defs>
      <g>
       <use xlink:href="#m66eb6273ee" x="90" y="299.717709" style="stroke: #ffffff; stroke-width: 0.8"/>
      </g>
     </g>
     <g id="text_8">
      <!-- 6 -->
      <g transform="translate(75.365 304.276771) scale(0.12 -0.12)" fill="#ffffff">
       <use xlink:href="#DejaVuSerif-36"/>
      </g>
     </g>
    </g>
    <g id="ytick_2">
     <g id="line2d_8">
      <g>
       <use xlink:href="#m66eb6273ee" x="90" y="260.61184" style="stroke: #ffffff; stroke-width: 0.8"/>
      </g>
     </g>
     <g id="text_9">
      <!-- 7 -->
      <g transform="translate(75.365 265.170902) scale(0.12 -0.12)" fill="#ffffff">
       <defs>
        <path id="DejaVuSerif-37" d="M 3609 4347 
L 1784 0 
L 1319 0 
L 3059 4153 
L 903 4153 
L 903 3578 
L 538 3578 
L 538 4666 
L 3609 4666 
L 3609 4347 
z
" transform="scale(0.015625)"/>
       </defs>
       <use xlink:href="#DejaVuSerif-37"/>
      </g>
     </g>
    </g>
    <g id="ytick_3">
     <g id="line2d_9">
      <g>
       <use xlink:href="#m66eb6273ee" x="90" y="221.505971" style="stroke: #ffffff; stroke-width: 0.8"/>
      </g>
     </g>
     <g id="text_10">
      <!-- 8 -->
      <g transform="translate(75.365 226.065033) scale(0.12 -0.12)" fill="#ffffff">
       <use xlink:href="#DejaVuSerif-38"/>
      </g>
     </g>
    </g>
    <g id="ytick_4">
     <g id="line2d_10">
      <g>
       <use xlink:href="#m66eb6273ee" x="90" y="182.400102" style="stroke: #ffffff; stroke-width: 0.8"/>
      </g>
     </g>
     <g id="text_11">
      <!-- 9 -->
      <g transform="translate(75.365 186.959164) scale(0.12 -0.12)" fill="#ffffff">
       <defs>
        <path id="DejaVuSerif-39" d="M 2994 2091 
Q 2784 1856 2512 1740 
Q 2241 1625 1900 1625 
Q 1206 1625 804 2044 
Q 403 2463 403 3188 
Q 403 3897 839 4323 
Q 1275 4750 2003 4750 
Q 2794 4750 3217 4161 
Q 3641 3572 3641 2478 
Q 3641 1253 3137 581 
Q 2634 -91 1722 -91 
Q 1475 -91 1203 -44 
Q 931 3 647 97 
L 647 872 
L 997 872 
Q 1038 556 1241 387 
Q 1444 219 1784 219 
Q 2391 219 2687 676 
Q 2984 1134 2994 2091 
z
M 1978 4441 
Q 1534 4441 1298 4117 
Q 1063 3794 1063 3188 
Q 1063 2581 1298 2256 
Q 1534 1931 1978 1931 
Q 2422 1931 2658 2245 
Q 2894 2559 2894 3150 
Q 2894 3772 2656 4106 
Q 2419 4441 1978 4441 
z
" transform="scale(0.015625)"/>
       </defs>
       <use xlink:href="#DejaVuSerif-39"/>
      </g>
     </g>
    </g>
    <g id="ytick_5">
     <g id="line2d_11">
      <g>
       <use xlink:href="#m66eb6273ee" x="90" y="143.294233" style="stroke: #ffffff; stroke-width: 0.8"/>
      </g>
     </g>
     <g id="text_12">
      <!-- 10 -->
      <g transform="translate(67.73 147.853296) scale(0.12 -0.12)" fill="#ffffff">
       <use xlink:href="#DejaVuSerif-31"/>
       <use xlink:href="#DejaVuSerif-30" transform="translate(63.623047 0)"/>
      </g>
     </g>
    </g>
    <g id="ytick_6">
     <g id="line2d_12">
      <g>
       <use xlink:href="#m66eb6273ee" x="90" y="104.188364" style="stroke: #ffffff; stroke-width: 0.8"/>
      </g>
     </g>
     <g id="text_13">
      <!-- 11 -->
      <g transform="translate(67.73 108.747427) scale(0.12 -0.12)" fill="#ffffff">
       <use xlink:href="#DejaVuSerif-31"/>
       <use xlink:href="#DejaVuSerif-31" transform="translate(63.623047 0)"/>
      </g>
     </g>
    </g>
    <g id="ytick_7">
     <g id="line2d_13">
      <g>
       <use xlink:href="#m66eb6273ee" x="90" y="65.082495" style="stroke: #ffffff; stroke-width: 0.8"/>
      </g>
     </g>
     <g id="text_14">
      <!-- 12 -->
      <g transform="translate(67.73 69.641558) scale(0.12 -0.12)" fill="#ffffff">
       <use xlink:href="#DejaVuSerif-31"/>
       <use xlink:href="#DejaVuSerif-32" transform="translate(63.623047 0)"/>
      </g>
     </g>
    </g>
    <g id="text_15">
     <!-- Training Loss -->
     <g transform="translate(61.06375 223.31625) rotate(-90) scale(0.12 -0.12)" fill="#ffffff">
      <defs>
       <path id="DejaVuSerif-4c" d="M 353 0 
L 353 331 
L 947 331 
L 947 4331 
L 353 4331 
L 353 4666 
L 2175 4666 
L 2175 4331 
L 1581 4331 
L 1581 384 
L 3713 384 
L 3713 1166 
L 4097 1166 
L 4097 0 
L 353 0 
z
" transform="scale(0.015625)"/>
       <path id="DejaVuSerif-6f" d="M 1925 219 
Q 2388 219 2623 584 
Q 2859 950 2859 1663 
Q 2859 2375 2623 2739 
Q 2388 3103 1925 3103 
Q 1463 3103 1227 2739 
Q 991 2375 991 1663 
Q 991 950 1228 584 
Q 1466 219 1925 219 
z
M 1925 -91 
Q 1200 -91 759 389 
Q 319 869 319 1663 
Q 319 2456 758 2934 
Q 1197 3413 1925 3413 
Q 2653 3413 3092 2934 
Q 3531 2456 3531 1663 
Q 3531 869 3092 389 
Q 2653 -91 1925 -91 
z
" transform="scale(0.015625)"/>
      </defs>
      <use xlink:href="#DejaVuSerif-54"/>
      <use xlink:href="#DejaVuSerif-72" transform="translate(66.699219 0)"/>
      <use xlink:href="#DejaVuSerif-61" transform="translate(114.501953 0)"/>
      <use xlink:href="#DejaVuSerif-69" transform="translate(174.121094 0)"/>
      <use xlink:href="#DejaVuSerif-6e" transform="translate(206.103516 0)"/>
      <use xlink:href="#DejaVuSerif-69" transform="translate(270.507812 0)"/>
      <use xlink:href="#DejaVuSerif-6e" transform="translate(302.490234 0)"/>
      <use xlink:href="#DejaVuSerif-67" transform="translate(366.894531 0)"/>
      <use xlink:href="#DejaVuSerif-20" transform="translate(430.908203 0)"/>
      <use xlink:href="#DejaVuSerif-4c" transform="translate(462.695312 0)"/>
      <use xlink:href="#DejaVuSerif-6f" transform="translate(529.101562 0)"/>
      <use xlink:href="#DejaVuSerif-73" transform="translate(589.306641 0)"/>
      <use xlink:href="#DejaVuSerif-73" transform="translate(640.625 0)"/>
     </g>
    </g>
   </g>
   <g id="line2d_14">
    <path d="M 101.528926 55.8 
L 101.759966 73.678683 
L 101.991007 73.665733 
L 102.222047 86.970218 
L 102.453088 71.100335 
L 102.684129 67.41789 
L 103.14621 100.177087 
L 103.37725 78.944288 
L 103.608291 73.267794 
L 103.839332 86.427764 
L 104.070372 89.474938 
L 104.301413 80.800638 
L 104.532453 93.209437 
L 104.763494 93.107428 
L 104.994535 91.804804 
L 105.225575 95.818758 
L 105.456616 93.669042 
L 105.687656 112.091196 
L 105.918697 95.625928 
L 106.380778 122.518383 
L 106.611819 116.779019 
L 106.842859 116.806291 
L 107.0739 143.494419 
L 107.30494 135.479407 
L 107.535981 135.007485 
L 107.767022 146.080832 
L 107.998062 138.380033 
L 108.229103 139.178336 
L 108.460143 143.674495 
L 108.691184 136.430867 
L 108.922225 139.405411 
L 109.153265 139.595407 
L 109.384306 148.186103 
L 109.615346 145.083435 
L 109.846387 156.725836 
L 110.077428 154.201742 
L 110.308468 156.990514 
L 110.539509 148.917872 
L 110.770549 161.354353 
L 111.00159 157.565657 
L 111.232631 151.230331 
L 111.463671 167.763008 
L 111.694712 159.187146 
L 111.925752 162.507193 
L 112.156793 159.273063 
L 112.387834 168.534142 
L 112.618874 151.37328 
L 112.849915 170.79381 
L 113.080955 162.670906 
L 113.543036 160.525637 
L 113.774077 155.187131 
L 114.005118 173.589771 
L 114.236158 171.340861 
L 114.467199 163.338491 
L 114.92928 173.872144 
L 115.160321 174.385621 
L 115.391361 171.707604 
L 115.622402 164.510687 
L 115.853442 178.275021 
L 116.084483 161.441882 
L 116.546564 176.828684 
L 116.777605 174.97253 
L 117.008645 168.835573 
L 117.470727 174.831987 
L 117.701767 196.050483 
L 117.932808 190.582165 
L 118.163848 176.712466 
L 118.394889 169.68907 
L 118.62593 194.261813 
L 119.088011 171.634656 
L 119.319051 174.161958 
L 119.550092 172.93065 
L 119.781133 175.086231 
L 120.012173 175.101978 
L 120.243214 178.865305 
L 120.474254 190.357476 
L 120.705295 177.259507 
L 120.936335 183.41211 
L 121.167376 182.134847 
L 121.398417 176.504401 
L 121.629457 189.321181 
L 121.860498 194.765877 
L 122.091538 177.595072 
L 122.322579 178.418054 
L 122.55362 180.234405 
L 122.78466 203.200576 
L 123.015701 190.206276 
L 123.246741 184.33573 
L 123.477782 189.055757 
L 123.708823 190.777829 
L 123.939863 189.086628 
L 124.170904 198.141544 
L 124.401944 191.1967 
L 124.632985 194.918359 
L 124.864026 201.574015 
L 125.095066 194.128094 
L 125.326107 179.386334 
L 125.557147 195.499605 
L 125.788188 192.403421 
L 126.019229 193.713503 
L 126.250269 190.150307 
L 126.48131 203.869216 
L 126.71235 200.248903 
L 126.943391 216.433089 
L 127.174432 191.11483 
L 127.405472 202.021154 
L 127.636513 200.111157 
L 127.867553 195.945266 
L 128.098594 202.89853 
L 128.329634 197.700456 
L 128.560675 195.945341 
L 128.791716 204.252629 
L 129.022756 189.63394 
L 129.253797 199.908257 
L 129.484837 198.118869 
L 129.715878 198.174288 
L 129.946919 196.548697 
L 130.177959 201.331378 
L 130.409 198.894478 
L 130.64004 199.681797 
L 130.871081 199.676623 
L 131.102122 197.090927 
L 131.333162 209.305255 
L 131.564203 210.797152 
L 131.795243 199.978249 
L 132.026284 205.883936 
L 132.257325 214.979778 
L 132.488365 207.120394 
L 132.719406 204.798705 
L 132.950446 211.097459 
L 133.181487 198.95 
L 133.412528 200.699669 
L 133.643568 207.953814 
L 133.874609 205.90096 
L 134.105649 211.571777 
L 134.33669 213.41512 
L 134.567731 202.959972 
L 134.798771 207.289389 
L 135.029812 207.415415 
L 135.260852 207.022986 
L 135.491893 215.565079 
L 135.722933 215.281153 
L 135.953974 210.643252 
L 136.185015 200.980952 
L 136.416055 213.144024 
L 136.647096 218.389131 
L 136.878136 210.006961 
L 137.109177 213.396874 
L 137.340218 202.389724 
L 137.802299 211.032712 
L 138.033339 216.977552 
L 138.26438 211.500214 
L 138.495421 216.30206 
L 138.726461 204.076572 
L 139.188542 220.848771 
L 139.419583 214.727412 
L 139.650624 227.10404 
L 139.881664 208.981159 
L 140.112705 218.241348 
L 140.343745 217.203066 
L 140.574786 222.154872 
L 140.805827 221.514292 
L 141.036867 212.857291 
L 141.267908 224.670827 
L 141.498948 219.599143 
L 141.729989 223.67652 
L 141.961029 232.936299 
L 142.19207 223.820047 
L 142.423111 201.816437 
L 142.654151 214.353812 
L 142.885192 219.967177 
L 143.116232 217.018977 
L 143.347273 221.910357 
L 143.578314 221.107943 
L 143.809354 225.629542 
L 144.040395 219.688831 
L 144.271435 223.671061 
L 144.502476 224.863914 
L 144.733517 218.570246 
L 144.964557 226.652738 
L 145.195598 216.271283 
L 145.426638 218.281085 
L 145.657679 215.3541 
L 145.88872 219.241011 
L 146.11976 231.188592 
L 146.350801 220.409189 
L 146.581841 222.159618 
L 146.812882 221.965543 
L 147.043923 224.620965 
L 147.274963 219.985973 
L 147.506004 210.176104 
L 147.737044 223.411218 
L 147.968085 229.093447 
L 148.199126 231.946304 
L 148.430166 216.103999 
L 148.661207 219.820685 
L 148.892247 221.15775 
L 149.123288 225.473978 
L 149.354328 220.742203 
L 149.585369 220.634222 
L 149.81641 221.482098 
L 150.04745 221.286378 
L 150.278491 221.842137 
L 150.740572 229.093344 
L 150.971613 223.02175 
L 151.202653 228.527753 
L 151.433694 245.473348 
L 151.664734 214.279587 
L 151.895775 224.736824 
L 152.126816 221.315476 
L 152.357856 224.35171 
L 152.819937 235.010508 
L 153.050978 226.703402 
L 153.282019 225.193203 
L 153.513059 228.219586 
L 153.7441 222.37185 
L 153.97514 232.537926 
L 154.206181 227.703308 
L 154.437222 235.945223 
L 154.668262 226.720557 
L 154.899303 231.831713 
L 155.130343 216.228301 
L 155.361384 247.94117 
L 155.592425 227.483994 
L 155.823465 224.526923 
L 156.054506 231.614646 
L 156.285546 234.924358 
L 156.516587 221.874443 
L 156.747627 232.903564 
L 156.978668 224.323058 
L 157.209709 222.142654 
L 157.440749 222.180144 
L 157.67179 230.255643 
L 157.90283 231.815905 
L 158.133871 231.931437 
L 158.364912 239.056767 
L 158.595952 229.597329 
L 158.826993 228.89471 
L 159.058033 225.036418 
L 159.520115 232.866046 
L 159.751155 226.958961 
L 159.982196 240.108456 
L 160.213236 234.981814 
L 160.444277 240.396666 
L 160.675318 227.309145 
L 160.906358 232.340145 
L 161.137399 220.759755 
L 161.368439 245.641545 
L 161.59948 226.615145 
L 161.830521 229.928144 
L 162.061561 238.949099 
L 162.292602 233.908159 
L 162.523642 236.56965 
L 162.754683 226.598274 
L 162.985724 225.394047 
L 163.216764 224.944968 
L 163.447805 241.913862 
L 163.678845 230.202923 
L 163.909886 229.169079 
L 164.140926 229.322163 
L 164.371967 234.59553 
L 164.603008 232.99817 
L 164.834048 217.839558 
L 165.296129 234.807664 
L 165.758211 226.429042 
L 166.220292 230.624054 
L 166.451332 230.655419 
L 166.682373 229.669303 
L 166.913414 235.087735 
L 167.144454 234.884686 
L 167.375495 245.498074 
L 167.606535 229.594989 
L 167.837576 227.423941 
L 168.068617 248.433128 
L 168.299657 241.769305 
L 168.530698 240.467306 
L 168.761738 240.636371 
L 168.992779 236.923745 
L 169.22382 243.975125 
L 169.45486 226.88613 
L 169.685901 243.12359 
L 170.147982 229.03138 
L 170.379023 234.055635 
L 170.610063 233.270977 
L 170.841104 237.865729 
L 171.072144 231.158989 
L 171.303185 232.452205 
L 171.534225 239.212 
L 171.765266 230.511822 
L 171.996307 229.050717 
L 172.227347 229.326056 
L 172.458388 245.735624 
L 172.689428 233.878646 
L 173.15151 237.553375 
L 173.38255 231.592945 
L 173.613591 236.439088 
L 173.844631 234.366552 
L 174.075672 237.824201 
L 174.537753 249.942627 
L 174.768794 251.034449 
L 174.999834 234.513427 
L 175.230875 238.024402 
L 175.461916 239.514881 
L 175.692956 239.625496 
L 175.923997 240.016358 
L 176.155037 239.54542 
L 176.386078 240.579282 
L 176.617119 237.464643 
L 176.848159 232.420967 
L 177.0792 242.989601 
L 177.31024 244.870757 
L 177.541281 230.874695 
L 177.772322 247.50355 
L 178.003362 234.120942 
L 178.234403 241.624804 
L 178.465443 239.728777 
L 178.696484 235.331033 
L 178.927524 235.164552 
L 179.158565 242.642224 
L 179.389606 238.495619 
L 179.620646 241.127182 
L 179.851687 252.485187 
L 180.082727 237.433143 
L 180.313768 242.247851 
L 180.544809 235.51027 
L 180.775849 240.958486 
L 181.00689 242.190623 
L 181.23793 248.664413 
L 181.468971 243.908415 
L 181.700012 229.735584 
L 181.931052 239.149276 
L 182.162093 235.04384 
L 182.393133 243.979904 
L 182.624174 236.704749 
L 182.855215 239.718368 
L 183.086255 240.253685 
L 183.317296 244.300187 
L 183.548336 239.76162 
L 183.779377 239.001535 
L 184.010418 233.067178 
L 184.241458 237.220309 
L 184.472499 243.575345 
L 184.703539 241.286769 
L 184.93458 231.826874 
L 185.16562 246.127307 
L 185.396661 237.3888 
L 185.627702 246.332729 
L 185.858742 242.448704 
L 186.089783 246.639022 
L 186.551864 239.893352 
L 186.782905 244.319785 
L 187.013945 241.777305 
L 187.244986 246.917289 
L 187.476026 246.689994 
L 187.707067 226.889552 
L 188.169148 248.785545 
L 188.400189 230.653582 
L 188.631229 234.801086 
L 188.86227 235.06355 
L 189.093311 236.305929 
L 189.324351 227.135279 
L 189.786432 250.12032 
L 190.248514 238.631165 
L 190.479554 252.111293 
L 190.710595 233.958782 
L 190.941635 243.039963 
L 191.172676 233.219395 
L 191.403717 245.957651 
L 191.634757 238.511045 
L 191.865798 242.696464 
L 192.096838 235.272719 
L 192.327879 249.085246 
L 192.558919 250.214782 
L 192.78996 253.568403 
L 193.021001 250.501346 
L 193.252041 244.427011 
L 193.483082 243.00119 
L 193.714122 237.814207 
L 193.945163 249.108476 
L 194.176204 239.909258 
L 194.407244 242.324668 
L 194.638285 247.837888 
L 194.869325 234.559317 
L 195.100366 234.823034 
L 195.562447 247.271938 
L 195.793488 244.448194 
L 196.255569 251.753403 
L 196.71765 246.041428 
L 196.948691 248.538363 
L 197.179731 247.999107 
L 197.410772 238.653076 
L 197.641813 246.192852 
L 197.872853 241.065781 
L 198.103894 238.873895 
L 198.334934 252.984832 
L 198.565975 240.644459 
L 198.797016 244.779661 
L 199.028056 243.298356 
L 199.490137 234.754921 
L 199.721178 243.419865 
L 199.952218 245.37876 
L 200.183259 239.858655 
L 200.4143 257.330844 
L 200.64534 252.105499 
L 200.876381 252.345851 
L 201.338462 241.527503 
L 201.569503 245.841167 
L 201.800543 246.597882 
L 202.031584 250.518194 
L 202.262624 236.31052 
L 202.493665 238.73647 
L 202.724706 243.135007 
L 202.955746 252.588529 
L 203.186787 252.371966 
L 203.417827 235.166855 
L 203.648868 250.016134 
L 203.879909 250.064053 
L 204.110949 242.848923 
L 204.34199 256.086302 
L 204.57303 256.104064 
L 204.804071 242.718425 
L 205.035112 236.221191 
L 205.266152 244.721771 
L 205.497193 247.51099 
L 205.728233 254.435868 
L 205.959274 249.302667 
L 206.190315 257.989074 
L 206.421355 238.769611 
L 206.652396 247.834937 
L 206.883436 242.647697 
L 207.114477 242.733884 
L 207.345517 244.304177 
L 207.576558 266.641679 
L 207.807599 253.374972 
L 208.038639 246.690325 
L 208.26968 252.854176 
L 208.50072 246.434701 
L 208.731761 243.250246 
L 208.962802 244.610951 
L 209.424883 249.449233 
L 209.655923 240.514209 
L 209.886964 251.975356 
L 210.118005 253.884906 
L 210.580086 241.090274 
L 210.811126 241.899807 
L 211.042167 236.444621 
L 211.273208 251.823848 
L 211.504248 243.847663 
L 211.735289 253.32848 
L 211.966329 237.302888 
L 212.19737 250.215038 
L 212.428411 242.971136 
L 212.890492 252.808878 
L 213.121532 249.566142 
L 213.352573 253.032531 
L 213.583614 249.486551 
L 213.814654 258.218905 
L 214.276735 249.021561 
L 214.507776 258.694994 
L 214.969857 243.447589 
L 215.200898 260.136053 
L 215.431938 250.604507 
L 215.662979 228.806509 
L 216.12506 253.462655 
L 216.356101 254.510344 
L 216.587141 253.950311 
L 216.818182 256.843921 
L 217.049222 252.733641 
L 217.280263 243.385545 
L 217.511304 247.548447 
L 217.742344 247.531311 
L 217.973385 243.090855 
L 218.204425 248.663667 
L 218.435466 264.146762 
L 218.897547 245.098601 
L 219.128588 235.790093 
L 219.359628 258.068571 
L 219.82171 241.583421 
L 220.05275 238.620313 
L 220.283791 240.275441 
L 220.514831 246.708818 
L 220.745872 256.811615 
L 220.976913 250.579086 
L 221.207953 259.283367 
L 221.438994 249.307921 
L 221.670034 247.153846 
L 221.901075 262.712644 
L 222.132115 259.726334 
L 222.363156 269.528679 
L 222.825237 238.860278 
L 223.056278 244.313622 
L 223.287318 259.400834 
L 223.518359 241.407406 
L 223.7494 251.566769 
L 223.98044 252.509806 
L 224.211481 249.780495 
L 224.442521 260.95815 
L 224.673562 259.059005 
L 224.904603 248.533258 
L 225.135643 247.134747 
L 225.366684 257.016146 
L 225.597724 247.717069 
L 225.828765 250.499845 
L 226.059806 247.852815 
L 226.521887 263.674813 
L 226.752927 245.981496 
L 226.983968 257.15903 
L 227.446049 246.452266 
L 227.90813 250.887752 
L 228.139171 251.487383 
L 228.370211 268.918754 
L 228.601252 261.835418 
L 228.832293 249.819155 
L 229.294374 270.938649 
L 229.525414 242.937823 
L 229.756455 249.130246 
L 229.987496 259.667978 
L 230.218536 240.871688 
L 230.449577 266.924178 
L 230.680617 252.932443 
L 230.911658 252.086255 
L 231.142699 255.351885 
L 231.373739 251.300656 
L 231.60478 259.207832 
L 231.83582 260.712497 
L 232.066861 249.981716 
L 232.297902 251.028375 
L 232.528942 246.885863 
L 232.759983 245.005571 
L 232.991023 255.816147 
L 233.222064 248.423478 
L 233.684145 254.55968 
L 233.915186 252.684506 
L 234.377267 265.433787 
L 234.608308 257.925483 
L 234.839348 255.626156 
L 235.070389 256.274801 
L 235.301429 264.451205 
L 235.53247 252.146835 
L 235.76351 262.856665 
L 235.994551 257.03545 
L 236.225592 257.674595 
L 236.456632 246.58136 
L 236.687673 243.915632 
L 236.918713 254.653732 
L 237.149754 255.077614 
L 237.380795 247.299163 
L 237.611835 251.748345 
L 237.842876 259.348259 
L 238.073916 254.674481 
L 238.304957 253.475937 
L 238.535998 257.57177 
L 238.767038 254.271838 
L 238.998079 263.113119 
L 239.229119 256.085258 
L 239.46016 263.248978 
L 239.691201 265.49819 
L 239.922241 264.818041 
L 240.153282 262.068288 
L 240.384322 252.600841 
L 240.615363 251.677235 
L 240.846404 253.403222 
L 241.077444 258.348693 
L 241.308485 254.888895 
L 241.539525 245.418306 
L 241.770566 251.908562 
L 242.001607 249.570193 
L 242.232647 250.301878 
L 242.463688 259.96822 
L 242.694728 259.004298 
L 242.925769 247.916444 
L 243.156809 250.538175 
L 243.38785 242.091914 
L 243.849931 262.874874 
L 244.312012 253.552768 
L 244.543053 262.818014 
L 244.774094 247.014123 
L 245.005134 247.643995 
L 245.236175 244.872449 
L 245.698256 260.556327 
L 245.929297 252.190786 
L 246.160337 263.162716 
L 246.391378 254.390154 
L 246.622418 251.78957 
L 246.853459 255.586652 
L 247.0845 248.525678 
L 247.31554 263.426857 
L 247.546581 257.871401 
L 247.777621 260.807639 
L 248.008662 250.789794 
L 248.239703 261.073925 
L 248.470743 251.576363 
L 248.701784 269.190098 
L 248.932824 254.360888 
L 249.163865 267.893684 
L 249.394906 248.873023 
L 249.625946 248.529883 
L 249.856987 258.489269 
L 250.088027 246.77909 
L 250.319068 256.11045 
L 250.550108 254.090392 
L 250.781149 266.065655 
L 251.24323 251.19329 
L 251.474271 261.452732 
L 251.936352 252.746848 
L 252.398433 261.571887 
L 252.629474 254.02674 
L 252.860514 254.400312 
L 253.091555 264.291581 
L 253.322596 251.472307 
L 253.553636 269.403272 
L 253.784677 265.450738 
L 254.015717 256.515871 
L 254.246758 270.728128 
L 254.477799 264.597715 
L 254.708839 250.880932 
L 254.93988 258.119259 
L 255.17092 254.717113 
L 255.633002 264.167871 
L 255.864042 250.638776 
L 256.095083 256.876992 
L 256.326123 256.709927 
L 256.557164 266.884338 
L 256.788205 263.455429 
L 257.019245 262.626821 
L 257.250286 265.507537 
L 257.481326 257.247855 
L 257.712367 258.088776 
L 257.943407 250.15388 
L 258.174448 259.190271 
L 258.636529 261.608053 
L 258.86757 254.482565 
L 259.09861 269.600955 
L 259.329651 250.146258 
L 259.560692 250.888293 
L 259.791732 257.824895 
L 260.022773 271.036505 
L 260.253813 250.074383 
L 260.484854 267.674609 
L 260.946935 256.040943 
L 261.177976 266.278088 
L 261.409016 250.368243 
L 261.871098 263.628824 
L 262.102138 259.473087 
L 262.333179 249.140446 
L 262.564219 264.865703 
L 262.79526 258.788477 
L 263.026301 262.884808 
L 263.257341 257.062983 
L 263.488382 264.45851 
L 263.719422 260.116138 
L 263.950463 271.271118 
L 264.181504 255.889789 
L 264.412544 283.158464 
L 264.643585 266.028864 
L 264.874625 263.824619 
L 265.105666 259.652268 
L 265.336706 270.142426 
L 265.798788 256.326981 
L 266.029828 263.72937 
L 266.260869 267.000533 
L 266.491909 259.320302 
L 266.72295 261.363715 
L 267.185031 262.429651 
L 267.416072 260.405206 
L 267.647112 264.357144 
L 267.878153 259.359354 
L 268.109194 250.485543 
L 268.340234 258.616149 
L 268.571275 257.413391 
L 268.802315 253.975088 
L 269.033356 262.014081 
L 269.264397 261.100861 
L 269.495437 261.198357 
L 269.726478 285.095001 
L 269.957518 273.531752 
L 270.188559 271.617461 
L 270.4196 258.74363 
L 270.881681 269.049545 
L 271.112721 271.651245 
L 271.343762 259.000914 
L 271.574802 276.299606 
L 271.805843 261.683215 
L 272.036884 267.935734 
L 272.267924 261.256177 
L 272.498965 262.589913 
L 272.730005 260.10923 
L 272.961046 261.404208 
L 273.192087 275.733656 
L 273.423127 261.446681 
L 273.654168 264.992671 
L 274.116249 257.541095 
L 274.34729 271.395835 
L 274.57833 259.812703 
L 274.809371 256.895779 
L 275.040411 274.79062 
L 275.271452 266.927833 
L 275.502493 271.256848 
L 275.733533 261.884418 
L 275.964574 260.331625 
L 276.195614 281.303158 
L 276.426655 266.625055 
L 276.657696 259.123034 
L 276.888736 262.613591 
L 277.119777 264.390411 
L 277.350817 257.996267 
L 277.812899 266.365048 
L 278.27498 269.881664 
L 278.50602 251.181906 
L 278.737061 268.170352 
L 278.968101 260.425597 
L 279.199142 263.970971 
L 279.430183 269.290727 
L 279.661223 267.737272 
L 279.892264 263.965466 
L 280.123304 256.528477 
L 280.354345 259.267293 
L 280.585386 276.359338 
L 280.816426 257.198548 
L 281.047467 269.039742 
L 281.278507 255.326301 
L 281.509548 265.696255 
L 281.740589 267.791228 
L 281.971629 255.644169 
L 282.20267 264.565749 
L 282.43371 262.417572 
L 282.664751 267.907409 
L 282.895792 253.600071 
L 283.126832 263.797972 
L 283.357873 253.448157 
L 283.588913 259.706139 
L 283.819954 260.075544 
L 284.050995 263.149523 
L 284.282035 273.889255 
L 284.513076 274.509104 
L 284.744116 261.604599 
L 284.975157 262.444587 
L 285.206198 272.051025 
L 285.668279 264.846953 
L 285.899319 260.078811 
L 286.13036 274.476518 
L 286.3614 258.882519 
L 286.823482 279.574238 
L 287.054522 257.680879 
L 287.285563 264.100429 
L 287.516603 254.960043 
L 287.978685 273.70586 
L 288.209725 259.541853 
L 288.440766 255.590246 
L 288.671806 263.405851 
L 288.902847 255.494479 
L 289.133888 265.094195 
L 289.364928 268.233221 
L 289.595969 269.715607 
L 289.827009 257.955202 
L 290.289091 278.899496 
L 290.520131 257.064503 
L 290.751172 264.422773 
L 290.982212 278.49504 
L 291.213253 252.993172 
L 291.444294 256.750448 
L 291.675334 267.313367 
L 291.906375 271.000623 
L 292.137415 258.478128 
L 292.368456 260.331956 
L 292.599497 257.168754 
L 292.830537 263.995063 
L 293.061578 266.581374 
L 293.292618 258.795493 
L 293.523659 268.033505 
L 293.754699 270.74388 
L 293.98574 264.43074 
L 294.447821 276.392651 
L 294.678862 270.1443 
L 294.909902 268.62296 
L 295.140943 259.7798 
L 295.371984 278.309725 
L 295.603024 247.979182 
L 295.834065 266.582013 
L 296.065105 265.054034 
L 296.296146 267.491825 
L 296.527187 277.77617 
L 296.758227 264.430036 
L 296.989268 274.253657 
L 297.220308 265.462164 
L 297.451349 267.677984 
L 297.68239 265.632216 
L 297.91343 261.908771 
L 298.144471 266.196688 
L 298.375511 268.08326 
L 298.606552 263.272426 
L 298.837593 263.786989 
L 299.068633 275.394917 
L 299.299674 260.730799 
L 299.530714 265.379193 
L 299.761755 275.831437 
L 300.916958 258.65687 
L 301.147998 280.807056 
L 301.379039 265.501132 
L 301.61008 264.340753 
L 301.84112 265.389556 
L 302.072161 262.442736 
L 302.303201 272.848903 
L 302.996323 257.874077 
L 303.227364 265.239209 
L 303.458404 259.768281 
L 303.689445 268.042796 
L 303.920486 269.977077 
L 304.151526 262.220197 
L 304.382567 267.827249 
L 304.613607 278.189297 
L 304.844648 264.70626 
L 305.075689 259.012909 
L 305.306729 269.464407 
L 305.76881 261.039512 
L 305.999851 281.737897 
L 306.230892 257.011414 
L 306.461932 256.147488 
L 306.692973 276.264149 
L 306.924013 262.55653 
L 307.617135 284.546645 
L 307.848176 283.641289 
L 308.541297 265.703439 
L 308.772338 280.529041 
L 309.003379 274.8401 
L 309.234419 264.409463 
L 309.46546 278.745131 
L 309.927541 259.363825 
L 310.158582 272.830913 
L 310.389622 265.743721 
L 310.620663 274.49021 
L 310.851703 275.121755 
L 311.082744 270.010567 
L 311.313785 279.241932 
L 311.544825 267.802188 
L 311.775866 272.315707 
L 312.006906 270.251885 
L 312.468988 283.053616 
L 312.700028 275.955725 
L 313.162109 271.23325 
L 313.39315 282.065047 
L 313.624191 267.21491 
L 313.855231 275.986274 
L 314.086272 264.051215 
L 314.317312 266.939637 
L 314.548353 258.34495 
L 314.779393 266.78287 
L 315.010434 269.212652 
L 315.241475 272.868567 
L 315.472515 264.074113 
L 315.703556 282.625081 
L 315.934596 273.801441 
L 316.165637 273.106942 
L 316.396678 280.714865 
L 316.627718 273.86582 
L 316.858759 260.066136 
L 317.089799 290.475402 
L 317.32084 282.193685 
L 317.551881 268.937378 
L 317.782921 271.216617 
L 318.013962 259.473488 
L 318.245002 271.541348 
L 318.476043 269.753652 
L 318.707084 284.425546 
L 319.169165 265.986717 
L 319.400205 256.533679 
L 319.631246 268.049421 
L 319.862287 262.391914 
L 320.093327 265.677501 
L 320.324368 271.261799 
L 320.555408 288.06004 
L 320.786449 273.718549 
L 321.01749 271.82505 
L 321.24853 275.909653 
L 321.479571 282.667242 
L 321.710611 269.782191 
L 321.941652 271.138943 
L 322.172692 291.783093 
L 322.403733 272.286133 
L 322.634774 281.548256 
L 323.096855 265.945082 
L 323.327895 272.601083 
L 323.789977 267.388058 
L 324.021017 275.018222 
L 324.252058 278.127738 
L 324.483098 271.489658 
L 324.714139 277.886314 
L 324.94518 262.758041 
L 325.407261 274.458384 
L 325.638301 273.757848 
L 325.869342 257.026733 
L 326.100383 278.170132 
L 326.331423 278.170967 
L 326.562464 273.92281 
L 326.793504 275.433927 
L 327.024545 273.645686 
L 327.255586 283.991179 
L 327.486626 288.570878 
L 327.717667 270.017583 
L 327.948707 281.427595 
L 328.179748 269.312792 
L 328.410789 285.433768 
L 328.641829 270.430617 
L 328.87287 268.958757 
L 329.10391 277.38065 
L 329.334951 268.828474 
L 329.565991 270.949688 
L 329.797032 260.789197 
L 330.028073 263.240377 
L 330.259113 275.692875 
L 330.721194 280.11377 
L 330.952235 274.096345 
L 331.183276 277.69285 
L 331.414316 273.026368 
L 331.876397 280.32817 
L 332.107438 270.12618 
L 332.107438 270.12618 
" clip-path="url(#pd65550c291)" style="fill: none; stroke: #ff9900; stroke-linecap: square"/>
   </g>
   <g id="line2d_15">
    <path d="M 101.528926 55.8 
L 101.759966 80.743606 
L 101.991007 74.652613 
L 102.222047 88.302388 
L 102.453088 73.287634 
L 102.684129 70.077847 
L 103.14621 105.177716 
L 103.37725 86.607998 
L 103.608291 82.555967 
L 103.839332 99.483796 
L 104.070372 106.162508 
L 104.301413 103.78636 
L 104.532453 120.63133 
L 104.763494 128.49201 
L 104.994535 130.552751 
L 105.225575 137.313501 
L 105.456616 139.520268 
L 105.687656 155.543133 
L 105.918697 136.601311 
L 106.380778 159.395183 
L 106.611819 147.822269 
L 106.842859 149.269632 
L 107.0739 172.213314 
L 107.535981 161.257546 
L 107.767022 171.99586 
L 107.998062 163.469795 
L 108.229103 164.550965 
L 108.460143 168.849204 
L 108.691184 161.755947 
L 108.922225 164.066559 
L 109.153265 164.873589 
L 109.384306 172.416353 
L 109.615346 170.585522 
L 109.846387 180.073089 
L 110.077428 177.855983 
L 110.308468 180.772245 
L 110.539509 174.990608 
L 110.770549 185.998523 
L 111.232631 176.982308 
L 111.463671 192.33162 
L 111.694712 185.039948 
L 111.925752 189.391704 
L 112.156793 185.710928 
L 112.387834 195.193349 
L 112.618874 179.270451 
L 112.849915 197.520781 
L 113.080955 190.19905 
L 113.311996 189.064046 
L 113.543036 188.535885 
L 113.774077 184.4092 
L 114.005118 201.173311 
L 114.236158 199.554941 
L 114.467199 191.689394 
L 114.92928 202.732552 
L 115.160321 203.022748 
L 115.391361 200.864039 
L 115.622402 193.622869 
L 115.853442 207.550635 
L 116.084483 192.240119 
L 116.546564 206.284262 
L 116.777605 204.611232 
L 117.008645 199.269136 
L 117.470727 204.76012 
L 117.701767 225.283204 
L 117.932808 220.623043 
L 118.394889 198.631917 
L 118.62593 223.438233 
L 119.088011 203.580884 
L 119.319051 204.666781 
L 119.550092 204.126928 
L 119.781133 205.533668 
L 120.012173 206.01861 
L 120.243214 207.872522 
L 120.474254 219.939999 
L 120.705295 207.015947 
L 120.936335 214.627548 
L 121.167376 212.342985 
L 121.398417 207.71569 
L 121.629457 220.73914 
L 121.860498 223.942783 
L 122.091538 208.770912 
L 122.322579 208.839758 
L 122.55362 210.629071 
L 122.78466 232.640103 
L 123.015701 218.942634 
L 123.246741 214.535846 
L 123.708823 221.186984 
L 123.939863 219.890062 
L 124.170904 228.781438 
L 124.401944 219.469942 
L 124.864026 230.983832 
L 125.326107 209.639468 
L 125.557147 224.962016 
L 125.788188 221.28 
L 126.019229 223.188688 
L 126.250269 219.335244 
L 126.48131 231.496656 
L 126.71235 229.476002 
L 126.943391 246.484153 
L 127.174432 218.437921 
L 127.405472 229.529878 
L 127.636513 227.69942 
L 127.867553 224.262376 
L 128.098594 230.222428 
L 128.329634 223.86488 
L 128.560675 222.744075 
L 128.791716 230.230824 
L 129.022756 215.924959 
L 129.253797 227.278055 
L 129.484837 226.305794 
L 129.715878 224.469844 
L 129.946919 224.039995 
L 130.177959 227.468885 
L 130.409 224.118108 
L 130.64004 227.53684 
L 130.871081 224.81634 
L 131.102122 224.120555 
L 131.333162 235.751596 
L 131.564203 235.745387 
L 131.795243 225.348469 
L 132.257325 239.178897 
L 132.488365 230.866509 
L 132.719406 229.74866 
L 132.950446 233.873821 
L 133.181487 225.348347 
L 133.412528 225.710419 
L 133.643568 230.835956 
L 133.874609 230.597827 
L 134.105649 234.722051 
L 134.33669 234.762995 
L 134.567731 225.48291 
L 134.798771 230.121043 
L 135.029812 231.189543 
L 135.260852 229.700056 
L 135.491893 238.010239 
L 135.722933 236.817303 
L 135.953974 232.743483 
L 136.185015 222.385435 
L 136.647096 240.496065 
L 136.878136 231.595141 
L 137.109177 233.843337 
L 137.340218 224.914965 
L 137.571258 227.189947 
L 137.802299 231.424156 
L 138.033339 237.752028 
L 138.26438 232.193234 
L 138.495421 237.491136 
L 138.726461 224.578571 
L 139.188542 240.37505 
L 139.419583 234.223944 
L 139.650624 245.190928 
L 139.881664 226.878456 
L 140.112705 237.862614 
L 140.343745 237.11623 
L 140.574786 241.224557 
L 140.805827 239.991362 
L 141.036867 230.881049 
L 141.267908 242.876497 
L 141.498948 238.061738 
L 141.729989 242.550969 
L 141.961029 250.936957 
L 142.19207 240.512064 
L 142.423111 218.836928 
L 142.654151 232.837637 
L 142.885192 237.61078 
L 143.116232 234.062324 
L 143.347273 239.742665 
L 143.809354 242.334215 
L 144.040395 236.71135 
L 144.502476 240.447167 
L 144.733517 234.268664 
L 144.964557 242.129507 
L 145.195598 232.361063 
L 145.426638 235.075973 
L 145.657679 232.325391 
L 145.88872 236.288256 
L 146.11976 246.86331 
L 146.350801 236.553609 
L 146.581841 237.378936 
L 146.812882 236.516641 
L 147.043923 241.056435 
L 147.506004 225.188705 
L 147.737044 238.281252 
L 147.968085 244.71868 
L 148.199126 246.318105 
L 148.430166 231.461963 
L 149.123288 240.231821 
L 149.354328 233.956688 
L 149.81641 238.097121 
L 150.04745 235.030539 
L 150.509531 238.032662 
L 150.740572 242.366498 
L 150.971613 237.404193 
L 151.202653 241.379864 
L 151.433694 258.883241 
L 151.664734 227.557585 
L 151.895775 239.206089 
L 152.126816 236.142859 
L 152.357856 237.427423 
L 152.819937 247.641105 
L 153.050978 239.337449 
L 153.282019 236.444374 
L 153.513059 241.409537 
L 153.7441 236.734179 
L 153.97514 245.767604 
L 154.206181 239.743145 
L 154.437222 249.829877 
L 154.668262 241.440962 
L 154.899303 244.853028 
L 155.130343 229.698187 
L 155.361384 260.214516 
L 155.592425 240.962509 
L 155.823465 237.502324 
L 156.054506 244.775964 
L 156.285546 248.151621 
L 156.516587 236.304456 
L 156.747627 244.707053 
L 156.978668 236.259507 
L 157.209709 234.366702 
L 157.440749 234.989497 
L 157.90283 246.587714 
L 158.133871 245.618264 
L 158.364912 251.351413 
L 158.595952 241.483123 
L 158.826993 241.463217 
L 159.058033 238.351533 
L 159.289074 243.312225 
L 159.520115 245.286937 
L 159.751155 240.532618 
L 159.982196 252.137912 
L 160.213236 249.689725 
L 160.444277 252.376078 
L 160.675318 238.836335 
L 160.906358 244.858813 
L 161.137399 232.894445 
L 161.368439 258.049001 
L 161.59948 239.112774 
L 161.830521 242.091583 
L 162.061561 251.513662 
L 162.292602 247.208669 
L 162.523642 249.774784 
L 162.754683 238.701334 
L 162.985724 237.279514 
L 163.216764 239.472571 
L 163.447805 252.869854 
L 163.678845 244.683311 
L 164.140926 240.484518 
L 164.371967 246.17021 
L 164.603008 244.193064 
L 164.834048 230.601711 
L 165.296129 248.15529 
L 165.52717 241.49432 
L 165.758211 238.55516 
L 165.989251 242.213251 
L 166.220292 242.219204 
L 166.451332 242.110711 
L 166.682373 241.164154 
L 166.913414 246.936938 
L 167.144454 246.16345 
L 167.375495 257.914472 
L 167.606535 243.017143 
L 167.837576 240.780765 
L 168.068617 262.19803 
L 168.299657 255.014801 
L 168.530698 253.519315 
L 168.761738 253.038624 
L 168.992779 248.050633 
L 169.22382 256.171244 
L 169.45486 243.292412 
L 169.685901 260.251307 
L 170.147982 242.851277 
L 170.379023 246.772783 
L 170.610063 246.56 
L 170.841104 254.470817 
L 171.072144 241.956345 
L 171.303185 248.352945 
L 171.534225 250.68978 
L 171.765266 243.576301 
L 171.996307 241.484689 
L 172.227347 243.343869 
L 172.458388 259.148063 
L 172.689428 245.65526 
L 172.920469 248.0331 
L 173.15151 249.174281 
L 173.38255 245.058524 
L 173.613591 251.95435 
L 173.844631 247.625907 
L 174.075672 251.735605 
L 174.537753 263.473517 
L 174.768794 261.290572 
L 174.999834 247.756409 
L 175.230875 252.653202 
L 175.461916 251.370116 
L 175.692956 251.542915 
L 175.923997 253.301684 
L 176.155037 249.798415 
L 176.386078 256.931833 
L 176.848159 245.310181 
L 177.0792 257.713982 
L 177.31024 257.59044 
L 177.541281 243.336531 
L 177.772322 264.714237 
L 178.003362 246.196866 
L 178.234403 257.906803 
L 178.465443 254.748338 
L 178.696484 246.96082 
L 178.927524 248.901973 
L 179.158565 255.423024 
L 179.389606 251.343721 
L 179.620646 252.802892 
L 179.851687 267.413703 
L 180.082727 249.483003 
L 180.313768 255.457982 
L 180.544809 249.05756 
L 181.00689 255.814544 
L 181.23793 259.707426 
L 181.468971 258.731794 
L 181.700012 241.509965 
L 181.931052 253.622107 
L 182.162093 250.749549 
L 182.393133 256.576838 
L 182.624174 253.569988 
L 182.855215 256.229605 
L 183.086255 254.708853 
L 183.317296 259.065671 
L 183.548336 252.989237 
L 183.779377 252.763514 
L 184.010418 245.914017 
L 184.241458 248.700943 
L 184.472499 256.873393 
L 184.703539 253.764422 
L 184.93458 245.593827 
L 185.16562 258.480519 
L 185.396661 249.752576 
L 185.627702 259.721276 
L 185.858742 256.644103 
L 186.089783 260.261772 
L 186.320823 254.617892 
L 186.551864 252.816248 
L 186.782905 257.312127 
L 187.013945 254.728073 
L 187.244986 261.277468 
L 187.476026 261.606361 
L 187.707067 241.351861 
L 188.169148 262.085453 
L 188.400189 243.421515 
L 188.631229 246.322627 
L 188.86227 247.529269 
L 189.093311 251.356159 
L 189.324351 239.886616 
L 189.786432 267.356493 
L 190.248514 252.287858 
L 190.479554 267.3185 
L 190.710595 246.275478 
L 190.941635 256.243302 
L 191.172676 246.806105 
L 191.403717 260.593691 
L 191.634757 250.257792 
L 191.865798 257.719907 
L 192.096838 249.072393 
L 192.327879 261.431153 
L 192.558919 265.134342 
L 192.78996 265.939815 
L 193.252041 262.453244 
L 193.483082 258.42675 
L 193.714122 251.591602 
L 193.945163 262.103913 
L 194.176204 253.969461 
L 194.407244 256.31335 
L 194.638285 261.981364 
L 194.869325 247.154233 
L 195.100366 248.433976 
L 195.562447 258.788574 
L 195.793488 255.618315 
L 196.255569 267.240499 
L 196.48661 261.2252 
L 196.71765 258.63536 
L 197.179731 264.270868 
L 197.410772 250.394699 
L 197.641813 261.172783 
L 198.103894 252.745491 
L 198.334934 267.260129 
L 198.565975 255.880773 
L 198.797016 262.097676 
L 199.259097 253.138927 
L 199.490137 248.706434 
L 199.721178 259.378262 
L 199.952218 259.588434 
L 200.183259 252.055412 
L 200.4143 270.266042 
L 200.64534 270.027065 
L 200.876381 270.258243 
L 201.338462 255.405328 
L 201.569503 260.555092 
L 201.800543 260.484419 
L 202.031584 263.716452 
L 202.262624 251.26063 
L 202.493665 252.175593 
L 203.186787 268.957736 
L 203.417827 248.545864 
L 203.648868 264.253014 
L 203.879909 265.610464 
L 204.110949 257.846479 
L 204.34199 270.336678 
L 204.57303 268.763797 
L 204.804071 257.20306 
L 205.035112 252.732215 
L 205.728233 271.65647 
L 205.959274 263.087852 
L 206.190315 273.441826 
L 206.421355 253.94611 
L 206.652396 261.13753 
L 206.883436 257.110906 
L 207.114477 256.517699 
L 207.345517 259.977627 
L 207.576558 282.738647 
L 208.038639 260.080961 
L 208.26968 265.830207 
L 208.50072 260.404549 
L 208.731761 257.610892 
L 208.962802 258.262436 
L 209.424883 264.191362 
L 209.655923 257.20658 
L 209.886964 264.376052 
L 210.118005 266.707028 
L 210.580086 256.91864 
L 210.811126 257.135301 
L 211.042167 249.810838 
L 211.273208 266.152732 
L 211.504248 258.277186 
L 211.735289 267.391727 
L 211.966329 250.618567 
L 212.19737 264.723355 
L 212.428411 255.265306 
L 212.890492 267.457015 
L 213.121532 264.056095 
L 213.352573 267.294706 
L 213.583614 264.206307 
L 213.814654 272.932405 
L 214.045695 270.479962 
L 214.276735 265.544095 
L 214.507776 275.037932 
L 214.738816 268.343015 
L 214.969857 257.340835 
L 215.200898 274.46533 
L 215.431938 267.04007 
L 215.662979 243.504975 
L 216.12506 269.757078 
L 216.356101 269.574709 
L 216.587141 269.816982 
L 216.818182 272.598519 
L 217.049222 268.999501 
L 217.280263 258.865844 
L 217.511304 262.853747 
L 217.742344 264.047084 
L 217.973385 256.893891 
L 218.204425 263.663252 
L 218.435466 282.206015 
L 218.666507 267.169462 
L 219.128588 250.05024 
L 219.359628 273.896182 
L 220.05275 253.387778 
L 220.283791 255.494731 
L 220.514831 260.378886 
L 220.745872 272.150573 
L 220.976913 266.09728 
L 221.207953 276.118309 
L 221.438994 265.241083 
L 221.670034 264.256063 
L 221.901075 277.718685 
L 222.132115 273.707986 
L 222.363156 285.693518 
L 222.825237 254.294038 
L 223.056278 259.524679 
L 223.287318 275.429806 
L 223.518359 256.406198 
L 223.7494 266.732117 
L 223.98044 270.390498 
L 224.211481 266.508156 
L 224.442521 276.436849 
L 224.673562 275.862032 
L 224.904603 264.921005 
L 225.135643 261.490782 
L 225.366684 271.912146 
L 225.597724 263.213473 
L 225.828765 264.246725 
L 226.059806 262.553752 
L 226.290846 275.67703 
L 226.521887 281.730527 
L 226.752927 264.13956 
L 226.983968 272.335259 
L 227.67709 262.978813 
L 227.90813 266.531651 
L 228.139171 266.494576 
L 228.370211 285.05104 
L 228.601252 279.740179 
L 228.832293 263.526643 
L 229.294374 286.354834 
L 229.525414 256.946336 
L 229.756455 263.227706 
L 229.987496 274.671488 
L 230.218536 257.489228 
L 230.449577 284.187772 
L 230.680617 266.928355 
L 230.911658 267.462661 
L 231.142699 271.819852 
L 231.373739 265.98254 
L 231.60478 275.793001 
L 231.83582 276.385019 
L 232.066861 266.060639 
L 232.297902 266.830625 
L 232.528942 262.129917 
L 232.759983 261.41948 
L 232.991023 270.257577 
L 233.222064 264.041448 
L 233.684145 270.162961 
L 233.915186 268.457802 
L 234.377267 281.212496 
L 234.608308 274.21047 
L 234.839348 271.104781 
L 235.070389 271.761789 
L 235.301429 282.04985 
L 235.53247 268.201651 
L 235.76351 279.456309 
L 235.994551 271.098427 
L 236.225592 275.711653 
L 236.456632 262.607087 
L 236.687673 259.177628 
L 236.918713 273.903552 
L 237.380795 264.162701 
L 237.611835 268.580724 
L 237.842876 276.161972 
L 238.073916 271.006114 
L 238.304957 270.040104 
L 238.535998 272.906681 
L 238.767038 271.857724 
L 238.998079 278.524074 
L 239.229119 271.757211 
L 239.46016 280.293136 
L 239.691201 278.812922 
L 239.922241 281.76494 
L 240.153282 277.931109 
L 240.384322 269.099161 
L 240.615363 266.984413 
L 240.846404 269.698867 
L 241.077444 274.785515 
L 241.308485 269.139406 
L 241.539525 259.899146 
L 241.770566 267.374352 
L 242.001607 265.321811 
L 242.232647 264.669409 
L 242.463688 276.44483 
L 242.694728 275.531685 
L 242.925769 266.128015 
L 243.156809 265.709681 
L 243.38785 258.051584 
L 243.849931 280.433428 
L 244.312012 270.935418 
L 244.543053 280.644453 
L 244.774094 264.591226 
L 245.005134 264.197021 
L 245.236175 260.378387 
L 245.698256 277.138177 
L 245.929297 267.80622 
L 246.160337 278.096225 
L 246.391378 270.515429 
L 246.622418 268.15667 
L 246.853459 272.894066 
L 247.0845 264.248012 
L 247.31554 280.505849 
L 247.546581 274.767245 
L 247.777621 277.432419 
L 248.008662 267.170674 
L 248.239703 276.98659 
L 248.470743 266.547828 
L 248.701784 285.865319 
L 248.932824 270.087067 
L 249.163865 283.555289 
L 249.394906 263.994718 
L 249.625946 265.02521 
L 249.856987 275.399714 
L 250.088027 262.489004 
L 250.319068 271.493103 
L 250.550108 270.019765 
L 250.781149 283.760762 
L 251.24323 267.367779 
L 251.474271 278.355238 
L 251.936352 270.249931 
L 252.398433 278.578346 
L 252.629474 270.077604 
L 252.860514 273.397385 
L 253.091555 281.524835 
L 253.322596 267.850153 
L 253.553636 284.47648 
L 253.784677 281.313969 
L 254.015717 272.510038 
L 254.246758 287.780235 
L 254.477799 281.196618 
L 254.708839 266.954978 
L 254.93988 274.351051 
L 255.17092 269.944225 
L 255.401961 277.651635 
L 255.633002 281.357622 
L 255.864042 268.310807 
L 256.095083 273.620563 
L 256.326123 272.751365 
L 256.557164 284.181842 
L 257.019245 277.416392 
L 257.250286 281.32877 
L 257.481326 273.203823 
L 257.712367 274.199692 
L 257.943407 266.233288 
L 258.174448 276.033908 
L 258.405489 279.640156 
L 258.636529 280.10797 
L 258.86757 268.610797 
L 259.09861 286.364307 
L 259.329651 268.142297 
L 259.560692 266.168233 
L 260.022773 287.042992 
L 260.253813 266.73277 
L 260.484854 284.415537 
L 260.946935 271.70045 
L 261.177976 283.730441 
L 261.409016 265.499957 
L 261.871098 279.783086 
L 262.102138 277.864758 
L 262.333179 267.615357 
L 262.564219 281.365239 
L 262.79526 275.491719 
L 263.026301 280.759529 
L 263.257341 274.264109 
L 263.488382 282.177802 
L 263.719422 277.770702 
L 263.950463 288.505795 
L 264.181504 274.051321 
L 264.412544 298.6962 
L 264.643585 282.877461 
L 264.874625 284.489757 
L 265.105666 277.039869 
L 265.336706 286.34586 
L 265.567747 281.084782 
L 265.798788 273.057322 
L 266.029828 281.061039 
L 266.260869 283.362193 
L 266.491909 277.466809 
L 266.72295 277.633249 
L 266.953991 278.973819 
L 267.185031 281.963411 
L 267.416072 278.21517 
L 267.647112 281.758507 
L 268.109194 268.012145 
L 268.340234 274.605011 
L 268.571275 273.648697 
L 268.802315 271.059646 
L 269.033356 278.77788 
L 269.264397 278.331458 
L 269.495437 280.311933 
L 269.726478 301.229693 
L 269.957518 288.929658 
L 270.188559 289.708586 
L 270.4196 275.754541 
L 270.881681 286.480404 
L 271.112721 289.042571 
L 271.343762 275.367809 
L 271.574802 293.158995 
L 271.805843 277.676114 
L 272.036884 284.356729 
L 272.267924 277.724429 
L 272.498965 278.284617 
L 272.730005 276.060918 
L 272.961046 280.434645 
L 273.192087 293.471712 
L 273.423127 278.424503 
L 273.654168 281.797895 
L 273.885208 276.508314 
L 274.116249 275.532622 
L 274.34729 288.30682 
L 274.57833 277.060661 
L 274.809371 272.97893 
L 275.040411 292.395801 
L 275.271452 284.081819 
L 275.502493 289.20171 
L 275.733533 278.44783 
L 275.964574 276.349259 
L 276.195614 297.236447 
L 276.657696 277.162894 
L 277.119777 280.895131 
L 277.350817 277.316108 
L 277.581858 279.357572 
L 278.043939 286.315955 
L 278.27498 285.5569 
L 278.50602 268.241346 
L 278.737061 284.663157 
L 278.968101 277.694565 
L 279.430183 285.996716 
L 279.892264 281.69775 
L 280.123304 273.539621 
L 280.354345 276.332779 
L 280.585386 292.351887 
L 280.816426 274.425136 
L 281.047467 284.94361 
L 281.278507 273.349966 
L 281.509548 281.907465 
L 281.740589 284.684624 
L 281.971629 272.226513 
L 282.20267 281.262792 
L 282.43371 280.021974 
L 282.664751 284.487571 
L 282.895792 271.087733 
L 283.126832 280.753539 
L 283.357873 271.014431 
L 283.588913 276.674959 
L 284.050995 280.498502 
L 284.282035 291.670236 
L 284.513076 292.178767 
L 284.744116 278.264193 
L 284.975157 280.090367 
L 285.206198 289.551833 
L 285.899319 276.110063 
L 286.13036 291.000347 
L 286.3614 276.995205 
L 286.823482 295.821913 
L 287.054522 274.351219 
L 287.285563 282.239454 
L 287.516603 273.464478 
L 287.978685 290.357385 
L 288.209725 277.555257 
L 288.440766 273.065923 
L 288.671806 279.897626 
L 288.902847 272.180511 
L 289.133888 281.861537 
L 289.364928 286.405125 
L 289.595969 286.247161 
L 289.827009 276.113275 
L 290.289091 294.776471 
L 290.520131 275.049311 
L 290.751172 281.068927 
L 290.982212 295.961831 
L 291.213253 269.241569 
L 291.444294 272.730708 
L 291.675334 286.725781 
L 291.906375 287.03137 
L 292.137415 273.959643 
L 292.368456 276.777551 
L 292.599497 273.690812 
L 292.830537 280.983817 
L 293.061578 283.778327 
L 293.292618 276.316608 
L 293.523659 285.359534 
L 293.754699 287.477592 
L 293.98574 282.357057 
L 294.447821 293.22295 
L 294.678862 287.291004 
L 294.909902 285.475738 
L 295.140943 277.267392 
L 295.371984 296.480161 
L 295.603024 265.615835 
L 295.834065 284.035075 
L 296.065105 282.206192 
L 296.296146 284.56525 
L 296.527187 296.238811 
L 296.758227 282.351752 
L 296.989268 292.484384 
L 297.220308 280.807424 
L 297.451349 285.46427 
L 297.91343 279.639321 
L 298.144471 284.127238 
L 298.375511 286.091867 
L 298.606552 280.387915 
L 298.837593 281.553943 
L 299.068633 294.292866 
L 299.299674 279.154678 
L 299.530714 281.514649 
L 299.761755 293.063867 
L 300.223836 284.381739 
L 300.454877 283.557843 
L 300.916958 276.719731 
L 301.147998 295.53925 
L 301.379039 285.643777 
L 301.61008 283.029878 
L 301.84112 284.304698 
L 302.072161 279.3585 
L 302.303201 290.542546 
L 302.765283 277.715418 
L 302.996323 275.491551 
L 303.227364 282.297288 
L 303.458404 275.727442 
L 303.689445 286.218281 
L 303.920486 286.915856 
L 304.151526 279.14127 
L 304.382567 284.401538 
L 304.613607 294.984423 
L 305.075689 275.063161 
L 305.306729 287.050712 
L 305.76881 278.624307 
L 305.999851 297.770771 
L 306.230892 275.304707 
L 306.461932 273.093423 
L 306.692973 294.348067 
L 306.924013 280.591598 
L 307.617135 301.096277 
L 307.848176 300.994319 
L 308.310257 287.082967 
L 308.541297 283.773838 
L 308.772338 297.942548 
L 309.003379 293.52715 
L 309.234419 281.637744 
L 309.46546 295.369459 
L 309.927541 276.306394 
L 310.158582 289.243405 
L 310.389622 282.554674 
L 310.620663 292.516634 
L 310.851703 291.063267 
L 311.082744 287.347043 
L 311.313785 297.216685 
L 311.544825 284.563096 
L 311.775866 289.399547 
L 312.006906 287.730913 
L 312.237947 292.215455 
L 312.468988 301.170376 
L 312.931069 289.595379 
L 313.162109 289.708339 
L 313.39315 298.638613 
L 313.624191 284.433737 
L 313.855231 292.931407 
L 314.086272 280.838444 
L 314.317312 283.074165 
L 314.548353 276.624803 
L 314.779393 283.938375 
L 315.010434 284.90094 
L 315.241475 289.027117 
L 315.472515 281.627721 
L 315.703556 298.59048 
L 315.934596 290.964601 
L 316.165637 289.931489 
L 316.396678 296.55406 
L 316.627718 291.172302 
L 316.858759 278.562216 
L 317.089799 307.8 
L 317.32084 299.012399 
L 317.551881 285.470228 
L 317.782921 286.384707 
L 318.013962 277.415665 
L 318.245002 288.490024 
L 318.476043 286.145879 
L 318.707084 301.290277 
L 319.169165 283.036381 
L 319.400205 273.688285 
L 319.631246 286.199643 
L 319.862287 278.833835 
L 320.093327 282.600574 
L 320.324368 288.460123 
L 320.555408 303.836156 
L 320.786449 290.974059 
L 321.01749 288.92653 
L 321.24853 291.849384 
L 321.479571 301.494179 
L 321.710611 287.568231 
L 321.941652 287.505567 
L 322.172692 307.63101 
L 322.403733 290.794627 
L 322.634774 298.762635 
L 323.096855 282.031874 
L 323.327895 288.938403 
L 323.558936 287.925678 
L 323.789977 284.038217 
L 324.021017 293.024381 
L 324.252058 295.473649 
L 324.483098 288.551746 
L 324.714139 296.794934 
L 324.94518 279.018442 
L 325.407261 291.348778 
L 325.638301 290.340402 
L 325.869342 275.793099 
L 326.100383 294.367031 
L 326.331423 295.751319 
L 326.562464 290.690604 
L 326.793504 293.47973 
L 327.024545 290.503974 
L 327.486626 305.897806 
L 327.717667 288.282337 
L 327.948707 298.274407 
L 328.179748 285.554569 
L 328.410789 302.182584 
L 328.641829 288.578453 
L 328.87287 285.550415 
L 329.10391 293.487035 
L 329.334951 283.863824 
L 329.565991 289.229858 
L 329.797032 279.505234 
L 330.028073 279.549829 
L 330.259113 292.627253 
L 330.721194 297.793287 
L 330.952235 292.296999 
L 331.183276 294.565334 
L 331.414316 290.454849 
L 331.876397 298.480625 
L 332.107438 287.045183 
L 332.107438 287.045183 
" clip-path="url(#pd65550c291)" style="fill: none; stroke: #9933cc; stroke-linecap: square"/>
   </g>
   <g id="patch_3">
    <path d="M 90 320.4 
L 90 43.2 
" style="fill: none; stroke: #ffffff; stroke-width: 0.8; stroke-linejoin: miter; stroke-linecap: square"/>
   </g>
   <g id="patch_4">
    <path d="M 90 320.4 
L 343.636364 320.4 
" style="fill: none; stroke: #ffffff; stroke-width: 0.8; stroke-linejoin: miter; stroke-linecap: square"/>
   </g>
   <g id="text_16">
    <!-- Qwen2-1.5B Training -->
    <g transform="translate(138.783682 37.2) scale(0.144 -0.144)" fill="#ffffff">
     <defs>
      <path id="DejaVuSerif-51" d="M 2700 -91 
Q 1628 -91 993 567 
Q 359 1225 359 2328 
Q 359 2894 529 3339 
Q 700 3784 1050 4134 
Q 1356 4441 1750 4595 
Q 2144 4750 2625 4750 
Q 3641 4750 4266 4084 
Q 4891 3419 4891 2328 
Q 4891 1403 4422 773 
Q 3953 144 3128 -38 
Q 3297 -247 3539 -347 
Q 3781 -447 4122 -447 
L 4219 -447 
L 4219 -1025 
Q 3691 -1000 3314 -767 
Q 2938 -534 2700 -91 
z
M 2625 244 
Q 3391 244 3781 770 
Q 4172 1297 4172 2328 
Q 4172 3363 3781 3889 
Q 3391 4416 2625 4416 
Q 1856 4416 1465 3889 
Q 1075 3363 1075 2328 
Q 1075 1297 1465 770 
Q 1856 244 2625 244 
z
" transform="scale(0.015625)"/>
      <path id="DejaVuSerif-77" d="M 3072 3322 
L 3922 728 
L 4672 2988 
L 4191 2988 
L 4191 3322 
L 5394 3322 
L 5394 2988 
L 5025 2988 
L 4038 0 
L 3559 0 
L 2741 2484 
L 1919 0 
L 1459 0 
L 475 2988 
L 103 2988 
L 103 3322 
L 1606 3322 
L 1606 2988 
L 1069 2988 
L 1813 728 
L 2669 3322 
L 3072 3322 
z
" transform="scale(0.015625)"/>
      <path id="DejaVuSerif-2d" d="M 281 1959 
L 1881 1959 
L 1881 1472 
L 281 1472 
L 281 1959 
z
" transform="scale(0.015625)"/>
      <path id="DejaVuSerif-2e" d="M 603 325 
Q 603 500 722 622 
Q 841 744 1019 744 
Q 1191 744 1312 622 
Q 1434 500 1434 325 
Q 1434 153 1312 31 
Q 1191 -91 1019 -91 
Q 841 -91 722 29 
Q 603 150 603 325 
z
" transform="scale(0.015625)"/>
      <path id="DejaVuSerif-35" d="M 3219 4666 
L 3219 4153 
L 1081 4153 
L 1081 2816 
Q 1244 2928 1461 2984 
Q 1678 3041 1947 3041 
Q 2703 3041 3140 2622 
Q 3578 2203 3578 1478 
Q 3578 738 3136 323 
Q 2694 -91 1894 -91 
Q 1572 -91 1234 -12 
Q 897 66 544 225 
L 544 1131 
L 897 1131 
Q 925 688 1179 453 
Q 1434 219 1894 219 
Q 2388 219 2653 544 
Q 2919 869 2919 1478 
Q 2919 2084 2655 2407 
Q 2391 2731 1894 2731 
Q 1613 2731 1398 2631 
Q 1184 2531 1019 2322 
L 750 2322 
L 750 4666 
L 3219 4666 
z
" transform="scale(0.015625)"/>
      <path id="DejaVuSerif-42" d="M 1581 331 
L 2516 331 
Q 3078 331 3337 575 
Q 3597 819 3597 1350 
Q 3597 1878 3339 2120 
Q 3081 2363 2516 2363 
L 1581 2363 
L 1581 331 
z
M 1581 2694 
L 2375 2694 
Q 2888 2694 3123 2891 
Q 3359 3088 3359 3513 
Q 3359 3941 3123 4136 
Q 2888 4331 2375 4331 
L 1581 4331 
L 1581 2694 
z
M 353 0 
L 353 331 
L 947 331 
L 947 4331 
L 353 4331 
L 353 4666 
L 2656 4666 
Q 3363 4666 3720 4377 
Q 4078 4088 4078 3513 
Q 4078 3097 3829 2850 
Q 3581 2603 3103 2547 
Q 3697 2472 4005 2167 
Q 4313 1863 4313 1350 
Q 4313 656 3875 328 
Q 3438 0 2509 0 
L 353 0 
z
" transform="scale(0.015625)"/>
     </defs>
     <use xlink:href="#DejaVuSerif-51"/>
     <use xlink:href="#DejaVuSerif-77" transform="translate(81.982422 0)"/>
     <use xlink:href="#DejaVuSerif-65" transform="translate(167.578125 0)"/>
     <use xlink:href="#DejaVuSerif-6e" transform="translate(226.757812 0)"/>
     <use xlink:href="#DejaVuSerif-32" transform="translate(291.162109 0)"/>
     <use xlink:href="#DejaVuSerif-2d" transform="translate(354.785156 0)"/>
     <use xlink:href="#DejaVuSerif-31" transform="translate(388.574219 0)"/>
     <use xlink:href="#DejaVuSerif-2e" transform="translate(452.197266 0)"/>
     <use xlink:href="#DejaVuSerif-35" transform="translate(483.984375 0)"/>
     <use xlink:href="#DejaVuSerif-42" transform="translate(547.607422 0)"/>
     <use xlink:href="#DejaVuSerif-20" transform="translate(621.09375 0)"/>
     <use xlink:href="#DejaVuSerif-54" transform="translate(652.880859 0)"/>
     <use xlink:href="#DejaVuSerif-72" transform="translate(719.580078 0)"/>
     <use xlink:href="#DejaVuSerif-61" transform="translate(767.382812 0)"/>
     <use xlink:href="#DejaVuSerif-69" transform="translate(827.001953 0)"/>
     <use xlink:href="#DejaVuSerif-6e" transform="translate(858.984375 0)"/>
     <use xlink:href="#DejaVuSerif-69" transform="translate(923.388672 0)"/>
     <use xlink:href="#DejaVuSerif-6e" transform="translate(955.371094 0)"/>
     <use xlink:href="#DejaVuSerif-67" transform="translate(1019.775391 0)"/>
    </g>
   </g>
   <g id="legend_1"/>
  </g>
  <g id="axes_2">
   <g id="patch_5">
    <path d="M 394.363636 320.4 
L 648 320.4 
L 648 43.2 
L 394.363636 43.2 
L 394.363636 320.4 
z
" style="fill: none"/>
   </g>
   <g id="FillBetweenPolyCollection_3"/>
   <g id="FillBetweenPolyCollection_4"/>
   <g id="matplotlib.axis_3">
    <g id="xtick_7">
     <g id="line2d_16">
      <g>
       <use xlink:href="#me8c95b2b7c" x="435.003099" y="320.4" style="stroke: #ffffff; stroke-width: 0.8" fill="#ffffff"/>
      </g>
     </g>
     <g id="text_17">
      <!-- 200 -->
      <g transform="translate(423.550599 336.518125) scale(0.12 -0.12)" fill="#ffffff">
       <use xlink:href="#DejaVuSerif-32"/>
       <use xlink:href="#DejaVuSerif-30" transform="translate(63.623047 0)"/>
       <use xlink:href="#DejaVuSerif-30" transform="translate(127.246094 0)"/>
      </g>
     </g>
    </g>
    <g id="xtick_8">
     <g id="line2d_17">
      <g>
       <use xlink:href="#me8c95b2b7c" x="492.647727" y="320.4" style="stroke: #ffffff; stroke-width: 0.8" fill="#ffffff"/>
      </g>
     </g>
     <g id="text_18">
      <!-- 400 -->
      <g transform="translate(481.195227 336.518125) scale(0.12 -0.12)" fill="#ffffff">
       <use xlink:href="#DejaVuSerif-34"/>
       <use xlink:href="#DejaVuSerif-30" transform="translate(63.623047 0)"/>
       <use xlink:href="#DejaVuSerif-30" transform="translate(127.246094 0)"/>
      </g>
     </g>
    </g>
    <g id="xtick_9">
     <g id="line2d_18">
      <g>
       <use xlink:href="#me8c95b2b7c" x="550.292355" y="320.4" style="stroke: #ffffff; stroke-width: 0.8" fill="#ffffff"/>
      </g>
     </g>
     <g id="text_19">
      <!-- 600 -->
      <g transform="translate(538.839855 336.518125) scale(0.12 -0.12)" fill="#ffffff">
       <use xlink:href="#DejaVuSerif-36"/>
       <use xlink:href="#DejaVuSerif-30" transform="translate(63.623047 0)"/>
       <use xlink:href="#DejaVuSerif-30" transform="translate(127.246094 0)"/>
      </g>
     </g>
    </g>
    <g id="xtick_10">
     <g id="line2d_19">
      <g>
       <use xlink:href="#me8c95b2b7c" x="607.936983" y="320.4" style="stroke: #ffffff; stroke-width: 0.8" fill="#ffffff"/>
      </g>
     </g>
     <g id="text_20">
      <!-- 800 -->
      <g transform="translate(596.484483 336.518125) scale(0.12 -0.12)" fill="#ffffff">
       <use xlink:href="#DejaVuSerif-38"/>
       <use xlink:href="#DejaVuSerif-30" transform="translate(63.623047 0)"/>
       <use xlink:href="#DejaVuSerif-30" transform="translate(127.246094 0)"/>
      </g>
     </g>
    </g>
    <g id="text_21">
     <!-- Training Steps -->
     <g transform="translate(476.427443 351.96125) scale(0.12 -0.12)" fill="#ffffff">
      <use xlink:href="#DejaVuSerif-54"/>
      <use xlink:href="#DejaVuSerif-72" transform="translate(66.699219 0)"/>
      <use xlink:href="#DejaVuSerif-61" transform="translate(114.501953 0)"/>
      <use xlink:href="#DejaVuSerif-69" transform="translate(174.121094 0)"/>
      <use xlink:href="#DejaVuSerif-6e" transform="translate(206.103516 0)"/>
      <use xlink:href="#DejaVuSerif-69" transform="translate(270.507812 0)"/>
      <use xlink:href="#DejaVuSerif-6e" transform="translate(302.490234 0)"/>
      <use xlink:href="#DejaVuSerif-67" transform="translate(366.894531 0)"/>
      <use xlink:href="#DejaVuSerif-20" transform="translate(430.908203 0)"/>
      <use xlink:href="#DejaVuSerif-53" transform="translate(462.695312 0)"/>
      <use xlink:href="#DejaVuSerif-74" transform="translate(531.201172 0)"/>
      <use xlink:href="#DejaVuSerif-65" transform="translate(571.386719 0)"/>
      <use xlink:href="#DejaVuSerif-70" transform="translate(630.566406 0)"/>
      <use xlink:href="#DejaVuSerif-73" transform="translate(694.580078 0)"/>
     </g>
    </g>
   </g>
   <g id="matplotlib.axis_4">
    <g id="ytick_8">
     <g id="line2d_20">
      <g>
       <use xlink:href="#m66eb6273ee" x="394.363636" y="283.485073" style="stroke: #ffffff; stroke-width: 0.8"/>
      </g>
     </g>
     <g id="text_22">
      <!-- 7 -->
      <g transform="translate(379.728636 288.044136) scale(0.12 -0.12)" fill="#ffffff">
       <use xlink:href="#DejaVuSerif-37"/>
      </g>
     </g>
    </g>
    <g id="ytick_9">
     <g id="line2d_21">
      <g>
       <use xlink:href="#m66eb6273ee" x="394.363636" y="239.769593" style="stroke: #ffffff; stroke-width: 0.8"/>
      </g>
     </g>
     <g id="text_23">
      <!-- 8 -->
      <g transform="translate(379.728636 244.328655) scale(0.12 -0.12)" fill="#ffffff">
       <use xlink:href="#DejaVuSerif-38"/>
      </g>
     </g>
    </g>
    <g id="ytick_10">
     <g id="line2d_22">
      <g>
       <use xlink:href="#m66eb6273ee" x="394.363636" y="196.054112" style="stroke: #ffffff; stroke-width: 0.8"/>
      </g>
     </g>
     <g id="text_24">
      <!-- 9 -->
      <g transform="translate(379.728636 200.613175) scale(0.12 -0.12)" fill="#ffffff">
       <use xlink:href="#DejaVuSerif-39"/>
      </g>
     </g>
    </g>
    <g id="ytick_11">
     <g id="line2d_23">
      <g>
       <use xlink:href="#m66eb6273ee" x="394.363636" y="152.338632" style="stroke: #ffffff; stroke-width: 0.8"/>
      </g>
     </g>
     <g id="text_25">
      <!-- 10 -->
      <g transform="translate(372.093636 156.897695) scale(0.12 -0.12)" fill="#ffffff">
       <use xlink:href="#DejaVuSerif-31"/>
       <use xlink:href="#DejaVuSerif-30" transform="translate(63.623047 0)"/>
      </g>
     </g>
    </g>
    <g id="ytick_12">
     <g id="line2d_24">
      <g>
       <use xlink:href="#m66eb6273ee" x="394.363636" y="108.623152" style="stroke: #ffffff; stroke-width: 0.8"/>
      </g>
     </g>
     <g id="text_26">
      <!-- 11 -->
      <g transform="translate(372.093636 113.182214) scale(0.12 -0.12)" fill="#ffffff">
       <use xlink:href="#DejaVuSerif-31"/>
       <use xlink:href="#DejaVuSerif-31" transform="translate(63.623047 0)"/>
      </g>
     </g>
    </g>
    <g id="ytick_13">
     <g id="line2d_25">
      <g>
       <use xlink:href="#m66eb6273ee" x="394.363636" y="64.907671" style="stroke: #ffffff; stroke-width: 0.8"/>
      </g>
     </g>
     <g id="text_27">
      <!-- 12 -->
      <g transform="translate(372.093636 69.466734) scale(0.12 -0.12)" fill="#ffffff">
       <use xlink:href="#DejaVuSerif-31"/>
       <use xlink:href="#DejaVuSerif-32" transform="translate(63.623047 0)"/>
      </g>
     </g>
    </g>
    <g id="text_28">
     <!-- Validation Cross Entropy -->
     <g transform="translate(365.427386 257.635312) rotate(-90) scale(0.12 -0.12)" fill="#ffffff">
      <defs>
       <path id="DejaVuSerif-56" d="M 1119 4331 
L 2497 750 
L 3872 4331 
L 3347 4331 
L 3347 4666 
L 4716 4666 
L 4716 4331 
L 4263 4331 
L 2597 0 
L 2059 0 
L 403 4331 
L -63 4331 
L -63 4666 
L 1638 4666 
L 1638 4331 
L 1119 4331 
z
" transform="scale(0.015625)"/>
       <path id="DejaVuSerif-6c" d="M 1313 331 
L 1856 331 
L 1856 0 
L 184 0 
L 184 331 
L 738 331 
L 738 4531 
L 184 4531 
L 184 4863 
L 1313 4863 
L 1313 331 
z
" transform="scale(0.015625)"/>
       <path id="DejaVuSerif-64" d="M 3359 331 
L 3909 331 
L 3909 0 
L 2784 0 
L 2784 519 
Q 2616 206 2355 57 
Q 2094 -91 1709 -91 
Q 1097 -91 708 395 
Q 319 881 319 1663 
Q 319 2444 706 2928 
Q 1094 3413 1709 3413 
Q 2094 3413 2355 3264 
Q 2616 3116 2784 2803 
L 2784 4531 
L 2241 4531 
L 2241 4863 
L 3359 4863 
L 3359 331 
z
M 2784 1497 
L 2784 1825 
Q 2784 2422 2554 2737 
Q 2325 3053 1888 3053 
Q 1444 3053 1217 2703 
Q 991 2353 991 1663 
Q 991 975 1217 622 
Q 1444 269 1888 269 
Q 2325 269 2554 583 
Q 2784 897 2784 1497 
z
" transform="scale(0.015625)"/>
       <path id="DejaVuSerif-43" d="M 4513 1234 
Q 4306 581 3820 245 
Q 3334 -91 2591 -91 
Q 2134 -91 1743 65 
Q 1353 222 1050 525 
Q 700 875 529 1320 
Q 359 1766 359 2328 
Q 359 3416 987 4083 
Q 1616 4750 2644 4750 
Q 3025 4750 3456 4650 
Q 3888 4550 4384 4347 
L 4384 3272 
L 4031 3272 
Q 3916 3859 3567 4137 
Q 3219 4416 2591 4416 
Q 1844 4416 1459 3886 
Q 1075 3356 1075 2328 
Q 1075 1303 1459 773 
Q 1844 244 2591 244 
Q 3113 244 3450 492 
Q 3788 741 3938 1234 
L 4513 1234 
z
" transform="scale(0.015625)"/>
       <path id="DejaVuSerif-45" d="M 353 0 
L 353 331 
L 947 331 
L 947 4331 
L 353 4331 
L 353 4666 
L 4109 4666 
L 4109 3628 
L 3725 3628 
L 3725 4281 
L 1581 4281 
L 1581 2719 
L 3109 2719 
L 3109 3303 
L 3494 3303 
L 3494 1753 
L 3109 1753 
L 3109 2338 
L 1581 2338 
L 1581 384 
L 3775 384 
L 3775 1038 
L 4159 1038 
L 4159 0 
L 353 0 
z
" transform="scale(0.015625)"/>
       <path id="DejaVuSerif-79" d="M 1381 -609 
L 1600 -56 
L 359 2988 
L -19 2988 
L -19 3322 
L 1509 3322 
L 1509 2988 
L 978 2988 
L 1913 703 
L 2847 2988 
L 2350 2988 
L 2350 3322 
L 3597 3322 
L 3597 2988 
L 3225 2988 
L 1703 -750 
Q 1547 -1138 1356 -1280 
Q 1166 -1422 819 -1422 
Q 672 -1422 517 -1397 
Q 363 -1372 206 -1325 
L 206 -691 
L 500 -691 
Q 519 -903 608 -995 
Q 697 -1088 884 -1088 
Q 1056 -1088 1161 -992 
Q 1266 -897 1381 -609 
z
" transform="scale(0.015625)"/>
      </defs>
      <use xlink:href="#DejaVuSerif-56"/>
      <use xlink:href="#DejaVuSerif-61" transform="translate(63.091797 0)"/>
      <use xlink:href="#DejaVuSerif-6c" transform="translate(122.710938 0)"/>
      <use xlink:href="#DejaVuSerif-69" transform="translate(154.693359 0)"/>
      <use xlink:href="#DejaVuSerif-64" transform="translate(186.675781 0)"/>
      <use xlink:href="#DejaVuSerif-61" transform="translate(250.689453 0)"/>
      <use xlink:href="#DejaVuSerif-74" transform="translate(310.308594 0)"/>
      <use xlink:href="#DejaVuSerif-69" transform="translate(350.494141 0)"/>
      <use xlink:href="#DejaVuSerif-6f" transform="translate(382.476562 0)"/>
      <use xlink:href="#DejaVuSerif-6e" transform="translate(442.681641 0)"/>
      <use xlink:href="#DejaVuSerif-20" transform="translate(507.085938 0)"/>
      <use xlink:href="#DejaVuSerif-43" transform="translate(538.873047 0)"/>
      <use xlink:href="#DejaVuSerif-72" transform="translate(615.386719 0)"/>
      <use xlink:href="#DejaVuSerif-6f" transform="translate(663.189453 0)"/>
      <use xlink:href="#DejaVuSerif-73" transform="translate(723.394531 0)"/>
      <use xlink:href="#DejaVuSerif-73" transform="translate(774.712891 0)"/>
      <use xlink:href="#DejaVuSerif-20" transform="translate(826.03125 0)"/>
      <use xlink:href="#DejaVuSerif-45" transform="translate(857.818359 0)"/>
      <use xlink:href="#DejaVuSerif-6e" transform="translate(930.816406 0)"/>
      <use xlink:href="#DejaVuSerif-74" transform="translate(995.220703 0)"/>
      <use xlink:href="#DejaVuSerif-72" transform="translate(1035.40625 0)"/>
      <use xlink:href="#DejaVuSerif-6f" transform="translate(1083.208984 0)"/>
      <use xlink:href="#DejaVuSerif-70" transform="translate(1143.414062 0)"/>
      <use xlink:href="#DejaVuSerif-79" transform="translate(1207.427734 0)"/>
     </g>
    </g>
   </g>
   <g id="line2d_26">
    <path d="M 405.892562 55.8 
L 434.714876 208.793819 
L 463.53719 243.468851 
L 492.359504 257.004189 
L 521.181818 266.000109 
L 550.004132 272.504714 
L 578.826446 278.851879 
L 607.64876 284.463373 
L 636.471074 289.263647 
" clip-path="url(#p8232833f05)" style="fill: none; stroke: #ff9900; stroke-linecap: square"/>
   </g>
   <g id="line2d_27">
    <path d="M 405.892562 55.8 
L 434.714876 241.181547 
L 463.53719 260.298412 
L 492.359504 270.967418 
L 521.181818 281.242729 
L 550.004132 289.702901 
L 578.826446 296.884687 
L 607.64876 303.360762 
L 636.471074 307.8 
" clip-path="url(#p8232833f05)" style="fill: none; stroke: #9933cc; stroke-linecap: square"/>
   </g>
   <g id="patch_6">
    <path d="M 394.363636 320.4 
L 394.363636 43.2 
" style="fill: none; stroke: #ffffff; stroke-width: 0.8; stroke-linejoin: miter; stroke-linecap: square"/>
   </g>
   <g id="patch_7">
    <path d="M 394.363636 320.4 
L 648 320.4 
" style="fill: none; stroke: #ffffff; stroke-width: 0.8; stroke-linejoin: miter; stroke-linecap: square"/>
   </g>
   <g id="text_29">
    <!-- Qwen2-1.5B Validation -->
    <g transform="translate(437.661818 37.2) scale(0.144 -0.144)" fill="#ffffff">
     <use xlink:href="#DejaVuSerif-51"/>
     <use xlink:href="#DejaVuSerif-77" transform="translate(81.982422 0)"/>
     <use xlink:href="#DejaVuSerif-65" transform="translate(167.578125 0)"/>
     <use xlink:href="#DejaVuSerif-6e" transform="translate(226.757812 0)"/>
     <use xlink:href="#DejaVuSerif-32" transform="translate(291.162109 0)"/>
     <use xlink:href="#DejaVuSerif-2d" transform="translate(354.785156 0)"/>
     <use xlink:href="#DejaVuSerif-31" transform="translate(388.574219 0)"/>
     <use xlink:href="#DejaVuSerif-2e" transform="translate(452.197266 0)"/>
     <use xlink:href="#DejaVuSerif-35" transform="translate(483.984375 0)"/>
     <use xlink:href="#DejaVuSerif-42" transform="translate(547.607422 0)"/>
     <use xlink:href="#DejaVuSerif-20" transform="translate(621.09375 0)"/>
     <use xlink:href="#DejaVuSerif-56" transform="translate(652.880859 0)"/>
     <use xlink:href="#DejaVuSerif-61" transform="translate(715.972656 0)"/>
     <use xlink:href="#DejaVuSerif-6c" transform="translate(775.591797 0)"/>
     <use xlink:href="#DejaVuSerif-69" transform="translate(807.574219 0)"/>
     <use xlink:href="#DejaVuSerif-64" transform="translate(839.556641 0)"/>
     <use xlink:href="#DejaVuSerif-61" transform="translate(903.570312 0)"/>
     <use xlink:href="#DejaVuSerif-74" transform="translate(963.189453 0)"/>
     <use xlink:href="#DejaVuSerif-69" transform="translate(1003.375 0)"/>
     <use xlink:href="#DejaVuSerif-6f" transform="translate(1035.357422 0)"/>
     <use xlink:href="#DejaVuSerif-6e" transform="translate(1095.5625 0)"/>
    </g>
   </g>
   <g id="legend_2">
    <g id="patch_8">
     <path d="M 550.595625 88.0275 
L 639.6 88.0275 
Q 642 88.0275 642 85.6275 
L 642 51.6 
Q 642 49.2 639.6 49.2 
L 550.595625 49.2 
Q 548.195625 49.2 548.195625 51.6 
L 548.195625 85.6275 
Q 548.195625 88.0275 550.595625 88.0275 
z
" style="fill: #ffffff; opacity: 0.8; stroke: #cccccc; stroke-linejoin: miter"/>
    </g>
    <g id="line2d_28">
     <path d="M 552.995625 58.918125 
L 564.995625 58.918125 
L 576.995625 58.918125 
" style="fill: none; stroke: #ff9900; stroke-linecap: square"/>
    </g>
    <g id="text_30">
     <!-- baseline -->
     <g transform="translate(586.595625 63.118125) scale(0.12 -0.12)">
      <defs>
       <path id="DejaVuSerif-62" d="M 738 331 
L 738 4531 
L 184 4531 
L 184 4863 
L 1313 4863 
L 1313 2803 
Q 1481 3116 1742 3264 
Q 2003 3413 2388 3413 
Q 3000 3413 3387 2928 
Q 3775 2444 3775 1663 
Q 3775 881 3387 395 
Q 3000 -91 2388 -91 
Q 2003 -91 1742 57 
Q 1481 206 1313 519 
L 1313 0 
L 184 0 
L 184 331 
L 738 331 
z
M 1313 1497 
Q 1313 897 1542 583 
Q 1772 269 2209 269 
Q 2650 269 2876 622 
Q 3103 975 3103 1663 
Q 3103 2353 2876 2703 
Q 2650 3053 2209 3053 
Q 1772 3053 1542 2737 
Q 1313 2422 1313 1825 
L 1313 1497 
z
" transform="scale(0.015625)"/>
      </defs>
      <use xlink:href="#DejaVuSerif-62"/>
      <use xlink:href="#DejaVuSerif-61" transform="translate(64.013672 0)"/>
      <use xlink:href="#DejaVuSerif-73" transform="translate(123.632812 0)"/>
      <use xlink:href="#DejaVuSerif-65" transform="translate(174.951172 0)"/>
      <use xlink:href="#DejaVuSerif-6c" transform="translate(234.130859 0)"/>
      <use xlink:href="#DejaVuSerif-69" transform="translate(266.113281 0)"/>
      <use xlink:href="#DejaVuSerif-6e" transform="translate(298.095703 0)"/>
      <use xlink:href="#DejaVuSerif-65" transform="translate(362.5 0)"/>
     </g>
    </g>
    <g id="line2d_29">
     <path d="M 552.995625 76.531875 
L 564.995625 76.531875 
L 576.995625 76.531875 
" style="fill: none; stroke: #9933cc; stroke-linecap: square"/>
    </g>
    <g id="text_31">
     <!-- L2L -->
     <g transform="translate(586.595625 80.731875) scale(0.12 -0.12)">
      <defs>
       <path id="DejaVuSerif-6b" d="M 1831 0 
L 219 0 
L 219 331 
L 738 331 
L 738 4531 
L 184 4531 
L 184 4863 
L 1313 4863 
L 1313 1697 
L 2713 2988 
L 2234 2988 
L 2234 3322 
L 3738 3322 
L 3738 2988 
L 3169 2988 
L 2181 2075 
L 3444 331 
L 3922 331 
L 3922 0 
L 2284 0 
L 2284 331 
L 2759 331 
L 1766 1697 
L 1313 1275 
L 1313 331 
L 1831 331 
L 1831 0 
z
" transform="scale(0.015625)"/>
       <path id="DejaVuSerif-76" d="M 1581 0 
L 359 2988 
L -19 2988 
L -19 3322 
L 1509 3322 
L 1509 2988 
L 978 2988 
L 1913 703 
L 2847 2988 
L 2350 2988 
L 2350 3322 
L 3597 3322 
L 3597 2988 
L 3225 2988 
L 2003 0 
L 1581 0 
z
" transform="scale(0.015625)"/>
      </defs>
      <use xlink:href="#DejaVuSerif-6b"/>
      <use xlink:href="#DejaVuSerif-6c" transform="translate(60.595703 0)"/>
      <use xlink:href="#DejaVuSerif-65" transform="translate(92.578125 0)"/>
      <use xlink:href="#DejaVuSerif-76" transform="translate(151.757812 0)"/>
      <use xlink:href="#DejaVuSerif-65" transform="translate(208.251953 0)"/>
      <use xlink:href="#DejaVuSerif-6c" transform="translate(267.431641 0)"/>
     </g>
    </g>
   </g>
  </g>
 </g>
 <defs>
  <clipPath id="pd65550c291">
   <rect x="90" y="43.2" width="253.636364" height="277.2"/>
  </clipPath>
  <clipPath id="p8232833f05">
   <rect x="394.363636" y="43.2" width="253.636364" height="277.2"/>
  </clipPath>
 </defs>
</svg>
