<?xml version="1.0" encoding="utf-8" standalone="no"?>
<!DOCTYPE svg PUBLIC "-//W3C//DTD SVG 1.1//EN"
  "http://www.w3.org/Graphics/SVG/1.1/DTD/svg11.dtd">
<svg xmlns:xlink="http://www.w3.org/1999/xlink" width="720pt" height="360pt" viewBox="0 0 720 360" xmlns="http://www.w3.org/2000/svg" version="1.1">
 <metadata>
  <rdf:RDF xmlns:dc="http://purl.org/dc/elements/1.1/" xmlns:cc="http://creativecommons.org/ns#" xmlns:rdf="http://www.w3.org/1999/02/22-rdf-syntax-ns#">
   <cc:Work>
    <dc:type rdf:resource="http://purl.org/dc/dcmitype/StillImage"/>
    <dc:date>2025-10-14T15:58:41.773352</dc:date>
    <dc:format>image/svg+xml</dc:format>
    <dc:creator>
     <cc:Agent>
      <dc:title>Matplotlib v3.10.5, https://matplotlib.org/</dc:title>
     </cc:Agent>
    </dc:creator>
   </cc:Work>
  </rdf:RDF>
 </metadata>
 <defs>
  <style type="text/css">*{stroke-linejoin: round; stroke-linecap: butt}</style>
 </defs>
 <g id="figure_1">
  <g id="patch_1">
   <path d="M 0 360 
L 720 360 
L 720 0 
L 0 0 
L 0 360 
z
" style="fill: none"/>
  </g>
  <g id="axes_1">
   <g id="patch_2">
    <path d="M 90 320.4 
L 343.636364 320.4 
L 343.636364 43.2 
L 90 43.2 
L 90 320.4 
z
" style="fill: none"/>
   </g>
   <g id="FillBetweenPolyCollection_1"/>
   <g id="FillBetweenPolyCollection_2"/>
   <g id="matplotlib.axis_1">
    <g id="xtick_1">
     <g id="line2d_1">
      <defs>
       <path id="m34775e0c66" d="M 0 0 
L 0 3.5 
" style="stroke: #ffffff; stroke-width: 0.8"/>
      </defs>
      <g>
       <use xlink:href="#m34775e0c66" x="101.297885" y="320.4" style="stroke: #ffffff; stroke-width: 0.8"/>
      </g>
     </g>
     <g id="text_1">
      <!-- 0 -->
      <g transform="translate(97.480385 336.518125) scale(0.12 -0.12)" fill="#ffffff">
       <defs>
        <path id="DejaVuSerif-30" d="M 2034 219 
Q 2513 219 2750 744 
Q 2988 1269 2988 2328 
Q 2988 3391 2750 3916 
Q 2513 4441 2034 4441 
Q 1556 4441 1318 3916 
Q 1081 3391 1081 2328 
Q 1081 1269 1318 744 
Q 1556 219 2034 219 
z
M 2034 -91 
Q 1275 -91 848 546 
Q 422 1184 422 2328 
Q 422 3475 848 4112 
Q 1275 4750 2034 4750 
Q 2797 4750 3222 4112 
Q 3647 3475 3647 2328 
Q 3647 1184 3222 546 
Q 2797 -91 2034 -91 
z
" transform="scale(0.015625)"/>
       </defs>
       <use xlink:href="#DejaVuSerif-30"/>
      </g>
     </g>
    </g>
    <g id="xtick_2">
     <g id="line2d_2">
      <g>
       <use xlink:href="#m34775e0c66" x="147.506004" y="320.4" style="stroke: #ffffff; stroke-width: 0.8"/>
      </g>
     </g>
     <g id="text_2">
      <!-- 200 -->
      <g transform="translate(136.053504 336.518125) scale(0.12 -0.12)" fill="#ffffff">
       <defs>
        <path id="DejaVuSerif-32" d="M 819 3553 
L 469 3553 
L 469 4384 
Q 803 4563 1142 4656 
Q 1481 4750 1806 4750 
Q 2534 4750 2956 4397 
Q 3378 4044 3378 3438 
Q 3378 2753 2422 1800 
Q 2347 1728 2309 1691 
L 1131 513 
L 3078 513 
L 3078 1088 
L 3444 1088 
L 3444 0 
L 434 0 
L 434 341 
L 1850 1753 
Q 2319 2222 2519 2614 
Q 2719 3006 2719 3438 
Q 2719 3909 2473 4175 
Q 2228 4441 1797 4441 
Q 1350 4441 1106 4219 
Q 863 3997 819 3553 
z
" transform="scale(0.015625)"/>
       </defs>
       <use xlink:href="#DejaVuSerif-32"/>
       <use xlink:href="#DejaVuSerif-30" transform="translate(63.623047 0)"/>
       <use xlink:href="#DejaVuSerif-30" transform="translate(127.246094 0)"/>
      </g>
     </g>
    </g>
    <g id="xtick_3">
     <g id="line2d_3">
      <g>
       <use xlink:href="#m34775e0c66" x="193.714122" y="320.4" style="stroke: #ffffff; stroke-width: 0.8"/>
      </g>
     </g>
     <g id="text_3">
      <!-- 400 -->
      <g transform="translate(182.261622 336.518125) scale(0.12 -0.12)" fill="#ffffff">
       <defs>
        <path id="DejaVuSerif-34" d="M 2234 1581 
L 2234 4063 
L 641 1581 
L 2234 1581 
z
M 3609 0 
L 1484 0 
L 1484 331 
L 2234 331 
L 2234 1247 
L 197 1247 
L 197 1588 
L 2241 4750 
L 2859 4750 
L 2859 1581 
L 3750 1581 
L 3750 1247 
L 2859 1247 
L 2859 331 
L 3609 331 
L 3609 0 
z
" transform="scale(0.015625)"/>
       </defs>
       <use xlink:href="#DejaVuSerif-34"/>
       <use xlink:href="#DejaVuSerif-30" transform="translate(63.623047 0)"/>
       <use xlink:href="#DejaVuSerif-30" transform="translate(127.246094 0)"/>
      </g>
     </g>
    </g>
    <g id="xtick_4">
     <g id="line2d_4">
      <g>
       <use xlink:href="#m34775e0c66" x="239.922241" y="320.4" style="stroke: #ffffff; stroke-width: 0.8"/>
      </g>
     </g>
     <g id="text_4">
      <!-- 600 -->
      <g transform="translate(228.469741 336.518125) scale(0.12 -0.12)" fill="#ffffff">
       <defs>
        <path id="DejaVuSerif-36" d="M 2094 219 
Q 2534 219 2771 542 
Q 3009 866 3009 1472 
Q 3009 2078 2771 2401 
Q 2534 2725 2094 2725 
Q 1647 2725 1412 2412 
Q 1178 2100 1178 1509 
Q 1178 888 1415 553 
Q 1653 219 2094 219 
z
M 1075 2569 
Q 1288 2803 1556 2918 
Q 1825 3034 2163 3034 
Q 2859 3034 3264 2615 
Q 3669 2197 3669 1472 
Q 3669 763 3233 336 
Q 2797 -91 2069 -91 
Q 1278 -91 853 498 
Q 428 1088 428 2181 
Q 428 3406 931 4078 
Q 1434 4750 2350 4750 
Q 2597 4750 2869 4703 
Q 3141 4656 3425 4563 
L 3425 3794 
L 3072 3794 
Q 3034 4109 2831 4275 
Q 2628 4441 2284 4441 
Q 1678 4441 1381 3981 
Q 1084 3522 1075 2569 
z
" transform="scale(0.015625)"/>
       </defs>
       <use xlink:href="#DejaVuSerif-36"/>
       <use xlink:href="#DejaVuSerif-30" transform="translate(63.623047 0)"/>
       <use xlink:href="#DejaVuSerif-30" transform="translate(127.246094 0)"/>
      </g>
     </g>
    </g>
    <g id="xtick_5">
     <g id="line2d_5">
      <g>
       <use xlink:href="#m34775e0c66" x="286.13036" y="320.4" style="stroke: #ffffff; stroke-width: 0.8"/>
      </g>
     </g>
     <g id="text_5">
      <!-- 800 -->
      <g transform="translate(274.67786 336.518125) scale(0.12 -0.12)" fill="#ffffff">
       <defs>
        <path id="DejaVuSerif-38" d="M 2981 1275 
Q 2981 1775 2732 2051 
Q 2484 2328 2034 2328 
Q 1584 2328 1336 2051 
Q 1088 1775 1088 1275 
Q 1088 772 1336 495 
Q 1584 219 2034 219 
Q 2484 219 2732 495 
Q 2981 772 2981 1275 
z
M 2853 3541 
Q 2853 3966 2637 4203 
Q 2422 4441 2034 4441 
Q 1650 4441 1433 4203 
Q 1216 3966 1216 3541 
Q 1216 3113 1433 2875 
Q 1650 2638 2034 2638 
Q 2422 2638 2637 2875 
Q 2853 3113 2853 3541 
z
M 2516 2484 
Q 3047 2413 3344 2092 
Q 3641 1772 3641 1275 
Q 3641 619 3225 264 
Q 2809 -91 2034 -91 
Q 1263 -91 845 264 
Q 428 619 428 1275 
Q 428 1772 725 2092 
Q 1022 2413 1556 2484 
Q 1084 2569 832 2842 
Q 581 3116 581 3541 
Q 581 4103 968 4426 
Q 1356 4750 2034 4750 
Q 2713 4750 3100 4426 
Q 3488 4103 3488 3541 
Q 3488 3116 3236 2842 
Q 2984 2569 2516 2484 
z
" transform="scale(0.015625)"/>
       </defs>
       <use xlink:href="#DejaVuSerif-38"/>
       <use xlink:href="#DejaVuSerif-30" transform="translate(63.623047 0)"/>
       <use xlink:href="#DejaVuSerif-30" transform="translate(127.246094 0)"/>
      </g>
     </g>
    </g>
    <g id="xtick_6">
     <g id="line2d_6">
      <g>
       <use xlink:href="#m34775e0c66" x="332.338479" y="320.4" style="stroke: #ffffff; stroke-width: 0.8"/>
      </g>
     </g>
     <g id="text_6">
      <!-- 1000 -->
      <g transform="translate(317.068479 336.518125) scale(0.12 -0.12)" fill="#ffffff">
       <defs>
        <path id="DejaVuSerif-31" d="M 909 0 
L 909 331 
L 1722 331 
L 1722 4213 
L 781 3603 
L 781 4013 
L 1919 4750 
L 2350 4750 
L 2350 331 
L 3163 331 
L 3163 0 
L 909 0 
z
" transform="scale(0.015625)"/>
       </defs>
       <use xlink:href="#DejaVuSerif-31"/>
       <use xlink:href="#DejaVuSerif-30" transform="translate(63.623047 0)"/>
       <use xlink:href="#DejaVuSerif-30" transform="translate(127.246094 0)"/>
       <use xlink:href="#DejaVuSerif-30" transform="translate(190.869141 0)"/>
      </g>
     </g>
    </g>
    <g id="text_7">
     <!-- Training Steps -->
     <g transform="translate(172.063807 351.96125) scale(0.12 -0.12)" fill="#ffffff">
      <defs>
       <path id="DejaVuSerif-54" d="M 1222 0 
L 1222 331 
L 1819 331 
L 1819 4294 
L 447 4294 
L 447 3566 
L 63 3566 
L 63 4666 
L 4206 4666 
L 4206 3566 
L 3822 3566 
L 3822 4294 
L 2450 4294 
L 2450 331 
L 3047 331 
L 3047 0 
L 1222 0 
z
" transform="scale(0.015625)"/>
       <path id="DejaVuSerif-72" d="M 3059 3328 
L 3059 2497 
L 2728 2497 
Q 2713 2744 2591 2866 
Q 2469 2988 2234 2988 
Q 1809 2988 1582 2694 
Q 1356 2400 1356 1850 
L 1356 331 
L 2022 331 
L 2022 0 
L 263 0 
L 263 331 
L 781 331 
L 781 2994 
L 231 2994 
L 231 3322 
L 1356 3322 
L 1356 2731 
Q 1525 3078 1790 3245 
Q 2056 3413 2438 3413 
Q 2578 3413 2733 3391 
Q 2888 3369 3059 3328 
z
" transform="scale(0.015625)"/>
       <path id="DejaVuSerif-61" d="M 2547 1044 
L 2547 1747 
L 1806 1747 
Q 1378 1747 1168 1562 
Q 959 1378 959 997 
Q 959 650 1171 447 
Q 1384 244 1747 244 
Q 2106 244 2326 466 
Q 2547 688 2547 1044 
z
M 3122 2075 
L 3122 331 
L 3634 331 
L 3634 0 
L 2547 0 
L 2547 359 
Q 2356 128 2106 18 
Q 1856 -91 1522 -91 
Q 969 -91 644 203 
Q 319 497 319 997 
Q 319 1513 691 1797 
Q 1063 2081 1741 2081 
L 2547 2081 
L 2547 2309 
Q 2547 2688 2317 2895 
Q 2088 3103 1672 3103 
Q 1328 3103 1125 2947 
Q 922 2791 872 2484 
L 575 2484 
L 575 3156 
Q 875 3284 1158 3348 
Q 1441 3413 1709 3413 
Q 2400 3413 2761 3070 
Q 3122 2728 3122 2075 
z
" transform="scale(0.015625)"/>
       <path id="DejaVuSerif-69" d="M 622 4353 
Q 622 4497 726 4603 
Q 831 4709 978 4709 
Q 1122 4709 1226 4603 
Q 1331 4497 1331 4353 
Q 1331 4206 1228 4103 
Q 1125 4000 978 4000 
Q 831 4000 726 4103 
Q 622 4206 622 4353 
z
M 1356 331 
L 1900 331 
L 1900 0 
L 231 0 
L 231 331 
L 781 331 
L 781 2988 
L 231 2988 
L 231 3322 
L 1356 3322 
L 1356 331 
z
" transform="scale(0.015625)"/>
       <path id="DejaVuSerif-6e" d="M 263 0 
L 263 331 
L 781 331 
L 781 2988 
L 231 2988 
L 231 3322 
L 1356 3322 
L 1356 2731 
Q 1516 3069 1770 3241 
Q 2025 3413 2363 3413 
Q 2913 3413 3172 3097 
Q 3431 2781 3431 2113 
L 3431 331 
L 3944 331 
L 3944 0 
L 2356 0 
L 2356 331 
L 2853 331 
L 2853 1931 
Q 2853 2541 2703 2767 
Q 2553 2994 2175 2994 
Q 1775 2994 1565 2701 
Q 1356 2409 1356 1850 
L 1356 331 
L 1856 331 
L 1856 0 
L 263 0 
z
" transform="scale(0.015625)"/>
       <path id="DejaVuSerif-67" d="M 3359 2988 
L 3359 72 
Q 3359 -644 2965 -1033 
Q 2572 -1422 1844 -1422 
Q 1516 -1422 1216 -1362 
Q 916 -1303 641 -1184 
L 641 -488 
L 941 -488 
Q 997 -813 1206 -963 
Q 1416 -1113 1806 -1113 
Q 2313 -1113 2548 -827 
Q 2784 -541 2784 72 
L 2784 519 
Q 2616 206 2355 57 
Q 2094 -91 1709 -91 
Q 1097 -91 708 395 
Q 319 881 319 1663 
Q 319 2444 706 2928 
Q 1094 3413 1709 3413 
Q 2094 3413 2355 3264 
Q 2616 3116 2784 2803 
L 2784 3322 
L 3909 3322 
L 3909 2988 
L 3359 2988 
z
M 2784 1825 
Q 2784 2422 2554 2737 
Q 2325 3053 1888 3053 
Q 1444 3053 1217 2703 
Q 991 2353 991 1663 
Q 991 975 1217 622 
Q 1444 269 1888 269 
Q 2325 269 2554 583 
Q 2784 897 2784 1497 
L 2784 1825 
z
" transform="scale(0.015625)"/>
       <path id="DejaVuSerif-20" transform="scale(0.015625)"/>
       <path id="DejaVuSerif-53" d="M 594 225 
L 594 1288 
L 953 1284 
Q 969 753 1261 498 
Q 1553 244 2150 244 
Q 2706 244 2998 464 
Q 3291 684 3291 1106 
Q 3291 1444 3114 1625 
Q 2938 1806 2369 1978 
L 1753 2163 
Q 1084 2366 811 2669 
Q 538 2972 538 3500 
Q 538 4094 959 4422 
Q 1381 4750 2144 4750 
Q 2469 4750 2856 4679 
Q 3244 4609 3681 4475 
L 3681 3481 
L 3328 3481 
Q 3275 3975 2998 4195 
Q 2722 4416 2156 4416 
Q 1663 4416 1405 4214 
Q 1147 4013 1147 3628 
Q 1147 3294 1340 3103 
Q 1534 2913 2163 2725 
L 2741 2553 
Q 3375 2363 3645 2067 
Q 3916 1772 3916 1275 
Q 3916 597 3481 253 
Q 3047 -91 2188 -91 
Q 1803 -91 1404 -12 
Q 1006 66 594 225 
z
" transform="scale(0.015625)"/>
       <path id="DejaVuSerif-74" d="M 691 2988 
L 184 2988 
L 184 3322 
L 691 3322 
L 691 4353 
L 1269 4353 
L 1269 3322 
L 2350 3322 
L 2350 2988 
L 1269 2988 
L 1269 878 
Q 1269 456 1350 337 
Q 1431 219 1650 219 
Q 1875 219 1978 351 
Q 2081 484 2088 781 
L 2522 781 
Q 2497 328 2275 118 
Q 2053 -91 1600 -91 
Q 1103 -91 897 129 
Q 691 350 691 878 
L 691 2988 
z
" transform="scale(0.015625)"/>
       <path id="DejaVuSerif-65" d="M 3469 1600 
L 991 1600 
L 991 1575 
Q 991 903 1244 561 
Q 1497 219 1991 219 
Q 2369 219 2611 417 
Q 2853 616 2950 1006 
L 3413 1006 
Q 3275 459 2904 184 
Q 2534 -91 1931 -91 
Q 1203 -91 761 389 
Q 319 869 319 1663 
Q 319 2450 753 2931 
Q 1188 3413 1894 3413 
Q 2647 3413 3050 2948 
Q 3453 2484 3469 1600 
z
M 2791 1931 
Q 2772 2513 2545 2808 
Q 2319 3103 1894 3103 
Q 1497 3103 1269 2806 
Q 1041 2509 991 1931 
L 2791 1931 
z
" transform="scale(0.015625)"/>
       <path id="DejaVuSerif-70" d="M 1313 1825 
L 1313 1497 
Q 1313 897 1542 583 
Q 1772 269 2209 269 
Q 2650 269 2876 622 
Q 3103 975 3103 1663 
Q 3103 2353 2876 2703 
Q 2650 3053 2209 3053 
Q 1772 3053 1542 2737 
Q 1313 2422 1313 1825 
z
M 738 2988 
L 184 2988 
L 184 3322 
L 1313 3322 
L 1313 2803 
Q 1481 3116 1742 3264 
Q 2003 3413 2388 3413 
Q 3000 3413 3387 2928 
Q 3775 2444 3775 1663 
Q 3775 881 3387 395 
Q 3000 -91 2388 -91 
Q 2003 -91 1742 57 
Q 1481 206 1313 519 
L 1313 -997 
L 1856 -997 
L 1856 -1331 
L 184 -1331 
L 184 -997 
L 738 -997 
L 738 2988 
z
" transform="scale(0.015625)"/>
       <path id="DejaVuSerif-73" d="M 359 184 
L 359 959 
L 691 959 
Q 703 588 923 403 
Q 1144 219 1575 219 
Q 1963 219 2166 364 
Q 2369 509 2369 788 
Q 2369 1006 2220 1140 
Q 2072 1275 1594 1428 
L 1178 1569 
Q 750 1706 558 1912 
Q 366 2119 366 2438 
Q 366 2894 700 3153 
Q 1034 3413 1625 3413 
Q 1888 3413 2178 3344 
Q 2469 3275 2778 3144 
L 2778 2419 
L 2447 2419 
Q 2434 2741 2221 2922 
Q 2009 3103 1644 3103 
Q 1281 3103 1095 2975 
Q 909 2847 909 2591 
Q 909 2381 1050 2254 
Q 1191 2128 1613 1997 
L 2069 1856 
Q 2541 1709 2748 1489 
Q 2956 1269 2956 922 
Q 2956 450 2595 179 
Q 2234 -91 1600 -91 
Q 1278 -91 972 -22 
Q 666 47 359 184 
z
" transform="scale(0.015625)"/>
      </defs>
      <use xlink:href="#DejaVuSerif-54"/>
      <use xlink:href="#DejaVuSerif-72" transform="translate(66.699219 0)"/>
      <use xlink:href="#DejaVuSerif-61" transform="translate(114.501953 0)"/>
      <use xlink:href="#DejaVuSerif-69" transform="translate(174.121094 0)"/>
      <use xlink:href="#DejaVuSerif-6e" transform="translate(206.103516 0)"/>
      <use xlink:href="#DejaVuSerif-69" transform="translate(270.507812 0)"/>
      <use xlink:href="#DejaVuSerif-6e" transform="translate(302.490234 0)"/>
      <use xlink:href="#DejaVuSerif-67" transform="translate(366.894531 0)"/>
      <use xlink:href="#DejaVuSerif-20" transform="translate(430.908203 0)"/>
      <use xlink:href="#DejaVuSerif-53" transform="translate(462.695312 0)"/>
      <use xlink:href="#DejaVuSerif-74" transform="translate(531.201172 0)"/>
      <use xlink:href="#DejaVuSerif-65" transform="translate(571.386719 0)"/>
      <use xlink:href="#DejaVuSerif-70" transform="translate(630.566406 0)"/>
      <use xlink:href="#DejaVuSerif-73" transform="translate(694.580078 0)"/>
     </g>
    </g>
   </g>
   <g id="matplotlib.axis_2">
    <g id="ytick_1">
     <g id="line2d_7">
      <defs>
       <path id="maa2f01f484" d="M 0 0 
L -3.5 0 
" style="stroke: #ffffff; stroke-width: 0.8"/>
      </defs>
      <g>
       <use xlink:href="#maa2f01f484" x="90" y="298.064942" style="stroke: #ffffff; stroke-width: 0.8"/>
      </g>
     </g>
     <g id="text_8">
      <!-- 6 -->
      <g transform="translate(75.365 302.624004) scale(0.12 -0.12)" fill="#ffffff">
       <use xlink:href="#DejaVuSerif-36"/>
      </g>
     </g>
    </g>
    <g id="ytick_2">
     <g id="line2d_8">
      <g>
       <use xlink:href="#maa2f01f484" x="90" y="259.925006" style="stroke: #ffffff; stroke-width: 0.8"/>
      </g>
     </g>
     <g id="text_9">
      <!-- 7 -->
      <g transform="translate(75.365 264.484069) scale(0.12 -0.12)" fill="#ffffff">
       <defs>
        <path id="DejaVuSerif-37" d="M 3609 4347 
L 1784 0 
L 1319 0 
L 3059 4153 
L 903 4153 
L 903 3578 
L 538 3578 
L 538 4666 
L 3609 4666 
L 3609 4347 
z
" transform="scale(0.015625)"/>
       </defs>
       <use xlink:href="#DejaVuSerif-37"/>
      </g>
     </g>
    </g>
    <g id="ytick_3">
     <g id="line2d_9">
      <g>
       <use xlink:href="#maa2f01f484" x="90" y="221.785071" style="stroke: #ffffff; stroke-width: 0.8"/>
      </g>
     </g>
     <g id="text_10">
      <!-- 8 -->
      <g transform="translate(75.365 226.344133) scale(0.12 -0.12)" fill="#ffffff">
       <use xlink:href="#DejaVuSerif-38"/>
      </g>
     </g>
    </g>
    <g id="ytick_4">
     <g id="line2d_10">
      <g>
       <use xlink:href="#maa2f01f484" x="90" y="183.645136" style="stroke: #ffffff; stroke-width: 0.8"/>
      </g>
     </g>
     <g id="text_11">
      <!-- 9 -->
      <g transform="translate(75.365 188.204198) scale(0.12 -0.12)" fill="#ffffff">
       <defs>
        <path id="DejaVuSerif-39" d="M 2994 2091 
Q 2784 1856 2512 1740 
Q 2241 1625 1900 1625 
Q 1206 1625 804 2044 
Q 403 2463 403 3188 
Q 403 3897 839 4323 
Q 1275 4750 2003 4750 
Q 2794 4750 3217 4161 
Q 3641 3572 3641 2478 
Q 3641 1253 3137 581 
Q 2634 -91 1722 -91 
Q 1475 -91 1203 -44 
Q 931 3 647 97 
L 647 872 
L 997 872 
Q 1038 556 1241 387 
Q 1444 219 1784 219 
Q 2391 219 2687 676 
Q 2984 1134 2994 2091 
z
M 1978 4441 
Q 1534 4441 1298 4117 
Q 1063 3794 1063 3188 
Q 1063 2581 1298 2256 
Q 1534 1931 1978 1931 
Q 2422 1931 2658 2245 
Q 2894 2559 2894 3150 
Q 2894 3772 2656 4106 
Q 2419 4441 1978 4441 
z
" transform="scale(0.015625)"/>
       </defs>
       <use xlink:href="#DejaVuSerif-39"/>
      </g>
     </g>
    </g>
    <g id="ytick_5">
     <g id="line2d_11">
      <g>
       <use xlink:href="#maa2f01f484" x="90" y="145.5052" style="stroke: #ffffff; stroke-width: 0.8"/>
      </g>
     </g>
     <g id="text_12">
      <!-- 10 -->
      <g transform="translate(67.73 150.064263) scale(0.12 -0.12)" fill="#ffffff">
       <use xlink:href="#DejaVuSerif-31"/>
       <use xlink:href="#DejaVuSerif-30" transform="translate(63.623047 0)"/>
      </g>
     </g>
    </g>
    <g id="ytick_6">
     <g id="line2d_12">
      <g>
       <use xlink:href="#maa2f01f484" x="90" y="107.365265" style="stroke: #ffffff; stroke-width: 0.8"/>
      </g>
     </g>
     <g id="text_13">
      <!-- 11 -->
      <g transform="translate(67.73 111.924328) scale(0.12 -0.12)" fill="#ffffff">
       <use xlink:href="#DejaVuSerif-31"/>
       <use xlink:href="#DejaVuSerif-31" transform="translate(63.623047 0)"/>
      </g>
     </g>
    </g>
    <g id="ytick_7">
     <g id="line2d_13">
      <g>
       <use xlink:href="#maa2f01f484" x="90" y="69.22533" style="stroke: #ffffff; stroke-width: 0.8"/>
      </g>
     </g>
     <g id="text_14">
      <!-- 12 -->
      <g transform="translate(67.73 73.784392) scale(0.12 -0.12)" fill="#ffffff">
       <use xlink:href="#DejaVuSerif-31"/>
       <use xlink:href="#DejaVuSerif-32" transform="translate(63.623047 0)"/>
      </g>
     </g>
    </g>
    <g id="text_15">
     <!-- Training Loss -->
     <g transform="translate(61.06375 223.31625) rotate(-90) scale(0.12 -0.12)" fill="#ffffff">
      <defs>
       <path id="DejaVuSerif-4c" d="M 353 0 
L 353 331 
L 947 331 
L 947 4331 
L 353 4331 
L 353 4666 
L 2175 4666 
L 2175 4331 
L 1581 4331 
L 1581 384 
L 3713 384 
L 3713 1166 
L 4097 1166 
L 4097 0 
L 353 0 
z
" transform="scale(0.015625)"/>
       <path id="DejaVuSerif-6f" d="M 1925 219 
Q 2388 219 2623 584 
Q 2859 950 2859 1663 
Q 2859 2375 2623 2739 
Q 2388 3103 1925 3103 
Q 1463 3103 1227 2739 
Q 991 2375 991 1663 
Q 991 950 1228 584 
Q 1466 219 1925 219 
z
M 1925 -91 
Q 1200 -91 759 389 
Q 319 869 319 1663 
Q 319 2456 758 2934 
Q 1197 3413 1925 3413 
Q 2653 3413 3092 2934 
Q 3531 2456 3531 1663 
Q 3531 869 3092 389 
Q 2653 -91 1925 -91 
z
" transform="scale(0.015625)"/>
      </defs>
      <use xlink:href="#DejaVuSerif-54"/>
      <use xlink:href="#DejaVuSerif-72" transform="translate(66.699219 0)"/>
      <use xlink:href="#DejaVuSerif-61" transform="translate(114.501953 0)"/>
      <use xlink:href="#DejaVuSerif-69" transform="translate(174.121094 0)"/>
      <use xlink:href="#DejaVuSerif-6e" transform="translate(206.103516 0)"/>
      <use xlink:href="#DejaVuSerif-69" transform="translate(270.507812 0)"/>
      <use xlink:href="#DejaVuSerif-6e" transform="translate(302.490234 0)"/>
      <use xlink:href="#DejaVuSerif-67" transform="translate(366.894531 0)"/>
      <use xlink:href="#DejaVuSerif-20" transform="translate(430.908203 0)"/>
      <use xlink:href="#DejaVuSerif-4c" transform="translate(462.695312 0)"/>
      <use xlink:href="#DejaVuSerif-6f" transform="translate(529.101562 0)"/>
      <use xlink:href="#DejaVuSerif-73" transform="translate(589.306641 0)"/>
      <use xlink:href="#DejaVuSerif-73" transform="translate(640.625 0)"/>
     </g>
    </g>
   </g>
   <g id="line2d_14">
    <path d="M 101.528926 55.8 
L 101.759966 77.334871 
L 101.991007 76.451478 
L 102.222047 82.847411 
L 102.453088 78.377587 
L 102.684129 64.510497 
L 102.915169 78.281471 
L 103.14621 106.148822 
L 103.37725 79.004786 
L 103.608291 83.995482 
L 103.839332 81.821408 
L 104.070372 92.505954 
L 104.301413 89.526808 
L 104.532453 100.916519 
L 104.763494 89.77981 
L 104.994535 99.778332 
L 105.225575 94.650511 
L 105.456616 102.18051 
L 105.687656 122.758069 
L 105.918697 108.829882 
L 106.149737 124.386919 
L 106.380778 125.672753 
L 106.611819 128.254469 
L 106.842859 138.163786 
L 107.0739 154.167158 
L 107.30494 147.47824 
L 107.535981 144.998814 
L 107.767022 157.046141 
L 107.998062 152.344203 
L 108.460143 158.180254 
L 108.691184 150.723446 
L 108.922225 162.365194 
L 109.153265 149.818947 
L 109.384306 161.824509 
L 109.615346 160.217455 
L 109.846387 170.055354 
L 110.077428 168.47147 
L 110.308468 173.687288 
L 110.539509 160.134525 
L 110.770549 175.957259 
L 111.00159 170.884033 
L 111.232631 171.643512 
L 111.463671 183.849425 
L 111.694712 172.169285 
L 111.925752 171.934724 
L 112.156793 169.098688 
L 112.387834 176.633525 
L 112.618874 166.78335 
L 112.849915 184.642049 
L 113.080955 177.584881 
L 113.311996 178.140616 
L 113.543036 176.043763 
L 113.774077 170.074586 
L 114.005118 192.949441 
L 114.467199 172.204094 
L 114.698239 186.057498 
L 114.92928 189.723604 
L 115.160321 189.766197 
L 115.391361 190.837002 
L 115.622402 178.019521 
L 115.853442 193.317628 
L 116.084483 176.214744 
L 116.315524 183.161283 
L 116.546564 185.267311 
L 116.777605 191.848401 
L 117.008645 183.883734 
L 117.470727 188.136783 
L 117.701767 205.131044 
L 117.932808 197.904591 
L 118.163848 196.456952 
L 118.394889 186.168709 
L 118.62593 194.771901 
L 118.85697 191.523089 
L 119.088011 184.017751 
L 119.319051 193.97739 
L 119.550092 191.697571 
L 119.781133 200.542317 
L 120.243214 186.843366 
L 120.474254 197.350666 
L 120.705295 202.243999 
L 120.936335 202.391638 
L 121.167376 203.296654 
L 121.398417 192.465507 
L 121.860498 206.4675 
L 122.091538 196.951498 
L 122.322579 195.117722 
L 122.55362 200.891366 
L 122.78466 212.470112 
L 123.015701 205.114999 
L 123.246741 203.020373 
L 123.477782 204.337797 
L 123.708823 202.842391 
L 123.939863 200.222811 
L 124.170904 206.314438 
L 124.401944 202.482652 
L 124.632985 201.893595 
L 124.864026 205.49608 
L 125.095066 204.261241 
L 125.326107 197.286885 
L 125.557147 198.262111 
L 125.788188 208.463213 
L 126.019229 211.585533 
L 126.250269 204.599129 
L 126.48131 209.361647 
L 126.71235 211.804321 
L 126.943391 225.942091 
L 127.174432 203.654875 
L 127.405472 210.237328 
L 127.867553 203.173077 
L 128.098594 218.368398 
L 128.329634 209.452734 
L 128.560675 216.788306 
L 128.791716 216.065605 
L 129.022756 201.990038 
L 129.253797 217.762772 
L 129.484837 213.628158 
L 129.715878 218.13787 
L 129.946919 208.099046 
L 130.177959 216.346309 
L 130.64004 208.589846 
L 130.871081 210.038268 
L 131.102122 205.453059 
L 131.333162 222.768808 
L 131.564203 218.270309 
L 131.795243 220.313403 
L 132.257325 211.259157 
L 132.488365 222.168148 
L 132.719406 218.590583 
L 132.950446 230.610316 
L 133.181487 211.389136 
L 133.412528 209.182973 
L 133.643568 217.896853 
L 133.874609 219.078168 
L 134.105649 221.705105 
L 134.33669 218.952086 
L 134.567731 212.505694 
L 135.029812 222.348326 
L 135.260852 213.527428 
L 135.722933 231.339142 
L 135.953974 219.698311 
L 136.185015 219.034562 
L 136.647096 234.471004 
L 136.878136 215.971308 
L 137.109177 225.306844 
L 137.340218 223.304606 
L 137.571258 218.431391 
L 137.802299 227.533227 
L 138.033339 214.316533 
L 138.26438 221.092191 
L 138.495421 233.05806 
L 138.726461 219.199173 
L 138.957502 238.604986 
L 139.419583 223.499284 
L 139.650624 220.683426 
L 139.881664 223.507914 
L 140.112705 223.665686 
L 140.343745 223.686396 
L 140.574786 236.74469 
L 141.036867 222.893936 
L 141.267908 229.629948 
L 141.498948 221.114374 
L 141.729989 235.509983 
L 141.961029 232.90478 
L 142.19207 227.400588 
L 142.423111 212.841823 
L 142.654151 223.069673 
L 142.885192 223.511101 
L 143.347273 234.286352 
L 143.578314 227.715569 
L 143.809354 228.041577 
L 144.040395 226.964765 
L 144.502476 238.48736 
L 144.733517 224.672011 
L 144.964557 235.373975 
L 145.195598 228.184027 
L 145.426638 230.917005 
L 145.657679 220.991951 
L 145.88872 227.097232 
L 146.11976 238.776104 
L 146.350801 230.282522 
L 146.581841 232.712343 
L 146.812882 232.338096 
L 147.043923 222.66239 
L 147.274963 226.346155 
L 147.506004 221.270083 
L 147.737044 238.32926 
L 147.968085 233.222776 
L 148.199126 230.99332 
L 148.661207 223.478279 
L 148.892247 227.370984 
L 149.123288 236.161343 
L 149.354328 228.290532 
L 149.585369 232.558285 
L 149.81641 233.903448 
L 150.04745 228.73166 
L 150.509531 236.565257 
L 150.740572 235.039429 
L 150.971613 228.431864 
L 151.202653 232.807645 
L 151.433694 250.533696 
L 151.664734 222.570234 
L 151.895775 234.788846 
L 152.126816 234.258195 
L 152.357856 239.630771 
L 152.588897 230.27081 
L 152.819937 236.856546 
L 153.050978 232.969233 
L 153.282019 232.656288 
L 153.513059 233.63145 
L 153.7441 228.486342 
L 153.97514 235.947592 
L 154.206181 235.597838 
L 154.437222 238.20882 
L 154.668262 239.461459 
L 154.899303 238.930089 
L 155.130343 230.786371 
L 155.361384 250.678811 
L 155.592425 234.514534 
L 155.823465 232.939175 
L 156.054506 236.981724 
L 156.285546 238.590605 
L 156.516587 224.273949 
L 156.747627 237.19798 
L 157.209709 230.121225 
L 157.67179 234.773174 
L 157.90283 235.506078 
L 158.133871 242.264673 
L 158.364912 239.50773 
L 158.595952 239.336467 
L 158.826993 235.107592 
L 159.058033 237.45121 
L 159.289074 243.157955 
L 159.520115 233.138122 
L 159.751155 233.74016 
L 159.982196 243.148343 
L 160.213236 240.780747 
L 160.444277 247.04525 
L 160.675318 236.235808 
L 160.906358 236.990199 
L 161.137399 228.608356 
L 161.368439 244.604553 
L 161.59948 236.093662 
L 162.061561 244.639143 
L 162.292602 238.208252 
L 162.523642 236.577879 
L 162.754683 233.791219 
L 162.985724 227.377268 
L 163.216764 231.773204 
L 163.447805 243.786759 
L 163.678845 241.398903 
L 163.909886 230.234973 
L 164.140926 238.321799 
L 164.371967 232.151934 
L 164.603008 237.533636 
L 164.834048 226.558614 
L 165.296129 238.74891 
L 165.52717 236.658263 
L 165.758211 236.835545 
L 165.989251 240.344124 
L 166.220292 231.871953 
L 166.451332 241.680771 
L 166.682373 237.248275 
L 166.913414 241.601246 
L 167.144454 240.326647 
L 167.375495 245.516935 
L 167.606535 233.723742 
L 167.837576 235.348268 
L 168.068617 251.220679 
L 168.299657 239.257983 
L 168.530698 248.742099 
L 168.761738 241.984414 
L 168.992779 246.124133 
L 169.22382 254.877069 
L 169.45486 233.838927 
L 169.685901 247.873792 
L 169.916941 245.20675 
L 170.147982 237.386534 
L 170.379023 246.221022 
L 170.610063 241.83257 
L 170.841104 241.066284 
L 171.072144 234.774983 
L 171.534225 243.936957 
L 171.765266 235.582879 
L 171.996307 238.676773 
L 172.227347 233.868603 
L 172.458388 243.765321 
L 172.689428 242.244799 
L 172.920469 239.407786 
L 173.15151 246.070133 
L 173.38255 237.04615 
L 173.613591 239.445432 
L 173.844631 239.454011 
L 174.075672 232.822868 
L 174.306713 245.460002 
L 174.537753 249.093977 
L 174.768794 248.33082 
L 174.999834 251.588138 
L 175.230875 245.95002 
L 175.461916 243.51296 
L 175.692956 245.737638 
L 175.923997 246.858929 
L 176.155037 242.578641 
L 176.386078 246.366169 
L 176.617119 243.516193 
L 176.848159 236.053183 
L 177.0792 246.902431 
L 177.31024 250.088835 
L 177.541281 234.446666 
L 177.772322 256.510265 
L 178.003362 240.243453 
L 178.234403 249.434229 
L 178.465443 235.636634 
L 178.696484 243.62027 
L 178.927524 241.8459 
L 179.158565 242.104386 
L 179.389606 242.17845 
L 179.620646 242.875504 
L 179.851687 256.046381 
L 180.082727 245.387679 
L 180.313768 244.295022 
L 180.544809 247.493139 
L 180.775849 247.613875 
L 181.00689 241.483997 
L 181.468971 253.050495 
L 181.700012 238.223301 
L 181.931052 246.196057 
L 182.162093 241.282318 
L 182.393133 251.296517 
L 182.624174 249.60536 
L 182.855215 240.08453 
L 183.317296 242.247491 
L 183.779377 249.794309 
L 184.010418 242.904289 
L 184.241458 243.22554 
L 184.472499 251.627398 
L 184.703539 244.399863 
L 184.93458 245.448231 
L 185.16562 248.538019 
L 185.396661 237.29255 
L 185.858742 251.697116 
L 186.089783 248.590801 
L 186.320823 249.229426 
L 186.551864 250.430269 
L 186.782905 258.89964 
L 187.244986 245.963869 
L 187.476026 247.616634 
L 187.707067 237.291609 
L 187.938108 249.69877 
L 188.169148 248.187905 
L 188.400189 237.257814 
L 188.631229 235.783631 
L 188.86227 232.439445 
L 189.093311 242.216992 
L 189.324351 240.386017 
L 189.555392 247.490115 
L 189.786432 245.416573 
L 190.017473 251.991697 
L 190.248514 240.69427 
L 190.479554 257.51193 
L 190.710595 236.933053 
L 190.941635 255.664782 
L 191.172676 245.690871 
L 191.403717 251.153912 
L 191.634757 242.59489 
L 191.865798 249.230608 
L 192.096838 235.232448 
L 192.327879 250.456358 
L 192.558919 247.623814 
L 192.78996 252.710611 
L 193.021001 255.305953 
L 193.252041 255.090788 
L 193.483082 245.282788 
L 193.714122 240.850506 
L 193.945163 252.56937 
L 194.176204 238.962447 
L 194.407244 253.027912 
L 194.869325 242.50378 
L 195.331407 238.57065 
L 195.562447 251.810768 
L 195.793488 246.607577 
L 196.024528 244.950538 
L 196.255569 253.137326 
L 196.48661 252.975321 
L 196.71765 246.679109 
L 197.179731 256.617416 
L 197.410772 237.858284 
L 197.641813 251.611917 
L 197.872853 245.684074 
L 198.103894 245.309608 
L 198.334934 253.694594 
L 198.565975 246.996137 
L 199.028056 249.362688 
L 199.259097 238.577593 
L 199.490137 236.085383 
L 199.721178 249.543589 
L 199.952218 247.931671 
L 200.183259 243.3338 
L 200.4143 258.291219 
L 200.64534 251.21395 
L 200.876381 258.372762 
L 201.107421 255.470396 
L 201.338462 250.554056 
L 201.569503 256.860079 
L 201.800543 255.394117 
L 202.262624 242.083789 
L 202.493665 245.035578 
L 202.724706 243.97649 
L 203.186787 253.204789 
L 203.417827 245.108161 
L 203.648868 255.528474 
L 203.879909 249.20246 
L 204.110949 259.017403 
L 204.34199 257.819596 
L 204.57303 257.484455 
L 205.035112 246.157715 
L 205.266152 251.868547 
L 205.497193 254.70201 
L 205.728233 255.011554 
L 205.959274 247.947429 
L 206.190315 261.861295 
L 206.421355 245.034496 
L 206.652396 254.92454 
L 206.883436 253.427556 
L 207.114477 239.764988 
L 207.345517 244.077293 
L 207.576558 267.946884 
L 208.038639 248.752311 
L 208.26968 254.252648 
L 208.50072 249.692196 
L 208.731761 249.823966 
L 208.962802 249.256978 
L 209.193842 252.611949 
L 209.424883 248.720598 
L 209.655923 247.180603 
L 209.886964 256.249839 
L 210.118005 248.896849 
L 210.349045 253.548101 
L 210.580086 245.210342 
L 210.811126 241.870007 
L 211.042167 233.537726 
L 211.273208 249.078846 
L 211.504248 252.728602 
L 211.735289 244.441192 
L 212.19737 260.173366 
L 212.428411 249.597339 
L 212.890492 259.738899 
L 213.121532 252.609398 
L 213.352573 251.757773 
L 213.583614 252.851184 
L 213.814654 258.211707 
L 214.045695 255.490605 
L 214.276735 255.128771 
L 214.507776 258.570341 
L 214.969857 249.404844 
L 215.200898 256.543183 
L 215.431938 253.043156 
L 215.662979 237.135323 
L 215.894019 241.758919 
L 216.356101 259.307296 
L 216.587141 257.610428 
L 216.818182 260.175421 
L 217.049222 250.045315 
L 217.280263 251.178809 
L 217.511304 254.145652 
L 217.973385 245.517312 
L 218.666507 259.866218 
L 219.128588 241.590561 
L 219.359628 254.921394 
L 219.590669 250.967454 
L 219.82171 243.808783 
L 220.05275 247.838406 
L 220.283791 246.853377 
L 220.745872 262.927858 
L 220.976913 245.500481 
L 221.207953 271.700308 
L 221.438994 255.352033 
L 221.670034 256.61978 
L 221.901075 273.714481 
L 222.132115 257.887423 
L 222.363156 263.688579 
L 222.594197 251.810277 
L 222.825237 258.571678 
L 223.056278 251.64769 
L 223.287318 258.841962 
L 223.518359 245.935685 
L 223.7494 266.156851 
L 224.211481 245.566589 
L 224.442521 267.356089 
L 224.673562 254.296059 
L 224.904603 257.370548 
L 225.135643 253.249624 
L 225.366684 258.996238 
L 225.597724 255.385496 
L 225.828765 259.310674 
L 226.059806 255.870895 
L 226.290846 256.393262 
L 226.521887 263.397167 
L 226.752927 254.509223 
L 226.983968 258.234913 
L 227.215009 255.787514 
L 227.446049 259.794782 
L 227.67709 260.90311 
L 227.90813 255.633793 
L 228.139171 258.157893 
L 228.370211 270.251937 
L 228.832293 249.914663 
L 229.063333 262.730594 
L 229.294374 265.495334 
L 229.525414 251.449593 
L 229.756455 256.89918 
L 229.987496 268.577561 
L 230.218536 245.201208 
L 230.449577 275.053274 
L 230.680617 256.227797 
L 230.911658 259.014606 
L 231.142699 255.023589 
L 231.373739 249.017125 
L 231.60478 261.354796 
L 231.83582 261.353372 
L 232.066861 252.439568 
L 232.297902 254.336233 
L 232.528942 254.827015 
L 232.759983 250.074154 
L 232.991023 263.108864 
L 233.222064 257.873733 
L 233.453105 264.300528 
L 233.684145 253.563601 
L 233.915186 252.221711 
L 234.377267 273.261122 
L 234.608308 256.308345 
L 234.839348 270.546677 
L 235.070389 265.19887 
L 235.301429 270.653109 
L 235.53247 260.537693 
L 235.76351 262.213427 
L 235.994551 252.265095 
L 236.225592 265.896142 
L 236.456632 249.392086 
L 236.687673 250.97251 
L 237.149754 258.760645 
L 237.380795 253.02311 
L 237.611835 251.860009 
L 237.842876 263.512255 
L 238.073916 249.919673 
L 238.535998 264.317328 
L 238.767038 256.252376 
L 238.998079 259.587619 
L 239.229119 250.469798 
L 239.46016 272.399594 
L 239.691201 270.882441 
L 239.922241 271.972674 
L 240.384322 258.641941 
L 240.615363 258.962929 
L 240.846404 263.303465 
L 241.077444 255.118786 
L 241.308485 253.991293 
L 241.539525 254.031781 
L 241.770566 252.397548 
L 242.001607 256.471055 
L 242.232647 250.53972 
L 242.463688 267.704925 
L 242.694728 262.345844 
L 242.925769 247.521937 
L 243.156809 260.840939 
L 243.38785 250.031825 
L 243.849931 263.514533 
L 244.080972 258.586582 
L 244.312012 258.427336 
L 244.543053 263.194264 
L 244.774094 253.379762 
L 245.005134 251.299531 
L 245.698256 267.611738 
L 245.929297 253.567179 
L 246.160337 262.143105 
L 246.391378 257.898689 
L 246.622418 257.442426 
L 246.853459 255.7492 
L 247.0845 255.348141 
L 247.31554 260.618095 
L 247.546581 268.501068 
L 247.777621 267.876538 
L 248.008662 261.019163 
L 248.239703 264.218984 
L 248.470743 254.393184 
L 248.701784 267.29235 
L 248.932824 264.640635 
L 249.163865 266.591327 
L 249.394906 252.560172 
L 249.625946 252.65692 
L 249.856987 258.753166 
L 250.088027 255.667624 
L 250.319068 264.06338 
L 250.550108 260.438744 
L 250.781149 266.359808 
L 251.24323 252.713125 
L 251.474271 257.915389 
L 251.705311 259.788471 
L 251.936352 250.66087 
L 252.167393 267.589318 
L 252.398433 260.86249 
L 252.629474 257.722025 
L 252.860514 260.054899 
L 253.091555 270.865414 
L 253.553636 259.92191 
L 253.784677 267.573896 
L 254.015717 263.764307 
L 254.246758 277.42403 
L 254.477799 257.907242 
L 254.708839 254.302038 
L 254.93988 271.356605 
L 255.17092 265.720842 
L 255.401961 268.730223 
L 255.633002 267.332161 
L 255.864042 258.251472 
L 256.095083 269.291478 
L 256.326123 266.768364 
L 256.788205 267.548785 
L 257.019245 262.684845 
L 257.250286 262.280118 
L 257.481326 268.262543 
L 257.943407 251.934751 
L 258.174448 269.0775 
L 258.405489 272.262913 
L 258.636529 272.488076 
L 258.86757 258.931876 
L 259.09861 275.922631 
L 259.329651 254.925036 
L 259.560692 263.602383 
L 259.791732 258.382938 
L 260.022773 273.961913 
L 260.253813 255.126788 
L 260.484854 271.776164 
L 260.715895 265.158533 
L 260.946935 274.89446 
L 261.177976 277.965243 
L 261.409016 260.459895 
L 261.640057 259.076413 
L 261.871098 262.245809 
L 262.102138 259.304145 
L 262.333179 251.690946 
L 262.564219 278.47879 
L 262.79526 267.406316 
L 263.026301 268.148109 
L 263.257341 257.802033 
L 263.488382 266.365532 
L 263.719422 265.433259 
L 264.181504 266.51273 
L 264.412544 282.657738 
L 265.105666 257.786319 
L 265.336706 262.683354 
L 265.567747 270.232586 
L 266.029828 263.096138 
L 266.260869 269.445282 
L 266.491909 262.53833 
L 266.72295 267.563198 
L 266.953991 267.088838 
L 267.185031 266.985239 
L 267.416072 271.13101 
L 267.647112 264.705956 
L 267.878153 254.720442 
L 268.109194 251.390582 
L 268.340234 257.293369 
L 268.571275 268.055476 
L 268.802315 264.976172 
L 269.033356 274.673998 
L 269.264397 258.078823 
L 269.495437 263.14386 
L 269.726478 278.17643 
L 269.957518 273.185648 
L 270.188559 276.937885 
L 270.4196 256.173583 
L 270.65064 269.181895 
L 270.881681 269.114869 
L 271.112721 264.56858 
L 271.343762 263.30427 
L 271.574802 269.854174 
L 271.805843 268.428277 
L 272.036884 267.84067 
L 272.267924 267.932048 
L 272.730005 257.854119 
L 272.961046 263.270629 
L 273.192087 278.514104 
L 273.423127 264.527442 
L 273.654168 266.254531 
L 273.885208 262.434871 
L 274.116249 266.425675 
L 274.34729 272.777365 
L 274.57833 258.390172 
L 274.809371 263.101458 
L 275.040411 277.951212 
L 275.271452 278.080923 
L 275.502493 277.006521 
L 275.733533 269.705949 
L 275.964574 265.979041 
L 276.195614 277.07012 
L 276.426655 277.149772 
L 276.657696 261.151029 
L 276.888736 269.028905 
L 277.119777 271.238288 
L 277.350817 264.539199 
L 277.581858 263.942135 
L 277.812899 276.06911 
L 278.043939 276.444116 
L 278.27498 279.140107 
L 278.50602 262.197778 
L 278.737061 276.151795 
L 278.968101 272.037214 
L 279.199142 272.261872 
L 279.430183 273.627754 
L 279.661223 272.165051 
L 279.892264 272.833679 
L 280.354345 265.817636 
L 280.585386 275.237967 
L 280.816426 262.343366 
L 281.047467 272.426196 
L 281.278507 259.71336 
L 281.740589 270.487293 
L 281.971629 263.678158 
L 282.20267 272.658702 
L 282.43371 271.618559 
L 282.664751 269.762096 
L 282.895792 255.750723 
L 283.126832 267.351088 
L 283.357873 264.799476 
L 283.588913 267.666861 
L 283.819954 262.967546 
L 284.050995 272.662449 
L 284.282035 272.124341 
L 284.513076 276.705225 
L 284.744116 265.148717 
L 284.975157 267.062891 
L 285.206198 273.90017 
L 285.437238 265.941745 
L 285.668279 273.797702 
L 285.899319 268.677905 
L 286.13036 277.444312 
L 286.3614 264.387724 
L 286.592441 270.530945 
L 286.823482 272.1934 
L 287.054522 262.447261 
L 287.285563 274.094875 
L 287.516603 263.911786 
L 287.747644 269.318149 
L 287.978685 279.988277 
L 288.209725 263.509818 
L 288.440766 270.861818 
L 289.133888 263.576058 
L 289.364928 262.516229 
L 289.595969 274.449467 
L 289.827009 260.528163 
L 290.289091 278.890456 
L 290.520131 266.68547 
L 290.751172 264.059525 
L 290.982212 283.872876 
L 291.213253 256.051896 
L 291.444294 263.628995 
L 291.675334 263.576922 
L 291.906375 273.714531 
L 292.137415 258.425835 
L 292.599497 264.518958 
L 292.830537 270.963612 
L 293.061578 272.045748 
L 293.292618 264.385232 
L 293.523659 280.622505 
L 293.98574 261.443573 
L 294.447821 281.09395 
L 294.678862 261.739095 
L 294.909902 277.680483 
L 295.140943 269.650926 
L 295.371984 278.836819 
L 295.603024 260.598581 
L 295.834065 273.654883 
L 296.065105 265.59766 
L 296.296146 268.76435 
L 296.527187 277.900044 
L 296.758227 267.837483 
L 296.989268 281.784721 
L 297.220308 270.824294 
L 297.451349 275.590345 
L 297.91343 267.721998 
L 298.144471 279.957692 
L 298.375511 266.564038 
L 298.606552 269.608183 
L 298.837593 262.509041 
L 299.068633 282.781375 
L 299.299674 269.087043 
L 299.530714 271.244153 
L 299.761755 282.846269 
L 299.992796 273.324343 
L 300.454877 269.581599 
L 300.916958 275.33687 
L 301.147998 274.386846 
L 301.379039 270.353336 
L 301.61008 274.862269 
L 301.84112 265.051687 
L 302.303201 272.236011 
L 302.534242 267.804151 
L 302.765283 268.107121 
L 302.996323 266.036242 
L 303.227364 268.179412 
L 303.458404 265.562051 
L 303.689445 273.128965 
L 303.920486 273.207322 
L 304.151526 270.321314 
L 304.382567 271.703768 
L 304.613607 292.691902 
L 304.844648 268.022844 
L 305.075689 266.205082 
L 305.306729 275.384778 
L 305.53777 264.182143 
L 305.999851 278.154119 
L 306.230892 267.438374 
L 306.461932 262.809332 
L 306.692973 277.134414 
L 306.924013 267.523842 
L 307.155054 270.480364 
L 307.386095 275.872127 
L 307.617135 291.116643 
L 307.848176 289.298657 
L 308.079216 275.966929 
L 308.310257 277.49197 
L 308.541297 273.209791 
L 308.772338 283.455663 
L 309.003379 275.054392 
L 309.234419 278.802933 
L 309.46546 286.2585 
L 309.927541 265.232788 
L 310.158582 276.3791 
L 310.389622 272.864837 
L 310.620663 274.025671 
L 310.851703 276.209737 
L 311.082744 266.477375 
L 311.313785 285.928914 
L 311.544825 269.936391 
L 311.775866 267.069638 
L 312.006906 270.231004 
L 312.237947 292.797584 
L 312.700028 277.062072 
L 312.931069 274.665477 
L 313.162109 276.866494 
L 313.39315 284.73545 
L 313.624191 272.201147 
L 313.855231 276.462753 
L 314.086272 278.250672 
L 314.317312 265.652275 
L 314.548353 267.945647 
L 314.779393 273.024715 
L 315.010434 268.271391 
L 315.241475 282.324347 
L 315.472515 268.981702 
L 315.703556 285.218967 
L 315.934596 272.873521 
L 316.165637 269.681507 
L 316.396678 276.881134 
L 316.627718 264.241586 
L 316.858759 263.678994 
L 317.089799 285.494452 
L 317.782921 269.756353 
L 318.013962 269.955596 
L 318.245002 274.644117 
L 318.476043 274.137227 
L 318.707084 278.730142 
L 319.169165 268.530217 
L 319.631246 278.263907 
L 319.862287 266.620999 
L 320.093327 273.026802 
L 320.324368 270.562417 
L 320.555408 284.865038 
L 320.786449 277.646324 
L 321.01749 266.609578 
L 321.479571 288.177744 
L 321.710611 277.921795 
L 321.941652 273.311853 
L 322.172692 294.670461 
L 322.403733 272.676939 
L 322.634774 285.133376 
L 323.096855 270.38393 
L 323.327895 276.345418 
L 323.558936 277.569745 
L 323.789977 272.439927 
L 324.021017 277.612656 
L 324.252058 275.456615 
L 324.483098 277.422452 
L 324.714139 281.019504 
L 324.94518 273.834516 
L 325.17622 276.777948 
L 325.407261 276.927696 
L 325.638301 280.109731 
L 325.869342 265.482458 
L 326.100383 282.767726 
L 326.331423 279.647471 
L 326.562464 279.874038 
L 326.793504 277.765205 
L 327.024545 277.520587 
L 327.255586 284.040342 
L 327.486626 286.677827 
L 327.717667 275.52611 
L 327.948707 277.8157 
L 328.179748 275.269248 
L 328.410789 290.092363 
L 328.641829 271.215714 
L 329.10391 285.283802 
L 329.334951 271.993566 
L 329.565991 279.035725 
L 329.797032 267.880553 
L 330.028073 270.171993 
L 330.259113 283.349099 
L 330.490154 282.403299 
L 330.721194 276.169468 
L 330.952235 278.993583 
L 331.183276 278.903082 
L 331.414316 273.395166 
L 331.645357 287.418674 
L 331.876397 288.511603 
L 332.107438 277.163126 
L 332.107438 277.163126 
" clip-path="url(#pc7174209dc)" style="fill: none; stroke: #ff9900; stroke-linecap: square"/>
   </g>
   <g id="line2d_15">
    <path d="M 101.528926 55.8 
L 101.759966 83.467908 
L 101.991007 77.422648 
L 102.222047 84.641813 
L 102.453088 80.443932 
L 102.684129 67.997211 
L 102.915169 83.036724 
L 103.14621 111.524045 
L 103.37725 88.164736 
L 103.608291 95.800782 
L 103.839332 97.288077 
L 104.070372 116.049074 
L 104.301413 118.143381 
L 104.532453 137.211257 
L 104.763494 133.752323 
L 104.994535 145.902049 
L 105.225575 145.365755 
L 105.456616 151.427974 
L 105.687656 169.843026 
L 105.918697 150.502106 
L 106.149737 163.618329 
L 106.380778 164.711631 
L 106.611819 160.595999 
L 106.842859 168.778968 
L 107.0739 182.775519 
L 107.30494 174.769359 
L 107.535981 173.76378 
L 107.767022 184.726407 
L 107.998062 178.197004 
L 108.460143 183.524195 
L 108.691184 176.149272 
L 108.922225 186.257141 
L 109.153265 175.295796 
L 109.384306 187.919045 
L 109.615346 185.869977 
L 109.846387 195.828816 
L 110.077428 193.290866 
L 110.308468 199.260625 
L 110.539509 187.349052 
L 110.770549 201.180523 
L 111.00159 196.334234 
L 111.232631 198.002498 
L 111.463671 207.996147 
L 111.694712 198.512731 
L 111.925752 199.628275 
L 112.156793 196.256018 
L 112.387834 203.743034 
L 112.618874 195.217685 
L 112.849915 210.779296 
L 113.080955 203.786227 
L 113.311996 204.570512 
L 113.543036 202.645585 
L 113.774077 198.934395 
L 114.005118 219.858148 
L 114.467199 200.134497 
L 114.698239 212.442787 
L 114.92928 217.403693 
L 115.160321 216.988071 
L 115.391361 217.492934 
L 115.622402 204.607322 
L 115.853442 219.878258 
L 116.084483 203.244804 
L 116.315524 211.075841 
L 116.546564 211.938688 
L 116.777605 217.791248 
L 117.008645 210.498205 
L 117.470727 214.690334 
L 117.701767 230.152043 
L 117.932808 223.679572 
L 118.163848 223.15665 
L 118.394889 212.346421 
L 118.62593 219.195262 
L 118.85697 217.53204 
L 119.088011 210.431897 
L 119.319051 219.963134 
L 119.550092 218.008836 
L 119.781133 224.522741 
L 120.243214 211.216564 
L 120.474254 221.815406 
L 120.705295 225.599825 
L 120.936335 225.967661 
L 121.167376 227.11174 
L 121.398417 217.752242 
L 121.860498 228.13391 
L 122.091538 219.516732 
L 122.322579 217.694191 
L 122.55362 223.825382 
L 122.78466 235.535813 
L 123.015701 227.178703 
L 123.246741 225.483817 
L 123.477782 224.963778 
L 123.708823 224.854795 
L 123.939863 223.750349 
L 124.170904 228.933426 
L 124.401944 224.432872 
L 124.632985 223.53779 
L 124.864026 227.664165 
L 125.095066 224.476229 
L 125.326107 219.627616 
L 125.557147 220.065488 
L 125.788188 229.115683 
L 126.019229 231.941916 
L 126.250269 225.3648 
L 126.71235 233.11463 
L 126.943391 247.835619 
L 127.174432 222.136544 
L 127.405472 230.456272 
L 127.867553 222.927299 
L 128.098594 238.616858 
L 128.329634 226.448672 
L 128.560675 236.685015 
L 128.791716 233.158668 
L 129.022756 220.777209 
L 129.253797 236.401264 
L 129.484837 234.793179 
L 129.715878 237.110308 
L 129.946919 227.289645 
L 130.177959 235.748891 
L 130.64004 227.470183 
L 130.871081 227.329374 
L 131.102122 225.166758 
L 131.333162 239.206061 
L 131.564203 237.476748 
L 131.795243 237.327032 
L 132.257325 229.379524 
L 132.488365 237.690122 
L 132.719406 236.068546 
L 132.950446 244.982032 
L 133.181487 230.023132 
L 133.412528 226.010868 
L 133.643568 234.063294 
L 133.874609 235.995891 
L 134.105649 236.793839 
L 134.567731 228.63504 
L 135.029812 237.376095 
L 135.260852 228.674232 
L 135.722933 244.900557 
L 135.953974 234.100827 
L 136.185015 233.835262 
L 136.416055 243.128119 
L 136.647096 247.509143 
L 136.878136 229.711505 
L 137.109177 238.944447 
L 137.340218 236.826143 
L 137.571258 231.62954 
L 137.802299 240.727633 
L 138.033339 228.585636 
L 138.26438 234.747876 
L 138.495421 245.754919 
L 138.726461 234.658567 
L 138.957502 251.709592 
L 139.419583 236.55234 
L 139.650624 233.909922 
L 140.112705 235.945355 
L 140.343745 238.241715 
L 140.574786 250.987482 
L 141.036867 234.44202 
L 141.267908 241.711202 
L 141.498948 232.724324 
L 141.729989 248.323382 
L 141.961029 246.341117 
L 142.19207 238.570155 
L 142.423111 224.459133 
L 142.654151 234.350109 
L 142.885192 236.010168 
L 143.347273 245.730804 
L 143.809354 237.993014 
L 144.040395 238.797441 
L 144.502476 249.397483 
L 144.733517 236.528043 
L 144.964557 245.139678 
L 145.195598 238.44916 
L 145.426638 242.307988 
L 145.657679 233.516716 
L 145.88872 237.659182 
L 146.11976 249.542771 
L 146.350801 241.549101 
L 146.581841 243.520708 
L 146.812882 243.173859 
L 147.043923 234.148757 
L 147.274963 235.672662 
L 147.506004 231.21455 
L 147.737044 248.791139 
L 147.968085 243.245 
L 148.430166 237.165513 
L 148.661207 232.017672 
L 149.123288 247.320953 
L 149.354328 237.210102 
L 149.81641 246.52932 
L 150.04745 238.64622 
L 150.278491 243.769163 
L 150.509531 244.847252 
L 150.740572 244.142542 
L 150.971613 239.710428 
L 151.202653 244.851703 
L 151.433694 259.442386 
L 151.664734 232.339233 
L 151.895775 246.674763 
L 152.126816 244.637452 
L 152.357856 247.748496 
L 152.588897 240.092286 
L 152.819937 245.77968 
L 153.282019 240.231509 
L 153.513059 242.564587 
L 153.7441 238.794427 
L 153.97514 245.059575 
L 154.206181 243.989379 
L 154.437222 249.968918 
L 154.668262 251.223343 
L 154.899303 248.608415 
L 155.130343 240.841135 
L 155.361384 260.681962 
L 155.592425 245.179606 
L 155.823465 242.928977 
L 156.285546 249.171365 
L 156.516587 234.781299 
L 156.747627 245.69248 
L 157.209709 239.293092 
L 157.440749 243.529624 
L 157.67179 245.588895 
L 157.90283 246.351688 
L 158.133871 254.672398 
L 158.364912 248.744245 
L 158.595952 249.460254 
L 158.826993 246.360649 
L 159.058033 248.686694 
L 159.289074 255.830234 
L 159.520115 242.683099 
L 159.751155 244.057129 
L 159.982196 252.47886 
L 160.213236 252.803944 
L 160.444277 258.90074 
L 160.675318 246.496762 
L 160.906358 247.307663 
L 161.137399 237.036484 
L 161.368439 254.1024 
L 161.59948 245.644432 
L 161.830521 248.250049 
L 162.061561 252.993457 
L 162.292602 248.522024 
L 162.523642 246.879661 
L 162.754683 242.97834 
L 162.985724 236.165158 
L 163.678845 254.991812 
L 163.909886 239.685012 
L 164.140926 248.512867 
L 164.371967 240.440176 
L 164.603008 246.487428 
L 164.834048 238.625496 
L 165.296129 249.333153 
L 165.52717 246.618475 
L 165.758211 246.635143 
L 165.989251 253.264746 
L 166.220292 241.651173 
L 166.451332 250.38413 
L 166.682373 247.045673 
L 166.913414 251.866401 
L 167.144454 250.179195 
L 167.375495 257.446327 
L 167.606535 247.254036 
L 167.837576 247.256168 
L 168.068617 264.20694 
L 168.299657 250.889034 
L 168.530698 259.823116 
L 168.761738 251.272411 
L 168.992779 257.623409 
L 169.22382 267.749623 
L 169.45486 249.885882 
L 169.685901 260.68388 
L 169.916941 257.090066 
L 170.147982 247.854187 
L 170.379023 258.273609 
L 170.610063 252.582123 
L 170.841104 256.277378 
L 171.072144 243.611831 
L 171.303185 253.359939 
L 171.534225 256.149104 
L 171.765266 246.731396 
L 171.996307 248.762773 
L 172.227347 245.884539 
L 172.458388 257.053325 
L 172.689428 252.03369 
L 172.920469 250.556316 
L 173.15151 256.920767 
L 173.38255 250.967086 
L 173.613591 254.269025 
L 173.844631 252.881678 
L 174.075672 242.61029 
L 174.306713 255.502458 
L 174.537753 261.031844 
L 174.768794 257.893229 
L 174.999834 264.206104 
L 175.230875 261.329157 
L 175.461916 255.069164 
L 175.692956 255.670079 
L 175.923997 257.794535 
L 176.155037 251.783511 
L 176.386078 261.1777 
L 176.617119 256.302921 
L 176.848159 246.237349 
L 177.0792 258.792799 
L 177.31024 260.555206 
L 177.541281 244.341939 
L 177.772322 273.126905 
L 178.003362 250.594921 
L 178.234403 264.823428 
L 178.465443 248.106212 
L 178.696484 254.233329 
L 178.927524 253.107373 
L 179.158565 253.34258 
L 179.389606 254.604098 
L 179.620646 254.124037 
L 179.851687 269.572351 
L 180.082727 256.033005 
L 180.544809 258.49468 
L 180.775849 257.203905 
L 181.00689 251.959975 
L 181.468971 266.384978 
L 181.700012 247.475898 
L 181.931052 259.416542 
L 182.162093 255.298333 
L 182.393133 261.852798 
L 182.624174 261.650022 
L 182.855215 254.279186 
L 183.086255 251.976721 
L 183.317296 253.146611 
L 183.779377 260.729606 
L 184.010418 255.069173 
L 184.241458 253.069445 
L 184.472499 262.022414 
L 184.703539 255.111321 
L 185.16562 258.6584 
L 185.396661 248.683602 
L 185.858742 265.490173 
L 186.089783 260.240202 
L 186.320823 259.112427 
L 186.551864 263.045689 
L 186.782905 271.508308 
L 187.244986 258.488902 
L 187.476026 260.824512 
L 187.707067 250.148851 
L 187.938108 262.240194 
L 188.169148 261.000103 
L 188.400189 248.989095 
L 188.86227 243.766476 
L 189.093311 256.173233 
L 189.324351 252.840354 
L 189.555392 260.464537 
L 189.786432 256.274636 
L 190.017473 267.803497 
L 190.248514 254.463243 
L 190.479554 270.329616 
L 190.710595 248.399397 
L 190.941635 267.588854 
L 191.172676 257.808707 
L 191.403717 263.259099 
L 191.634757 253.355956 
L 191.865798 262.480874 
L 192.096838 246.478043 
L 192.327879 261.185211 
L 192.558919 260.449711 
L 193.021001 268.261906 
L 193.252041 268.699897 
L 193.483082 256.560669 
L 193.714122 254.033232 
L 193.945163 264.588071 
L 194.176204 250.633654 
L 194.407244 265.552385 
L 194.638285 261.529286 
L 194.869325 255.151054 
L 195.100366 253.232006 
L 195.331407 249.696738 
L 195.562447 262.872121 
L 195.793488 257.42182 
L 196.024528 256.016678 
L 196.255569 265.297678 
L 196.48661 263.729794 
L 196.71765 259.949804 
L 197.179731 271.244922 
L 197.410772 248.810412 
L 197.641813 263.933706 
L 197.872853 258.547126 
L 198.103894 258.17387 
L 198.334934 266.185608 
L 198.565975 259.56078 
L 198.797016 260.202937 
L 199.028056 261.977889 
L 199.259097 250.912194 
L 199.490137 248.295829 
L 199.721178 263.031513 
L 199.952218 259.690009 
L 200.183259 254.275826 
L 200.4143 270.740309 
L 200.64534 265.099558 
L 200.876381 270.905311 
L 201.107421 267.580907 
L 201.338462 262.316895 
L 201.569503 271.193876 
L 201.800543 268.482495 
L 202.031584 258.797668 
L 202.262624 255.989653 
L 202.493665 257.984557 
L 202.724706 257.194834 
L 203.186787 266.52882 
L 203.417827 257.4839 
L 203.648868 268.070311 
L 203.879909 264.548056 
L 204.110949 272.489476 
L 204.34199 269.814055 
L 204.57303 269.422289 
L 205.035112 261.975889 
L 205.266152 263.106314 
L 205.497193 267.636139 
L 205.728233 268.687558 
L 205.959274 261.270787 
L 206.190315 276.419074 
L 206.421355 259.417775 
L 206.652396 268.311819 
L 206.883436 266.58844 
L 207.114477 251.097524 
L 207.345517 257.877625 
L 207.576558 280.801343 
L 208.038639 261.324738 
L 208.26968 265.926055 
L 208.50072 261.90853 
L 208.962802 262.97849 
L 209.193842 265.692649 
L 209.424883 262.384536 
L 209.655923 260.769976 
L 209.886964 268.559124 
L 210.118005 261.083871 
L 210.349045 268.366579 
L 210.580086 259.051984 
L 210.811126 255.048477 
L 211.042167 245.843029 
L 211.273208 262.716017 
L 211.504248 266.230493 
L 211.735289 256.599248 
L 212.19737 272.416112 
L 212.428411 262.905062 
L 212.659451 271.007383 
L 212.890492 273.132857 
L 213.121532 264.447971 
L 213.352573 265.028972 
L 213.583614 266.27535 
L 213.814654 270.517787 
L 214.045695 269.550059 
L 214.276735 269.274274 
L 214.507776 273.457373 
L 214.738816 270.216377 
L 214.969857 262.400531 
L 215.200898 269.630307 
L 215.431938 267.099923 
L 215.662979 250.622455 
L 215.894019 256.917971 
L 216.356101 272.119158 
L 216.587141 270.266649 
L 216.818182 275.131767 
L 217.049222 263.060993 
L 217.280263 263.862546 
L 217.511304 268.02891 
L 217.973385 259.185437 
L 218.435466 268.503024 
L 218.666507 274.986133 
L 218.897547 260.990087 
L 219.128588 256.332392 
L 219.359628 268.00077 
L 219.590669 265.763131 
L 219.82171 258.997743 
L 220.05275 263.164711 
L 220.283791 260.669727 
L 220.514831 266.628023 
L 220.745872 275.970416 
L 220.976913 258.477958 
L 221.207953 288.132982 
L 221.438994 269.921242 
L 221.670034 272.133102 
L 221.901075 287.04379 
L 222.132115 270.949831 
L 222.363156 278.920773 
L 222.594197 267.054475 
L 222.825237 272.667286 
L 223.056278 265.208137 
L 223.287318 274.078048 
L 223.518359 259.840848 
L 223.7494 279.527535 
L 224.211481 260.730724 
L 224.442521 279.11109 
L 224.673562 269.669435 
L 224.904603 270.868583 
L 225.135643 267.059735 
L 225.366684 272.657338 
L 225.597724 268.375404 
L 225.828765 273.09131 
L 226.059806 269.546117 
L 226.290846 273.220557 
L 226.521887 279.893821 
L 226.752927 270.655532 
L 226.983968 272.848119 
L 227.215009 272.804044 
L 227.446049 275.606404 
L 227.67709 274.355297 
L 227.90813 270.488616 
L 228.139171 272.436504 
L 228.370211 284.022852 
L 228.601252 276.201894 
L 228.832293 262.920206 
L 229.063333 277.411899 
L 229.294374 279.004904 
L 229.525414 265.225236 
L 229.756455 270.019704 
L 229.987496 282.735417 
L 230.218536 259.477913 
L 230.449577 289.645952 
L 230.680617 268.77714 
L 230.911658 272.605261 
L 231.142699 270.003549 
L 231.373739 262.991757 
L 231.60478 275.52621 
L 231.83582 275.248633 
L 232.066861 265.509183 
L 232.297902 268.820065 
L 232.528942 269.022449 
L 232.759983 263.725011 
L 232.991023 276.215739 
L 233.222064 273.257635 
L 233.453105 278.799737 
L 233.684145 267.905891 
L 233.915186 267.537396 
L 234.377267 287.658118 
L 234.608308 270.348189 
L 234.839348 285.175469 
L 235.070389 279.106039 
L 235.301429 284.728707 
L 235.53247 274.530188 
L 235.76351 276.357803 
L 235.994551 265.848839 
L 236.225592 280.816283 
L 236.456632 264.553076 
L 236.687673 265.215802 
L 236.918713 270.209848 
L 237.149754 272.265541 
L 237.380795 268.266153 
L 237.611835 267.691977 
L 237.842876 277.583858 
L 238.073916 264.087387 
L 238.535998 278.648161 
L 238.767038 271.722355 
L 238.998079 274.444561 
L 239.229119 265.34745 
L 239.46016 285.732809 
L 239.691201 283.483884 
L 239.922241 285.919062 
L 240.384322 272.813356 
L 240.615363 273.452904 
L 240.846404 278.18986 
L 241.077444 270.353658 
L 241.308485 267.64591 
L 241.770566 266.910083 
L 242.001607 271.021618 
L 242.232647 263.705447 
L 242.463688 282.194091 
L 242.694728 278.191588 
L 242.925769 262.747421 
L 243.156809 274.569175 
L 243.38785 263.568024 
L 243.849931 280.072299 
L 244.080972 273.858209 
L 244.312012 273.35205 
L 244.543053 278.844408 
L 244.774094 268.43883 
L 245.005134 265.885794 
L 245.698256 282.441209 
L 245.929297 267.90781 
L 246.160337 276.082 
L 246.391378 272.705823 
L 246.622418 272.53286 
L 246.853459 270.965649 
L 247.0845 270.941288 
L 247.546581 282.812096 
L 247.777621 282.538912 
L 248.008662 276.046159 
L 248.239703 278.911661 
L 248.470743 267.473215 
L 248.701784 281.75183 
L 248.932824 279.619254 
L 249.163865 281.754381 
L 249.394906 267.030755 
L 249.625946 267.212948 
L 249.856987 272.878823 
L 250.088027 270.548491 
L 250.319068 278.457275 
L 250.550108 273.846683 
L 250.781149 282.623757 
L 251.01219 271.847564 
L 251.24323 268.449119 
L 251.705311 275.579537 
L 251.936352 266.390384 
L 252.167393 281.133156 
L 252.629474 272.193631 
L 252.860514 276.252921 
L 253.091555 285.534658 
L 253.553636 273.521194 
L 253.784677 282.015744 
L 254.015717 277.232489 
L 254.246758 292.901333 
L 254.477799 274.816876 
L 254.708839 268.279047 
L 254.93988 285.945487 
L 255.17092 279.228448 
L 255.401961 283.951306 
L 255.633002 283.761343 
L 255.864042 273.336478 
L 256.095083 283.701918 
L 256.326123 281.05956 
L 256.557164 282.080352 
L 256.788205 282.188835 
L 257.019245 277.271781 
L 257.250286 276.332456 
L 257.481326 281.651263 
L 257.943407 266.256481 
L 258.174448 283.152189 
L 258.405489 288.889924 
L 258.636529 288.154006 
L 258.86757 271.285532 
L 259.09861 290.698821 
L 259.329651 269.671231 
L 259.560692 277.918958 
L 259.791732 272.726092 
L 260.022773 288.663683 
L 260.253813 270.305464 
L 260.484854 287.277719 
L 260.715895 279.832696 
L 260.946935 288.837892 
L 261.177976 292.813269 
L 261.409016 274.811729 
L 261.640057 273.817294 
L 261.871098 276.652611 
L 262.102138 275.734232 
L 262.333179 268.654495 
L 262.564219 292.707715 
L 262.79526 282.035927 
L 263.026301 284.40335 
L 263.257341 273.309112 
L 263.488382 282.616505 
L 263.950463 280.108086 
L 264.181504 282.90798 
L 264.412544 297.220586 
L 264.643585 287.613565 
L 264.874625 283.574626 
L 265.105666 272.368313 
L 265.336706 277.925787 
L 265.567747 286.332255 
L 265.798788 280.192039 
L 266.029828 277.672508 
L 266.260869 285.392566 
L 266.491909 277.983011 
L 266.72295 282.287715 
L 267.185031 283.447639 
L 267.416072 287.118246 
L 267.647112 281.000958 
L 267.878153 270.566186 
L 268.109194 266.417255 
L 268.340234 272.319855 
L 268.571275 282.72526 
L 268.802315 279.807994 
L 269.033356 289.629448 
L 269.264397 273.314072 
L 269.495437 278.496899 
L 269.726478 292.78493 
L 269.957518 287.563298 
L 270.188559 292.253088 
L 270.4196 271.402153 
L 270.65064 284.369669 
L 270.881681 284.936261 
L 271.112721 279.671372 
L 271.343762 277.498354 
L 271.574802 284.513806 
L 271.805843 282.764707 
L 272.036884 282.469398 
L 272.267924 282.717267 
L 272.730005 272.226608 
L 272.961046 278.144176 
L 273.192087 293.122641 
L 273.423127 279.950126 
L 273.654168 281.917487 
L 273.885208 276.295182 
L 274.34729 288.834519 
L 274.57833 272.574285 
L 274.809371 278.132705 
L 275.040411 293.457159 
L 275.271452 294.282678 
L 275.502493 291.141845 
L 275.964574 280.595453 
L 276.195614 291.366721 
L 276.426655 292.277367 
L 276.657696 276.614897 
L 276.888736 284.551202 
L 277.119777 286.378081 
L 277.581858 277.763441 
L 277.812899 290.71387 
L 278.043939 291.492077 
L 278.27498 293.107223 
L 278.50602 277.23293 
L 278.737061 290.442945 
L 278.968101 286.671962 
L 279.430183 289.043627 
L 279.661223 286.447335 
L 279.892264 288.402884 
L 280.123304 282.581905 
L 280.354345 279.798387 
L 280.585386 289.822861 
L 280.816426 277.455611 
L 281.047467 287.907082 
L 281.278507 275.238744 
L 281.740589 285.34604 
L 281.971629 279.007768 
L 282.20267 287.438493 
L 282.43371 287.655049 
L 282.664751 284.087505 
L 282.895792 271.153525 
L 283.126832 283.109142 
L 283.357873 280.400993 
L 283.588913 283.606366 
L 283.819954 278.164567 
L 284.050995 288.195653 
L 284.282035 287.527789 
L 284.513076 292.185416 
L 284.744116 279.923406 
L 284.975157 282.603742 
L 285.206198 289.115737 
L 285.437238 281.045538 
L 285.668279 289.473016 
L 285.899319 284.032472 
L 286.13036 291.615627 
L 286.3614 281.801743 
L 286.592441 286.694622 
L 286.823482 286.359044 
L 287.054522 276.594737 
L 287.285563 290.113482 
L 287.516603 280.384098 
L 287.747644 283.779166 
L 287.978685 295.38661 
L 288.209725 279.032502 
L 288.440766 286.148549 
L 288.671806 281.520993 
L 288.902847 281.073522 
L 289.133888 278.461926 
L 289.364928 277.728763 
L 289.595969 288.839247 
L 289.827009 275.855814 
L 290.289091 292.757541 
L 290.520131 281.678675 
L 290.751172 278.538169 
L 290.982212 299.765697 
L 291.213253 270.490726 
L 291.444294 278.360796 
L 291.675334 279.312102 
L 291.906375 288.132541 
L 292.137415 273.160219 
L 292.599497 278.677996 
L 292.830537 286.397459 
L 293.061578 287.164758 
L 293.292618 279.594498 
L 293.523659 295.046172 
L 293.98574 277.466368 
L 294.216781 289.892743 
L 294.447821 295.330982 
L 294.678862 277.285958 
L 294.909902 292.051235 
L 295.140943 285.009217 
L 295.371984 294.376598 
L 295.603024 275.936103 
L 295.834065 288.949798 
L 296.065105 281.097606 
L 296.296146 283.034741 
L 296.527187 292.921798 
L 296.758227 283.345303 
L 296.989268 296.555713 
L 297.220308 284.708698 
L 297.451349 292.064493 
L 297.91343 282.580859 
L 298.144471 295.791215 
L 298.375511 282.634496 
L 298.606552 284.961109 
L 298.837593 278.204819 
L 299.068633 299.201668 
L 299.299674 285.373829 
L 299.530714 285.623699 
L 299.761755 297.84272 
L 299.992796 288.699747 
L 300.223836 285.263905 
L 300.454877 283.695612 
L 300.685917 288.553196 
L 300.916958 290.394983 
L 301.147998 287.575174 
L 301.379039 287.802755 
L 301.61008 292.17534 
L 301.84112 281.955761 
L 302.303201 287.401742 
L 302.534242 283.271534 
L 302.765283 284.008516 
L 302.996323 280.446382 
L 303.227364 284.82115 
L 303.458404 279.690227 
L 303.689445 288.793449 
L 303.920486 288.344951 
L 304.151526 284.830966 
L 304.382567 285.617079 
L 304.613607 307.035952 
L 304.844648 283.839695 
L 305.075689 280.334631 
L 305.306729 291.050339 
L 305.53777 280.733666 
L 305.999851 292.617819 
L 306.230892 282.436999 
L 306.461932 277.957004 
L 306.692973 294.186571 
L 306.924013 283.773214 
L 307.155054 286.468545 
L 307.386095 290.825235 
L 307.617135 304.600788 
L 307.848176 303.933647 
L 308.079216 290.338027 
L 308.310257 294.132916 
L 308.541297 289.130364 
L 308.772338 298.311228 
L 309.003379 290.200882 
L 309.234419 292.978831 
L 309.46546 300.994065 
L 309.927541 279.138316 
L 310.158582 290.5506 
L 310.389622 287.651016 
L 310.620663 288.545825 
L 310.851703 290.33785 
L 311.082744 282.399935 
L 311.313785 300.496945 
L 311.544825 284.089455 
L 311.775866 281.980535 
L 312.006906 285.131903 
L 312.237947 306.646551 
L 312.700028 293.199474 
L 312.931069 288.536232 
L 313.39315 298.602236 
L 313.624191 288.097659 
L 313.855231 292.05114 
L 314.086272 292.803481 
L 314.317312 279.904051 
L 314.548353 283.311435 
L 314.779393 288.635681 
L 315.010434 282.48137 
L 315.241475 296.329405 
L 315.472515 284.616751 
L 315.703556 299.761632 
L 315.934596 288.37514 
L 316.165637 285.101268 
L 316.396678 290.679538 
L 316.627718 279.703358 
L 316.858759 280.078401 
L 317.089799 300.892225 
L 317.782921 282.841836 
L 318.245002 289.200268 
L 318.476043 288.497249 
L 318.707084 294.68666 
L 318.938124 290.490276 
L 319.169165 283.56692 
L 319.631246 294.059488 
L 319.862287 281.552742 
L 320.093327 288.501619 
L 320.324368 285.493038 
L 320.555408 299.205415 
L 320.786449 292.837776 
L 321.01749 282.177027 
L 321.479571 303.804663 
L 321.941652 288.122479 
L 322.172692 307.8 
L 322.403733 290.0415 
L 322.634774 300.314321 
L 323.096855 284.360053 
L 323.558936 294.585329 
L 323.789977 287.195375 
L 324.021017 293.610331 
L 324.252058 291.181623 
L 324.483098 291.961016 
L 324.714139 297.679305 
L 324.94518 288.540688 
L 325.17622 293.450071 
L 325.407261 291.853316 
L 325.638301 295.414058 
L 325.869342 281.792432 
L 326.100383 297.679964 
L 326.331423 295.745299 
L 326.562464 295.185535 
L 327.024545 292.273625 
L 327.255586 299.785211 
L 327.486626 300.534523 
L 327.717667 291.098252 
L 327.948707 292.631509 
L 328.179748 288.93489 
L 328.410789 304.332441 
L 328.641829 286.476893 
L 329.10391 299.483955 
L 329.334951 285.696418 
L 329.565991 295.779385 
L 329.797032 284.056169 
L 330.028073 285.38907 
L 330.259113 298.473702 
L 330.490154 297.264279 
L 330.721194 291.515187 
L 330.952235 294.340188 
L 331.183276 293.320751 
L 331.414316 288.931248 
L 331.645357 302.204825 
L 331.876397 304.029103 
L 332.107438 291.585628 
L 332.107438 291.585628 
" clip-path="url(#pc7174209dc)" style="fill: none; stroke: #9933cc; stroke-linecap: square"/>
   </g>
   <g id="patch_3">
    <path d="M 90 320.4 
L 90 43.2 
" style="fill: none; stroke: #ffffff; stroke-width: 0.8; stroke-linejoin: miter; stroke-linecap: square"/>
   </g>
   <g id="patch_4">
    <path d="M 90 320.4 
L 343.636364 320.4 
" style="fill: none; stroke: #ffffff; stroke-width: 0.8; stroke-linejoin: miter; stroke-linecap: square"/>
   </g>
   <g id="text_16">
    <!-- Qwen2-3B Training -->
    <g transform="translate(145.652932 37.2) scale(0.144 -0.144)" fill="#ffffff">
     <defs>
      <path id="DejaVuSerif-51" d="M 2700 -91 
Q 1628 -91 993 567 
Q 359 1225 359 2328 
Q 359 2894 529 3339 
Q 700 3784 1050 4134 
Q 1356 4441 1750 4595 
Q 2144 4750 2625 4750 
Q 3641 4750 4266 4084 
Q 4891 3419 4891 2328 
Q 4891 1403 4422 773 
Q 3953 144 3128 -38 
Q 3297 -247 3539 -347 
Q 3781 -447 4122 -447 
L 4219 -447 
L 4219 -1025 
Q 3691 -1000 3314 -767 
Q 2938 -534 2700 -91 
z
M 2625 244 
Q 3391 244 3781 770 
Q 4172 1297 4172 2328 
Q 4172 3363 3781 3889 
Q 3391 4416 2625 4416 
Q 1856 4416 1465 3889 
Q 1075 3363 1075 2328 
Q 1075 1297 1465 770 
Q 1856 244 2625 244 
z
" transform="scale(0.015625)"/>
      <path id="DejaVuSerif-77" d="M 3072 3322 
L 3922 728 
L 4672 2988 
L 4191 2988 
L 4191 3322 
L 5394 3322 
L 5394 2988 
L 5025 2988 
L 4038 0 
L 3559 0 
L 2741 2484 
L 1919 0 
L 1459 0 
L 475 2988 
L 103 2988 
L 103 3322 
L 1606 3322 
L 1606 2988 
L 1069 2988 
L 1813 728 
L 2669 3322 
L 3072 3322 
z
" transform="scale(0.015625)"/>
      <path id="DejaVuSerif-2d" d="M 281 1959 
L 1881 1959 
L 1881 1472 
L 281 1472 
L 281 1959 
z
" transform="scale(0.015625)"/>
      <path id="DejaVuSerif-33" d="M 622 4469 
Q 988 4606 1323 4678 
Q 1659 4750 1953 4750 
Q 2638 4750 3022 4454 
Q 3406 4159 3406 3634 
Q 3406 3213 3140 2930 
Q 2875 2647 2388 2547 
Q 2963 2466 3280 2130 
Q 3597 1794 3597 1259 
Q 3597 606 3158 257 
Q 2719 -91 1894 -91 
Q 1528 -91 1179 -12 
Q 831 66 488 225 
L 488 1131 
L 838 1131 
Q 869 681 1141 450 
Q 1413 219 1906 219 
Q 2384 219 2661 495 
Q 2938 772 2938 1253 
Q 2938 1803 2653 2086 
Q 2369 2369 1819 2369 
L 1522 2369 
L 1522 2688 
L 1678 2688 
Q 2225 2688 2498 2914 
Q 2772 3141 2772 3597 
Q 2772 4006 2547 4223 
Q 2322 4441 1900 4441 
Q 1478 4441 1245 4241 
Q 1013 4041 972 3647 
L 622 3647 
L 622 4469 
z
" transform="scale(0.015625)"/>
      <path id="DejaVuSerif-42" d="M 1581 331 
L 2516 331 
Q 3078 331 3337 575 
Q 3597 819 3597 1350 
Q 3597 1878 3339 2120 
Q 3081 2363 2516 2363 
L 1581 2363 
L 1581 331 
z
M 1581 2694 
L 2375 2694 
Q 2888 2694 3123 2891 
Q 3359 3088 3359 3513 
Q 3359 3941 3123 4136 
Q 2888 4331 2375 4331 
L 1581 4331 
L 1581 2694 
z
M 353 0 
L 353 331 
L 947 331 
L 947 4331 
L 353 4331 
L 353 4666 
L 2656 4666 
Q 3363 4666 3720 4377 
Q 4078 4088 4078 3513 
Q 4078 3097 3829 2850 
Q 3581 2603 3103 2547 
Q 3697 2472 4005 2167 
Q 4313 1863 4313 1350 
Q 4313 656 3875 328 
Q 3438 0 2509 0 
L 353 0 
z
" transform="scale(0.015625)"/>
     </defs>
     <use xlink:href="#DejaVuSerif-51"/>
     <use xlink:href="#DejaVuSerif-77" transform="translate(81.982422 0)"/>
     <use xlink:href="#DejaVuSerif-65" transform="translate(167.578125 0)"/>
     <use xlink:href="#DejaVuSerif-6e" transform="translate(226.757812 0)"/>
     <use xlink:href="#DejaVuSerif-32" transform="translate(291.162109 0)"/>
     <use xlink:href="#DejaVuSerif-2d" transform="translate(354.785156 0)"/>
     <use xlink:href="#DejaVuSerif-33" transform="translate(388.574219 0)"/>
     <use xlink:href="#DejaVuSerif-42" transform="translate(452.197266 0)"/>
     <use xlink:href="#DejaVuSerif-20" transform="translate(525.683594 0)"/>
     <use xlink:href="#DejaVuSerif-54" transform="translate(557.470703 0)"/>
     <use xlink:href="#DejaVuSerif-72" transform="translate(624.169922 0)"/>
     <use xlink:href="#DejaVuSerif-61" transform="translate(671.972656 0)"/>
     <use xlink:href="#DejaVuSerif-69" transform="translate(731.591797 0)"/>
     <use xlink:href="#DejaVuSerif-6e" transform="translate(763.574219 0)"/>
     <use xlink:href="#DejaVuSerif-69" transform="translate(827.978516 0)"/>
     <use xlink:href="#DejaVuSerif-6e" transform="translate(859.960938 0)"/>
     <use xlink:href="#DejaVuSerif-67" transform="translate(924.365234 0)"/>
    </g>
   </g>
   <g id="legend_1"/>
  </g>
  <g id="axes_2">
   <g id="patch_5">
    <path d="M 394.363636 320.4 
L 648 320.4 
L 648 43.2 
L 394.363636 43.2 
L 394.363636 320.4 
z
" style="fill: none"/>
   </g>
   <g id="FillBetweenPolyCollection_3"/>
   <g id="FillBetweenPolyCollection_4"/>
   <g id="matplotlib.axis_3">
    <g id="xtick_7">
     <g id="line2d_16">
      <g>
       <use xlink:href="#m34775e0c66" x="435.003099" y="320.4" style="stroke: #ffffff; stroke-width: 0.8"/>
      </g>
     </g>
     <g id="text_17">
      <!-- 200 -->
      <g transform="translate(423.550599 336.518125) scale(0.12 -0.12)" fill="#ffffff">
       <use xlink:href="#DejaVuSerif-32"/>
       <use xlink:href="#DejaVuSerif-30" transform="translate(63.623047 0)"/>
       <use xlink:href="#DejaVuSerif-30" transform="translate(127.246094 0)"/>
      </g>
     </g>
    </g>
    <g id="xtick_8">
     <g id="line2d_17">
      <g>
       <use xlink:href="#m34775e0c66" x="492.647727" y="320.4" style="stroke: #ffffff; stroke-width: 0.8"/>
      </g>
     </g>
     <g id="text_18">
      <!-- 400 -->
      <g transform="translate(481.195227 336.518125) scale(0.12 -0.12)" fill="#ffffff">
       <use xlink:href="#DejaVuSerif-34"/>
       <use xlink:href="#DejaVuSerif-30" transform="translate(63.623047 0)"/>
       <use xlink:href="#DejaVuSerif-30" transform="translate(127.246094 0)"/>
      </g>
     </g>
    </g>
    <g id="xtick_9">
     <g id="line2d_18">
      <g>
       <use xlink:href="#m34775e0c66" x="550.292355" y="320.4" style="stroke: #ffffff; stroke-width: 0.8"/>
      </g>
     </g>
     <g id="text_19">
      <!-- 600 -->
      <g transform="translate(538.839855 336.518125) scale(0.12 -0.12)" fill="#ffffff">
       <use xlink:href="#DejaVuSerif-36"/>
       <use xlink:href="#DejaVuSerif-30" transform="translate(63.623047 0)"/>
       <use xlink:href="#DejaVuSerif-30" transform="translate(127.246094 0)"/>
      </g>
     </g>
    </g>
    <g id="xtick_10">
     <g id="line2d_19">
      <g>
       <use xlink:href="#m34775e0c66" x="607.936983" y="320.4" style="stroke: #ffffff; stroke-width: 0.8"/>
      </g>
     </g>
     <g id="text_20">
      <!-- 800 -->
      <g transform="translate(596.484483 336.518125) scale(0.12 -0.12)" fill="#ffffff">
       <use xlink:href="#DejaVuSerif-38"/>
       <use xlink:href="#DejaVuSerif-30" transform="translate(63.623047 0)"/>
       <use xlink:href="#DejaVuSerif-30" transform="translate(127.246094 0)"/>
      </g>
     </g>
    </g>
    <g id="text_21">
     <!-- Training Steps -->
     <g transform="translate(476.427443 351.96125) scale(0.12 -0.12)" fill="#ffffff">
      <use xlink:href="#DejaVuSerif-54"/>
      <use xlink:href="#DejaVuSerif-72" transform="translate(66.699219 0)"/>
      <use xlink:href="#DejaVuSerif-61" transform="translate(114.501953 0)"/>
      <use xlink:href="#DejaVuSerif-69" transform="translate(174.121094 0)"/>
      <use xlink:href="#DejaVuSerif-6e" transform="translate(206.103516 0)"/>
      <use xlink:href="#DejaVuSerif-69" transform="translate(270.507812 0)"/>
      <use xlink:href="#DejaVuSerif-6e" transform="translate(302.490234 0)"/>
      <use xlink:href="#DejaVuSerif-67" transform="translate(366.894531 0)"/>
      <use xlink:href="#DejaVuSerif-20" transform="translate(430.908203 0)"/>
      <use xlink:href="#DejaVuSerif-53" transform="translate(462.695312 0)"/>
      <use xlink:href="#DejaVuSerif-74" transform="translate(531.201172 0)"/>
      <use xlink:href="#DejaVuSerif-65" transform="translate(571.386719 0)"/>
      <use xlink:href="#DejaVuSerif-70" transform="translate(630.566406 0)"/>
      <use xlink:href="#DejaVuSerif-73" transform="translate(694.580078 0)"/>
     </g>
    </g>
   </g>
   <g id="matplotlib.axis_4">
    <g id="ytick_8">
     <g id="line2d_20">
      <g>
       <use xlink:href="#maa2f01f484" x="394.363636" y="279.988542" style="stroke: #ffffff; stroke-width: 0.8"/>
      </g>
     </g>
     <g id="text_22">
      <!-- 7 -->
      <g transform="translate(379.728636 284.547604) scale(0.12 -0.12)" fill="#ffffff">
       <use xlink:href="#DejaVuSerif-37"/>
      </g>
     </g>
    </g>
    <g id="ytick_9">
     <g id="line2d_21">
      <g>
       <use xlink:href="#maa2f01f484" x="394.363636" y="238.088233" style="stroke: #ffffff; stroke-width: 0.8"/>
      </g>
     </g>
     <g id="text_23">
      <!-- 8 -->
      <g transform="translate(379.728636 242.647295) scale(0.12 -0.12)" fill="#ffffff">
       <use xlink:href="#DejaVuSerif-38"/>
      </g>
     </g>
    </g>
    <g id="ytick_10">
     <g id="line2d_22">
      <g>
       <use xlink:href="#maa2f01f484" x="394.363636" y="196.187924" style="stroke: #ffffff; stroke-width: 0.8"/>
      </g>
     </g>
     <g id="text_24">
      <!-- 9 -->
      <g transform="translate(379.728636 200.746986) scale(0.12 -0.12)" fill="#ffffff">
       <use xlink:href="#DejaVuSerif-39"/>
      </g>
     </g>
    </g>
    <g id="ytick_11">
     <g id="line2d_23">
      <g>
       <use xlink:href="#maa2f01f484" x="394.363636" y="154.287615" style="stroke: #ffffff; stroke-width: 0.8"/>
      </g>
     </g>
     <g id="text_25">
      <!-- 10 -->
      <g transform="translate(372.093636 158.846678) scale(0.12 -0.12)" fill="#ffffff">
       <use xlink:href="#DejaVuSerif-31"/>
       <use xlink:href="#DejaVuSerif-30" transform="translate(63.623047 0)"/>
      </g>
     </g>
    </g>
    <g id="ytick_12">
     <g id="line2d_24">
      <g>
       <use xlink:href="#maa2f01f484" x="394.363636" y="112.387306" style="stroke: #ffffff; stroke-width: 0.8"/>
      </g>
     </g>
     <g id="text_26">
      <!-- 11 -->
      <g transform="translate(372.093636 116.946369) scale(0.12 -0.12)" fill="#ffffff">
       <use xlink:href="#DejaVuSerif-31"/>
       <use xlink:href="#DejaVuSerif-31" transform="translate(63.623047 0)"/>
      </g>
     </g>
    </g>
    <g id="ytick_13">
     <g id="line2d_25">
      <g>
       <use xlink:href="#maa2f01f484" x="394.363636" y="70.486997" style="stroke: #ffffff; stroke-width: 0.8"/>
      </g>
     </g>
     <g id="text_27">
      <!-- 12 -->
      <g transform="translate(372.093636 75.04606) scale(0.12 -0.12)" fill="#ffffff">
       <use xlink:href="#DejaVuSerif-31"/>
       <use xlink:href="#DejaVuSerif-32" transform="translate(63.623047 0)"/>
      </g>
     </g>
    </g>
    <g id="text_28">
     <!-- Validation Cross Entropy -->
     <g transform="translate(365.427386 257.635312) rotate(-90) scale(0.12 -0.12)" fill="#ffffff">
      <defs>
       <path id="DejaVuSerif-56" d="M 1119 4331 
L 2497 750 
L 3872 4331 
L 3347 4331 
L 3347 4666 
L 4716 4666 
L 4716 4331 
L 4263 4331 
L 2597 0 
L 2059 0 
L 403 4331 
L -63 4331 
L -63 4666 
L 1638 4666 
L 1638 4331 
L 1119 4331 
z
" transform="scale(0.015625)"/>
       <path id="DejaVuSerif-6c" d="M 1313 331 
L 1856 331 
L 1856 0 
L 184 0 
L 184 331 
L 738 331 
L 738 4531 
L 184 4531 
L 184 4863 
L 1313 4863 
L 1313 331 
z
" transform="scale(0.015625)"/>
       <path id="DejaVuSerif-64" d="M 3359 331 
L 3909 331 
L 3909 0 
L 2784 0 
L 2784 519 
Q 2616 206 2355 57 
Q 2094 -91 1709 -91 
Q 1097 -91 708 395 
Q 319 881 319 1663 
Q 319 2444 706 2928 
Q 1094 3413 1709 3413 
Q 2094 3413 2355 3264 
Q 2616 3116 2784 2803 
L 2784 4531 
L 2241 4531 
L 2241 4863 
L 3359 4863 
L 3359 331 
z
M 2784 1497 
L 2784 1825 
Q 2784 2422 2554 2737 
Q 2325 3053 1888 3053 
Q 1444 3053 1217 2703 
Q 991 2353 991 1663 
Q 991 975 1217 622 
Q 1444 269 1888 269 
Q 2325 269 2554 583 
Q 2784 897 2784 1497 
z
" transform="scale(0.015625)"/>
       <path id="DejaVuSerif-43" d="M 4513 1234 
Q 4306 581 3820 245 
Q 3334 -91 2591 -91 
Q 2134 -91 1743 65 
Q 1353 222 1050 525 
Q 700 875 529 1320 
Q 359 1766 359 2328 
Q 359 3416 987 4083 
Q 1616 4750 2644 4750 
Q 3025 4750 3456 4650 
Q 3888 4550 4384 4347 
L 4384 3272 
L 4031 3272 
Q 3916 3859 3567 4137 
Q 3219 4416 2591 4416 
Q 1844 4416 1459 3886 
Q 1075 3356 1075 2328 
Q 1075 1303 1459 773 
Q 1844 244 2591 244 
Q 3113 244 3450 492 
Q 3788 741 3938 1234 
L 4513 1234 
z
" transform="scale(0.015625)"/>
       <path id="DejaVuSerif-45" d="M 353 0 
L 353 331 
L 947 331 
L 947 4331 
L 353 4331 
L 353 4666 
L 4109 4666 
L 4109 3628 
L 3725 3628 
L 3725 4281 
L 1581 4281 
L 1581 2719 
L 3109 2719 
L 3109 3303 
L 3494 3303 
L 3494 1753 
L 3109 1753 
L 3109 2338 
L 1581 2338 
L 1581 384 
L 3775 384 
L 3775 1038 
L 4159 1038 
L 4159 0 
L 353 0 
z
" transform="scale(0.015625)"/>
       <path id="DejaVuSerif-79" d="M 1381 -609 
L 1600 -56 
L 359 2988 
L -19 2988 
L -19 3322 
L 1509 3322 
L 1509 2988 
L 978 2988 
L 1913 703 
L 2847 2988 
L 2350 2988 
L 2350 3322 
L 3597 3322 
L 3597 2988 
L 3225 2988 
L 1703 -750 
Q 1547 -1138 1356 -1280 
Q 1166 -1422 819 -1422 
Q 672 -1422 517 -1397 
Q 363 -1372 206 -1325 
L 206 -691 
L 500 -691 
Q 519 -903 608 -995 
Q 697 -1088 884 -1088 
Q 1056 -1088 1161 -992 
Q 1266 -897 1381 -609 
z
" transform="scale(0.015625)"/>
      </defs>
      <use xlink:href="#DejaVuSerif-56"/>
      <use xlink:href="#DejaVuSerif-61" transform="translate(63.091797 0)"/>
      <use xlink:href="#DejaVuSerif-6c" transform="translate(122.710938 0)"/>
      <use xlink:href="#DejaVuSerif-69" transform="translate(154.693359 0)"/>
      <use xlink:href="#DejaVuSerif-64" transform="translate(186.675781 0)"/>
      <use xlink:href="#DejaVuSerif-61" transform="translate(250.689453 0)"/>
      <use xlink:href="#DejaVuSerif-74" transform="translate(310.308594 0)"/>
      <use xlink:href="#DejaVuSerif-69" transform="translate(350.494141 0)"/>
      <use xlink:href="#DejaVuSerif-6f" transform="translate(382.476562 0)"/>
      <use xlink:href="#DejaVuSerif-6e" transform="translate(442.681641 0)"/>
      <use xlink:href="#DejaVuSerif-20" transform="translate(507.085938 0)"/>
      <use xlink:href="#DejaVuSerif-43" transform="translate(538.873047 0)"/>
      <use xlink:href="#DejaVuSerif-72" transform="translate(615.386719 0)"/>
      <use xlink:href="#DejaVuSerif-6f" transform="translate(663.189453 0)"/>
      <use xlink:href="#DejaVuSerif-73" transform="translate(723.394531 0)"/>
      <use xlink:href="#DejaVuSerif-73" transform="translate(774.712891 0)"/>
      <use xlink:href="#DejaVuSerif-20" transform="translate(826.03125 0)"/>
      <use xlink:href="#DejaVuSerif-45" transform="translate(857.818359 0)"/>
      <use xlink:href="#DejaVuSerif-6e" transform="translate(930.816406 0)"/>
      <use xlink:href="#DejaVuSerif-74" transform="translate(995.220703 0)"/>
      <use xlink:href="#DejaVuSerif-72" transform="translate(1035.40625 0)"/>
      <use xlink:href="#DejaVuSerif-6f" transform="translate(1083.208984 0)"/>
      <use xlink:href="#DejaVuSerif-70" transform="translate(1143.414062 0)"/>
      <use xlink:href="#DejaVuSerif-79" transform="translate(1207.427734 0)"/>
     </g>
    </g>
   </g>
   <g id="line2d_26">
    <path d="M 405.892562 55.8 
L 434.714876 222.497406 
L 463.53719 249.905575 
L 492.359504 260.317427 
L 521.181818 268.511926 
L 550.004132 275.061108 
L 578.826446 281.150647 
L 607.64876 286.599244 
L 636.471074 291.15551 
" clip-path="url(#p812458b8d9)" style="fill: none; stroke: #ff9900; stroke-linecap: square"/>
   </g>
   <g id="line2d_27">
    <path d="M 405.892562 55.8 
L 434.714876 245.579841 
L 463.53719 261.590479 
L 492.359504 272.175682 
L 521.181818 282.045771 
L 550.004132 290.062939 
L 578.826446 297.354692 
L 607.64876 303.003325 
L 636.471074 307.8 
" clip-path="url(#p812458b8d9)" style="fill: none; stroke: #9933cc; stroke-linecap: square"/>
   </g>
   <g id="patch_6">
    <path d="M 394.363636 320.4 
L 394.363636 43.2 
" style="fill: none; stroke: #ffffff; stroke-width: 0.8; stroke-linejoin: miter; stroke-linecap: square"/>
   </g>
   <g id="patch_7">
    <path d="M 394.363636 320.4 
L 648 320.4 
" style="fill: none; stroke: #ffffff; stroke-width: 0.8; stroke-linejoin: miter; stroke-linecap: square"/>
   </g>
   <g id="text_29">
    <!-- Qwen2-3B Validation -->
    <g transform="translate(444.531068 37.2) scale(0.144 -0.144)" fill="#ffffff">
     <use xlink:href="#DejaVuSerif-51"/>
     <use xlink:href="#DejaVuSerif-77" transform="translate(81.982422 0)"/>
     <use xlink:href="#DejaVuSerif-65" transform="translate(167.578125 0)"/>
     <use xlink:href="#DejaVuSerif-6e" transform="translate(226.757812 0)"/>
     <use xlink:href="#DejaVuSerif-32" transform="translate(291.162109 0)"/>
     <use xlink:href="#DejaVuSerif-2d" transform="translate(354.785156 0)"/>
     <use xlink:href="#DejaVuSerif-33" transform="translate(388.574219 0)"/>
     <use xlink:href="#DejaVuSerif-42" transform="translate(452.197266 0)"/>
     <use xlink:href="#DejaVuSerif-20" transform="translate(525.683594 0)"/>
     <use xlink:href="#DejaVuSerif-56" transform="translate(557.470703 0)"/>
     <use xlink:href="#DejaVuSerif-61" transform="translate(620.5625 0)"/>
     <use xlink:href="#DejaVuSerif-6c" transform="translate(680.181641 0)"/>
     <use xlink:href="#DejaVuSerif-69" transform="translate(712.164062 0)"/>
     <use xlink:href="#DejaVuSerif-64" transform="translate(744.146484 0)"/>
     <use xlink:href="#DejaVuSerif-61" transform="translate(808.160156 0)"/>
     <use xlink:href="#DejaVuSerif-74" transform="translate(867.779297 0)"/>
     <use xlink:href="#DejaVuSerif-69" transform="translate(907.964844 0)"/>
     <use xlink:href="#DejaVuSerif-6f" transform="translate(939.947266 0)"/>
     <use xlink:href="#DejaVuSerif-6e" transform="translate(1000.152344 0)"/>
    </g>
   </g>
   <g id="legend_2">
    <g id="patch_8">
     <path d="M 550.595625 88.0275 
L 639.6 88.0275 
Q 642 88.0275 642 85.6275 
L 642 51.6 
Q 642 49.2 639.6 49.2 
L 550.595625 49.2 
Q 548.195625 49.2 548.195625 51.6 
L 548.195625 85.6275 
Q 548.195625 88.0275 550.595625 88.0275 
z
" style="fill: #ffffff; opacity: 0.8; stroke: #cccccc; stroke-linejoin: miter"/>
    </g>
    <g id="line2d_28">
     <path d="M 552.995625 58.918125 
L 564.995625 58.918125 
L 576.995625 58.918125 
" style="fill: none; stroke: #ff9900; stroke-linecap: square"/>
    </g>
    <g id="text_30">
     <!-- baseline -->
     <g transform="translate(586.595625 63.118125) scale(0.12 -0.12)">
      <defs>
       <path id="DejaVuSerif-62" d="M 738 331 
L 738 4531 
L 184 4531 
L 184 4863 
L 1313 4863 
L 1313 2803 
Q 1481 3116 1742 3264 
Q 2003 3413 2388 3413 
Q 3000 3413 3387 2928 
Q 3775 2444 3775 1663 
Q 3775 881 3387 395 
Q 3000 -91 2388 -91 
Q 2003 -91 1742 57 
Q 1481 206 1313 519 
L 1313 0 
L 184 0 
L 184 331 
L 738 331 
z
M 1313 1497 
Q 1313 897 1542 583 
Q 1772 269 2209 269 
Q 2650 269 2876 622 
Q 3103 975 3103 1663 
Q 3103 2353 2876 2703 
Q 2650 3053 2209 3053 
Q 1772 3053 1542 2737 
Q 1313 2422 1313 1825 
L 1313 1497 
z
" transform="scale(0.015625)"/>
      </defs>
      <use xlink:href="#DejaVuSerif-62"/>
      <use xlink:href="#DejaVuSerif-61" transform="translate(64.013672 0)"/>
      <use xlink:href="#DejaVuSerif-73" transform="translate(123.632812 0)"/>
      <use xlink:href="#DejaVuSerif-65" transform="translate(174.951172 0)"/>
      <use xlink:href="#DejaVuSerif-6c" transform="translate(234.130859 0)"/>
      <use xlink:href="#DejaVuSerif-69" transform="translate(266.113281 0)"/>
      <use xlink:href="#DejaVuSerif-6e" transform="translate(298.095703 0)"/>
      <use xlink:href="#DejaVuSerif-65" transform="translate(362.5 0)"/>
     </g>
    </g>
    <g id="line2d_29">
     <path d="M 552.995625 76.531875 
L 564.995625 76.531875 
L 576.995625 76.531875 
" style="fill: none; stroke: #9933cc; stroke-linecap: square"/>
    </g>
    <g id="text_31">
     <!-- L2L -->
     <g transform="translate(586.595625 80.731875) scale(0.12 -0.12)">
      <defs>
       <path id="DejaVuSerif-6b" d="M 1831 0 
L 219 0 
L 219 331 
L 738 331 
L 738 4531 
L 184 4531 
L 184 4863 
L 1313 4863 
L 1313 1697 
L 2713 2988 
L 2234 2988 
L 2234 3322 
L 3738 3322 
L 3738 2988 
L 3169 2988 
L 2181 2075 
L 3444 331 
L 3922 331 
L 3922 0 
L 2284 0 
L 2284 331 
L 2759 331 
L 1766 1697 
L 1313 1275 
L 1313 331 
L 1831 331 
L 1831 0 
z
" transform="scale(0.015625)"/>
       <path id="DejaVuSerif-76" d="M 1581 0 
L 359 2988 
L -19 2988 
L -19 3322 
L 1509 3322 
L 1509 2988 
L 978 2988 
L 1913 703 
L 2847 2988 
L 2350 2988 
L 2350 3322 
L 3597 3322 
L 3597 2988 
L 3225 2988 
L 2003 0 
L 1581 0 
z
" transform="scale(0.015625)"/>
      </defs>
      <use xlink:href="#DejaVuSerif-6b"/>
      <use xlink:href="#DejaVuSerif-6c" transform="translate(60.595703 0)"/>
      <use xlink:href="#DejaVuSerif-65" transform="translate(92.578125 0)"/>
      <use xlink:href="#DejaVuSerif-76" transform="translate(151.757812 0)"/>
      <use xlink:href="#DejaVuSerif-65" transform="translate(208.251953 0)"/>
      <use xlink:href="#DejaVuSerif-6c" transform="translate(267.431641 0)"/>
     </g>
    </g>
   </g>
  </g>
 </g>
 <defs>
  <clipPath id="pc7174209dc">
   <rect x="90" y="43.2" width="253.636364" height="277.2"/>
  </clipPath>
  <clipPath id="p812458b8d9">
   <rect x="394.363636" y="43.2" width="253.636364" height="277.2"/>
  </clipPath>
 </defs>
</svg>
