<svg xmlns="http://www.w3.org/2000/svg" xmlns:xlink="http://www.w3.org/1999/xlink" xmlns:inkscape="http://www.inkscape.org/namespaces/inkscape" version="1.1" width="307.673" height="194.567" viewBox="0 0 307.673 194.567">
<path transform="matrix(1,0,0,-1,30.037,144.407)" d="M10.0491 0C10.0491 5.55003 5.55003 10.0491 0 10.0491-5.55003 10.0491-10.0491 5.55003-10.0491 0-10.0491-5.55003-5.55003-10.0491 0-10.0491 5.55003-10.0491 10.0491-5.55003 10.0491 0ZM0 0" fill="#f58138"/>
<path transform="matrix(1,0,0,-1,30.037,144.407)" stroke-width=".3985" stroke-linecap="butt" stroke-miterlimit="10" stroke-linejoin="miter" fill="none" stroke="#f58138" d="M10.0491 0C10.0491 5.55003 5.55003 10.0491 0 10.0491-5.55003 10.0491-10.0491 5.55003-10.0491 0-10.0491-5.55003-5.55003-10.0491 0-10.0491 5.55003-10.0491 10.0491-5.55003 10.0491 0ZM0 0"/>
<text fill="#ffffff" xml:space="preserve" transform="matrix(1 0 -0 1 0 194.56699)" font-size="9.9626" font-family="CMMI10" font-style="italic"><tspan y="-48.762" x="25.468">s</tspan></text>
<text fill="#ffffff" xml:space="preserve" transform="matrix(1 0 -0 1 0 194.56699)" font-size="6.9738" font-family="CMR7"><tspan y="-47.268" x="30.138">0</tspan></text>
<path transform="matrix(1,0,0,-1,30.037,144.407)" d="M9.81975 62.36288C9.81975 67.78625 5.42336 72.18263 0 72.18263-5.42336 72.18263-9.81975 67.78625-9.81975 62.36288-9.81975 56.93951-5.42336 52.54314 0 52.54314 5.42336 52.54314 9.81975 56.93951 9.81975 62.36288ZM0 62.36288" fill="#fdbb43"/>
<path transform="matrix(1,0,0,-1,30.037,144.407)" stroke-width=".3985" stroke-linecap="butt" stroke-miterlimit="10" stroke-linejoin="miter" fill="none" stroke="#fdbb43" d="M9.81975 62.36288C9.81975 67.78625 5.42336 72.18263 0 72.18263-5.42336 72.18263-9.81975 67.78625-9.81975 62.36288-9.81975 56.93951-5.42336 52.54314 0 52.54314 5.42336 52.54314 9.81975 56.93951 9.81975 62.36288ZM0 62.36288"/>
<text fill="#ffffff" xml:space="preserve" transform="matrix(1 0 -0 1 0 194.567)" font-size="9.9626" font-family="CMMI10" font-style="italic"><tspan y="-110.013" x="25.468">s</tspan></text>
<text fill="#ffffff" xml:space="preserve" transform="matrix(1 0 -0 1 0 194.567)" font-size="6.9738" font-family="CMSY7" font-style="italic"><tspan y="-113.629" x="30.138">&#x2032;</tspan></text>
<text fill="#ffffff" xml:space="preserve" transform="matrix(1 0 -0 1 0 194.567)" font-size="6.9738" font-family="CMR7"><tspan y="-107.54" x="30.138">0</tspan></text>
<path transform="matrix(1,0,0,-1,30.037,144.407)" d="M38.62236-39.68535C38.62236-34.01025 34.0219-29.40979 28.3468-29.40979 22.6717-29.40979 18.07124-34.01025 18.07124-39.68535 18.07124-45.36044 22.6717-49.9609 28.3468-49.9609 34.0219-49.9609 38.62236-45.36044 38.62236-39.68535ZM28.3468-39.68535" fill="#0072bc"/>
<path transform="matrix(1,0,0,-1,30.037,144.407)" stroke-width=".3985" stroke-linecap="butt" stroke-miterlimit="10" stroke-linejoin="miter" fill="none" stroke="#0072bc" d="M38.62236-39.68535C38.62236-34.01025 34.0219-29.40979 28.3468-29.40979 22.6717-29.40979 18.07124-34.01025 18.07124-39.68535 18.07124-45.36044 22.6717-49.9609 28.3468-49.9609 34.0219-49.9609 38.62236-45.36044 38.62236-39.68535ZM28.3468-39.68535"/>
<text fill="#ffffff" xml:space="preserve" transform="matrix(1 0 -0 1 0 194.56699)" font-size="9.9626" font-family="CMMI10" font-style="italic"><tspan y="-9.077" x="53.516">a</tspan></text>
<text fill="#ffffff" xml:space="preserve" transform="matrix(1 0 -0 1 0 194.56699)" font-size="6.9738" font-family="CMR7"><tspan y="-7.5829999" x="58.781999">0</tspan></text>
<path transform="matrix(1,0,0,-1,30.037,144.407)" d="M38.11426 104.88309C38.11426 110.27757 33.74129 114.65054 28.3468 114.65054 22.95232 114.65054 18.57935 110.27757 18.57935 104.88309 18.57935 99.48862 22.95232 95.11565 28.3468 95.11565 33.74129 95.11565 38.11426 99.48862 38.11426 104.88309ZM28.3468 104.88309" fill="#a4548a"/>
<path transform="matrix(1,0,0,-1,30.037,144.407)" stroke-width=".3985" stroke-linecap="butt" stroke-miterlimit="10" stroke-linejoin="miter" fill="none" stroke="#a4548a" d="M38.11426 104.88309C38.11426 110.27757 33.74129 114.65054 28.3468 114.65054 22.95232 114.65054 18.57935 110.27757 18.57935 104.88309 18.57935 99.48862 22.95232 95.11565 28.3468 95.11565 33.74129 95.11565 38.11426 99.48862 38.11426 104.88309ZM28.3468 104.88309"/>
<text fill="#ffffff" xml:space="preserve" transform="matrix(1 0 -0 1 0 194.567)" font-size="9.9626" font-family="CMMI10" font-style="italic"><tspan y="-152.533" x="53.902">r</tspan></text>
<text fill="#ffffff" xml:space="preserve" transform="matrix(1 0 -0 1 0 194.567)" font-size="6.9738" font-family="CMSY7" font-style="italic"><tspan y="-156.14801" x="58.673">&#x2032;</tspan></text>
<text fill="#ffffff" xml:space="preserve" transform="matrix(1 0 -0 1 0 194.567)" font-size="6.9738" font-family="CMR7"><tspan y="-150.06002" x="58.396">0</tspan></text>
<path transform="matrix(1,0,0,-1,30.037,144.407)" d="M30.46024 82.20557C30.46024 83.3728 29.51402 84.31902 28.3468 84.31902 27.17958 84.31902 26.23337 83.3728 26.23337 82.20557 26.23337 81.03835 27.17958 80.09213 28.3468 80.09213 29.51402 80.09213 30.46024 81.03835 30.46024 82.20557ZM28.3468 82.20557" fill="#a4548a"/>
<path transform="matrix(1,0,0,-1,30.037,144.407)" stroke-width=".3985" stroke-linecap="butt" stroke-miterlimit="10" stroke-linejoin="miter" fill="none" stroke="#ffffff" d="M30.46024 82.20557C30.46024 83.3728 29.51402 84.31902 28.3468 84.31902 27.17958 84.31902 26.23337 83.3728 26.23337 82.20557 26.23337 81.03835 27.17958 80.09213 28.3468 80.09213 29.51402 80.09213 30.46024 81.03835 30.46024 82.20557ZM28.3468 82.20557"/>
<path transform="matrix(1,0,0,-1,30.037,144.407)" stroke-width=".99628" stroke-linecap="butt" stroke-miterlimit="10" stroke-linejoin="miter" fill="none" stroke="#a4548a" d="M28.3468 84.51826V89.7158"/>
<path transform="matrix(0,-1,-1,-0,58.3838,54.6912)" d="M5.20058 0C3.65962 .28891 1.15567 1.15567-.57784 2.1669V-2.1669C1.15567-1.15567 3.65962-.28891 5.20058 0" fill="#a4548a"/>
<text fill="#a4548a" xml:space="preserve" transform="matrix(1 0 -0 1 0 194.567)" font-size="9.9626" font-family="CMMI10" font-style="italic"><tspan y="-129.707" x="43.844">R</tspan></text>
<text fill="#a4548a" xml:space="preserve" transform="matrix(1 0 -0 1 0 194.567)" font-size="6.9738" font-family="CMMI7" font-style="italic"><tspan y="-128.213" x="51.408">&#x03b8;</tspan></text>
<path transform="matrix(1,0,0,-1,30.037,144.407)" d="M66.74272 0C66.74272 5.55003 62.24365 10.0491 56.69362 10.0491 51.14357 10.0491 46.6445 5.55003 46.6445 0 46.6445-5.55003 51.14357-10.0491 56.69362-10.0491 62.24365-10.0491 66.74272-5.55003 66.74272 0ZM56.69362 0" fill="#f58138"/>
<path transform="matrix(1,0,0,-1,30.037,144.407)" stroke-width=".3985" stroke-linecap="butt" stroke-miterlimit="10" stroke-linejoin="miter" fill="none" stroke="#f58138" d="M66.74272 0C66.74272 5.55003 62.24365 10.0491 56.69362 10.0491 51.14357 10.0491 46.6445 5.55003 46.6445 0 46.6445-5.55003 51.14357-10.0491 56.69362-10.0491 62.24365-10.0491 66.74272-5.55003 66.74272 0ZM56.69362 0"/>
<text fill="#ffffff" xml:space="preserve" transform="matrix(1 0 -0 1 0 194.56699)" font-size="9.9626" font-family="CMMI10" font-style="italic"><tspan y="-48.762" x="82.161">s</tspan></text>
<text fill="#ffffff" xml:space="preserve" transform="matrix(1 0 -0 1 0 194.56699)" font-size="6.9738" font-family="CMR7"><tspan y="-47.268" x="86.831">1</tspan></text>
<path transform="matrix(1,0,0,-1,30.037,144.407)" d="M66.51337 62.36288C66.51337 67.78625 62.11697 72.18263 56.69362 72.18263 51.27025 72.18263 46.87387 67.78625 46.87387 62.36288 46.87387 56.93951 51.27025 52.54314 56.69362 52.54314 62.11697 52.54314 66.51337 56.93951 66.51337 62.36288ZM56.69362 62.36288" fill="#fdbb43"/>
<path transform="matrix(1,0,0,-1,30.037,144.407)" stroke-width=".3985" stroke-linecap="butt" stroke-miterlimit="10" stroke-linejoin="miter" fill="none" stroke="#fdbb43" d="M66.51337 62.36288C66.51337 67.78625 62.11697 72.18263 56.69362 72.18263 51.27025 72.18263 46.87387 67.78625 46.87387 62.36288 46.87387 56.93951 51.27025 52.54314 56.69362 52.54314 62.11697 52.54314 66.51337 56.93951 66.51337 62.36288ZM56.69362 62.36288"/>
<text fill="#ffffff" xml:space="preserve" transform="matrix(1 0 -0 1 0 194.567)" font-size="9.9626" font-family="CMMI10" font-style="italic"><tspan y="-110.013" x="82.161">s</tspan></text>
<text fill="#ffffff" xml:space="preserve" transform="matrix(1 0 -0 1 0 194.567)" font-size="6.9738" font-family="CMSY7" font-style="italic"><tspan y="-113.629" x="86.831">&#x2032;</tspan></text>
<text fill="#ffffff" xml:space="preserve" transform="matrix(1 0 -0 1 0 194.567)" font-size="6.9738" font-family="CMR7"><tspan y="-107.54" x="86.831">1</tspan></text>
<path transform="matrix(1,0,0,-1,30.037,144.407)" d="M95.31598-39.68535C95.31598-34.01025 90.71552-29.40979 85.04042-29.40979 79.36533-29.40979 74.76486-34.01025 74.76486-39.68535 74.76486-45.36044 79.36533-49.9609 85.04042-49.9609 90.71552-49.9609 95.31598-45.36044 95.31598-39.68535ZM85.04042-39.68535" fill="#0072bc"/>
<path transform="matrix(1,0,0,-1,30.037,144.407)" stroke-width=".3985" stroke-linecap="butt" stroke-miterlimit="10" stroke-linejoin="miter" fill="none" stroke="#0072bc" d="M95.31598-39.68535C95.31598-34.01025 90.71552-29.40979 85.04042-29.40979 79.36533-29.40979 74.76486-34.01025 74.76486-39.68535 74.76486-45.36044 79.36533-49.9609 85.04042-49.9609 90.71552-49.9609 95.31598-45.36044 95.31598-39.68535ZM85.04042-39.68535"/>
<text fill="#ffffff" xml:space="preserve" transform="matrix(1 0 -0 1 0 194.56699)" font-size="9.9626" font-family="CMMI10" font-style="italic"><tspan y="-9.077" x="110.209">a</tspan></text>
<text fill="#ffffff" xml:space="preserve" transform="matrix(1 0 -0 1 0 194.56699)" font-size="6.9738" font-family="CMR7"><tspan y="-7.5829999" x="115.475">1</tspan></text>
<path transform="matrix(1,0,0,-1,30.037,144.407)" d="M94.80788 104.88309C94.80788 110.27757 90.4349 114.65054 85.04042 114.65054 79.64594 114.65054 75.27296 110.27757 75.27296 104.88309 75.27296 99.48862 79.64594 95.11565 85.04042 95.11565 90.4349 95.11565 94.80788 99.48862 94.80788 104.88309ZM85.04042 104.88309" fill="#a4548a"/>
<path transform="matrix(1,0,0,-1,30.037,144.407)" stroke-width=".3985" stroke-linecap="butt" stroke-miterlimit="10" stroke-linejoin="miter" fill="none" stroke="#a4548a" d="M94.80788 104.88309C94.80788 110.27757 90.4349 114.65054 85.04042 114.65054 79.64594 114.65054 75.27296 110.27757 75.27296 104.88309 75.27296 99.48862 79.64594 95.11565 85.04042 95.11565 90.4349 95.11565 94.80788 99.48862 94.80788 104.88309ZM85.04042 104.88309"/>
<text fill="#ffffff" xml:space="preserve" transform="matrix(1 0 -0 1 0 194.567)" font-size="9.9626" font-family="CMMI10" font-style="italic"><tspan y="-152.533" x="110.595">r</tspan></text>
<text fill="#ffffff" xml:space="preserve" transform="matrix(1 0 -0 1 0 194.567)" font-size="6.9738" font-family="CMSY7" font-style="italic"><tspan y="-156.14801" x="115.366">&#x2032;</tspan></text>
<text fill="#ffffff" xml:space="preserve" transform="matrix(1 0 -0 1 0 194.567)" font-size="6.9738" font-family="CMR7"><tspan y="-150.06002" x="115.089">1</tspan></text>
<path transform="matrix(1,0,0,-1,30.037,144.407)" d="M87.15385 82.20557C87.15385 83.3728 86.20764 84.31902 85.04042 84.31902 83.8732 84.31902 82.92699 83.3728 82.92699 82.20557 82.92699 81.03835 83.8732 80.09213 85.04042 80.09213 86.20764 80.09213 87.15385 81.03835 87.15385 82.20557ZM85.04042 82.20557" fill="#a4548a"/>
<path transform="matrix(1,0,0,-1,30.037,144.407)" stroke-width=".3985" stroke-linecap="butt" stroke-miterlimit="10" stroke-linejoin="miter" fill="none" stroke="#ffffff" d="M87.15385 82.20557C87.15385 83.3728 86.20764 84.31902 85.04042 84.31902 83.8732 84.31902 82.92699 83.3728 82.92699 82.20557 82.92699 81.03835 83.8732 80.09213 85.04042 80.09213 86.20764 80.09213 87.15385 81.03835 87.15385 82.20557ZM85.04042 82.20557"/>
<path transform="matrix(1,0,0,-1,30.037,144.407)" stroke-width=".99628" stroke-linecap="butt" stroke-miterlimit="10" stroke-linejoin="miter" fill="none" stroke="#a4548a" d="M85.04042 84.51826V89.7158"/>
<path transform="matrix(0,-1,-1,-0,115.07742,54.6912)" d="M5.20058 0C3.65962 .28891 1.15567 1.15567-.57784 2.1669V-2.1669C1.15567-1.15567 3.65962-.28891 5.20058 0" fill="#a4548a"/>
<text fill="#a4548a" xml:space="preserve" transform="matrix(1 0 -0 1 0 194.567)" font-size="9.9626" font-family="CMMI10" font-style="italic"><tspan y="-129.707" x="100.537">R</tspan></text>
<text fill="#a4548a" xml:space="preserve" transform="matrix(1 0 -0 1 0 194.567)" font-size="6.9738" font-family="CMMI7" font-style="italic"><tspan y="-128.213" x="108.101009">&#x03b8;</tspan></text>
<path transform="matrix(1,0,0,-1,30.037,144.407)" d="M123.43634 0C123.43634 5.55003 118.93727 10.0491 113.38724 10.0491 107.83719 10.0491 103.33812 5.55003 103.33812 0 103.33812-5.55003 107.83719-10.0491 113.38724-10.0491 118.93727-10.0491 123.43634-5.55003 123.43634 0ZM113.38724 0" fill="#f58138"/>
<path transform="matrix(1,0,0,-1,30.037,144.407)" stroke-width=".3985" stroke-linecap="butt" stroke-miterlimit="10" stroke-linejoin="miter" fill="none" stroke="#f58138" d="M123.43634 0C123.43634 5.55003 118.93727 10.0491 113.38724 10.0491 107.83719 10.0491 103.33812 5.55003 103.33812 0 103.33812-5.55003 107.83719-10.0491 113.38724-10.0491 118.93727-10.0491 123.43634-5.55003 123.43634 0ZM113.38724 0"/>
<text fill="#ffffff" xml:space="preserve" transform="matrix(1 0 -0 1 0 194.56699)" font-size="9.9626" font-family="CMMI10" font-style="italic"><tspan y="-48.762" x="138.853">s</tspan></text>
<text fill="#ffffff" xml:space="preserve" transform="matrix(1 0 -0 1 0 194.56699)" font-size="6.9738" font-family="CMR7"><tspan y="-47.268" x="143.523">2</tspan></text>
<path transform="matrix(1,0,0,-1,30.037,144.407)" d="M123.20699 62.36288C123.20699 67.78625 118.8106 72.18263 113.38724 72.18263 107.96387 72.18263 103.56749 67.78625 103.56749 62.36288 103.56749 56.93951 107.96387 52.54314 113.38724 52.54314 118.8106 52.54314 123.20699 56.93951 123.20699 62.36288ZM113.38724 62.36288" fill="#fdbb43"/>
<path transform="matrix(1,0,0,-1,30.037,144.407)" stroke-width=".3985" stroke-linecap="butt" stroke-miterlimit="10" stroke-linejoin="miter" fill="none" stroke="#fdbb43" d="M123.20699 62.36288C123.20699 67.78625 118.8106 72.18263 113.38724 72.18263 107.96387 72.18263 103.56749 67.78625 103.56749 62.36288 103.56749 56.93951 107.96387 52.54314 113.38724 52.54314 118.8106 52.54314 123.20699 56.93951 123.20699 62.36288ZM113.38724 62.36288"/>
<text fill="#ffffff" xml:space="preserve" transform="matrix(1 0 -0 1 0 194.567)" font-size="9.9626" font-family="CMMI10" font-style="italic"><tspan y="-110.013" x="138.853">s</tspan></text>
<text fill="#ffffff" xml:space="preserve" transform="matrix(1 0 -0 1 0 194.567)" font-size="6.9738" font-family="CMSY7" font-style="italic"><tspan y="-113.629" x="143.523">&#x2032;</tspan></text>
<text fill="#ffffff" xml:space="preserve" transform="matrix(1 0 -0 1 0 194.567)" font-size="6.9738" font-family="CMR7"><tspan y="-107.54" x="143.523">2</tspan></text>
<path transform="matrix(1,0,0,-1,30.037,144.407)" d="M152.00962-39.68535C152.00962-34.01025 147.40914-29.40979 141.73404-29.40979 136.05895-29.40979 131.45848-34.01025 131.45848-39.68535 131.45848-45.36044 136.05895-49.9609 141.73404-49.9609 147.40914-49.9609 152.00962-45.36044 152.00962-39.68535ZM141.73404-39.68535" fill="#0072bc"/>
<path transform="matrix(1,0,0,-1,30.037,144.407)" stroke-width=".3985" stroke-linecap="butt" stroke-miterlimit="10" stroke-linejoin="miter" fill="none" stroke="#0072bc" d="M152.00962-39.68535C152.00962-34.01025 147.40914-29.40979 141.73404-29.40979 136.05895-29.40979 131.45848-34.01025 131.45848-39.68535 131.45848-45.36044 136.05895-49.9609 141.73404-49.9609 147.40914-49.9609 152.00962-45.36044 152.00962-39.68535ZM141.73404-39.68535"/>
<text fill="#ffffff" xml:space="preserve" transform="matrix(1 0 -0 1 .000015258789 194.56699)" font-size="9.9626" font-family="CMMI10" font-style="italic"><tspan y="-9.077" x="166.902">a</tspan></text>
<text fill="#ffffff" xml:space="preserve" transform="matrix(1 0 -0 1 .000015258789 194.56699)" font-size="6.9738" font-family="CMR7"><tspan y="-7.5829999" x="172.168">2</tspan></text>
<path transform="matrix(1,0,0,-1,30.037,144.407)" d="M151.5015 104.88309C151.5015 110.27757 147.12853 114.65054 141.73404 114.65054 136.33956 114.65054 131.96659 110.27757 131.96659 104.88309 131.96659 99.48862 136.33956 95.11565 141.73404 95.11565 147.12853 95.11565 151.5015 99.48862 151.5015 104.88309ZM141.73404 104.88309" fill="#a4548a"/>
<path transform="matrix(1,0,0,-1,30.037,144.407)" stroke-width=".3985" stroke-linecap="butt" stroke-miterlimit="10" stroke-linejoin="miter" fill="none" stroke="#a4548a" d="M151.5015 104.88309C151.5015 110.27757 147.12853 114.65054 141.73404 114.65054 136.33956 114.65054 131.96659 110.27757 131.96659 104.88309 131.96659 99.48862 136.33956 95.11565 141.73404 95.11565 147.12853 95.11565 151.5015 99.48862 151.5015 104.88309ZM141.73404 104.88309"/>
<text fill="#ffffff" xml:space="preserve" transform="matrix(1 0 -0 1 0 194.567)" font-size="9.9626" font-family="CMMI10" font-style="italic"><tspan y="-152.533" x="167.287">r</tspan></text>
<text fill="#ffffff" xml:space="preserve" transform="matrix(1 0 -0 1 0 194.567)" font-size="6.9738" font-family="CMSY7" font-style="italic"><tspan y="-156.14801" x="172.059">&#x2032;</tspan></text>
<text fill="#ffffff" xml:space="preserve" transform="matrix(1 0 -0 1 0 194.567)" font-size="6.9738" font-family="CMR7"><tspan y="-150.06002" x="171.78202">2</tspan></text>
<path transform="matrix(1,0,0,-1,30.037,144.407)" d="M143.84749 82.20557C143.84749 83.3728 142.90126 84.31902 141.73404 84.31902 140.56682 84.31902 139.6206 83.3728 139.6206 82.20557 139.6206 81.03835 140.56682 80.09213 141.73404 80.09213 142.90126 80.09213 143.84749 81.03835 143.84749 82.20557ZM141.73404 82.20557" fill="#a4548a"/>
<path transform="matrix(1,0,0,-1,30.037,144.407)" stroke-width=".3985" stroke-linecap="butt" stroke-miterlimit="10" stroke-linejoin="miter" fill="none" stroke="#ffffff" d="M143.84749 82.20557C143.84749 83.3728 142.90126 84.31902 141.73404 84.31902 140.56682 84.31902 139.6206 83.3728 139.6206 82.20557 139.6206 81.03835 140.56682 80.09213 141.73404 80.09213 142.90126 80.09213 143.84749 81.03835 143.84749 82.20557ZM141.73404 82.20557"/>
<path transform="matrix(1,0,0,-1,30.037,144.407)" stroke-width=".99628" stroke-linecap="butt" stroke-miterlimit="10" stroke-linejoin="miter" fill="none" stroke="#a4548a" d="M141.73404 84.51826V89.7158"/>
<path transform="matrix(0,-1,-1,-0,171.77104,54.6912)" d="M5.20058 0C3.65962 .28891 1.15567 1.15567-.57784 2.1669V-2.1669C1.15567-1.15567 3.65962-.28891 5.20058 0" fill="#a4548a"/>
<text fill="#a4548a" xml:space="preserve" transform="matrix(1 0 -0 1 0 194.567)" font-size="9.9626" font-family="CMMI10" font-style="italic"><tspan y="-129.707" x="157.23">R</tspan></text>
<text fill="#a4548a" xml:space="preserve" transform="matrix(1 0 -0 1 0 194.567)" font-size="6.9738" font-family="CMMI7" font-style="italic"><tspan y="-128.213" x="164.79399">&#x03b8;</tspan></text>
<path transform="matrix(1,0,0,-1,30.037,144.407)" d="M180.12998 0C180.12998 5.55003 175.63089 10.0491 170.08086 10.0491 164.5308 10.0491 160.03174 5.55003 160.03174 0 160.03174-5.55003 164.5308-10.0491 170.08086-10.0491 175.63089-10.0491 180.12998-5.55003 180.12998 0ZM170.08086 0" fill="#f58138"/>
<path transform="matrix(1,0,0,-1,30.037,144.407)" stroke-width=".3985" stroke-linecap="butt" stroke-miterlimit="10" stroke-linejoin="miter" fill="none" stroke="#f58138" d="M180.12998 0C180.12998 5.55003 175.63089 10.0491 170.08086 10.0491 164.5308 10.0491 160.03174 5.55003 160.03174 0 160.03174-5.55003 164.5308-10.0491 170.08086-10.0491 175.63089-10.0491 180.12998-5.55003 180.12998 0ZM170.08086 0"/>
<text fill="#ffffff" xml:space="preserve" transform="matrix(1 0 -0 1 0 194.56699)" font-size="9.9626" font-family="CMMI10" font-style="italic"><tspan y="-48.762" x="195.546">s</tspan></text>
<text fill="#ffffff" xml:space="preserve" transform="matrix(1 0 -0 1 0 194.56699)" font-size="6.9738" font-family="CMR7"><tspan y="-47.268" x="200.216">3</tspan></text>
<path transform="matrix(1,0,0,-1,30.037,144.407)" d="M179.9006 62.36288C179.9006 67.78625 175.50421 72.18263 170.08086 72.18263 164.65749 72.18263 160.26111 67.78625 160.26111 62.36288 160.26111 56.93951 164.65749 52.54314 170.08086 52.54314 175.50421 52.54314 179.9006 56.93951 179.9006 62.36288ZM170.08086 62.36288" fill="#fdbb43"/>
<path transform="matrix(1,0,0,-1,30.037,144.407)" stroke-width=".3985" stroke-linecap="butt" stroke-miterlimit="10" stroke-linejoin="miter" fill="none" stroke="#fdbb43" d="M179.9006 62.36288C179.9006 67.78625 175.50421 72.18263 170.08086 72.18263 164.65749 72.18263 160.26111 67.78625 160.26111 62.36288 160.26111 56.93951 164.65749 52.54314 170.08086 52.54314 175.50421 52.54314 179.9006 56.93951 179.9006 62.36288ZM170.08086 62.36288"/>
<text fill="#ffffff" xml:space="preserve" transform="matrix(1 0 -0 1 0 194.567)" font-size="9.9626" font-family="CMMI10" font-style="italic"><tspan y="-110.013" x="195.546">s</tspan></text>
<text fill="#ffffff" xml:space="preserve" transform="matrix(1 0 -0 1 0 194.567)" font-size="6.9738" font-family="CMSY7" font-style="italic"><tspan y="-113.629" x="200.216">&#x2032;</tspan></text>
<text fill="#ffffff" xml:space="preserve" transform="matrix(1 0 -0 1 0 194.567)" font-size="6.9738" font-family="CMR7"><tspan y="-107.54" x="200.216">3</tspan></text>
<path transform="matrix(1,0,0,-1,30.037,144.407)" d="M208.70323-39.68535C208.70323-34.01025 204.10276-29.40979 198.42766-29.40979 192.75257-29.40979 188.1521-34.01025 188.1521-39.68535 188.1521-45.36044 192.75257-49.9609 198.42766-49.9609 204.10276-49.9609 208.70323-45.36044 208.70323-39.68535ZM198.42766-39.68535" fill="#0072bc"/>
<path transform="matrix(1,0,0,-1,30.037,144.407)" stroke-width=".3985" stroke-linecap="butt" stroke-miterlimit="10" stroke-linejoin="miter" fill="none" stroke="#0072bc" d="M208.70323-39.68535C208.70323-34.01025 204.10276-29.40979 198.42766-29.40979 192.75257-29.40979 188.1521-34.01025 188.1521-39.68535 188.1521-45.36044 192.75257-49.9609 198.42766-49.9609 204.10276-49.9609 208.70323-45.36044 208.70323-39.68535ZM198.42766-39.68535"/>
<text fill="#ffffff" xml:space="preserve" transform="matrix(1 0 -0 1 0 194.56699)" font-size="9.9626" font-family="CMMI10" font-style="italic"><tspan y="-9.077" x="223.595">a</tspan></text>
<text fill="#ffffff" xml:space="preserve" transform="matrix(1 0 -0 1 0 194.56699)" font-size="6.9738" font-family="CMR7"><tspan y="-7.5829999" x="228.86101">3</tspan></text>
<path transform="matrix(1,0,0,-1,30.037,144.407)" d="M208.19512 104.88309C208.19512 110.27757 203.82215 114.65054 198.42766 114.65054 193.03318 114.65054 188.6602 110.27757 188.6602 104.88309 188.6602 99.48862 193.03318 95.11565 198.42766 95.11565 203.82215 95.11565 208.19512 99.48862 208.19512 104.88309ZM198.42766 104.88309" fill="#a4548a"/>
<path transform="matrix(1,0,0,-1,30.037,144.407)" stroke-width=".3985" stroke-linecap="butt" stroke-miterlimit="10" stroke-linejoin="miter" fill="none" stroke="#a4548a" d="M208.19512 104.88309C208.19512 110.27757 203.82215 114.65054 198.42766 114.65054 193.03318 114.65054 188.6602 110.27757 188.6602 104.88309 188.6602 99.48862 193.03318 95.11565 198.42766 95.11565 203.82215 95.11565 208.19512 99.48862 208.19512 104.88309ZM198.42766 104.88309"/>
<text fill="#ffffff" xml:space="preserve" transform="matrix(1 0 -0 1 0 194.567)" font-size="9.9626" font-family="CMMI10" font-style="italic"><tspan y="-152.533" x="223.98">r</tspan></text>
<text fill="#ffffff" xml:space="preserve" transform="matrix(1 0 -0 1 0 194.567)" font-size="6.9738" font-family="CMSY7" font-style="italic"><tspan y="-156.14801" x="228.752">&#x2032;</tspan></text>
<text fill="#ffffff" xml:space="preserve" transform="matrix(1 0 -0 1 0 194.567)" font-size="6.9738" font-family="CMR7"><tspan y="-150.06002" x="228.475">3</tspan></text>
<path transform="matrix(1,0,0,-1,30.037,144.407)" d="M200.5411 82.20557C200.5411 83.3728 199.59488 84.31902 198.42766 84.31902 197.26044 84.31902 196.31423 83.3728 196.31423 82.20557 196.31423 81.03835 197.26044 80.09213 198.42766 80.09213 199.59488 80.09213 200.5411 81.03835 200.5411 82.20557ZM198.42766 82.20557" fill="#a4548a"/>
<path transform="matrix(1,0,0,-1,30.037,144.407)" stroke-width=".3985" stroke-linecap="butt" stroke-miterlimit="10" stroke-linejoin="miter" fill="none" stroke="#ffffff" d="M200.5411 82.20557C200.5411 83.3728 199.59488 84.31902 198.42766 84.31902 197.26044 84.31902 196.31423 83.3728 196.31423 82.20557 196.31423 81.03835 197.26044 80.09213 198.42766 80.09213 199.59488 80.09213 200.5411 81.03835 200.5411 82.20557ZM198.42766 82.20557"/>
<path transform="matrix(1,0,0,-1,30.037,144.407)" stroke-width=".99628" stroke-linecap="butt" stroke-miterlimit="10" stroke-linejoin="miter" fill="none" stroke="#a4548a" d="M198.42766 84.51826V89.7158"/>
<path transform="matrix(0,-1,-1,-0,228.46466,54.6912)" d="M5.20058 0C3.65962 .28891 1.15567 1.15567-.57784 2.1669V-2.1669C1.15567-1.15567 3.65962-.28891 5.20058 0" fill="#a4548a"/>
<text fill="#a4548a" xml:space="preserve" transform="matrix(1 0 -0 1 0 194.567)" font-size="9.9626" font-family="CMMI10" font-style="italic"><tspan y="-129.707" x="213.922">R</tspan></text>
<text fill="#a4548a" xml:space="preserve" transform="matrix(1 0 -0 1 0 194.567)" font-size="6.9738" font-family="CMMI7" font-style="italic"><tspan y="-128.213" x="221.487">&#x03b8;</tspan></text>
<path transform="matrix(1,0,0,-1,30.037,144.407)" d="M236.8236 0C236.8236 5.55003 232.32451 10.0491 226.77448 10.0491 221.22443 10.0491 216.72536 5.55003 216.72536 0 216.72536-5.55003 221.22443-10.0491 226.77448-10.0491 232.32451-10.0491 236.8236-5.55003 236.8236 0ZM226.77448 0" fill="#f58138"/>
<path transform="matrix(1,0,0,-1,30.037,144.407)" stroke-width=".3985" stroke-linecap="butt" stroke-miterlimit="10" stroke-linejoin="miter" fill="none" stroke="#f58138" d="M236.8236 0C236.8236 5.55003 232.32451 10.0491 226.77448 10.0491 221.22443 10.0491 216.72536 5.55003 216.72536 0 216.72536-5.55003 221.22443-10.0491 226.77448-10.0491 232.32451-10.0491 236.8236-5.55003 236.8236 0ZM226.77448 0"/>
<text fill="#ffffff" xml:space="preserve" transform="matrix(1 0 -0 1 0 194.56699)" font-size="9.9626" font-family="CMMI10" font-style="italic"><tspan y="-48.762" x="252.239">s</tspan></text>
<text fill="#ffffff" xml:space="preserve" transform="matrix(1 0 -0 1 0 194.56699)" font-size="6.9738" font-family="CMR7"><tspan y="-47.268" x="256.909">4</tspan></text>
<path transform="matrix(1,0,0,-1,30.037,144.407)" d="M236.59423 62.36288C236.59423 67.78625 232.19783 72.18263 226.77448 72.18263 221.3511 72.18263 216.95473 67.78625 216.95473 62.36288 216.95473 56.93951 221.3511 52.54314 226.77448 52.54314 232.19783 52.54314 236.59423 56.93951 236.59423 62.36288ZM226.77448 62.36288" fill="#fdbb43"/>
<path transform="matrix(1,0,0,-1,30.037,144.407)" stroke-width=".3985" stroke-linecap="butt" stroke-miterlimit="10" stroke-linejoin="miter" fill="none" stroke="#fdbb43" d="M236.59423 62.36288C236.59423 67.78625 232.19783 72.18263 226.77448 72.18263 221.3511 72.18263 216.95473 67.78625 216.95473 62.36288 216.95473 56.93951 221.3511 52.54314 226.77448 52.54314 232.19783 52.54314 236.59423 56.93951 236.59423 62.36288ZM226.77448 62.36288"/>
<text fill="#ffffff" xml:space="preserve" transform="matrix(1 0 -0 1 0 194.567)" font-size="9.9626" font-family="CMMI10" font-style="italic"><tspan y="-110.013" x="252.239">s</tspan></text>
<text fill="#ffffff" xml:space="preserve" transform="matrix(1 0 -0 1 0 194.567)" font-size="6.9738" font-family="CMSY7" font-style="italic"><tspan y="-113.629" x="256.909">&#x2032;</tspan></text>
<text fill="#ffffff" xml:space="preserve" transform="matrix(1 0 -0 1 0 194.567)" font-size="6.9738" font-family="CMR7"><tspan y="-107.54" x="256.909">4</tspan></text>
<path transform="matrix(1,0,0,-1,30.037,144.407)" stroke-width=".99628" stroke-linecap="butt" stroke-miterlimit="10" stroke-linejoin="miter" fill="none" stroke="#a4548a" d="M24.4568-29.96016 24.27051-29.49449C23.39073-27.29498 22.67754-23.5915 22.67754-21.22244V42.48256C22.67754 44.85162 23.87712 48.27164 25.35689 50.12148L25.66743 50.50935C27.14722 52.35919 28.3468 55.77922 28.3468 58.14827V79.89288"/>
<path transform="matrix(1,0,0,-1,30.037,144.407)" stroke-width=".99628" stroke-linecap="butt" stroke-miterlimit="10" stroke-linejoin="miter" fill="none" stroke="#a4548a" d="M10.019 62.36288H12.71873C15.08778 62.36288 18.9287 62.36288 21.29774 62.36288L24.0573 62.3629C26.42635 62.3629 28.3468 64.28336 28.3468 66.65242V72.24678C28.3468 74.61584 28.3468 78.45676 28.3468 80.8258V79.89288"/>
<path transform="matrix(1,0,0,-1,30.037,144.407)" stroke-width=".99628" stroke-linecap="butt" stroke-miterlimit="10" stroke-linejoin="miter" fill="none" stroke="#a4548a" d="M46.6746 62.36288H43.97488C41.60582 62.36288 37.76491 62.36288 35.39586 62.36288L32.6363 62.3629C30.26726 62.3629 28.3468 64.28336 28.3468 66.65242V72.24678C28.3468 74.61584 28.3468 78.45676 28.3468 80.8258V79.89288"/>
<path transform="matrix(1,0,0,-1,30.037,144.407)" stroke-width=".99628" stroke-linecap="butt" stroke-miterlimit="10" stroke-linejoin="miter" fill="none" stroke="#a4548a" d="M81.15042-29.96016 80.96413-29.49449C80.08435-27.29498 79.37115-23.5915 79.37115-21.22244V42.48256C79.37115 44.85162 80.57074 48.27164 82.0505 50.12148L82.36105 50.50935C83.84084 52.35919 85.04042 55.77922 85.04042 58.14827V79.89288"/>
<path transform="matrix(1,0,0,-1,30.037,144.407)" stroke-width=".99628" stroke-linecap="butt" stroke-miterlimit="10" stroke-linejoin="miter" fill="none" stroke="#a4548a" d="M66.71262 62.36288H69.41235C71.7814 62.36288 75.62231 62.36288 77.99136 62.36288L80.75092 62.3629C83.11996 62.3629 85.04042 64.28336 85.04042 66.65242V72.24678C85.04042 74.61584 85.04042 78.45676 85.04042 80.8258V79.89288"/>
<path transform="matrix(1,0,0,-1,30.037,144.407)" stroke-width=".99628" stroke-linecap="butt" stroke-miterlimit="10" stroke-linejoin="miter" fill="none" stroke="#a4548a" d="M103.36823 62.36288H100.6685C98.29944 62.36288 94.45853 62.36288 92.08948 62.36288L89.32994 62.3629C86.96088 62.3629 85.04042 64.28336 85.04042 66.65242V72.24678C85.04042 74.61584 85.04042 78.45676 85.04042 80.8258V79.89288"/>
<path transform="matrix(1,0,0,-1,30.037,144.407)" stroke-width=".99628" stroke-linecap="butt" stroke-miterlimit="10" stroke-linejoin="miter" fill="none" stroke="#a4548a" d="M137.84404-29.96016 137.65775-29.49449C136.77797-27.29498 136.06478-23.5915 136.06478-21.22244V42.48256C136.06478 44.85162 137.26436 48.27164 138.74413 50.12148L139.05467 50.50935C140.53446 52.35919 141.73404 55.77922 141.73404 58.14827V79.89288"/>
<path transform="matrix(1,0,0,-1,30.037,144.407)" stroke-width=".99628" stroke-linecap="butt" stroke-miterlimit="10" stroke-linejoin="miter" fill="none" stroke="#a4548a" d="M123.40623 62.36288H126.10597C128.47502 62.36288 132.31594 62.36288 134.685 62.36288L137.44454 62.3629C139.81359 62.3629 141.73404 64.28336 141.73404 66.65242V72.24678C141.73404 74.61584 141.73404 78.45676 141.73404 80.8258V79.89288"/>
<path transform="matrix(1,0,0,-1,30.037,144.407)" stroke-width=".99628" stroke-linecap="butt" stroke-miterlimit="10" stroke-linejoin="miter" fill="none" stroke="#a4548a" d="M160.06185 62.36288H157.36212C154.99306 62.36288 151.15216 62.36288 148.7831 62.36288L146.02356 62.3629C143.6545 62.3629 141.73404 64.28336 141.73404 66.65242V72.24678C141.73404 74.61584 141.73404 78.45676 141.73404 80.8258V79.89288"/>
<path transform="matrix(1,0,0,-1,30.037,144.407)" stroke-width=".99628" stroke-linecap="butt" stroke-miterlimit="10" stroke-linejoin="miter" fill="none" stroke="#a4548a" d="M194.53766-29.96016 194.35138-29.49449C193.47159-27.29498 192.75839-23.5915 192.75839-21.22244V42.48256C192.75839 44.85162 193.95798 48.27164 195.43775 50.12148L195.74829 50.50935C197.22808 52.35919 198.42766 55.77922 198.42766 58.14827V79.89288"/>
<path transform="matrix(1,0,0,-1,30.037,144.407)" stroke-width=".99628" stroke-linecap="butt" stroke-miterlimit="10" stroke-linejoin="miter" fill="none" stroke="#a4548a" d="M180.09986 62.36288H182.79959C185.16866 62.36288 189.00955 62.36288 191.37862 62.36288L194.13816 62.3629C196.50722 62.3629 198.42766 64.28336 198.42766 66.65242V72.24678C198.42766 74.61584 198.42766 78.45676 198.42766 80.8258V79.89288"/>
<path transform="matrix(1,0,0,-1,30.037,144.407)" stroke-width=".99628" stroke-linecap="butt" stroke-miterlimit="10" stroke-linejoin="miter" fill="none" stroke="#a4548a" d="M216.75548 62.36288H214.05574C211.68668 62.36288 207.84578 62.36288 205.47672 62.36288L202.71718 62.3629C200.34812 62.3629 198.42766 64.28336 198.42766 66.65242V72.24678C198.42766 74.61584 198.42766 78.45676 198.42766 80.8258V79.89288"/>
<path transform="matrix(1,0,0,-1,30.037,144.407)" stroke-width=".99628" stroke-linecap="butt" stroke-miterlimit="10" stroke-linejoin="miter" fill="none" stroke="#0072bc" d="M0-10.24837V-34.01608C0-36.49722 .35371-39.68535 2.83485-39.68535H12.6714"/>
<path transform="matrix(1,0,0,-1,42.7084,184.09235)" d="M5.20058 0C3.65962 .28891 1.15567 1.15567-.57784 2.1669V-2.1669C1.15567-1.15567 3.65962-.28891 5.20058 0" fill="#0072bc"/>
<path transform="matrix(1,0,0,-1,30.037,144.407)" d="M2.11343-34.01608C2.11343-32.84885 1.16722-31.90263 0-31.90263-1.16722-31.90263-2.11343-32.84885-2.11343-34.01608-2.11343-35.1833-1.16722-36.12952 0-36.12952 1.16722-36.12952 2.11343-35.1833 2.11343-34.01608ZM0-34.01608" fill="#0072bc"/>
<path transform="matrix(1,0,0,-1,30.037,144.407)" stroke-width=".3985" stroke-linecap="butt" stroke-miterlimit="10" stroke-linejoin="miter" fill="none" stroke="#ffffff" d="M2.11343-34.01608C2.11343-32.84885 1.16722-31.90263 0-31.90263-1.16722-31.90263-2.11343-32.84885-2.11343-34.01608-2.11343-35.1833-1.16722-36.12952 0-36.12952 1.16722-36.12952 2.11343-35.1833 2.11343-34.01608ZM0-34.01608"/>
<text fill="#0072bc" xml:space="preserve" transform="matrix(1 0 -0 1 0 194.567)" font-size="9.9626" font-family="CMMI10" font-style="italic"><tspan y="-14.746" x="17.857">&#x03c0;</tspan></text>
<text fill="#0072bc" xml:space="preserve" transform="matrix(1 0 -0 1 0 194.567)" font-size="6.9738" font-family="CMMI7" font-style="italic"><tspan y="-13.252001" x="23.536">&#x03b8;</tspan></text>
<path transform="matrix(1,0,0,-1,30.037,144.407)" stroke-width=".99628" stroke-linecap="butt" stroke-miterlimit="10" stroke-linejoin="miter" fill="none" stroke="#0072bc" d="M56.69362-10.24837V-34.01608C56.69362-36.49722 57.04733-39.68535 59.52847-39.68535H69.36502"/>
<path transform="matrix(1,0,0,-1,99.40202,184.09235)" d="M5.20058 0C3.65962 .28891 1.15567 1.15567-.57784 2.1669V-2.1669C1.15567-1.15567 3.65962-.28891 5.20058 0" fill="#0072bc"/>
<path transform="matrix(1,0,0,-1,30.037,144.407)" d="M58.80705-34.01608C58.80705-32.84885 57.86084-31.90263 56.69362-31.90263 55.52638-31.90263 54.58017-32.84885 54.58017-34.01608 54.58017-35.1833 55.52638-36.12952 56.69362-36.12952 57.86084-36.12952 58.80705-35.1833 58.80705-34.01608ZM56.69362-34.01608" fill="#0072bc"/>
<path transform="matrix(1,0,0,-1,30.037,144.407)" stroke-width=".3985" stroke-linecap="butt" stroke-miterlimit="10" stroke-linejoin="miter" fill="none" stroke="#ffffff" d="M58.80705-34.01608C58.80705-32.84885 57.86084-31.90263 56.69362-31.90263 55.52638-31.90263 54.58017-32.84885 54.58017-34.01608 54.58017-35.1833 55.52638-36.12952 56.69362-36.12952 57.86084-36.12952 58.80705-35.1833 58.80705-34.01608ZM56.69362-34.01608"/>
<text fill="#0072bc" xml:space="preserve" transform="matrix(1 0 -0 1 0 194.567)" font-size="9.9626" font-family="CMMI10" font-style="italic"><tspan y="-14.746" x="74.55">&#x03c0;</tspan></text>
<text fill="#0072bc" xml:space="preserve" transform="matrix(1 0 -0 1 0 194.567)" font-size="6.9738" font-family="CMMI7" font-style="italic"><tspan y="-13.252001" x="80.229007">&#x03b8;</tspan></text>
<path transform="matrix(1,0,0,-1,30.037,144.407)" stroke-width=".99628" stroke-linecap="butt" stroke-miterlimit="10" stroke-linejoin="miter" fill="none" stroke="#0072bc" d="M113.38724-10.24837V-34.01608C113.38724-36.49722 113.74095-39.68535 116.22209-39.68535H126.05864"/>
<path transform="matrix(1,0,0,-1,156.09564,184.09235)" d="M5.20058 0C3.65962 .28891 1.15567 1.15567-.57784 2.1669V-2.1669C1.15567-1.15567 3.65962-.28891 5.20058 0" fill="#0072bc"/>
<path transform="matrix(1,0,0,-1,30.037,144.407)" d="M115.50067-34.01608C115.50067-32.84885 114.55446-31.90263 113.38724-31.90263 112.22-31.90263 111.27379-32.84885 111.27379-34.01608 111.27379-35.1833 112.22-36.12952 113.38724-36.12952 114.55446-36.12952 115.50067-35.1833 115.50067-34.01608ZM113.38724-34.01608" fill="#0072bc"/>
<path transform="matrix(1,0,0,-1,30.037,144.407)" stroke-width=".3985" stroke-linecap="butt" stroke-miterlimit="10" stroke-linejoin="miter" fill="none" stroke="#ffffff" d="M115.50067-34.01608C115.50067-32.84885 114.55446-31.90263 113.38724-31.90263 112.22-31.90263 111.27379-32.84885 111.27379-34.01608 111.27379-35.1833 112.22-36.12952 113.38724-36.12952 114.55446-36.12952 115.50067-35.1833 115.50067-34.01608ZM113.38724-34.01608"/>
<text fill="#0072bc" xml:space="preserve" transform="matrix(1 0 -0 1 0 194.567)" font-size="9.9626" font-family="CMMI10" font-style="italic"><tspan y="-14.746" x="131.243">&#x03c0;</tspan></text>
<text fill="#0072bc" xml:space="preserve" transform="matrix(1 0 -0 1 0 194.567)" font-size="6.9738" font-family="CMMI7" font-style="italic"><tspan y="-13.252001" x="136.922">&#x03b8;</tspan></text>
<path transform="matrix(1,0,0,-1,30.037,144.407)" stroke-width=".99628" stroke-linecap="butt" stroke-miterlimit="10" stroke-linejoin="miter" fill="none" stroke="#0072bc" d="M170.08086-10.24837V-34.01608C170.08086-36.49722 170.43457-39.68535 172.91571-39.68535H182.75226"/>
<path transform="matrix(1,0,0,-1,212.78926,184.09235)" d="M5.20058 0C3.65962 .28891 1.15567 1.15567-.57784 2.1669V-2.1669C1.15567-1.15567 3.65962-.28891 5.20058 0" fill="#0072bc"/>
<path transform="matrix(1,0,0,-1,30.037,144.407)" d="M172.19429-34.01608C172.19429-32.84885 171.24808-31.90263 170.08086-31.90263 168.91364-31.90263 167.9674-32.84885 167.9674-34.01608 167.9674-35.1833 168.91364-36.12952 170.08086-36.12952 171.24808-36.12952 172.19429-35.1833 172.19429-34.01608ZM170.08086-34.01608" fill="#0072bc"/>
<path transform="matrix(1,0,0,-1,30.037,144.407)" stroke-width=".3985" stroke-linecap="butt" stroke-miterlimit="10" stroke-linejoin="miter" fill="none" stroke="#ffffff" d="M172.19429-34.01608C172.19429-32.84885 171.24808-31.90263 170.08086-31.90263 168.91364-31.90263 167.9674-32.84885 167.9674-34.01608 167.9674-35.1833 168.91364-36.12952 170.08086-36.12952 171.24808-36.12952 172.19429-35.1833 172.19429-34.01608ZM170.08086-34.01608"/>
<text fill="#0072bc" xml:space="preserve" transform="matrix(1 0 -0 1 0 194.567)" font-size="9.9626" font-family="CMMI10" font-style="italic"><tspan y="-14.746" x="187.936">&#x03c0;</tspan></text>
<text fill="#0072bc" xml:space="preserve" transform="matrix(1 0 -0 1 0 194.567)" font-size="6.9738" font-family="CMMI7" font-style="italic"><tspan y="-13.252001" x="193.615">&#x03b8;</tspan></text>
<path transform="matrix(1,0,0,-1,30.037,144.407)" d="M66.61966 104.88309C66.61966 110.36516 62.17567 114.80913 56.69362 114.80913 51.21155 114.80913 46.76758 110.36516 46.76758 104.88309 46.76758 99.40103 51.21155 94.95705 56.69362 94.95705 62.17567 94.95705 66.61966 99.40103 66.61966 104.88309ZM56.69362 104.88309" fill="#00b3b8"/>
<path transform="matrix(1,0,0,-1,30.037,144.407)" stroke-width=".3985" stroke-linecap="butt" stroke-miterlimit="10" stroke-linejoin="miter" fill="none" stroke="#00b3b8" d="M66.61966 104.88309C66.61966 110.36516 62.17567 114.80913 56.69362 114.80913 51.21155 114.80913 46.76758 110.36516 46.76758 104.88309 46.76758 99.40103 51.21155 94.95705 56.69362 94.95705 62.17567 94.95705 66.61966 99.40103 66.61966 104.88309ZM56.69362 104.88309"/>
<text fill="#ffffff" xml:space="preserve" transform="matrix(1 0 -0 1 0 194.567)" font-size="9.9626" font-family="CMMI10" font-style="italic"><tspan y="-152.533" x="82.081">v</tspan></text>
<text fill="#ffffff" xml:space="preserve" transform="matrix(1 0 -0 1 0 194.567)" font-size="6.9738" font-family="CMSY7" font-style="italic"><tspan y="-156.14801" x="87.267">&#x2032;</tspan></text>
<text fill="#ffffff" xml:space="preserve" transform="matrix(1 0 -0 1 0 194.567)" font-size="6.9738" font-family="CMR7"><tspan y="-150.06002" x="86.909999">1</tspan></text>
<path transform="matrix(1,0,0,-1,30.037,144.407)" stroke-width=".99628" stroke-linecap="butt" stroke-miterlimit="10" stroke-linejoin="miter" fill="none" stroke="#00b3b8" d="M56.69362 72.38188V89.55722"/>
<path transform="matrix(0,-1,-1,-0,86.73062,54.849779)" d="M5.20058 0C3.65962 .28891 1.15567 1.15567-.57784 2.1669V-2.1669C1.15567-1.15567 3.65962-.28891 5.20058 0" fill="#00b3b8"/>
<path transform="matrix(1,0,0,-1,30.037,144.407)" d="M58.80705 82.20555C58.80705 83.37279 57.86084 84.319 56.69362 84.319 55.52638 84.319 54.58017 83.37279 54.58017 82.20555 54.58017 81.03833 55.52638 80.09212 56.69362 80.09212 57.86084 80.09212 58.80705 81.03833 58.80705 82.20555ZM56.69362 82.20555" fill="#00b3b8"/>
<path transform="matrix(1,0,0,-1,30.037,144.407)" stroke-width=".3985" stroke-linecap="butt" stroke-miterlimit="10" stroke-linejoin="miter" fill="none" stroke="#ffffff" d="M58.80705 82.20555C58.80705 83.37279 57.86084 84.319 56.69362 84.319 55.52638 84.319 54.58017 83.37279 54.58017 82.20555 54.58017 81.03833 55.52638 80.09212 56.69362 80.09212 57.86084 80.09212 58.80705 81.03833 58.80705 82.20555ZM56.69362 82.20555"/>
<text fill="#00b3b8" xml:space="preserve" transform="matrix(1 0 -0 1 0 194.567)" font-size="9.9626" font-family="CMMI10" font-style="italic"><tspan y="-129.707" x="74.484">V</tspan></text>
<text fill="#00b3b8" xml:space="preserve" transform="matrix(1 0 -0 1 0 194.567)" font-size="6.9738" font-family="CMMI7" font-style="italic"><tspan y="-128.213" x="80.296">&#x03b8;</tspan></text>
<path transform="matrix(1,0,0,-1,30.037,144.407)" d="M123.31328 104.88309C123.31328 110.36516 118.8693 114.80913 113.38724 114.80913 107.90517 114.80913 103.4612 110.36516 103.4612 104.88309 103.4612 99.40103 107.90517 94.95705 113.38724 94.95705 118.8693 94.95705 123.31328 99.40103 123.31328 104.88309ZM113.38724 104.88309" fill="#00b3b8"/>
<path transform="matrix(1,0,0,-1,30.037,144.407)" stroke-width=".3985" stroke-linecap="butt" stroke-miterlimit="10" stroke-linejoin="miter" fill="none" stroke="#00b3b8" d="M123.31328 104.88309C123.31328 110.36516 118.8693 114.80913 113.38724 114.80913 107.90517 114.80913 103.4612 110.36516 103.4612 104.88309 103.4612 99.40103 107.90517 94.95705 113.38724 94.95705 118.8693 94.95705 123.31328 99.40103 123.31328 104.88309ZM113.38724 104.88309"/>
<text fill="#ffffff" xml:space="preserve" transform="matrix(1 0 -0 1 0 194.567)" font-size="9.9626" font-family="CMMI10" font-style="italic"><tspan y="-152.533" x="138.774">v</tspan></text>
<text fill="#ffffff" xml:space="preserve" transform="matrix(1 0 -0 1 0 194.567)" font-size="6.9738" font-family="CMSY7" font-style="italic"><tspan y="-156.14801" x="143.96">&#x2032;</tspan></text>
<text fill="#ffffff" xml:space="preserve" transform="matrix(1 0 -0 1 0 194.567)" font-size="6.9738" font-family="CMR7"><tspan y="-150.06002" x="143.60301">2</tspan></text>
<path transform="matrix(1,0,0,-1,30.037,144.407)" stroke-width=".99628" stroke-linecap="butt" stroke-miterlimit="10" stroke-linejoin="miter" fill="none" stroke="#00b3b8" d="M113.38724 72.38188V89.55722"/>
<path transform="matrix(0,-1,-1,-0,143.42424,54.849779)" d="M5.20058 0C3.65962 .28891 1.15567 1.15567-.57784 2.1669V-2.1669C1.15567-1.15567 3.65962-.28891 5.20058 0" fill="#00b3b8"/>
<path transform="matrix(1,0,0,-1,30.037,144.407)" d="M115.50067 82.20555C115.50067 83.37279 114.55446 84.319 113.38724 84.319 112.22 84.319 111.27379 83.37279 111.27379 82.20555 111.27379 81.03833 112.22 80.09212 113.38724 80.09212 114.55446 80.09212 115.50067 81.03833 115.50067 82.20555ZM113.38724 82.20555" fill="#00b3b8"/>
<path transform="matrix(1,0,0,-1,30.037,144.407)" stroke-width=".3985" stroke-linecap="butt" stroke-miterlimit="10" stroke-linejoin="miter" fill="none" stroke="#ffffff" d="M115.50067 82.20555C115.50067 83.37279 114.55446 84.319 113.38724 84.319 112.22 84.319 111.27379 83.37279 111.27379 82.20555 111.27379 81.03833 112.22 80.09212 113.38724 80.09212 114.55446 80.09212 115.50067 81.03833 115.50067 82.20555ZM113.38724 82.20555"/>
<text fill="#00b3b8" xml:space="preserve" transform="matrix(1 0 -0 1 0 194.567)" font-size="9.9626" font-family="CMMI10" font-style="italic"><tspan y="-129.707" x="131.177">V</tspan></text>
<text fill="#00b3b8" xml:space="preserve" transform="matrix(1 0 -0 1 0 194.567)" font-size="6.9738" font-family="CMMI7" font-style="italic"><tspan y="-128.213" x="136.988">&#x03b8;</tspan></text>
<path transform="matrix(1,0,0,-1,30.037,144.407)" d="M180.0069 104.88309C180.0069 110.36516 175.56291 114.80913 170.08086 114.80913 164.59879 114.80913 160.15482 110.36516 160.15482 104.88309 160.15482 99.40103 164.59879 94.95705 170.08086 94.95705 175.56291 94.95705 180.0069 99.40103 180.0069 104.88309ZM170.08086 104.88309" fill="#00b3b8"/>
<path transform="matrix(1,0,0,-1,30.037,144.407)" stroke-width=".3985" stroke-linecap="butt" stroke-miterlimit="10" stroke-linejoin="miter" fill="none" stroke="#00b3b8" d="M180.0069 104.88309C180.0069 110.36516 175.56291 114.80913 170.08086 114.80913 164.59879 114.80913 160.15482 110.36516 160.15482 104.88309 160.15482 99.40103 164.59879 94.95705 170.08086 94.95705 175.56291 94.95705 180.0069 99.40103 180.0069 104.88309ZM170.08086 104.88309"/>
<text fill="#ffffff" xml:space="preserve" transform="matrix(1 0 -0 1 0 194.567)" font-size="9.9626" font-family="CMMI10" font-style="italic"><tspan y="-152.533" x="195.467">v</tspan></text>
<text fill="#ffffff" xml:space="preserve" transform="matrix(1 0 -0 1 0 194.567)" font-size="6.9738" font-family="CMSY7" font-style="italic"><tspan y="-156.14801" x="200.653">&#x2032;</tspan></text>
<text fill="#ffffff" xml:space="preserve" transform="matrix(1 0 -0 1 0 194.567)" font-size="6.9738" font-family="CMR7"><tspan y="-150.06002" x="200.296">3</tspan></text>
<path transform="matrix(1,0,0,-1,30.037,144.407)" stroke-width=".99628" stroke-linecap="butt" stroke-miterlimit="10" stroke-linejoin="miter" fill="none" stroke="#00b3b8" d="M170.08086 72.38188V89.55722"/>
<path transform="matrix(0,-1,-1,-0,200.11786,54.849779)" d="M5.20058 0C3.65962 .28891 1.15567 1.15567-.57784 2.1669V-2.1669C1.15567-1.15567 3.65962-.28891 5.20058 0" fill="#00b3b8"/>
<path transform="matrix(1,0,0,-1,30.037,144.407)" d="M172.19429 82.20555C172.19429 83.37279 171.24808 84.319 170.08086 84.319 168.91364 84.319 167.9674 83.37279 167.9674 82.20555 167.9674 81.03833 168.91364 80.09212 170.08086 80.09212 171.24808 80.09212 172.19429 81.03833 172.19429 82.20555ZM170.08086 82.20555" fill="#00b3b8"/>
<path transform="matrix(1,0,0,-1,30.037,144.407)" stroke-width=".3985" stroke-linecap="butt" stroke-miterlimit="10" stroke-linejoin="miter" fill="none" stroke="#ffffff" d="M172.19429 82.20555C172.19429 83.37279 171.24808 84.319 170.08086 84.319 168.91364 84.319 167.9674 83.37279 167.9674 82.20555 167.9674 81.03833 168.91364 80.09212 170.08086 80.09212 171.24808 80.09212 172.19429 81.03833 172.19429 82.20555ZM170.08086 82.20555"/>
<text fill="#00b3b8" xml:space="preserve" transform="matrix(1 0 -0 1 0 194.567)" font-size="9.9626" font-family="CMMI10" font-style="italic"><tspan y="-129.707" x="187.87">V</tspan></text>
<text fill="#00b3b8" xml:space="preserve" transform="matrix(1 0 -0 1 0 194.567)" font-size="6.9738" font-family="CMMI7" font-style="italic"><tspan y="-128.213" x="193.681">&#x03b8;</tspan></text>
<path transform="matrix(1,0,0,-1,30.037,144.407)" d="M236.70052 104.88309C236.70052 110.36516 232.25653 114.80913 226.77448 114.80913 221.2924 114.80913 216.84844 110.36516 216.84844 104.88309 216.84844 99.40103 221.2924 94.95705 226.77448 94.95705 232.25653 94.95705 236.70052 99.40103 236.70052 104.88309ZM226.77448 104.88309" fill="#00b3b8"/>
<path transform="matrix(1,0,0,-1,30.037,144.407)" stroke-width=".3985" stroke-linecap="butt" stroke-miterlimit="10" stroke-linejoin="miter" fill="none" stroke="#00b3b8" d="M236.70052 104.88309C236.70052 110.36516 232.25653 114.80913 226.77448 114.80913 221.2924 114.80913 216.84844 110.36516 216.84844 104.88309 216.84844 99.40103 221.2924 94.95705 226.77448 94.95705 232.25653 94.95705 236.70052 99.40103 236.70052 104.88309ZM226.77448 104.88309"/>
<text fill="#ffffff" xml:space="preserve" transform="matrix(1 0 -0 1 0 194.567)" font-size="9.9626" font-family="CMMI10" font-style="italic"><tspan y="-152.533" x="252.16">v</tspan></text>
<text fill="#ffffff" xml:space="preserve" transform="matrix(1 0 -0 1 0 194.567)" font-size="6.9738" font-family="CMSY7" font-style="italic"><tspan y="-156.14801" x="257.346">&#x2032;</tspan></text>
<text fill="#ffffff" xml:space="preserve" transform="matrix(1 0 -0 1 0 194.567)" font-size="6.9738" font-family="CMR7"><tspan y="-150.06002" x="256.989">4</tspan></text>
<path transform="matrix(1,0,0,-1,30.037,144.407)" stroke-width=".99628" stroke-linecap="butt" stroke-miterlimit="10" stroke-linejoin="miter" fill="none" stroke="#00b3b8" d="M226.77448 72.38188V89.55722"/>
<path transform="matrix(0,-1,-1,-0,256.81147,54.849779)" d="M5.20058 0C3.65962 .28891 1.15567 1.15567-.57784 2.1669V-2.1669C1.15567-1.15567 3.65962-.28891 5.20058 0" fill="#00b3b8"/>
<path transform="matrix(1,0,0,-1,30.037,144.407)" d="M228.88791 82.20555C228.88791 83.37279 227.9417 84.319 226.77448 84.319 225.60726 84.319 224.66103 83.37279 224.66103 82.20555 224.66103 81.03833 225.60726 80.09212 226.77448 80.09212 227.9417 80.09212 228.88791 81.03833 228.88791 82.20555ZM226.77448 82.20555" fill="#00b3b8"/>
<path transform="matrix(1,0,0,-1,30.037,144.407)" stroke-width=".3985" stroke-linecap="butt" stroke-miterlimit="10" stroke-linejoin="miter" fill="none" stroke="#ffffff" d="M228.88791 82.20555C228.88791 83.37279 227.9417 84.319 226.77448 84.319 225.60726 84.319 224.66103 83.37279 224.66103 82.20555 224.66103 81.03833 225.60726 80.09212 226.77448 80.09212 227.9417 80.09212 228.88791 81.03833 228.88791 82.20555ZM226.77448 82.20555"/>
<text fill="#00b3b8" xml:space="preserve" transform="matrix(1 0 -0 1 0 194.567)" font-size="9.9626" font-family="CMMI10" font-style="italic"><tspan y="-129.707" x="244.563">V</tspan></text>
<text fill="#00b3b8" xml:space="preserve" transform="matrix(1 0 -0 1 0 194.567)" font-size="6.9738" font-family="CMMI7" font-style="italic"><tspan y="-128.213" x="250.37401">&#x03b8;</tspan></text>
<path transform="matrix(1,0,0,-1,30.037,144.407)" d="M-14.17339 30.49156V31.87132C-14.17339 33.05585-13.21315 34.01608-12.02864 34.01608H238.80312C239.98764 34.01608 240.94788 33.05585 240.94788 31.87132V30.49156C240.94788 29.30704 239.98764 28.3468 238.80312 28.3468H-12.02864C-13.21315 28.3468-14.17339 29.30704-14.17339 30.49156ZM240.94788 34.01608" fill="#fdbb43"/>
<path transform="matrix(1,0,0,-1,30.037,144.407)" stroke-width=".3985" stroke-linecap="butt" stroke-miterlimit="10" stroke-linejoin="miter" fill="none" stroke="#ffffff" d="M-14.17339 30.49156V31.87132C-14.17339 33.05585-13.21315 34.01608-12.02864 34.01608H238.80312C239.98764 34.01608 240.94788 33.05585 240.94788 31.87132V30.49156C240.94788 29.30704 239.98764 28.3468 238.80312 28.3468H-12.02864C-13.21315 28.3468-14.17339 29.30704-14.17339 30.49156ZM240.94788 34.01608"/>
<text fill="#fdbb43" xml:space="preserve" transform="matrix(1 0 -0 1 .00000166893 194.56699)" font-size="9.9626" font-family="CMMI10" font-style="italic"><tspan y="-77.267" x="3.32">F</tspan></text>
<text fill="#fdbb43" xml:space="preserve" transform="matrix(1 0 -0 1 .00000166893 194.56699)" font-size="6.9738" font-family="CMMI7" font-style="italic"><tspan y="-75.771999" x="9.727">&#x03b8;</tspan></text>
<path transform="matrix(1,0,0,-1,30.037,144.407)" stroke-width=".99628" stroke-linecap="butt" stroke-miterlimit="10" stroke-linejoin="miter" fill="none" stroke="#fdbb43" d="M0 10.24837V23.14622"/>
<path transform="matrix(0,-1,-1,-0,30.037,121.26078)" d="M5.20058 0C3.65962 .28891 1.15567 1.15567-.57784 2.1669V-2.1669C1.15567-1.15567 3.65962-.28891 5.20058 0" fill="#fdbb43"/>
<path transform="matrix(1,0,0,-1,30.037,144.407)" stroke-width=".99628" stroke-linecap="butt" stroke-miterlimit="10" stroke-linejoin="miter" fill="none" stroke="#fdbb43" d="M28.3468-29.21053V23.14622"/>
<path transform="matrix(0,-1,-1,-0,58.3838,121.26078)" d="M5.20058 0C3.65962 .28891 1.15567 1.15567-.57784 2.1669V-2.1669C1.15567-1.15567 3.65962-.28891 5.20058 0" fill="#fdbb43"/>
<path transform="matrix(1,0,0,-1,30.037,144.407)" stroke-width=".99628" stroke-linecap="butt" stroke-miterlimit="10" stroke-linejoin="miter" fill="none" stroke="#fdbb43" d="M85.04042-29.21053V23.14622"/>
<path transform="matrix(0,-1,-1,-0,115.07742,121.26078)" d="M5.20058 0C3.65962 .28891 1.15567 1.15567-.57784 2.1669V-2.1669C1.15567-1.15567 3.65962-.28891 5.20058 0" fill="#fdbb43"/>
<path transform="matrix(1,0,0,-1,30.037,144.407)" stroke-width=".99628" stroke-linecap="butt" stroke-miterlimit="10" stroke-linejoin="miter" fill="none" stroke="#fdbb43" d="M141.73404-29.21053V23.14622"/>
<path transform="matrix(0,-1,-1,-0,171.77104,121.26078)" d="M5.20058 0C3.65962 .28891 1.15567 1.15567-.57784 2.1669V-2.1669C1.15567-1.15567 3.65962-.28891 5.20058 0" fill="#fdbb43"/>
<path transform="matrix(1,0,0,-1,30.037,144.407)" stroke-width=".99628" stroke-linecap="butt" stroke-miterlimit="10" stroke-linejoin="miter" fill="none" stroke="#fdbb43" d="M198.42766-29.21053V23.14622"/>
<path transform="matrix(0,-1,-1,-0,228.46466,121.26078)" d="M5.20058 0C3.65962 .28891 1.15567 1.15567-.57784 2.1669V-2.1669C1.15567-1.15567 3.65962-.28891 5.20058 0" fill="#fdbb43"/>
<path transform="matrix(1,0,0,-1,30.037,144.407)" stroke-width=".99628" stroke-linecap="butt" stroke-miterlimit="10" stroke-linejoin="miter" fill="none" stroke="#fdbb43" d="M0 34.01608V47.14331"/>
<path transform="matrix(0,-1,-1,-0,30.037,97.26369)" d="M5.20058 0C3.65962 .28891 1.15567 1.15567-.57784 2.1669V-2.1669C1.15567-1.15567 3.65962-.28891 5.20058 0" fill="#fdbb43"/>
<path transform="matrix(1,0,0,-1,30.037,144.407)" stroke-width=".99628" stroke-linecap="butt" stroke-miterlimit="10" stroke-linejoin="miter" fill="none" stroke="#fdbb43" d="M56.69362 34.01608V47.14331"/>
<path transform="matrix(0,-1,-1,-0,86.73062,97.26369)" d="M5.20058 0C3.65962 .28891 1.15567 1.15567-.57784 2.1669V-2.1669C1.15567-1.15567 3.65962-.28891 5.20058 0" fill="#fdbb43"/>
<path transform="matrix(1,0,0,-1,30.037,144.407)" stroke-width=".99628" stroke-linecap="butt" stroke-miterlimit="10" stroke-linejoin="miter" fill="none" stroke="#fdbb43" d="M113.38724 34.01608V47.14331"/>
<path transform="matrix(0,-1,-1,-0,143.42424,97.26369)" d="M5.20058 0C3.65962 .28891 1.15567 1.15567-.57784 2.1669V-2.1669C1.15567-1.15567 3.65962-.28891 5.20058 0" fill="#fdbb43"/>
<path transform="matrix(1,0,0,-1,30.037,144.407)" stroke-width=".99628" stroke-linecap="butt" stroke-miterlimit="10" stroke-linejoin="miter" fill="none" stroke="#fdbb43" d="M170.08086 34.01608V47.14331"/>
<path transform="matrix(0,-1,-1,-0,200.11786,97.26369)" d="M5.20058 0C3.65962 .28891 1.15567 1.15567-.57784 2.1669V-2.1669C1.15567-1.15567 3.65962-.28891 5.20058 0" fill="#fdbb43"/>
<path transform="matrix(1,0,0,-1,30.037,144.407)" stroke-width=".99628" stroke-linecap="butt" stroke-miterlimit="10" stroke-linejoin="miter" fill="none" stroke="#fdbb43" d="M226.77448 34.01608V47.14331"/>
<path transform="matrix(0,-1,-1,-0,256.81147,97.26369)" d="M5.20058 0C3.65962 .28891 1.15567 1.15567-.57784 2.1669V-2.1669C1.15567-1.15567 3.65962-.28891 5.20058 0" fill="#fdbb43"/>
<path transform="matrix(1,0,0,-1,30.037,144.407)" stroke-width=".99628" stroke-linecap="butt" stroke-dasharray="2.98883,2.98883" stroke-miterlimit="10" stroke-linejoin="miter" fill="none" stroke="#ff8000" d="M10.24837 0H41.24466"/>
<path transform="matrix(1,0,0,-1,71.28166,144.407)" d="M5.20058 0C3.65962 .28891 1.15567 1.15567-.57784 2.1669V-2.1669C1.15567-1.15567 3.65962-.28891 5.20058 0" fill="#ff8000"/>
<path transform="matrix(1,0,0,-1,30.037,144.407)" stroke-width=".99628" stroke-linecap="butt" stroke-dasharray="2.98883,2.98883" stroke-miterlimit="10" stroke-linejoin="miter" fill="none" stroke="#ff8000" d="M32.2368-29.96016 34.01608-25.51195 34.0161 0"/>
<path transform="matrix(1,0,0,-1,30.037,144.407)" d="M36.12953 0C36.12953 1.16722 35.18332 2.11343 34.0161 2.11343 32.84886 2.11343 31.90265 1.16722 31.90265 0 31.90265-1.16722 32.84886-2.11343 34.0161-2.11343 35.18332-2.11343 36.12953-1.16722 36.12953 0ZM34.0161 0" fill="#ff8000"/>
<path transform="matrix(1,0,0,-1,30.037,144.407)" stroke-width=".3985" stroke-linecap="butt" stroke-miterlimit="10" stroke-linejoin="miter" fill="none" stroke="#ffffff" d="M36.12953 0C36.12953 1.16722 35.18332 2.11343 34.0161 2.11343 32.84886 2.11343 31.90265 1.16722 31.90265 0 31.90265-1.16722 32.84886-2.11343 34.0161-2.11343 35.18332-2.11343 36.12953-1.16722 36.12953 0ZM34.0161 0"/>
<text fill="#ff8000" xml:space="preserve" transform="matrix(1 0 -0 1 0 194.56699)" font-size="9.9626" font-family="CMMI10" font-style="italic"><tspan y="-55.26" x="60.158">F</tspan></text>
<path transform="matrix(1,0,0,-1,30.037,144.407)" stroke-width=".99628" stroke-linecap="butt" stroke-dasharray="2.98883,2.98883" stroke-miterlimit="10" stroke-linejoin="miter" fill="none" stroke="#ff8000" d="M66.94199 0H97.93828"/>
<path transform="matrix(1,0,0,-1,127.97528,144.407)" d="M5.20058 0C3.65962 .28891 1.15567 1.15567-.57784 2.1669V-2.1669C1.15567-1.15567 3.65962-.28891 5.20058 0" fill="#ff8000"/>
<path transform="matrix(1,0,0,-1,30.037,144.407)" stroke-width=".99628" stroke-linecap="butt" stroke-dasharray="2.98883,2.98883" stroke-miterlimit="10" stroke-linejoin="miter" fill="none" stroke="#ff8000" d="M88.93042-29.96016 90.7097-25.51195 90.70972 0"/>
<path transform="matrix(1,0,0,-1,30.037,144.407)" d="M92.82315 0C92.82315 1.16722 91.87694 2.11343 90.70972 2.11343 89.54248 2.11343 88.59627 1.16722 88.59627 0 88.59627-1.16722 89.54248-2.11343 90.70972-2.11343 91.87694-2.11343 92.82315-1.16722 92.82315 0ZM90.70972 0" fill="#ff8000"/>
<path transform="matrix(1,0,0,-1,30.037,144.407)" stroke-width=".3985" stroke-linecap="butt" stroke-miterlimit="10" stroke-linejoin="miter" fill="none" stroke="#ffffff" d="M92.82315 0C92.82315 1.16722 91.87694 2.11343 90.70972 2.11343 89.54248 2.11343 88.59627 1.16722 88.59627 0 88.59627-1.16722 89.54248-2.11343 90.70972-2.11343 91.87694-2.11343 92.82315-1.16722 92.82315 0ZM90.70972 0"/>
<text fill="#ff8000" xml:space="preserve" transform="matrix(1 0 -0 1 .0000076293949 194.56699)" font-size="9.9626" font-family="CMMI10" font-style="italic"><tspan y="-55.26" x="116.851">F</tspan></text>
<path transform="matrix(1,0,0,-1,30.037,144.407)" stroke-width=".99628" stroke-linecap="butt" stroke-dasharray="2.98883,2.98883" stroke-miterlimit="10" stroke-linejoin="miter" fill="none" stroke="#ff8000" d="M123.6356 0H154.6319"/>
<path transform="matrix(1,0,0,-1,184.6689,144.407)" d="M5.20058 0C3.65962 .28891 1.15567 1.15567-.57784 2.1669V-2.1669C1.15567-1.15567 3.65962-.28891 5.20058 0" fill="#ff8000"/>
<path transform="matrix(1,0,0,-1,30.037,144.407)" stroke-width=".99628" stroke-linecap="butt" stroke-dasharray="2.98883,2.98883" stroke-miterlimit="10" stroke-linejoin="miter" fill="none" stroke="#ff8000" d="M145.62404-29.96016 147.40332-25.51195 147.40334 0"/>
<path transform="matrix(1,0,0,-1,30.037,144.407)" d="M149.51677 0C149.51677 1.16722 148.57056 2.11343 147.40334 2.11343 146.23612 2.11343 145.28989 1.16722 145.28989 0 145.28989-1.16722 146.23612-2.11343 147.40334-2.11343 148.57056-2.11343 149.51677-1.16722 149.51677 0ZM147.40334 0" fill="#ff8000"/>
<path transform="matrix(1,0,0,-1,30.037,144.407)" stroke-width=".3985" stroke-linecap="butt" stroke-miterlimit="10" stroke-linejoin="miter" fill="none" stroke="#ffffff" d="M149.51677 0C149.51677 1.16722 148.57056 2.11343 147.40334 2.11343 146.23612 2.11343 145.28989 1.16722 145.28989 0 145.28989-1.16722 146.23612-2.11343 147.40334-2.11343 148.57056-2.11343 149.51677-1.16722 149.51677 0ZM147.40334 0"/>
<text fill="#ff8000" xml:space="preserve" transform="matrix(1 0 -0 1 0 194.56699)" font-size="9.9626" font-family="CMMI10" font-style="italic"><tspan y="-55.26" x="173.544">F</tspan></text>
<path transform="matrix(1,0,0,-1,30.037,144.407)" stroke-width=".99628" stroke-linecap="butt" stroke-dasharray="2.98883,2.98883" stroke-miterlimit="10" stroke-linejoin="miter" fill="none" stroke="#ff8000" d="M180.32923 0H211.32552"/>
<path transform="matrix(1,0,0,-1,241.36252,144.407)" d="M5.20058 0C3.65962 .28891 1.15567 1.15567-.57784 2.1669V-2.1669C1.15567-1.15567 3.65962-.28891 5.20058 0" fill="#ff8000"/>
<path transform="matrix(1,0,0,-1,30.037,144.407)" stroke-width=".99628" stroke-linecap="butt" stroke-dasharray="2.98883,2.98883" stroke-miterlimit="10" stroke-linejoin="miter" fill="none" stroke="#ff8000" d="M202.31768-29.96016 204.09694-25.51195 204.09696 0"/>
<path transform="matrix(1,0,0,-1,30.037,144.407)" d="M206.21039 0C206.21039 1.16722 205.26418 2.11343 204.09696 2.11343 202.92974 2.11343 201.9835 1.16722 201.9835 0 201.9835-1.16722 202.92974-2.11343 204.09696-2.11343 205.26418-2.11343 206.21039-1.16722 206.21039 0ZM204.09696 0" fill="#ff8000"/>
<path transform="matrix(1,0,0,-1,30.037,144.407)" stroke-width=".3985" stroke-linecap="butt" stroke-miterlimit="10" stroke-linejoin="miter" fill="none" stroke="#ffffff" d="M206.21039 0C206.21039 1.16722 205.26418 2.11343 204.09696 2.11343 202.92974 2.11343 201.9835 1.16722 201.9835 0 201.9835-1.16722 202.92974-2.11343 204.09696-2.11343 205.26418-2.11343 206.21039-1.16722 206.21039 0ZM204.09696 0"/>
<text fill="#ff8000" xml:space="preserve" transform="matrix(1 0 -0 1 .000015258789 194.56699)" font-size="9.9626" font-family="CMMI10" font-style="italic"><tspan y="-55.26" x="230.236">F</tspan></text>
<path transform="matrix(1,0,0,-1,30.037,144.407)" d="M14.1734 135.37467V136.75443C14.1734 137.93895 15.13364 138.89917 16.31816 138.89917H238.80312C239.98764 138.89917 240.94788 137.93895 240.94788 136.75443V135.37467C240.94788 134.19014 239.98764 133.2299 238.80312 133.2299H16.31816C15.13364 133.2299 14.1734 134.19014 14.1734 135.37467ZM240.94788 138.89917" fill="#8dc63f"/>
<path transform="matrix(1,0,0,-1,30.037,144.407)" stroke-width=".3985" stroke-linecap="butt" stroke-miterlimit="10" stroke-linejoin="miter" fill="none" stroke="#ffffff" d="M14.1734 135.37467V136.75443C14.1734 137.93895 15.13364 138.89917 16.31816 138.89917H238.80312C239.98764 138.89917 240.94788 137.93895 240.94788 136.75443V135.37467C240.94788 134.19014 239.98764 133.2299 238.80312 133.2299H16.31816C15.13364 133.2299 14.1734 134.19014 14.1734 135.37467ZM240.94788 138.89917"/>
<text fill="#8dc63f" xml:space="preserve" transform="matrix(1 0 -0 1 0 194.567)" font-size="9.9626" font-family="CMSY10" font-style="italic"><tspan y="-182.812" x="30.985">L</tspan></text>
<text fill="#8dc63f" xml:space="preserve" transform="matrix(1 0 -0 1 0 194.567)" font-size="6.9738" font-family="CMMI7" font-style="italic"><tspan y="-186.427" x="37.856">&#x03c0;</tspan><tspan y="-179.991" x="37.856">&#x03b8;</tspan></text>
<path transform="matrix(1,0,0,-1,30.037,144.407)" stroke-width=".99628" stroke-linecap="butt" stroke-miterlimit="10" stroke-linejoin="miter" fill="none" stroke="#8dc63f" d="M28.3468 114.8498V128.02933"/>
<path transform="matrix(0,-1,-1,-0,58.3838,16.37767)" d="M5.20058 0C3.65962 .28891 1.15567 1.15567-.57784 2.1669V-2.1669C1.15567-1.15567 3.65962-.28891 5.20058 0" fill="#8dc63f"/>
<path transform="matrix(1,0,0,-1,30.037,144.407)" stroke-width=".99628" stroke-linecap="butt" stroke-miterlimit="10" stroke-linejoin="miter" fill="none" stroke="#8dc63f" d="M56.69362 115.00839V128.02933"/>
<path transform="matrix(0,-1,-1,-0,86.73062,16.37767)" d="M5.20058 0C3.65962 .28891 1.15567 1.15567-.57784 2.1669V-2.1669C1.15567-1.15567 3.65962-.28891 5.20058 0" fill="#8dc63f"/>
<path transform="matrix(1,0,0,-1,30.037,144.407)" stroke-width=".99628" stroke-linecap="butt" stroke-miterlimit="10" stroke-linejoin="miter" fill="none" stroke="#8dc63f" d="M85.04042 114.8498V128.02933"/>
<path transform="matrix(0,-1,-1,-0,115.07742,16.37767)" d="M5.20058 0C3.65962 .28891 1.15567 1.15567-.57784 2.1669V-2.1669C1.15567-1.15567 3.65962-.28891 5.20058 0" fill="#8dc63f"/>
<path transform="matrix(1,0,0,-1,30.037,144.407)" stroke-width=".99628" stroke-linecap="butt" stroke-miterlimit="10" stroke-linejoin="miter" fill="none" stroke="#8dc63f" d="M113.38724 115.00839V128.02933"/>
<path transform="matrix(0,-1,-1,-0,143.42424,16.37767)" d="M5.20058 0C3.65962 .28891 1.15567 1.15567-.57784 2.1669V-2.1669C1.15567-1.15567 3.65962-.28891 5.20058 0" fill="#8dc63f"/>
<path transform="matrix(1,0,0,-1,30.037,144.407)" stroke-width=".99628" stroke-linecap="butt" stroke-miterlimit="10" stroke-linejoin="miter" fill="none" stroke="#8dc63f" d="M141.73404 114.8498V128.02933"/>
<path transform="matrix(0,-1,-1,-0,171.77104,16.37767)" d="M5.20058 0C3.65962 .28891 1.15567 1.15567-.57784 2.1669V-2.1669C1.15567-1.15567 3.65962-.28891 5.20058 0" fill="#8dc63f"/>
<path transform="matrix(1,0,0,-1,30.037,144.407)" stroke-width=".99628" stroke-linecap="butt" stroke-miterlimit="10" stroke-linejoin="miter" fill="none" stroke="#8dc63f" d="M170.08086 115.00839V128.02933"/>
<path transform="matrix(0,-1,-1,-0,200.11786,16.37767)" d="M5.20058 0C3.65962 .28891 1.15567 1.15567-.57784 2.1669V-2.1669C1.15567-1.15567 3.65962-.28891 5.20058 0" fill="#8dc63f"/>
<path transform="matrix(1,0,0,-1,30.037,144.407)" stroke-width=".99628" stroke-linecap="butt" stroke-miterlimit="10" stroke-linejoin="miter" fill="none" stroke="#8dc63f" d="M198.42766 114.8498V128.02933"/>
<path transform="matrix(0,-1,-1,-0,228.46466,16.37767)" d="M5.20058 0C3.65962 .28891 1.15567 1.15567-.57784 2.1669V-2.1669C1.15567-1.15567 3.65962-.28891 5.20058 0" fill="#8dc63f"/>
<path transform="matrix(1,0,0,-1,30.037,144.407)" stroke-width=".99628" stroke-linecap="butt" stroke-miterlimit="10" stroke-linejoin="miter" fill="none" stroke="#8dc63f" d="M226.77448 115.00839V128.02933"/>
<path transform="matrix(0,-1,-1,-0,256.81147,16.37767)" d="M5.20058 0C3.65962 .28891 1.15567 1.15567-.57784 2.1669V-2.1669C1.15567-1.15567 3.65962-.28891 5.20058 0" fill="#8dc63f"/>
<path transform="matrix(1,0,0,-1,30.037,144.407)" d="M277.63899 136.06476C277.63899 140.67324 273.90315 144.40906 269.29469 144.40906 264.6862 144.40906 260.95039 140.67324 260.95039 136.06476 260.95039 131.45627 264.6862 127.72044 269.29469 127.72044 273.90315 127.72044 277.63899 131.45627 277.63899 136.06476ZM269.29469 136.06476" fill="#7f807f"/>
<text fill="#ffffff" xml:space="preserve" transform="matrix(1 0 -0 1 0 194.567)" font-size="9.9626" font-family="CMMI10" font-style="italic"><tspan y="-182.763" x="297.744">l</tspan></text>
<path transform="matrix(1,0,0,-1,30.037,144.407)" stroke-width=".99628" stroke-linecap="butt" stroke-miterlimit="10" stroke-linejoin="miter" fill="none" stroke="#7f807f" d="M240.94788 136.06476H255.55054"/>
<path transform="matrix(1,0,0,-1,285.58753,8.342239)" d="M5.20058 0C3.65962 .28891 1.15567 1.15567-.57784 2.1669V-2.1669C1.15567-1.15567 3.65962-.28891 5.20058 0" fill="#7f807f"/>
</svg>
