<svg xmlns="http://www.w3.org/2000/svg" xmlns:xlink="http://www.w3.org/1999/xlink" xmlns:inkscape="http://www.inkscape.org/namespaces/inkscape" version="1.1" width="293.136" height="186.063" viewBox="0 0 293.136 186.063">
<path transform="matrix(1,0,0,-1,15.5,135.903)" d="M10.0491 0C10.0491 5.55003 5.55003 10.0491 0 10.0491-5.55003 10.0491-10.0491 5.55003-10.0491 0-10.0491-5.55003-5.55003-10.0491 0-10.0491 5.55003-10.0491 10.0491-5.55003 10.0491 0ZM0 0" fill="#f58138"/>
<path transform="matrix(1,0,0,-1,15.5,135.903)" stroke-width=".3985" stroke-linecap="butt" stroke-miterlimit="10" stroke-linejoin="miter" fill="none" stroke="#f58138" d="M10.0491 0C10.0491 5.55003 5.55003 10.0491 0 10.0491-5.55003 10.0491-10.0491 5.55003-10.0491 0-10.0491-5.55003-5.55003-10.0491 0-10.0491 5.55003-10.0491 10.0491-5.55003 10.0491 0ZM0 0"/>
<text fill="#ffffff" xml:space="preserve" transform="matrix(1 0 -0 1 0 186.06299)" font-size="9.9626" font-family="CMMI10" font-style="italic"><tspan y="-48.762" x="10.931">s</tspan></text>
<text fill="#ffffff" xml:space="preserve" transform="matrix(1 0 -0 1 0 186.06299)" font-size="6.9738" font-family="CMR7"><tspan y="-47.268" x="15.601">0</tspan></text>
<path transform="matrix(1,0,0,-1,15.5,135.903)" d="M38.62236-39.68535C38.62236-34.01025 34.0219-29.40979 28.3468-29.40979 22.6717-29.40979 18.07124-34.01025 18.07124-39.68535 18.07124-45.36044 22.6717-49.9609 28.3468-49.9609 34.0219-49.9609 38.62236-45.36044 38.62236-39.68535ZM28.3468-39.68535" fill="#0072bc"/>
<path transform="matrix(1,0,0,-1,15.5,135.903)" stroke-width=".3985" stroke-linecap="butt" stroke-miterlimit="10" stroke-linejoin="miter" fill="none" stroke="#0072bc" d="M38.62236-39.68535C38.62236-34.01025 34.0219-29.40979 28.3468-29.40979 22.6717-29.40979 18.07124-34.01025 18.07124-39.68535 18.07124-45.36044 22.6717-49.9609 28.3468-49.9609 34.0219-49.9609 38.62236-45.36044 38.62236-39.68535ZM28.3468-39.68535"/>
<text fill="#ffffff" xml:space="preserve" transform="matrix(1 0 -0 1 0 186.06299)" font-size="9.9626" font-family="CMMI10" font-style="italic"><tspan y="-9.077" x="38.979">a</tspan></text>
<text fill="#ffffff" xml:space="preserve" transform="matrix(1 0 -0 1 0 186.06299)" font-size="6.9738" font-family="CMR7"><tspan y="-7.5829999" x="44.245">0</tspan></text>
<path transform="matrix(1,0,0,-1,15.5,135.903)" d="M38.28452 96.37897C38.28452 101.86748 33.83531 106.31668 28.3468 106.31668 22.85829 106.31668 18.40909 101.86748 18.40909 96.37897 18.40909 90.89046 22.85829 86.44125 28.3468 86.44125 33.83531 86.44125 38.28452 90.89046 38.28452 96.37897ZM28.3468 96.37897" fill="#a4548a"/>
<path transform="matrix(1,0,0,-1,15.5,135.903)" stroke-width=".3985" stroke-linecap="butt" stroke-miterlimit="10" stroke-linejoin="miter" fill="none" stroke="#a4548a" d="M38.28452 96.37897C38.28452 101.86748 33.83531 106.31668 28.3468 106.31668 22.85829 106.31668 18.40909 101.86748 18.40909 96.37897 18.40909 90.89046 22.85829 86.44125 28.3468 86.44125 33.83531 86.44125 38.28452 90.89046 38.28452 96.37897ZM28.3468 96.37897"/>
<text fill="#ffffff" xml:space="preserve" transform="matrix(1 0 -0 1 -.0000038146974 186.06299)" font-size="9.9626" font-family="CMMI10" font-style="italic"><tspan y="-145.14" x="39.365">r</tspan></text>
<text fill="#ffffff" xml:space="preserve" transform="matrix(1 0 -0 1 -.0000038146974 186.06299)" font-size="6.9738" font-family="CMR7"><tspan y="-143.645" x="43.859">0</tspan></text>
<path transform="matrix(1,0,0,-1,15.5,135.903)" d="M66.74272 0C66.74272 5.55003 62.24365 10.0491 56.69362 10.0491 51.14357 10.0491 46.6445 5.55003 46.6445 0 46.6445-5.55003 51.14357-10.0491 56.69362-10.0491 62.24365-10.0491 66.74272-5.55003 66.74272 0ZM56.69362 0" fill="#f58138"/>
<path transform="matrix(1,0,0,-1,15.5,135.903)" stroke-width=".3985" stroke-linecap="butt" stroke-miterlimit="10" stroke-linejoin="miter" fill="none" stroke="#f58138" d="M66.74272 0C66.74272 5.55003 62.24365 10.0491 56.69362 10.0491 51.14357 10.0491 46.6445 5.55003 46.6445 0 46.6445-5.55003 51.14357-10.0491 56.69362-10.0491 62.24365-10.0491 66.74272-5.55003 66.74272 0ZM56.69362 0"/>
<text fill="#ffffff" xml:space="preserve" transform="matrix(1 0 -0 1 0 186.06299)" font-size="9.9626" font-family="CMMI10" font-style="italic"><tspan y="-48.762" x="67.624">s</tspan></text>
<text fill="#ffffff" xml:space="preserve" transform="matrix(1 0 -0 1 0 186.06299)" font-size="6.9738" font-family="CMR7"><tspan y="-47.268" x="72.294">1</tspan></text>
<path transform="matrix(1,0,0,-1,15.5,135.903)" d="M95.31598-39.68535C95.31598-34.01025 90.71552-29.40979 85.04042-29.40979 79.36533-29.40979 74.76486-34.01025 74.76486-39.68535 74.76486-45.36044 79.36533-49.9609 85.04042-49.9609 90.71552-49.9609 95.31598-45.36044 95.31598-39.68535ZM85.04042-39.68535" fill="#0072bc"/>
<path transform="matrix(1,0,0,-1,15.5,135.903)" stroke-width=".3985" stroke-linecap="butt" stroke-miterlimit="10" stroke-linejoin="miter" fill="none" stroke="#0072bc" d="M95.31598-39.68535C95.31598-34.01025 90.71552-29.40979 85.04042-29.40979 79.36533-29.40979 74.76486-34.01025 74.76486-39.68535 74.76486-45.36044 79.36533-49.9609 85.04042-49.9609 90.71552-49.9609 95.31598-45.36044 95.31598-39.68535ZM85.04042-39.68535"/>
<text fill="#ffffff" xml:space="preserve" transform="matrix(1 0 -0 1 0 186.06299)" font-size="9.9626" font-family="CMMI10" font-style="italic"><tspan y="-9.077" x="95.672">a</tspan></text>
<text fill="#ffffff" xml:space="preserve" transform="matrix(1 0 -0 1 0 186.06299)" font-size="6.9738" font-family="CMR7"><tspan y="-7.5829999" x="100.937999">1</tspan></text>
<path transform="matrix(1,0,0,-1,15.5,135.903)" d="M94.97813 96.37897C94.97813 101.86748 90.52893 106.31668 85.04042 106.31668 79.55191 106.31668 75.1027 101.86748 75.1027 96.37897 75.1027 90.89046 79.55191 86.44125 85.04042 86.44125 90.52893 86.44125 94.97813 90.89046 94.97813 96.37897ZM85.04042 96.37897" fill="#a4548a"/>
<path transform="matrix(1,0,0,-1,15.5,135.903)" stroke-width=".3985" stroke-linecap="butt" stroke-miterlimit="10" stroke-linejoin="miter" fill="none" stroke="#a4548a" d="M94.97813 96.37897C94.97813 101.86748 90.52893 106.31668 85.04042 106.31668 79.55191 106.31668 75.1027 101.86748 75.1027 96.37897 75.1027 90.89046 79.55191 86.44125 85.04042 86.44125 90.52893 86.44125 94.97813 90.89046 94.97813 96.37897ZM85.04042 96.37897"/>
<text fill="#ffffff" xml:space="preserve" transform="matrix(1 0 -0 1 0 186.06299)" font-size="9.9626" font-family="CMMI10" font-style="italic"><tspan y="-145.14" x="96.058">r</tspan></text>
<text fill="#ffffff" xml:space="preserve" transform="matrix(1 0 -0 1 0 186.06299)" font-size="6.9738" font-family="CMR7"><tspan y="-143.645" x="100.552">1</tspan></text>
<path transform="matrix(1,0,0,-1,15.5,135.903)" d="M123.43634 0C123.43634 5.55003 118.93727 10.0491 113.38724 10.0491 107.83719 10.0491 103.33812 5.55003 103.33812 0 103.33812-5.55003 107.83719-10.0491 113.38724-10.0491 118.93727-10.0491 123.43634-5.55003 123.43634 0ZM113.38724 0" fill="#f58138"/>
<path transform="matrix(1,0,0,-1,15.5,135.903)" stroke-width=".3985" stroke-linecap="butt" stroke-miterlimit="10" stroke-linejoin="miter" fill="none" stroke="#f58138" d="M123.43634 0C123.43634 5.55003 118.93727 10.0491 113.38724 10.0491 107.83719 10.0491 103.33812 5.55003 103.33812 0 103.33812-5.55003 107.83719-10.0491 113.38724-10.0491 118.93727-10.0491 123.43634-5.55003 123.43634 0ZM113.38724 0"/>
<text fill="#ffffff" xml:space="preserve" transform="matrix(1 0 -0 1 0 186.06299)" font-size="9.9626" font-family="CMMI10" font-style="italic"><tspan y="-48.762" x="124.316">s</tspan></text>
<text fill="#ffffff" xml:space="preserve" transform="matrix(1 0 -0 1 0 186.06299)" font-size="6.9738" font-family="CMR7"><tspan y="-47.268" x="128.98601">2</tspan></text>
<path transform="matrix(1,0,0,-1,15.5,135.903)" d="M152.00962-39.68535C152.00962-34.01025 147.40914-29.40979 141.73404-29.40979 136.05895-29.40979 131.45848-34.01025 131.45848-39.68535 131.45848-45.36044 136.05895-49.9609 141.73404-49.9609 147.40914-49.9609 152.00962-45.36044 152.00962-39.68535ZM141.73404-39.68535" fill="#0072bc"/>
<path transform="matrix(1,0,0,-1,15.5,135.903)" stroke-width=".3985" stroke-linecap="butt" stroke-miterlimit="10" stroke-linejoin="miter" fill="none" stroke="#0072bc" d="M152.00962-39.68535C152.00962-34.01025 147.40914-29.40979 141.73404-29.40979 136.05895-29.40979 131.45848-34.01025 131.45848-39.68535 131.45848-45.36044 136.05895-49.9609 141.73404-49.9609 147.40914-49.9609 152.00962-45.36044 152.00962-39.68535ZM141.73404-39.68535"/>
<text fill="#ffffff" xml:space="preserve" transform="matrix(1 0 -0 1 0 186.06299)" font-size="9.9626" font-family="CMMI10" font-style="italic"><tspan y="-9.077" x="152.365">a</tspan></text>
<text fill="#ffffff" xml:space="preserve" transform="matrix(1 0 -0 1 0 186.06299)" font-size="6.9738" font-family="CMR7"><tspan y="-7.5829999" x="157.63101">2</tspan></text>
<path transform="matrix(1,0,0,-1,15.5,135.903)" d="M151.67176 96.37897C151.67176 101.86748 147.22255 106.31668 141.73404 106.31668 136.24553 106.31668 131.79633 101.86748 131.79633 96.37897 131.79633 90.89046 136.24553 86.44125 141.73404 86.44125 147.22255 86.44125 151.67176 90.89046 151.67176 96.37897ZM141.73404 96.37897" fill="#a4548a"/>
<path transform="matrix(1,0,0,-1,15.5,135.903)" stroke-width=".3985" stroke-linecap="butt" stroke-miterlimit="10" stroke-linejoin="miter" fill="none" stroke="#a4548a" d="M151.67176 96.37897C151.67176 101.86748 147.22255 106.31668 141.73404 106.31668 136.24553 106.31668 131.79633 101.86748 131.79633 96.37897 131.79633 90.89046 136.24553 86.44125 141.73404 86.44125 147.22255 86.44125 151.67176 90.89046 151.67176 96.37897ZM141.73404 96.37897"/>
<text fill="#ffffff" xml:space="preserve" transform="matrix(1 0 -0 1 0 186.06299)" font-size="9.9626" font-family="CMMI10" font-style="italic"><tspan y="-145.14" x="152.75">r</tspan></text>
<text fill="#ffffff" xml:space="preserve" transform="matrix(1 0 -0 1 0 186.06299)" font-size="6.9738" font-family="CMR7"><tspan y="-143.645" x="157.245">2</tspan></text>
<path transform="matrix(1,0,0,-1,15.5,135.903)" d="M180.12998 0C180.12998 5.55003 175.63089 10.0491 170.08086 10.0491 164.5308 10.0491 160.03174 5.55003 160.03174 0 160.03174-5.55003 164.5308-10.0491 170.08086-10.0491 175.63089-10.0491 180.12998-5.55003 180.12998 0ZM170.08086 0" fill="#f58138"/>
<path transform="matrix(1,0,0,-1,15.5,135.903)" stroke-width=".3985" stroke-linecap="butt" stroke-miterlimit="10" stroke-linejoin="miter" fill="none" stroke="#f58138" d="M180.12998 0C180.12998 5.55003 175.63089 10.0491 170.08086 10.0491 164.5308 10.0491 160.03174 5.55003 160.03174 0 160.03174-5.55003 164.5308-10.0491 170.08086-10.0491 175.63089-10.0491 180.12998-5.55003 180.12998 0ZM170.08086 0"/>
<text fill="#ffffff" xml:space="preserve" transform="matrix(1 0 -0 1 0 186.06299)" font-size="9.9626" font-family="CMMI10" font-style="italic"><tspan y="-48.762" x="181.009">s</tspan></text>
<text fill="#ffffff" xml:space="preserve" transform="matrix(1 0 -0 1 0 186.06299)" font-size="6.9738" font-family="CMR7"><tspan y="-47.268" x="185.679">3</tspan></text>
<path transform="matrix(1,0,0,-1,15.5,135.903)" d="M208.70323-39.68535C208.70323-34.01025 204.10276-29.40979 198.42766-29.40979 192.75257-29.40979 188.1521-34.01025 188.1521-39.68535 188.1521-45.36044 192.75257-49.9609 198.42766-49.9609 204.10276-49.9609 208.70323-45.36044 208.70323-39.68535ZM198.42766-39.68535" fill="#0072bc"/>
<path transform="matrix(1,0,0,-1,15.5,135.903)" stroke-width=".3985" stroke-linecap="butt" stroke-miterlimit="10" stroke-linejoin="miter" fill="none" stroke="#0072bc" d="M208.70323-39.68535C208.70323-34.01025 204.10276-29.40979 198.42766-29.40979 192.75257-29.40979 188.1521-34.01025 188.1521-39.68535 188.1521-45.36044 192.75257-49.9609 198.42766-49.9609 204.10276-49.9609 208.70323-45.36044 208.70323-39.68535ZM198.42766-39.68535"/>
<text fill="#ffffff" xml:space="preserve" transform="matrix(1 0 -0 1 0 186.06299)" font-size="9.9626" font-family="CMMI10" font-style="italic"><tspan y="-9.077" x="209.058">a</tspan></text>
<text fill="#ffffff" xml:space="preserve" transform="matrix(1 0 -0 1 0 186.06299)" font-size="6.9738" font-family="CMR7"><tspan y="-7.5829999" x="214.324">3</tspan></text>
<path transform="matrix(1,0,0,-1,15.5,135.903)" d="M208.36537 96.37897C208.36537 101.86748 203.91617 106.31668 198.42766 106.31668 192.93915 106.31668 188.48995 101.86748 188.48995 96.37897 188.48995 90.89046 192.93915 86.44125 198.42766 86.44125 203.91617 86.44125 208.36537 90.89046 208.36537 96.37897ZM198.42766 96.37897" fill="#a4548a"/>
<path transform="matrix(1,0,0,-1,15.5,135.903)" stroke-width=".3985" stroke-linecap="butt" stroke-miterlimit="10" stroke-linejoin="miter" fill="none" stroke="#a4548a" d="M208.36537 96.37897C208.36537 101.86748 203.91617 106.31668 198.42766 106.31668 192.93915 106.31668 188.48995 101.86748 188.48995 96.37897 188.48995 90.89046 192.93915 86.44125 198.42766 86.44125 203.91617 86.44125 208.36537 90.89046 208.36537 96.37897ZM198.42766 96.37897"/>
<text fill="#ffffff" xml:space="preserve" transform="matrix(1 0 -0 1 0 186.06299)" font-size="9.9626" font-family="CMMI10" font-style="italic"><tspan y="-145.14" x="209.443">r</tspan></text>
<text fill="#ffffff" xml:space="preserve" transform="matrix(1 0 -0 1 0 186.06299)" font-size="6.9738" font-family="CMR7"><tspan y="-143.645" x="213.93799">3</tspan></text>
<path transform="matrix(1,0,0,-1,15.5,135.903)" d="M236.8236 0C236.8236 5.55003 232.32451 10.0491 226.77448 10.0491 221.22443 10.0491 216.72536 5.55003 216.72536 0 216.72536-5.55003 221.22443-10.0491 226.77448-10.0491 232.32451-10.0491 236.8236-5.55003 236.8236 0ZM226.77448 0" fill="#f58138"/>
<path transform="matrix(1,0,0,-1,15.5,135.903)" stroke-width=".3985" stroke-linecap="butt" stroke-miterlimit="10" stroke-linejoin="miter" fill="none" stroke="#f58138" d="M236.8236 0C236.8236 5.55003 232.32451 10.0491 226.77448 10.0491 221.22443 10.0491 216.72536 5.55003 216.72536 0 216.72536-5.55003 221.22443-10.0491 226.77448-10.0491 232.32451-10.0491 236.8236-5.55003 236.8236 0ZM226.77448 0"/>
<text fill="#ffffff" xml:space="preserve" transform="matrix(1 0 -0 1 0 186.06299)" font-size="9.9626" font-family="CMMI10" font-style="italic"><tspan y="-48.762" x="237.702">s</tspan></text>
<text fill="#ffffff" xml:space="preserve" transform="matrix(1 0 -0 1 0 186.06299)" font-size="6.9738" font-family="CMR7"><tspan y="-47.268" x="242.372">4</tspan></text>
<path transform="matrix(1,0,0,-1,15.5,135.903)" stroke-width=".99628" stroke-linecap="butt" stroke-miterlimit="10" stroke-linejoin="miter" fill="none" stroke="#a4548a" d="M28.3468-29.21053V81.04141"/>
<path transform="matrix(0,-1,-1,-0,43.8468,54.861589)" d="M5.20058 0C3.65962 .28891 1.15567 1.15567-.57784 2.1669V-2.1669C1.15567-1.15567 3.65962-.28891 5.20058 0" fill="#a4548a"/>
<path transform="matrix(1,0,0,-1,15.5,135.903)" stroke-width=".99628" stroke-linecap="butt" stroke-miterlimit="10" stroke-linejoin="miter" fill="none" stroke="#a4548a" d="M6.5605 7.87265 11.42746 13.71309C12.944 15.53296 16.09384 17.00824 18.4629 17.00824L24.0573 17.00826C26.42635 17.00826 28.3468 18.92871 28.3468 21.29776V81.04141"/>
<path transform="matrix(0,-1,-1,-0,43.8468,54.861589)" d="M5.20058 0C3.65962 .28891 1.15567 1.15567-.57784 2.1669V-2.1669C1.15567-1.15567 3.65962-.28891 5.20058 0" fill="#a4548a"/>
<path transform="matrix(1,0,0,-1,15.5,135.903)" stroke-width=".99628" stroke-linecap="butt" stroke-miterlimit="10" stroke-linejoin="miter" fill="none" stroke="#a4548a" d="M50.1331 7.87265 45.26614 13.71309C43.7496 15.53296 40.59976 17.00824 38.2307 17.00824L32.6363 17.00826C30.26726 17.00826 28.3468 18.92871 28.3468 21.29776V81.04141"/>
<path transform="matrix(0,-1,-1,-0,43.8468,54.861589)" d="M5.20058 0C3.65962 .28891 1.15567 1.15567-.57784 2.1669V-2.1669C1.15567-1.15567 3.65962-.28891 5.20058 0" fill="#a4548a"/>
<path transform="matrix(1,0,0,-1,15.5,135.903)" d="M30.46024 73.70145C30.46024 74.86867 29.51402 75.8149 28.3468 75.8149 27.17958 75.8149 26.23337 74.86867 26.23337 73.70145 26.23337 72.53423 27.17958 71.58801 28.3468 71.58801 29.51402 71.58801 30.46024 72.53423 30.46024 73.70145ZM28.3468 73.70145" fill="#a4548a"/>
<path transform="matrix(1,0,0,-1,15.5,135.903)" stroke-width=".3985" stroke-linecap="butt" stroke-miterlimit="10" stroke-linejoin="miter" fill="none" stroke="#ffffff" d="M30.46024 73.70145C30.46024 74.86867 29.51402 75.8149 28.3468 75.8149 27.17958 75.8149 26.23337 74.86867 26.23337 73.70145 26.23337 72.53423 27.17958 71.58801 28.3468 71.58801 29.51402 71.58801 30.46024 72.53423 30.46024 73.70145ZM28.3468 73.70145"/>
<text fill="#a4548a" xml:space="preserve" transform="matrix(1 0 -0 1 0 186.063)" font-size="9.9626" font-family="CMMI10" font-style="italic"><tspan y="-120.456" x="32.939">R</tspan></text>
<path transform="matrix(1,0,0,-1,15.5,135.903)" stroke-width=".99628" stroke-linecap="butt" stroke-miterlimit="10" stroke-linejoin="miter" fill="none" stroke="#a4548a" d="M85.04042-29.21053V81.04141"/>
<path transform="matrix(0,-1,-1,-0,100.54042,54.861589)" d="M5.20058 0C3.65962 .28891 1.15567 1.15567-.57784 2.1669V-2.1669C1.15567-1.15567 3.65962-.28891 5.20058 0" fill="#a4548a"/>
<path transform="matrix(1,0,0,-1,15.5,135.903)" stroke-width=".99628" stroke-linecap="butt" stroke-miterlimit="10" stroke-linejoin="miter" fill="none" stroke="#a4548a" d="M63.25412 7.87265 68.12108 13.71309C69.63762 15.53296 72.78746 17.00824 75.15652 17.00824L80.75092 17.00826C83.11996 17.00826 85.04042 18.92871 85.04042 21.29776V81.04141"/>
<path transform="matrix(0,-1,-1,-0,100.54042,54.861589)" d="M5.20058 0C3.65962 .28891 1.15567 1.15567-.57784 2.1669V-2.1669C1.15567-1.15567 3.65962-.28891 5.20058 0" fill="#a4548a"/>
<path transform="matrix(1,0,0,-1,15.5,135.903)" stroke-width=".99628" stroke-linecap="butt" stroke-miterlimit="10" stroke-linejoin="miter" fill="none" stroke="#a4548a" d="M106.82672 7.87265 101.95976 13.71309C100.44322 15.53296 97.29338 17.00824 94.92432 17.00824L89.32994 17.00826C86.96088 17.00826 85.04042 18.92871 85.04042 21.29776V81.04141"/>
<path transform="matrix(0,-1,-1,-0,100.54042,54.861589)" d="M5.20058 0C3.65962 .28891 1.15567 1.15567-.57784 2.1669V-2.1669C1.15567-1.15567 3.65962-.28891 5.20058 0" fill="#a4548a"/>
<path transform="matrix(1,0,0,-1,15.5,135.903)" d="M87.15385 73.70145C87.15385 74.86867 86.20764 75.8149 85.04042 75.8149 83.8732 75.8149 82.92699 74.86867 82.92699 73.70145 82.92699 72.53423 83.8732 71.58801 85.04042 71.58801 86.20764 71.58801 87.15385 72.53423 87.15385 73.70145ZM85.04042 73.70145" fill="#a4548a"/>
<path transform="matrix(1,0,0,-1,15.5,135.903)" stroke-width=".3985" stroke-linecap="butt" stroke-miterlimit="10" stroke-linejoin="miter" fill="none" stroke="#ffffff" d="M87.15385 73.70145C87.15385 74.86867 86.20764 75.8149 85.04042 75.8149 83.8732 75.8149 82.92699 74.86867 82.92699 73.70145 82.92699 72.53423 83.8732 71.58801 85.04042 71.58801 86.20764 71.58801 87.15385 72.53423 87.15385 73.70145ZM85.04042 73.70145"/>
<text fill="#a4548a" xml:space="preserve" transform="matrix(1 0 -0 1 0 186.063)" font-size="9.9626" font-family="CMMI10" font-style="italic"><tspan y="-120.456" x="89.632">R</tspan></text>
<path transform="matrix(1,0,0,-1,15.5,135.903)" stroke-width=".99628" stroke-linecap="butt" stroke-miterlimit="10" stroke-linejoin="miter" fill="none" stroke="#a4548a" d="M141.73404-29.21053V81.04141"/>
<path transform="matrix(0,-1,-1,-0,157.23404,54.861589)" d="M5.20058 0C3.65962 .28891 1.15567 1.15567-.57784 2.1669V-2.1669C1.15567-1.15567 3.65962-.28891 5.20058 0" fill="#a4548a"/>
<path transform="matrix(1,0,0,-1,15.5,135.903)" stroke-width=".99628" stroke-linecap="butt" stroke-miterlimit="10" stroke-linejoin="miter" fill="none" stroke="#a4548a" d="M119.94774 7.87265 124.8147 13.71309C126.33124 15.53296 129.48108 17.00824 131.85015 17.00824L137.44454 17.00826C139.81359 17.00826 141.73404 18.92871 141.73404 21.29776V81.04141"/>
<path transform="matrix(0,-1,-1,-0,157.23404,54.861589)" d="M5.20058 0C3.65962 .28891 1.15567 1.15567-.57784 2.1669V-2.1669C1.15567-1.15567 3.65962-.28891 5.20058 0" fill="#a4548a"/>
<path transform="matrix(1,0,0,-1,15.5,135.903)" stroke-width=".99628" stroke-linecap="butt" stroke-miterlimit="10" stroke-linejoin="miter" fill="none" stroke="#a4548a" d="M163.52034 7.87265 158.65338 13.71309C157.13684 15.53296 153.987 17.00824 151.61794 17.00824L146.02356 17.00826C143.6545 17.00826 141.73404 18.92871 141.73404 21.29776V81.04141"/>
<path transform="matrix(0,-1,-1,-0,157.23404,54.861589)" d="M5.20058 0C3.65962 .28891 1.15567 1.15567-.57784 2.1669V-2.1669C1.15567-1.15567 3.65962-.28891 5.20058 0" fill="#a4548a"/>
<path transform="matrix(1,0,0,-1,15.5,135.903)" d="M143.84749 73.70145C143.84749 74.86867 142.90126 75.8149 141.73404 75.8149 140.56682 75.8149 139.6206 74.86867 139.6206 73.70145 139.6206 72.53423 140.56682 71.58801 141.73404 71.58801 142.90126 71.58801 143.84749 72.53423 143.84749 73.70145ZM141.73404 73.70145" fill="#a4548a"/>
<path transform="matrix(1,0,0,-1,15.5,135.903)" stroke-width=".3985" stroke-linecap="butt" stroke-miterlimit="10" stroke-linejoin="miter" fill="none" stroke="#ffffff" d="M143.84749 73.70145C143.84749 74.86867 142.90126 75.8149 141.73404 75.8149 140.56682 75.8149 139.6206 74.86867 139.6206 73.70145 139.6206 72.53423 140.56682 71.58801 141.73404 71.58801 142.90126 71.58801 143.84749 72.53423 143.84749 73.70145ZM141.73404 73.70145"/>
<text fill="#a4548a" xml:space="preserve" transform="matrix(1 0 -0 1 0 186.063)" font-size="9.9626" font-family="CMMI10" font-style="italic"><tspan y="-120.456" x="146.325">R</tspan></text>
<path transform="matrix(1,0,0,-1,15.5,135.903)" stroke-width=".99628" stroke-linecap="butt" stroke-miterlimit="10" stroke-linejoin="miter" fill="none" stroke="#a4548a" d="M198.42766-29.21053V81.04141"/>
<path transform="matrix(0,-1,-1,-0,213.92766,54.861589)" d="M5.20058 0C3.65962 .28891 1.15567 1.15567-.57784 2.1669V-2.1669C1.15567-1.15567 3.65962-.28891 5.20058 0" fill="#a4548a"/>
<path transform="matrix(1,0,0,-1,15.5,135.903)" stroke-width=".99628" stroke-linecap="butt" stroke-miterlimit="10" stroke-linejoin="miter" fill="none" stroke="#a4548a" d="M176.64136 7.87265 181.50832 13.71309C183.02487 15.53296 186.1747 17.00824 188.54376 17.00824L194.13816 17.00826C196.50722 17.00826 198.42766 18.92871 198.42766 21.29776V81.04141"/>
<path transform="matrix(0,-1,-1,-0,213.92766,54.861589)" d="M5.20058 0C3.65962 .28891 1.15567 1.15567-.57784 2.1669V-2.1669C1.15567-1.15567 3.65962-.28891 5.20058 0" fill="#a4548a"/>
<path transform="matrix(1,0,0,-1,15.5,135.903)" stroke-width=".99628" stroke-linecap="butt" stroke-miterlimit="10" stroke-linejoin="miter" fill="none" stroke="#a4548a" d="M220.21396 7.87265 215.347 13.71309C213.83046 15.53296 210.68062 17.00824 208.31157 17.00824L202.71718 17.00826C200.34812 17.00826 198.42766 18.92871 198.42766 21.29776V81.04141"/>
<path transform="matrix(0,-1,-1,-0,213.92766,54.861589)" d="M5.20058 0C3.65962 .28891 1.15567 1.15567-.57784 2.1669V-2.1669C1.15567-1.15567 3.65962-.28891 5.20058 0" fill="#a4548a"/>
<path transform="matrix(1,0,0,-1,15.5,135.903)" d="M200.5411 73.70145C200.5411 74.86867 199.59488 75.8149 198.42766 75.8149 197.26044 75.8149 196.31423 74.86867 196.31423 73.70145 196.31423 72.53423 197.26044 71.58801 198.42766 71.58801 199.59488 71.58801 200.5411 72.53423 200.5411 73.70145ZM198.42766 73.70145" fill="#a4548a"/>
<path transform="matrix(1,0,0,-1,15.5,135.903)" stroke-width=".3985" stroke-linecap="butt" stroke-miterlimit="10" stroke-linejoin="miter" fill="none" stroke="#ffffff" d="M200.5411 73.70145C200.5411 74.86867 199.59488 75.8149 198.42766 75.8149 197.26044 75.8149 196.31423 74.86867 196.31423 73.70145 196.31423 72.53423 197.26044 71.58801 198.42766 71.58801 199.59488 71.58801 200.5411 72.53423 200.5411 73.70145ZM198.42766 73.70145"/>
<text fill="#a4548a" xml:space="preserve" transform="matrix(1 0 -0 1 0 186.063)" font-size="9.9626" font-family="CMMI10" font-style="italic"><tspan y="-120.456" x="203.018">R</tspan></text>
<path transform="matrix(1,0,0,-1,15.5,135.903)" stroke-width=".99628" stroke-linecap="butt" stroke-miterlimit="10" stroke-linejoin="miter" fill="none" stroke="#0072bc" d="M0-10.24837V-34.01608C0-36.49722 .35371-39.68535 2.83485-39.68535H12.6714"/>
<path transform="matrix(1,0,0,-1,28.1714,175.58835)" d="M5.20058 0C3.65962 .28891 1.15567 1.15567-.57784 2.1669V-2.1669C1.15567-1.15567 3.65962-.28891 5.20058 0" fill="#0072bc"/>
<path transform="matrix(1,0,0,-1,15.5,135.903)" d="M2.11343-34.01608C2.11343-32.84885 1.16722-31.90263 0-31.90263-1.16722-31.90263-2.11343-32.84885-2.11343-34.01608-2.11343-35.1833-1.16722-36.12952 0-36.12952 1.16722-36.12952 2.11343-35.1833 2.11343-34.01608ZM0-34.01608" fill="#0072bc"/>
<path transform="matrix(1,0,0,-1,15.5,135.903)" stroke-width=".3985" stroke-linecap="butt" stroke-miterlimit="10" stroke-linejoin="miter" fill="none" stroke="#ffffff" d="M2.11343-34.01608C2.11343-32.84885 1.16722-31.90263 0-31.90263-1.16722-31.90263-2.11343-32.84885-2.11343-34.01608-2.11343-35.1833-1.16722-36.12952 0-36.12952 1.16722-36.12952 2.11343-35.1833 2.11343-34.01608ZM0-34.01608"/>
<text fill="#0072bc" xml:space="preserve" transform="matrix(1 0 -0 1 -.00000023841859 186.063)" font-size="9.9626" font-family="CMMI10" font-style="italic"><tspan y="-14.746" x="3.32">&#x03c0;</tspan></text>
<text fill="#0072bc" xml:space="preserve" transform="matrix(1 0 -0 1 -.00000023841859 186.063)" font-size="6.9738" font-family="CMMI7" font-style="italic"><tspan y="-13.252001" x="8.999">&#x03b8;</tspan></text>
<path transform="matrix(1,0,0,-1,15.5,135.903)" stroke-width=".99628" stroke-linecap="butt" stroke-miterlimit="10" stroke-linejoin="miter" fill="none" stroke="#0072bc" d="M56.69362-10.24837V-34.01608C56.69362-36.49722 57.04733-39.68535 59.52847-39.68535H69.36502"/>
<path transform="matrix(1,0,0,-1,84.86502,175.58835)" d="M5.20058 0C3.65962 .28891 1.15567 1.15567-.57784 2.1669V-2.1669C1.15567-1.15567 3.65962-.28891 5.20058 0" fill="#0072bc"/>
<path transform="matrix(1,0,0,-1,15.5,135.903)" d="M58.80705-34.01608C58.80705-32.84885 57.86084-31.90263 56.69362-31.90263 55.52638-31.90263 54.58017-32.84885 54.58017-34.01608 54.58017-35.1833 55.52638-36.12952 56.69362-36.12952 57.86084-36.12952 58.80705-35.1833 58.80705-34.01608ZM56.69362-34.01608" fill="#0072bc"/>
<path transform="matrix(1,0,0,-1,15.5,135.903)" stroke-width=".3985" stroke-linecap="butt" stroke-miterlimit="10" stroke-linejoin="miter" fill="none" stroke="#ffffff" d="M58.80705-34.01608C58.80705-32.84885 57.86084-31.90263 56.69362-31.90263 55.52638-31.90263 54.58017-32.84885 54.58017-34.01608 54.58017-35.1833 55.52638-36.12952 56.69362-36.12952 57.86084-36.12952 58.80705-35.1833 58.80705-34.01608ZM56.69362-34.01608"/>
<text fill="#0072bc" xml:space="preserve" transform="matrix(1 0 -0 1 0 186.063)" font-size="9.9626" font-family="CMMI10" font-style="italic"><tspan y="-14.746" x="60.013">&#x03c0;</tspan></text>
<text fill="#0072bc" xml:space="preserve" transform="matrix(1 0 -0 1 0 186.063)" font-size="6.9738" font-family="CMMI7" font-style="italic"><tspan y="-13.252001" x="65.692">&#x03b8;</tspan></text>
<path transform="matrix(1,0,0,-1,15.5,135.903)" stroke-width=".99628" stroke-linecap="butt" stroke-miterlimit="10" stroke-linejoin="miter" fill="none" stroke="#0072bc" d="M113.38724-10.24837V-34.01608C113.38724-36.49722 113.74095-39.68535 116.22209-39.68535H126.05864"/>
<path transform="matrix(1,0,0,-1,141.55864,175.58835)" d="M5.20058 0C3.65962 .28891 1.15567 1.15567-.57784 2.1669V-2.1669C1.15567-1.15567 3.65962-.28891 5.20058 0" fill="#0072bc"/>
<path transform="matrix(1,0,0,-1,15.5,135.903)" d="M115.50067-34.01608C115.50067-32.84885 114.55446-31.90263 113.38724-31.90263 112.22-31.90263 111.27379-32.84885 111.27379-34.01608 111.27379-35.1833 112.22-36.12952 113.38724-36.12952 114.55446-36.12952 115.50067-35.1833 115.50067-34.01608ZM113.38724-34.01608" fill="#0072bc"/>
<path transform="matrix(1,0,0,-1,15.5,135.903)" stroke-width=".3985" stroke-linecap="butt" stroke-miterlimit="10" stroke-linejoin="miter" fill="none" stroke="#ffffff" d="M115.50067-34.01608C115.50067-32.84885 114.55446-31.90263 113.38724-31.90263 112.22-31.90263 111.27379-32.84885 111.27379-34.01608 111.27379-35.1833 112.22-36.12952 113.38724-36.12952 114.55446-36.12952 115.50067-35.1833 115.50067-34.01608ZM113.38724-34.01608"/>
<text fill="#0072bc" xml:space="preserve" transform="matrix(1 0 -0 1 0 186.063)" font-size="9.9626" font-family="CMMI10" font-style="italic"><tspan y="-14.746" x="116.706">&#x03c0;</tspan></text>
<text fill="#0072bc" xml:space="preserve" transform="matrix(1 0 -0 1 0 186.063)" font-size="6.9738" font-family="CMMI7" font-style="italic"><tspan y="-13.252001" x="122.385">&#x03b8;</tspan></text>
<path transform="matrix(1,0,0,-1,15.5,135.903)" stroke-width=".99628" stroke-linecap="butt" stroke-miterlimit="10" stroke-linejoin="miter" fill="none" stroke="#0072bc" d="M170.08086-10.24837V-34.01608C170.08086-36.49722 170.43457-39.68535 172.91571-39.68535H182.75226"/>
<path transform="matrix(1,0,0,-1,198.25226,175.58835)" d="M5.20058 0C3.65962 .28891 1.15567 1.15567-.57784 2.1669V-2.1669C1.15567-1.15567 3.65962-.28891 5.20058 0" fill="#0072bc"/>
<path transform="matrix(1,0,0,-1,15.5,135.903)" d="M172.19429-34.01608C172.19429-32.84885 171.24808-31.90263 170.08086-31.90263 168.91364-31.90263 167.9674-32.84885 167.9674-34.01608 167.9674-35.1833 168.91364-36.12952 170.08086-36.12952 171.24808-36.12952 172.19429-35.1833 172.19429-34.01608ZM170.08086-34.01608" fill="#0072bc"/>
<path transform="matrix(1,0,0,-1,15.5,135.903)" stroke-width=".3985" stroke-linecap="butt" stroke-miterlimit="10" stroke-linejoin="miter" fill="none" stroke="#ffffff" d="M172.19429-34.01608C172.19429-32.84885 171.24808-31.90263 170.08086-31.90263 168.91364-31.90263 167.9674-32.84885 167.9674-34.01608 167.9674-35.1833 168.91364-36.12952 170.08086-36.12952 171.24808-36.12952 172.19429-35.1833 172.19429-34.01608ZM170.08086-34.01608"/>
<text fill="#0072bc" xml:space="preserve" transform="matrix(1 0 -0 1 0 186.063)" font-size="9.9626" font-family="CMMI10" font-style="italic"><tspan y="-14.746" x="173.399">&#x03c0;</tspan></text>
<text fill="#0072bc" xml:space="preserve" transform="matrix(1 0 -0 1 0 186.063)" font-size="6.9738" font-family="CMMI7" font-style="italic"><tspan y="-13.252001" x="179.078">&#x03b8;</tspan></text>
<path transform="matrix(1,0,0,-1,15.5,135.903)" d="M66.79381 96.37897C66.79381 101.95721 62.27185 106.47916 56.69362 106.47916 51.11537 106.47916 46.59341 101.95721 46.59341 96.37897 46.59341 90.80072 51.11537 86.27878 56.69362 86.27878 62.27185 86.27878 66.79381 90.80072 66.79381 96.37897ZM56.69362 96.37897" fill="#00b3b8"/>
<path transform="matrix(1,0,0,-1,15.5,135.903)" stroke-width=".3985" stroke-linecap="butt" stroke-miterlimit="10" stroke-linejoin="miter" fill="none" stroke="#00b3b8" d="M66.79381 96.37897C66.79381 101.95721 62.27185 106.47916 56.69362 106.47916 51.11537 106.47916 46.59341 101.95721 46.59341 96.37897 46.59341 90.80072 51.11537 86.27878 56.69362 86.27878 62.27185 86.27878 66.79381 90.80072 66.79381 96.37897ZM56.69362 96.37897"/>
<text fill="#ffffff" xml:space="preserve" transform="matrix(1 0 -0 1 0 186.06299)" font-size="9.9626" font-family="CMMI10" font-style="italic"><tspan y="-145.14" x="67.544">v</tspan></text>
<text fill="#ffffff" xml:space="preserve" transform="matrix(1 0 -0 1 0 186.06299)" font-size="6.9738" font-family="CMR7"><tspan y="-143.645" x="72.373">1</tspan></text>
<path transform="matrix(1,0,0,-1,15.5,135.903)" stroke-width=".99628" stroke-linecap="butt" stroke-miterlimit="10" stroke-linejoin="miter" fill="none" stroke="#00b3b8" d="M56.69362 10.24837V80.87894"/>
<path transform="matrix(0,-1,-1,-0,72.19362,55.024065)" d="M5.20058 0C3.65962 .28891 1.15567 1.15567-.57784 2.1669V-2.1669C1.15567-1.15567 3.65962-.28891 5.20058 0" fill="#00b3b8"/>
<path transform="matrix(1,0,0,-1,15.5,135.903)" d="M58.80705 73.70145C58.80705 74.86867 57.86084 75.8149 56.69362 75.8149 55.52638 75.8149 54.58017 74.86867 54.58017 73.70145 54.58017 72.53423 55.52638 71.58801 56.69362 71.58801 57.86084 71.58801 58.80705 72.53423 58.80705 73.70145ZM56.69362 73.70145" fill="#00b3b8"/>
<path transform="matrix(1,0,0,-1,15.5,135.903)" stroke-width=".3985" stroke-linecap="butt" stroke-miterlimit="10" stroke-linejoin="miter" fill="none" stroke="#ffffff" d="M58.80705 73.70145C58.80705 74.86867 57.86084 75.8149 56.69362 75.8149 55.52638 75.8149 54.58017 74.86867 54.58017 73.70145 54.58017 72.53423 55.52638 71.58801 56.69362 71.58801 57.86084 71.58801 58.80705 72.53423 58.80705 73.70145ZM56.69362 73.70145"/>
<text fill="#00b3b8" xml:space="preserve" transform="matrix(1 0 -0 1 0 186.063)" font-size="9.9626" font-family="CMMI10" font-style="italic"><tspan y="-121.203" x="59.947">V</tspan></text>
<text fill="#00b3b8" xml:space="preserve" transform="matrix(1 0 -0 1 0 186.063)" font-size="6.9738" font-family="CMMI7" font-style="italic"><tspan y="-119.709" x="65.758998">&#x03b8;</tspan></text>
<path transform="matrix(1,0,0,-1,15.5,135.903)" d="M123.48743 96.37897C123.48743 101.95721 118.96547 106.47916 113.38724 106.47916 107.80899 106.47916 103.28703 101.95721 103.28703 96.37897 103.28703 90.80072 107.80899 86.27878 113.38724 86.27878 118.96547 86.27878 123.48743 90.80072 123.48743 96.37897ZM113.38724 96.37897" fill="#00b3b8"/>
<path transform="matrix(1,0,0,-1,15.5,135.903)" stroke-width=".3985" stroke-linecap="butt" stroke-miterlimit="10" stroke-linejoin="miter" fill="none" stroke="#00b3b8" d="M123.48743 96.37897C123.48743 101.95721 118.96547 106.47916 113.38724 106.47916 107.80899 106.47916 103.28703 101.95721 103.28703 96.37897 103.28703 90.80072 107.80899 86.27878 113.38724 86.27878 118.96547 86.27878 123.48743 90.80072 123.48743 96.37897ZM113.38724 96.37897"/>
<text fill="#ffffff" xml:space="preserve" transform="matrix(1 0 -0 1 0 186.06299)" font-size="9.9626" font-family="CMMI10" font-style="italic"><tspan y="-145.14" x="124.237">v</tspan></text>
<text fill="#ffffff" xml:space="preserve" transform="matrix(1 0 -0 1 0 186.06299)" font-size="6.9738" font-family="CMR7"><tspan y="-143.645" x="129.066">2</tspan></text>
<path transform="matrix(1,0,0,-1,15.5,135.903)" stroke-width=".99628" stroke-linecap="butt" stroke-miterlimit="10" stroke-linejoin="miter" fill="none" stroke="#00b3b8" d="M113.38724 10.24837V80.87894"/>
<path transform="matrix(0,-1,-1,-0,128.88724,55.024065)" d="M5.20058 0C3.65962 .28891 1.15567 1.15567-.57784 2.1669V-2.1669C1.15567-1.15567 3.65962-.28891 5.20058 0" fill="#00b3b8"/>
<path transform="matrix(1,0,0,-1,15.5,135.903)" d="M115.50067 73.70145C115.50067 74.86867 114.55446 75.8149 113.38724 75.8149 112.22 75.8149 111.27379 74.86867 111.27379 73.70145 111.27379 72.53423 112.22 71.58801 113.38724 71.58801 114.55446 71.58801 115.50067 72.53423 115.50067 73.70145ZM113.38724 73.70145" fill="#00b3b8"/>
<path transform="matrix(1,0,0,-1,15.5,135.903)" stroke-width=".3985" stroke-linecap="butt" stroke-miterlimit="10" stroke-linejoin="miter" fill="none" stroke="#ffffff" d="M115.50067 73.70145C115.50067 74.86867 114.55446 75.8149 113.38724 75.8149 112.22 75.8149 111.27379 74.86867 111.27379 73.70145 111.27379 72.53423 112.22 71.58801 113.38724 71.58801 114.55446 71.58801 115.50067 72.53423 115.50067 73.70145ZM113.38724 73.70145"/>
<text fill="#00b3b8" xml:space="preserve" transform="matrix(1 0 -0 1 0 186.063)" font-size="9.9626" font-family="CMMI10" font-style="italic"><tspan y="-121.203" x="116.64">V</tspan></text>
<text fill="#00b3b8" xml:space="preserve" transform="matrix(1 0 -0 1 0 186.063)" font-size="6.9738" font-family="CMMI7" font-style="italic"><tspan y="-119.709" x="122.451">&#x03b8;</tspan></text>
<path transform="matrix(1,0,0,-1,15.5,135.903)" d="M180.18105 96.37897C180.18105 101.95721 175.6591 106.47916 170.08086 106.47916 164.50261 106.47916 159.98065 101.95721 159.98065 96.37897 159.98065 90.80072 164.50261 86.27878 170.08086 86.27878 175.6591 86.27878 180.18105 90.80072 180.18105 96.37897ZM170.08086 96.37897" fill="#00b3b8"/>
<path transform="matrix(1,0,0,-1,15.5,135.903)" stroke-width=".3985" stroke-linecap="butt" stroke-miterlimit="10" stroke-linejoin="miter" fill="none" stroke="#00b3b8" d="M180.18105 96.37897C180.18105 101.95721 175.6591 106.47916 170.08086 106.47916 164.50261 106.47916 159.98065 101.95721 159.98065 96.37897 159.98065 90.80072 164.50261 86.27878 170.08086 86.27878 175.6591 86.27878 180.18105 90.80072 180.18105 96.37897ZM170.08086 96.37897"/>
<text fill="#ffffff" xml:space="preserve" transform="matrix(1 0 -0 1 0 186.06299)" font-size="9.9626" font-family="CMMI10" font-style="italic"><tspan y="-145.14" x="180.93">v</tspan></text>
<text fill="#ffffff" xml:space="preserve" transform="matrix(1 0 -0 1 0 186.06299)" font-size="6.9738" font-family="CMR7"><tspan y="-143.645" x="185.75899">3</tspan></text>
<path transform="matrix(1,0,0,-1,15.5,135.903)" stroke-width=".99628" stroke-linecap="butt" stroke-miterlimit="10" stroke-linejoin="miter" fill="none" stroke="#00b3b8" d="M170.08086 10.24837V80.87894"/>
<path transform="matrix(0,-1,-1,-0,185.58086,55.024065)" d="M5.20058 0C3.65962 .28891 1.15567 1.15567-.57784 2.1669V-2.1669C1.15567-1.15567 3.65962-.28891 5.20058 0" fill="#00b3b8"/>
<path transform="matrix(1,0,0,-1,15.5,135.903)" d="M172.19429 73.70145C172.19429 74.86867 171.24808 75.8149 170.08086 75.8149 168.91364 75.8149 167.9674 74.86867 167.9674 73.70145 167.9674 72.53423 168.91364 71.58801 170.08086 71.58801 171.24808 71.58801 172.19429 72.53423 172.19429 73.70145ZM170.08086 73.70145" fill="#00b3b8"/>
<path transform="matrix(1,0,0,-1,15.5,135.903)" stroke-width=".3985" stroke-linecap="butt" stroke-miterlimit="10" stroke-linejoin="miter" fill="none" stroke="#ffffff" d="M172.19429 73.70145C172.19429 74.86867 171.24808 75.8149 170.08086 75.8149 168.91364 75.8149 167.9674 74.86867 167.9674 73.70145 167.9674 72.53423 168.91364 71.58801 170.08086 71.58801 171.24808 71.58801 172.19429 72.53423 172.19429 73.70145ZM170.08086 73.70145"/>
<text fill="#00b3b8" xml:space="preserve" transform="matrix(1 0 -0 1 0 186.063)" font-size="9.9626" font-family="CMMI10" font-style="italic"><tspan y="-121.203" x="173.333">V</tspan></text>
<text fill="#00b3b8" xml:space="preserve" transform="matrix(1 0 -0 1 0 186.063)" font-size="6.9738" font-family="CMMI7" font-style="italic"><tspan y="-119.709" x="179.144">&#x03b8;</tspan></text>
<path transform="matrix(1,0,0,-1,15.5,135.903)" d="M236.87467 96.37897C236.87467 101.95721 232.35272 106.47916 226.77448 106.47916 221.19623 106.47916 216.67427 101.95721 216.67427 96.37897 216.67427 90.80072 221.19623 86.27878 226.77448 86.27878 232.35272 86.27878 236.87467 90.80072 236.87467 96.37897ZM226.77448 96.37897" fill="#00b3b8"/>
<path transform="matrix(1,0,0,-1,15.5,135.903)" stroke-width=".3985" stroke-linecap="butt" stroke-miterlimit="10" stroke-linejoin="miter" fill="none" stroke="#00b3b8" d="M236.87467 96.37897C236.87467 101.95721 232.35272 106.47916 226.77448 106.47916 221.19623 106.47916 216.67427 101.95721 216.67427 96.37897 216.67427 90.80072 221.19623 86.27878 226.77448 86.27878 232.35272 86.27878 236.87467 90.80072 236.87467 96.37897ZM226.77448 96.37897"/>
<text fill="#ffffff" xml:space="preserve" transform="matrix(1 0 -0 1 0 186.06299)" font-size="9.9626" font-family="CMMI10" font-style="italic"><tspan y="-145.14" x="237.623">v</tspan></text>
<text fill="#ffffff" xml:space="preserve" transform="matrix(1 0 -0 1 0 186.06299)" font-size="6.9738" font-family="CMR7"><tspan y="-143.645" x="242.452">4</tspan></text>
<path transform="matrix(1,0,0,-1,15.5,135.903)" stroke-width=".99628" stroke-linecap="butt" stroke-miterlimit="10" stroke-linejoin="miter" fill="none" stroke="#00b3b8" d="M226.77448 10.24837V80.87894"/>
<path transform="matrix(0,-1,-1,-0,242.27448,55.024065)" d="M5.20058 0C3.65962 .28891 1.15567 1.15567-.57784 2.1669V-2.1669C1.15567-1.15567 3.65962-.28891 5.20058 0" fill="#00b3b8"/>
<path transform="matrix(1,0,0,-1,15.5,135.903)" d="M228.88791 73.70145C228.88791 74.86867 227.9417 75.8149 226.77448 75.8149 225.60726 75.8149 224.66103 74.86867 224.66103 73.70145 224.66103 72.53423 225.60726 71.58801 226.77448 71.58801 227.9417 71.58801 228.88791 72.53423 228.88791 73.70145ZM226.77448 73.70145" fill="#00b3b8"/>
<path transform="matrix(1,0,0,-1,15.5,135.903)" stroke-width=".3985" stroke-linecap="butt" stroke-miterlimit="10" stroke-linejoin="miter" fill="none" stroke="#ffffff" d="M228.88791 73.70145C228.88791 74.86867 227.9417 75.8149 226.77448 75.8149 225.60726 75.8149 224.66103 74.86867 224.66103 73.70145 224.66103 72.53423 225.60726 71.58801 226.77448 71.58801 227.9417 71.58801 228.88791 72.53423 228.88791 73.70145ZM226.77448 73.70145"/>
<text fill="#00b3b8" xml:space="preserve" transform="matrix(1 0 -0 1 0 186.063)" font-size="9.9626" font-family="CMMI10" font-style="italic"><tspan y="-121.203" x="230.026">V</tspan></text>
<text fill="#00b3b8" xml:space="preserve" transform="matrix(1 0 -0 1 0 186.063)" font-size="6.9738" font-family="CMMI7" font-style="italic"><tspan y="-119.709" x="235.837">&#x03b8;</tspan></text>
<path transform="matrix(1,0,0,-1,15.5,135.903)" stroke-width=".99628" stroke-linecap="butt" stroke-miterlimit="10" stroke-linejoin="miter" fill="none" stroke="#ff8000" d="M10.24837 0H41.24466"/>
<path transform="matrix(1,0,0,-1,56.74466,135.903)" d="M5.20058 0C3.65962 .28891 1.15567 1.15567-.57784 2.1669V-2.1669C1.15567-1.15567 3.65962-.28891 5.20058 0" fill="#ff8000"/>
<path transform="matrix(1,0,0,-1,15.5,135.903)" stroke-width=".99628" stroke-linecap="butt" stroke-miterlimit="10" stroke-linejoin="miter" fill="none" stroke="#ff8000" d="M32.2368-29.96016 32.4231-29.49449C33.30287-27.29498 34.01608-23.5915 34.01608-21.22244L34.0161 0"/>
<path transform="matrix(1,0,0,-1,15.5,135.903)" d="M36.12953 0C36.12953 1.16722 35.18332 2.11343 34.0161 2.11343 32.84886 2.11343 31.90265 1.16722 31.90265 0 31.90265-1.16722 32.84886-2.11343 34.0161-2.11343 35.18332-2.11343 36.12953-1.16722 36.12953 0ZM34.0161 0" fill="#ff8000"/>
<path transform="matrix(1,0,0,-1,15.5,135.903)" stroke-width=".3985" stroke-linecap="butt" stroke-miterlimit="10" stroke-linejoin="miter" fill="none" stroke="#ffffff" d="M36.12953 0C36.12953 1.16722 35.18332 2.11343 34.0161 2.11343 32.84886 2.11343 31.90265 1.16722 31.90265 0 31.90265-1.16722 32.84886-2.11343 34.0161-2.11343 35.18332-2.11343 36.12953-1.16722 36.12953 0ZM34.0161 0"/>
<text fill="#ff8000" xml:space="preserve" transform="matrix(1 0 -0 1 0 186.06299)" font-size="9.9626" font-family="CMMI10" font-style="italic"><tspan y="-55.26" x="48.456">F</tspan></text>
<path transform="matrix(1,0,0,-1,15.5,135.903)" stroke-width=".99628" stroke-linecap="butt" stroke-miterlimit="10" stroke-linejoin="miter" fill="none" stroke="#ff8000" d="M66.94199 0H97.93828"/>
<path transform="matrix(1,0,0,-1,113.43828,135.903)" d="M5.20058 0C3.65962 .28891 1.15567 1.15567-.57784 2.1669V-2.1669C1.15567-1.15567 3.65962-.28891 5.20058 0" fill="#ff8000"/>
<path transform="matrix(1,0,0,-1,15.5,135.903)" stroke-width=".99628" stroke-linecap="butt" stroke-miterlimit="10" stroke-linejoin="miter" fill="none" stroke="#ff8000" d="M88.93042-29.96016 89.11671-29.49449C89.99649-27.29498 90.7097-23.5915 90.7097-21.22244L90.70972 0"/>
<path transform="matrix(1,0,0,-1,15.5,135.903)" d="M92.82315 0C92.82315 1.16722 91.87694 2.11343 90.70972 2.11343 89.54248 2.11343 88.59627 1.16722 88.59627 0 88.59627-1.16722 89.54248-2.11343 90.70972-2.11343 91.87694-2.11343 92.82315-1.16722 92.82315 0ZM90.70972 0" fill="#ff8000"/>
<path transform="matrix(1,0,0,-1,15.5,135.903)" stroke-width=".3985" stroke-linecap="butt" stroke-miterlimit="10" stroke-linejoin="miter" fill="none" stroke="#ffffff" d="M92.82315 0C92.82315 1.16722 91.87694 2.11343 90.70972 2.11343 89.54248 2.11343 88.59627 1.16722 88.59627 0 88.59627-1.16722 89.54248-2.11343 90.70972-2.11343 91.87694-2.11343 92.82315-1.16722 92.82315 0ZM90.70972 0"/>
<text fill="#ff8000" xml:space="preserve" transform="matrix(1 0 -0 1 0 186.06299)" font-size="9.9626" font-family="CMMI10" font-style="italic"><tspan y="-55.26" x="105.148">F</tspan></text>
<path transform="matrix(1,0,0,-1,15.5,135.903)" stroke-width=".99628" stroke-linecap="butt" stroke-miterlimit="10" stroke-linejoin="miter" fill="none" stroke="#ff8000" d="M123.6356 0H154.6319"/>
<path transform="matrix(1,0,0,-1,170.1319,135.903)" d="M5.20058 0C3.65962 .28891 1.15567 1.15567-.57784 2.1669V-2.1669C1.15567-1.15567 3.65962-.28891 5.20058 0" fill="#ff8000"/>
<path transform="matrix(1,0,0,-1,15.5,135.903)" stroke-width=".99628" stroke-linecap="butt" stroke-miterlimit="10" stroke-linejoin="miter" fill="none" stroke="#ff8000" d="M145.62404-29.96016 145.81034-29.49449C146.69011-27.29498 147.40332-23.5915 147.40332-21.22244L147.40334 0"/>
<path transform="matrix(1,0,0,-1,15.5,135.903)" d="M149.51677 0C149.51677 1.16722 148.57056 2.11343 147.40334 2.11343 146.23612 2.11343 145.28989 1.16722 145.28989 0 145.28989-1.16722 146.23612-2.11343 147.40334-2.11343 148.57056-2.11343 149.51677-1.16722 149.51677 0ZM147.40334 0" fill="#ff8000"/>
<path transform="matrix(1,0,0,-1,15.5,135.903)" stroke-width=".3985" stroke-linecap="butt" stroke-miterlimit="10" stroke-linejoin="miter" fill="none" stroke="#ffffff" d="M149.51677 0C149.51677 1.16722 148.57056 2.11343 147.40334 2.11343 146.23612 2.11343 145.28989 1.16722 145.28989 0 145.28989-1.16722 146.23612-2.11343 147.40334-2.11343 148.57056-2.11343 149.51677-1.16722 149.51677 0ZM147.40334 0"/>
<text fill="#ff8000" xml:space="preserve" transform="matrix(1 0 -0 1 0 186.06299)" font-size="9.9626" font-family="CMMI10" font-style="italic"><tspan y="-55.26" x="161.841">F</tspan></text>
<path transform="matrix(1,0,0,-1,15.5,135.903)" stroke-width=".99628" stroke-linecap="butt" stroke-miterlimit="10" stroke-linejoin="miter" fill="none" stroke="#ff8000" d="M180.32923 0H211.32552"/>
<path transform="matrix(1,0,0,-1,226.82552,135.903)" d="M5.20058 0C3.65962 .28891 1.15567 1.15567-.57784 2.1669V-2.1669C1.15567-1.15567 3.65962-.28891 5.20058 0" fill="#ff8000"/>
<path transform="matrix(1,0,0,-1,15.5,135.903)" stroke-width=".99628" stroke-linecap="butt" stroke-miterlimit="10" stroke-linejoin="miter" fill="none" stroke="#ff8000" d="M202.31768-29.96016 202.50395-29.49449C203.38373-27.29498 204.09694-23.5915 204.09694-21.22244L204.09696 0"/>
<path transform="matrix(1,0,0,-1,15.5,135.903)" d="M206.21039 0C206.21039 1.16722 205.26418 2.11343 204.09696 2.11343 202.92974 2.11343 201.9835 1.16722 201.9835 0 201.9835-1.16722 202.92974-2.11343 204.09696-2.11343 205.26418-2.11343 206.21039-1.16722 206.21039 0ZM204.09696 0" fill="#ff8000"/>
<path transform="matrix(1,0,0,-1,15.5,135.903)" stroke-width=".3985" stroke-linecap="butt" stroke-miterlimit="10" stroke-linejoin="miter" fill="none" stroke="#ffffff" d="M206.21039 0C206.21039 1.16722 205.26418 2.11343 204.09696 2.11343 202.92974 2.11343 201.9835 1.16722 201.9835 0 201.9835-1.16722 202.92974-2.11343 204.09696-2.11343 205.26418-2.11343 206.21039-1.16722 206.21039 0ZM204.09696 0"/>
<text fill="#ff8000" xml:space="preserve" transform="matrix(1 0 -0 1 0 186.06299)" font-size="9.9626" font-family="CMMI10" font-style="italic"><tspan y="-55.26" x="218.534">F</tspan></text>
<path transform="matrix(1,0,0,-1,15.5,135.903)" d="M14.1734 126.87053V128.25029C14.1734 129.43482 15.13364 130.39505 16.31816 130.39505H238.80312C239.98764 130.39505 240.94788 129.43482 240.94788 128.25029V126.87053C240.94788 125.68602 239.98764 124.72578 238.80312 124.72578H16.31816C15.13364 124.72578 14.1734 125.68602 14.1734 126.87053ZM240.94788 130.39505" fill="#8dc63f"/>
<path transform="matrix(1,0,0,-1,15.5,135.903)" stroke-width=".3985" stroke-linecap="butt" stroke-miterlimit="10" stroke-linejoin="miter" fill="none" stroke="#ffffff" d="M14.1734 126.87053V128.25029C14.1734 129.43482 15.13364 130.39505 16.31816 130.39505H238.80312C239.98764 130.39505 240.94788 129.43482 240.94788 128.25029V126.87053C240.94788 125.68602 239.98764 124.72578 238.80312 124.72578H16.31816C15.13364 124.72578 14.1734 125.68602 14.1734 126.87053ZM240.94788 130.39505"/>
<text fill="#8dc63f" xml:space="preserve" transform="matrix(1 0 -0 1 0 186.06299)" font-size="9.9626" font-family="CMSY10" font-style="italic"><tspan y="-174.308" x="16.447">L</tspan></text>
<text fill="#8dc63f" xml:space="preserve" transform="matrix(1 0 -0 1 0 186.06299)" font-size="6.9738" font-family="CMMI7" font-style="italic"><tspan y="-177.923" x="23.319">&#x03c0;</tspan><tspan y="-171.487" x="23.319">&#x03b8;</tspan></text>
<path transform="matrix(1,0,0,-1,15.5,135.903)" stroke-width=".99628" stroke-linecap="butt" stroke-miterlimit="10" stroke-linejoin="miter" fill="none" stroke="#8dc63f" d="M28.3468 106.51593V119.52519"/>
<path transform="matrix(0,-1,-1,-0,43.8468,16.377808)" d="M5.20058 0C3.65962 .28891 1.15567 1.15567-.57784 2.1669V-2.1669C1.15567-1.15567 3.65962-.28891 5.20058 0" fill="#8dc63f"/>
<path transform="matrix(1,0,0,-1,15.5,135.903)" stroke-width=".99628" stroke-linecap="butt" stroke-miterlimit="10" stroke-linejoin="miter" fill="none" stroke="#8dc63f" d="M56.69362 106.67842V119.52519"/>
<path transform="matrix(0,-1,-1,-0,72.19362,16.377808)" d="M5.20058 0C3.65962 .28891 1.15567 1.15567-.57784 2.1669V-2.1669C1.15567-1.15567 3.65962-.28891 5.20058 0" fill="#8dc63f"/>
<path transform="matrix(1,0,0,-1,15.5,135.903)" stroke-width=".99628" stroke-linecap="butt" stroke-miterlimit="10" stroke-linejoin="miter" fill="none" stroke="#8dc63f" d="M85.04042 106.51593V119.52519"/>
<path transform="matrix(0,-1,-1,-0,100.54042,16.377808)" d="M5.20058 0C3.65962 .28891 1.15567 1.15567-.57784 2.1669V-2.1669C1.15567-1.15567 3.65962-.28891 5.20058 0" fill="#8dc63f"/>
<path transform="matrix(1,0,0,-1,15.5,135.903)" stroke-width=".99628" stroke-linecap="butt" stroke-miterlimit="10" stroke-linejoin="miter" fill="none" stroke="#8dc63f" d="M113.38724 106.67842V119.52519"/>
<path transform="matrix(0,-1,-1,-0,128.88724,16.377808)" d="M5.20058 0C3.65962 .28891 1.15567 1.15567-.57784 2.1669V-2.1669C1.15567-1.15567 3.65962-.28891 5.20058 0" fill="#8dc63f"/>
<path transform="matrix(1,0,0,-1,15.5,135.903)" stroke-width=".99628" stroke-linecap="butt" stroke-miterlimit="10" stroke-linejoin="miter" fill="none" stroke="#8dc63f" d="M141.73404 106.51593V119.52519"/>
<path transform="matrix(0,-1,-1,-0,157.23404,16.377808)" d="M5.20058 0C3.65962 .28891 1.15567 1.15567-.57784 2.1669V-2.1669C1.15567-1.15567 3.65962-.28891 5.20058 0" fill="#8dc63f"/>
<path transform="matrix(1,0,0,-1,15.5,135.903)" stroke-width=".99628" stroke-linecap="butt" stroke-miterlimit="10" stroke-linejoin="miter" fill="none" stroke="#8dc63f" d="M170.08086 106.67842V119.52519"/>
<path transform="matrix(0,-1,-1,-0,185.58086,16.377808)" d="M5.20058 0C3.65962 .28891 1.15567 1.15567-.57784 2.1669V-2.1669C1.15567-1.15567 3.65962-.28891 5.20058 0" fill="#8dc63f"/>
<path transform="matrix(1,0,0,-1,15.5,135.903)" stroke-width=".99628" stroke-linecap="butt" stroke-miterlimit="10" stroke-linejoin="miter" fill="none" stroke="#8dc63f" d="M198.42766 106.51593V119.52519"/>
<path transform="matrix(0,-1,-1,-0,213.92766,16.377808)" d="M5.20058 0C3.65962 .28891 1.15567 1.15567-.57784 2.1669V-2.1669C1.15567-1.15567 3.65962-.28891 5.20058 0" fill="#8dc63f"/>
<path transform="matrix(1,0,0,-1,15.5,135.903)" stroke-width=".99628" stroke-linecap="butt" stroke-miterlimit="10" stroke-linejoin="miter" fill="none" stroke="#8dc63f" d="M226.77448 106.67842V119.52519"/>
<path transform="matrix(0,-1,-1,-0,242.27448,16.377808)" d="M5.20058 0C3.65962 .28891 1.15567 1.15567-.57784 2.1669V-2.1669C1.15567-1.15567 3.65962-.28891 5.20058 0" fill="#8dc63f"/>
<path transform="matrix(1,0,0,-1,15.5,135.903)" d="M277.63899 127.56062C277.63899 132.16912 273.90315 135.90494 269.29469 135.90494 264.6862 135.90494 260.95039 132.16912 260.95039 127.56062 260.95039 122.95215 264.6862 119.21632 269.29469 119.21632 273.90315 119.21632 277.63899 122.95215 277.63899 127.56062ZM269.29469 127.56062" fill="#7f807f"/>
<text fill="#ffffff" xml:space="preserve" transform="matrix(1 0 -0 1 0 186.063)" font-size="9.9626" font-family="CMMI10" font-style="italic"><tspan y="-174.259" x="283.207">l</tspan></text>
<path transform="matrix(1,0,0,-1,15.5,135.903)" stroke-width=".99628" stroke-linecap="butt" stroke-miterlimit="10" stroke-linejoin="miter" fill="none" stroke="#7f807f" d="M240.94788 127.56062H255.55054"/>
<path transform="matrix(1,0,0,-1,271.05055,8.342377)" d="M5.20058 0C3.65962 .28891 1.15567 1.15567-.57784 2.1669V-2.1669C1.15567-1.15567 3.65962-.28891 5.20058 0" fill="#7f807f"/>
</svg>
