<?xml version="1.0" encoding="utf-8" standalone="no"?>
<!DOCTYPE svg PUBLIC "-//W3C//DTD SVG 1.1//EN"
  "http://www.w3.org/Graphics/SVG/1.1/DTD/svg11.dtd">
<svg xmlns:xlink="http://www.w3.org/1999/xlink" width="460.8pt" height="345.6pt" viewBox="0 0 460.8 345.6" xmlns="http://www.w3.org/2000/svg" version="1.1">
 <metadata>
  <rdf:RDF xmlns:dc="http://purl.org/dc/elements/1.1/" xmlns:cc="http://creativecommons.org/ns#" xmlns:rdf="http://www.w3.org/1999/02/22-rdf-syntax-ns#">
   <cc:Work>
    <dc:type rdf:resource="http://purl.org/dc/dcmitype/StillImage"/>
    <dc:date>2025-03-06T14:54:49.222207</dc:date>
    <dc:format>image/svg+xml</dc:format>
    <dc:creator>
     <cc:Agent>
      <dc:title>Matplotlib v3.10.0, https://matplotlib.org/</dc:title>
     </cc:Agent>
    </dc:creator>
   </cc:Work>
  </rdf:RDF>
 </metadata>
 <defs>
  <style type="text/css">*{stroke-linejoin: round; stroke-linecap: butt}</style>
 </defs>
 <g id="figure_1">
  <g id="patch_1">
   <path d="M 0 345.6 
L 460.8 345.6 
L 460.8 0 
L 0 0 
L 0 345.6 
z
" style="fill: none"/>
  </g>
  <g id="axes_1">
   <g id="patch_2">
    <path d="M 57.6 307.584 
L 414.72 307.584 
L 414.72 41.472 
L 57.6 41.472 
L 57.6 307.584 
z
" style="fill: none"/>
   </g>
   <g id="FillBetweenPolyCollection_1">
    <defs>
     <path id="m05a8ae9541" d="M 73.832727 2358.10075 
L 73.832727 2358.10075 
L 73.832727 2358.10075 
L 73.832727 2358.10075 
z
" style="stroke: #1f77b4; stroke-opacity: 0.2"/>
    </defs>
    <g clip-path="url(#p1c204807fd)">
     <use xlink:href="#m05a8ae9541" x="0" y="345.6" style="fill: #1f77b4; fill-opacity: 0.2; stroke: #1f77b4; stroke-opacity: 0.2"/>
    </g>
   </g>
   <g id="FillBetweenPolyCollection_2">
    <defs>
     <path id="mc3d2d4c9ce" d="M 171.229091 -178.374496 
L 171.229091 -157.843228 
L 171.229091 -178.374496 
L 171.229091 -178.374496 
z
" style="stroke: #ff7f0e; stroke-opacity: 0.2"/>
    </defs>
    <g clip-path="url(#p1c204807fd)">
     <use xlink:href="#mc3d2d4c9ce" x="0" y="345.6" style="fill: #ff7f0e; fill-opacity: 0.2; stroke: #ff7f0e; stroke-opacity: 0.2"/>
    </g>
   </g>
   <g id="matplotlib.axis_1">
    <g id="xtick_1">
     <g id="line2d_1">
      <defs>
       <path id="mbab88e382e" d="M 0 0 
L 0 3.5 
" style="stroke: #808080; stroke-width: 0.8"/>
      </defs>
      <g>
       <use xlink:href="#mbab88e382e" x="73.832727" y="307.584" style="fill: #808080; stroke: #808080; stroke-width: 0.8"/>
      </g>
     </g>
     <g id="text_1">
      <!-- 0 -->
      <g style="fill: #808080" transform="translate(70.015227 323.702125) scale(0.12 -0.12)">
       <defs>
        <path id="DejaVuSerif-30" d="M 2034 219 
Q 2513 219 2750 744 
Q 2988 1269 2988 2328 
Q 2988 3391 2750 3916 
Q 2513 4441 2034 4441 
Q 1556 4441 1318 3916 
Q 1081 3391 1081 2328 
Q 1081 1269 1318 744 
Q 1556 219 2034 219 
z
M 2034 -91 
Q 1275 -91 848 546 
Q 422 1184 422 2328 
Q 422 3475 848 4112 
Q 1275 4750 2034 4750 
Q 2797 4750 3222 4112 
Q 3647 3475 3647 2328 
Q 3647 1184 3222 546 
Q 2797 -91 2034 -91 
z
" transform="scale(0.015625)"/>
       </defs>
       <use xlink:href="#DejaVuSerif-30"/>
      </g>
     </g>
    </g>
    <g id="xtick_2">
     <g id="line2d_2">
      <g>
       <use xlink:href="#mbab88e382e" x="145.177535" y="307.584" style="fill: #808080; stroke: #808080; stroke-width: 0.8"/>
      </g>
     </g>
     <g id="text_2">
      <!-- 200000 -->
      <g style="fill: #808080" transform="translate(122.272535 323.702125) scale(0.12 -0.12)">
       <defs>
        <path id="DejaVuSerif-32" d="M 819 3553 
L 469 3553 
L 469 4384 
Q 803 4563 1142 4656 
Q 1481 4750 1806 4750 
Q 2534 4750 2956 4397 
Q 3378 4044 3378 3438 
Q 3378 2753 2422 1800 
Q 2347 1728 2309 1691 
L 1131 513 
L 3078 513 
L 3078 1088 
L 3444 1088 
L 3444 0 
L 434 0 
L 434 341 
L 1850 1753 
Q 2319 2222 2519 2614 
Q 2719 3006 2719 3438 
Q 2719 3909 2473 4175 
Q 2228 4441 1797 4441 
Q 1350 4441 1106 4219 
Q 863 3997 819 3553 
z
" transform="scale(0.015625)"/>
       </defs>
       <use xlink:href="#DejaVuSerif-32"/>
       <use xlink:href="#DejaVuSerif-30" transform="translate(63.623047 0)"/>
       <use xlink:href="#DejaVuSerif-30" transform="translate(127.246094 0)"/>
       <use xlink:href="#DejaVuSerif-30" transform="translate(190.869141 0)"/>
       <use xlink:href="#DejaVuSerif-30" transform="translate(254.492188 0)"/>
       <use xlink:href="#DejaVuSerif-30" transform="translate(318.115234 0)"/>
      </g>
     </g>
    </g>
    <g id="xtick_3">
     <g id="line2d_3">
      <g>
       <use xlink:href="#mbab88e382e" x="216.522342" y="307.584" style="fill: #808080; stroke: #808080; stroke-width: 0.8"/>
      </g>
     </g>
     <g id="text_3">
      <!-- 400000 -->
      <g style="fill: #808080" transform="translate(193.617342 323.702125) scale(0.12 -0.12)">
       <defs>
        <path id="DejaVuSerif-34" d="M 2234 1581 
L 2234 4063 
L 641 1581 
L 2234 1581 
z
M 3609 0 
L 1484 0 
L 1484 331 
L 2234 331 
L 2234 1247 
L 197 1247 
L 197 1588 
L 2241 4750 
L 2859 4750 
L 2859 1581 
L 3750 1581 
L 3750 1247 
L 2859 1247 
L 2859 331 
L 3609 331 
L 3609 0 
z
" transform="scale(0.015625)"/>
       </defs>
       <use xlink:href="#DejaVuSerif-34"/>
       <use xlink:href="#DejaVuSerif-30" transform="translate(63.623047 0)"/>
       <use xlink:href="#DejaVuSerif-30" transform="translate(127.246094 0)"/>
       <use xlink:href="#DejaVuSerif-30" transform="translate(190.869141 0)"/>
       <use xlink:href="#DejaVuSerif-30" transform="translate(254.492188 0)"/>
       <use xlink:href="#DejaVuSerif-30" transform="translate(318.115234 0)"/>
      </g>
     </g>
    </g>
    <g id="xtick_4">
     <g id="line2d_4">
      <g>
       <use xlink:href="#mbab88e382e" x="287.867149" y="307.584" style="fill: #808080; stroke: #808080; stroke-width: 0.8"/>
      </g>
     </g>
     <g id="text_4">
      <!-- 600000 -->
      <g style="fill: #808080" transform="translate(264.962149 323.702125) scale(0.12 -0.12)">
       <defs>
        <path id="DejaVuSerif-36" d="M 2094 219 
Q 2534 219 2771 542 
Q 3009 866 3009 1472 
Q 3009 2078 2771 2401 
Q 2534 2725 2094 2725 
Q 1647 2725 1412 2412 
Q 1178 2100 1178 1509 
Q 1178 888 1415 553 
Q 1653 219 2094 219 
z
M 1075 2569 
Q 1288 2803 1556 2918 
Q 1825 3034 2163 3034 
Q 2859 3034 3264 2615 
Q 3669 2197 3669 1472 
Q 3669 763 3233 336 
Q 2797 -91 2069 -91 
Q 1278 -91 853 498 
Q 428 1088 428 2181 
Q 428 3406 931 4078 
Q 1434 4750 2350 4750 
Q 2597 4750 2869 4703 
Q 3141 4656 3425 4563 
L 3425 3794 
L 3072 3794 
Q 3034 4109 2831 4275 
Q 2628 4441 2284 4441 
Q 1678 4441 1381 3981 
Q 1084 3522 1075 2569 
z
" transform="scale(0.015625)"/>
       </defs>
       <use xlink:href="#DejaVuSerif-36"/>
       <use xlink:href="#DejaVuSerif-30" transform="translate(63.623047 0)"/>
       <use xlink:href="#DejaVuSerif-30" transform="translate(127.246094 0)"/>
       <use xlink:href="#DejaVuSerif-30" transform="translate(190.869141 0)"/>
       <use xlink:href="#DejaVuSerif-30" transform="translate(254.492188 0)"/>
       <use xlink:href="#DejaVuSerif-30" transform="translate(318.115234 0)"/>
      </g>
     </g>
    </g>
    <g id="xtick_5">
     <g id="line2d_5">
      <g>
       <use xlink:href="#mbab88e382e" x="359.211956" y="307.584" style="fill: #808080; stroke: #808080; stroke-width: 0.8"/>
      </g>
     </g>
     <g id="text_5">
      <!-- 800000 -->
      <g style="fill: #808080" transform="translate(336.306956 323.702125) scale(0.12 -0.12)">
       <defs>
        <path id="DejaVuSerif-38" d="M 2981 1275 
Q 2981 1775 2732 2051 
Q 2484 2328 2034 2328 
Q 1584 2328 1336 2051 
Q 1088 1775 1088 1275 
Q 1088 772 1336 495 
Q 1584 219 2034 219 
Q 2484 219 2732 495 
Q 2981 772 2981 1275 
z
M 2853 3541 
Q 2853 3966 2637 4203 
Q 2422 4441 2034 4441 
Q 1650 4441 1433 4203 
Q 1216 3966 1216 3541 
Q 1216 3113 1433 2875 
Q 1650 2638 2034 2638 
Q 2422 2638 2637 2875 
Q 2853 3113 2853 3541 
z
M 2516 2484 
Q 3047 2413 3344 2092 
Q 3641 1772 3641 1275 
Q 3641 619 3225 264 
Q 2809 -91 2034 -91 
Q 1263 -91 845 264 
Q 428 619 428 1275 
Q 428 1772 725 2092 
Q 1022 2413 1556 2484 
Q 1084 2569 832 2842 
Q 581 3116 581 3541 
Q 581 4103 968 4426 
Q 1356 4750 2034 4750 
Q 2713 4750 3100 4426 
Q 3488 4103 3488 3541 
Q 3488 3116 3236 2842 
Q 2984 2569 2516 2484 
z
" transform="scale(0.015625)"/>
       </defs>
       <use xlink:href="#DejaVuSerif-38"/>
       <use xlink:href="#DejaVuSerif-30" transform="translate(63.623047 0)"/>
       <use xlink:href="#DejaVuSerif-30" transform="translate(127.246094 0)"/>
       <use xlink:href="#DejaVuSerif-30" transform="translate(190.869141 0)"/>
       <use xlink:href="#DejaVuSerif-30" transform="translate(254.492188 0)"/>
       <use xlink:href="#DejaVuSerif-30" transform="translate(318.115234 0)"/>
      </g>
     </g>
    </g>
    <g id="text_6">
     <!-- step -->
     <g style="fill: #808080" transform="translate(223.277813 339.315875) scale(0.12 -0.12)">
      <defs>
       <path id="DejaVuSerif-73" d="M 359 184 
L 359 959 
L 691 959 
Q 703 588 923 403 
Q 1144 219 1575 219 
Q 1963 219 2166 364 
Q 2369 509 2369 788 
Q 2369 1006 2220 1140 
Q 2072 1275 1594 1428 
L 1178 1569 
Q 750 1706 558 1912 
Q 366 2119 366 2438 
Q 366 2894 700 3153 
Q 1034 3413 1625 3413 
Q 1888 3413 2178 3344 
Q 2469 3275 2778 3144 
L 2778 2419 
L 2447 2419 
Q 2434 2741 2221 2922 
Q 2009 3103 1644 3103 
Q 1281 3103 1095 2975 
Q 909 2847 909 2591 
Q 909 2381 1050 2254 
Q 1191 2128 1613 1997 
L 2069 1856 
Q 2541 1709 2748 1489 
Q 2956 1269 2956 922 
Q 2956 450 2595 179 
Q 2234 -91 1600 -91 
Q 1278 -91 972 -22 
Q 666 47 359 184 
z
" transform="scale(0.015625)"/>
       <path id="DejaVuSerif-74" d="M 691 2988 
L 184 2988 
L 184 3322 
L 691 3322 
L 691 4353 
L 1269 4353 
L 1269 3322 
L 2350 3322 
L 2350 2988 
L 1269 2988 
L 1269 878 
Q 1269 456 1350 337 
Q 1431 219 1650 219 
Q 1875 219 1978 351 
Q 2081 484 2088 781 
L 2522 781 
Q 2497 328 2275 118 
Q 2053 -91 1600 -91 
Q 1103 -91 897 129 
Q 691 350 691 878 
L 691 2988 
z
" transform="scale(0.015625)"/>
       <path id="DejaVuSerif-65" d="M 3469 1600 
L 991 1600 
L 991 1575 
Q 991 903 1244 561 
Q 1497 219 1991 219 
Q 2369 219 2611 417 
Q 2853 616 2950 1006 
L 3413 1006 
Q 3275 459 2904 184 
Q 2534 -91 1931 -91 
Q 1203 -91 761 389 
Q 319 869 319 1663 
Q 319 2450 753 2931 
Q 1188 3413 1894 3413 
Q 2647 3413 3050 2948 
Q 3453 2484 3469 1600 
z
M 2791 1931 
Q 2772 2513 2545 2808 
Q 2319 3103 1894 3103 
Q 1497 3103 1269 2806 
Q 1041 2509 991 1931 
L 2791 1931 
z
" transform="scale(0.015625)"/>
       <path id="DejaVuSerif-70" d="M 1313 1825 
L 1313 1497 
Q 1313 897 1542 583 
Q 1772 269 2209 269 
Q 2650 269 2876 622 
Q 3103 975 3103 1663 
Q 3103 2353 2876 2703 
Q 2650 3053 2209 3053 
Q 1772 3053 1542 2737 
Q 1313 2422 1313 1825 
z
M 738 2988 
L 184 2988 
L 184 3322 
L 1313 3322 
L 1313 2803 
Q 1481 3116 1742 3264 
Q 2003 3413 2388 3413 
Q 3000 3413 3387 2928 
Q 3775 2444 3775 1663 
Q 3775 881 3387 395 
Q 3000 -91 2388 -91 
Q 2003 -91 1742 57 
Q 1481 206 1313 519 
L 1313 -997 
L 1856 -997 
L 1856 -1331 
L 184 -1331 
L 184 -997 
L 738 -997 
L 738 2988 
z
" transform="scale(0.015625)"/>
      </defs>
      <use xlink:href="#DejaVuSerif-73"/>
      <use xlink:href="#DejaVuSerif-74" transform="translate(51.318359 0)"/>
      <use xlink:href="#DejaVuSerif-65" transform="translate(91.503906 0)"/>
      <use xlink:href="#DejaVuSerif-70" transform="translate(150.683594 0)"/>
     </g>
    </g>
   </g>
   <g id="matplotlib.axis_2">
    <g id="ytick_1">
     <g id="line2d_6">
      <defs>
       <path id="m6b45f40041" d="M 0 0 
L -3.5 0 
" style="stroke: #808080; stroke-width: 0.8"/>
      </defs>
      <g>
       <use xlink:href="#m6b45f40041" x="57.6" y="307.584" style="fill: #808080; stroke: #808080; stroke-width: 0.8"/>
      </g>
     </g>
     <g id="text_7">
      <!-- 0.55 -->
      <g style="fill: #808080" transform="translate(23.88125 312.143062) scale(0.12 -0.12)">
       <defs>
        <path id="DejaVuSerif-2e" d="M 603 325 
Q 603 500 722 622 
Q 841 744 1019 744 
Q 1191 744 1312 622 
Q 1434 500 1434 325 
Q 1434 153 1312 31 
Q 1191 -91 1019 -91 
Q 841 -91 722 29 
Q 603 150 603 325 
z
" transform="scale(0.015625)"/>
        <path id="DejaVuSerif-35" d="M 3219 4666 
L 3219 4153 
L 1081 4153 
L 1081 2816 
Q 1244 2928 1461 2984 
Q 1678 3041 1947 3041 
Q 2703 3041 3140 2622 
Q 3578 2203 3578 1478 
Q 3578 738 3136 323 
Q 2694 -91 1894 -91 
Q 1572 -91 1234 -12 
Q 897 66 544 225 
L 544 1131 
L 897 1131 
Q 925 688 1179 453 
Q 1434 219 1894 219 
Q 2388 219 2653 544 
Q 2919 869 2919 1478 
Q 2919 2084 2655 2407 
Q 2391 2731 1894 2731 
Q 1613 2731 1398 2631 
Q 1184 2531 1019 2322 
L 750 2322 
L 750 4666 
L 3219 4666 
z
" transform="scale(0.015625)"/>
       </defs>
       <use xlink:href="#DejaVuSerif-30"/>
       <use xlink:href="#DejaVuSerif-2e" transform="translate(63.623047 0)"/>
       <use xlink:href="#DejaVuSerif-35" transform="translate(95.410156 0)"/>
       <use xlink:href="#DejaVuSerif-35" transform="translate(159.033203 0)"/>
      </g>
     </g>
    </g>
    <g id="ytick_2">
     <g id="line2d_7">
      <g>
       <use xlink:href="#m6b45f40041" x="57.6" y="254.3616" style="fill: #808080; stroke: #808080; stroke-width: 0.8"/>
      </g>
     </g>
     <g id="text_8">
      <!-- 0.56 -->
      <g style="fill: #808080" transform="translate(23.88125 258.920662) scale(0.12 -0.12)">
       <use xlink:href="#DejaVuSerif-30"/>
       <use xlink:href="#DejaVuSerif-2e" transform="translate(63.623047 0)"/>
       <use xlink:href="#DejaVuSerif-35" transform="translate(95.410156 0)"/>
       <use xlink:href="#DejaVuSerif-36" transform="translate(159.033203 0)"/>
      </g>
     </g>
    </g>
    <g id="ytick_3">
     <g id="line2d_8">
      <g>
       <use xlink:href="#m6b45f40041" x="57.6" y="201.1392" style="fill: #808080; stroke: #808080; stroke-width: 0.8"/>
      </g>
     </g>
     <g id="text_9">
      <!-- 0.57 -->
      <g style="fill: #808080" transform="translate(23.88125 205.698262) scale(0.12 -0.12)">
       <defs>
        <path id="DejaVuSerif-37" d="M 3609 4347 
L 1784 0 
L 1319 0 
L 3059 4153 
L 903 4153 
L 903 3578 
L 538 3578 
L 538 4666 
L 3609 4666 
L 3609 4347 
z
" transform="scale(0.015625)"/>
       </defs>
       <use xlink:href="#DejaVuSerif-30"/>
       <use xlink:href="#DejaVuSerif-2e" transform="translate(63.623047 0)"/>
       <use xlink:href="#DejaVuSerif-35" transform="translate(95.410156 0)"/>
       <use xlink:href="#DejaVuSerif-37" transform="translate(159.033203 0)"/>
      </g>
     </g>
    </g>
    <g id="ytick_4">
     <g id="line2d_9">
      <g>
       <use xlink:href="#m6b45f40041" x="57.6" y="147.9168" style="fill: #808080; stroke: #808080; stroke-width: 0.8"/>
      </g>
     </g>
     <g id="text_10">
      <!-- 0.58 -->
      <g style="fill: #808080" transform="translate(23.88125 152.475862) scale(0.12 -0.12)">
       <use xlink:href="#DejaVuSerif-30"/>
       <use xlink:href="#DejaVuSerif-2e" transform="translate(63.623047 0)"/>
       <use xlink:href="#DejaVuSerif-35" transform="translate(95.410156 0)"/>
       <use xlink:href="#DejaVuSerif-38" transform="translate(159.033203 0)"/>
      </g>
     </g>
    </g>
    <g id="ytick_5">
     <g id="line2d_10">
      <g>
       <use xlink:href="#m6b45f40041" x="57.6" y="94.6944" style="fill: #808080; stroke: #808080; stroke-width: 0.8"/>
      </g>
     </g>
     <g id="text_11">
      <!-- 0.59 -->
      <g style="fill: #808080" transform="translate(23.88125 99.253462) scale(0.12 -0.12)">
       <defs>
        <path id="DejaVuSerif-39" d="M 2994 2091 
Q 2784 1856 2512 1740 
Q 2241 1625 1900 1625 
Q 1206 1625 804 2044 
Q 403 2463 403 3188 
Q 403 3897 839 4323 
Q 1275 4750 2003 4750 
Q 2794 4750 3217 4161 
Q 3641 3572 3641 2478 
Q 3641 1253 3137 581 
Q 2634 -91 1722 -91 
Q 1475 -91 1203 -44 
Q 931 3 647 97 
L 647 872 
L 997 872 
Q 1038 556 1241 387 
Q 1444 219 1784 219 
Q 2391 219 2687 676 
Q 2984 1134 2994 2091 
z
M 1978 4441 
Q 1534 4441 1298 4117 
Q 1063 3794 1063 3188 
Q 1063 2581 1298 2256 
Q 1534 1931 1978 1931 
Q 2422 1931 2658 2245 
Q 2894 2559 2894 3150 
Q 2894 3772 2656 4106 
Q 2419 4441 1978 4441 
z
" transform="scale(0.015625)"/>
       </defs>
       <use xlink:href="#DejaVuSerif-30"/>
       <use xlink:href="#DejaVuSerif-2e" transform="translate(63.623047 0)"/>
       <use xlink:href="#DejaVuSerif-35" transform="translate(95.410156 0)"/>
       <use xlink:href="#DejaVuSerif-39" transform="translate(159.033203 0)"/>
      </g>
     </g>
    </g>
    <g id="ytick_6">
     <g id="line2d_11">
      <g>
       <use xlink:href="#m6b45f40041" x="57.6" y="41.472" style="fill: #808080; stroke: #808080; stroke-width: 0.8"/>
      </g>
     </g>
     <g id="text_12">
      <!-- 0.60 -->
      <g style="fill: #808080" transform="translate(23.88125 46.031062) scale(0.12 -0.12)">
       <use xlink:href="#DejaVuSerif-30"/>
       <use xlink:href="#DejaVuSerif-2e" transform="translate(63.623047 0)"/>
       <use xlink:href="#DejaVuSerif-36" transform="translate(95.410156 0)"/>
       <use xlink:href="#DejaVuSerif-30" transform="translate(159.033203 0)"/>
      </g>
     </g>
    </g>
    <g id="text_13">
     <!-- acc -->
     <g style="fill: #808080" transform="translate(17.385625 184.8255) rotate(-90) scale(0.12 -0.12)">
      <defs>
       <path id="DejaVuSerif-61" d="M 2547 1044 
L 2547 1747 
L 1806 1747 
Q 1378 1747 1168 1562 
Q 959 1378 959 997 
Q 959 650 1171 447 
Q 1384 244 1747 244 
Q 2106 244 2326 466 
Q 2547 688 2547 1044 
z
M 3122 2075 
L 3122 331 
L 3634 331 
L 3634 0 
L 2547 0 
L 2547 359 
Q 2356 128 2106 18 
Q 1856 -91 1522 -91 
Q 969 -91 644 203 
Q 319 497 319 997 
Q 319 1513 691 1797 
Q 1063 2081 1741 2081 
L 2547 2081 
L 2547 2309 
Q 2547 2688 2317 2895 
Q 2088 3103 1672 3103 
Q 1328 3103 1125 2947 
Q 922 2791 872 2484 
L 575 2484 
L 575 3156 
Q 875 3284 1158 3348 
Q 1441 3413 1709 3413 
Q 2400 3413 2761 3070 
Q 3122 2728 3122 2075 
z
" transform="scale(0.015625)"/>
       <path id="DejaVuSerif-63" d="M 3291 997 
Q 3169 466 2822 187 
Q 2475 -91 1925 -91 
Q 1200 -91 759 389 
Q 319 869 319 1663 
Q 319 2459 759 2936 
Q 1200 3413 1925 3413 
Q 2241 3413 2553 3339 
Q 2866 3266 3181 3116 
L 3181 2266 
L 2847 2266 
Q 2781 2703 2561 2903 
Q 2341 3103 1931 3103 
Q 1466 3103 1228 2742 
Q 991 2381 991 1663 
Q 991 944 1227 581 
Q 1463 219 1931 219 
Q 2303 219 2525 412 
Q 2747 606 2828 997 
L 3291 997 
z
" transform="scale(0.015625)"/>
      </defs>
      <use xlink:href="#DejaVuSerif-61"/>
      <use xlink:href="#DejaVuSerif-63" transform="translate(59.619141 0)"/>
      <use xlink:href="#DejaVuSerif-63" transform="translate(115.625 0)"/>
     </g>
    </g>
   </g>
   <g id="line2d_12">
    <path d="M 104.955845 346.6 
L 105.224442 335.465602 
L 105.750266 346.6 
M 106.229783 346.6 
L 106.294615 345.887229 
L 106.330165 346.6 
M 106.719928 346.6 
L 107.008063 319.549154 
L 107.204771 346.6 
M 107.610316 346.6 
L 107.721511 336.634425 
L 108.078235 324.04497 
L 108.411811 346.6 
M 108.472662 346.6 
L 109.148407 321.630491 
L 109.398175 346.6 
M 109.59314 346.6 
L 109.861855 313.953016 
L 110.218579 323.601301 
L 110.575303 315.99118 
L 110.932027 323.3255 
L 111.288751 334.476036 
L 111.645475 324.979825 
L 112.002199 336.364692 
L 112.358923 320.304782 
L 112.715647 322.19845 
L 113.072371 318.427632 
L 113.429095 312.169554 
L 113.785819 284.87828 
L 114.142543 307.135245 
L 114.499267 297.011605 
L 115.212715 316.583244 
L 115.926164 311.475861 
L 116.282888 304.512215 
L 116.639612 272.875823 
L 116.996336 286.339941 
L 117.35306 326.273502 
L 117.709784 277.15705 
L 118.066508 271.336904 
L 118.423232 301.871796 
L 118.779956 311.685194 
L 119.13668 287.641026 
L 119.493404 290.887807 
L 119.850128 304.107762 
L 120.206852 271.636525 
L 120.563576 292.293799 
L 121.277024 271.543549 
L 121.990472 291.615841 
L 122.347196 286.993027 
L 122.70392 306.288831 
L 123.060644 269.462857 
L 123.417368 270.43738 
L 123.774092 281.961588 
L 124.130816 274.422563 
L 124.48754 264.344323 
L 124.844264 284.687082 
L 125.200989 255.336207 
L 125.914437 274.675058 
L 126.271161 283.996298 
L 126.627885 256.372929 
L 126.984609 261.964287 
L 127.341333 253.821748 
L 127.698057 276.793441 
L 128.054781 257.525098 
L 128.411505 265.133245 
L 128.768229 254.131542 
L 129.124953 272.709705 
L 129.481677 268.266702 
L 129.838401 272.429264 
L 130.195125 245.728143 
L 130.551849 271.222579 
L 130.908573 280.663841 
L 131.265297 251.690933 
L 131.978745 269.010586 
L 132.335469 237.352975 
L 132.692193 256.735069 
L 133.048917 246.868541 
L 133.405641 274.060683 
L 133.762365 249.084415 
L 134.119089 258.828149 
L 134.475813 237.564012 
L 134.832537 249.982801 
L 135.189262 242.842369 
L 135.545986 243.667745 
L 135.90271 244.899197 
L 136.259434 277.512354 
L 136.616158 262.017163 
L 136.972882 228.249732 
L 137.329606 255.96024 
L 137.68633 225.830152 
L 138.043054 243.222306 
L 138.399778 243.152596 
L 138.756502 235.97816 
L 139.113226 233.839225 
L 139.826674 265.556184 
L 140.540122 239.646982 
L 140.896846 245.668329 
L 141.25357 260.461246 
L 141.967018 252.290866 
L 142.323742 243.510326 
L 142.680466 258.641673 
L 143.03719 240.720158 
L 143.393914 231.980787 
L 143.750638 227.399796 
L 144.107362 234.844724 
L 144.464086 256.590106 
L 144.820811 238.698967 
L 145.177535 232.312525 
L 145.534259 243.772437 
L 145.890983 235.983124 
L 146.247707 249.192496 
L 146.604431 217.465957 
L 146.961155 218.899967 
L 147.317879 227.498076 
L 147.674603 244.960595 
L 148.031327 230.636456 
L 148.388051 232.692062 
L 148.744775 215.406109 
L 149.101499 247.466332 
L 149.458223 236.679356 
L 149.814947 216.997559 
L 150.171671 217.770601 
L 150.528395 222.706651 
L 150.885119 239.056916 
L 151.241843 219.88271 
L 151.598567 212.956885 
L 151.955291 224.30671 
L 152.312015 211.487 
L 152.668739 234.040863 
L 153.025463 195.170209 
L 153.738911 245.002602 
L 154.452359 213.233943 
L 154.809084 204.635562 
L 155.165808 210.37499 
L 155.522532 232.875229 
L 155.879256 234.276316 
L 156.23598 190.474978 
L 156.592704 216.283902 
L 156.949428 203.829141 
L 157.306152 219.768721 
L 157.662876 251.331807 
L 158.0196 214.385632 
L 158.376324 201.419958 
L 158.733048 207.077331 
L 159.446496 236.542143 
L 159.80322 178.47658 
L 160.159944 196.498883 
L 160.516668 206.254503 
L 160.873392 199.28566 
L 161.230116 215.177213 
L 161.58684 202.986786 
L 161.943564 225.74284 
L 162.300288 225.276568 
L 163.013736 182.26858 
L 163.37046 204.680308 
L 163.727184 200.466715 
L 164.083908 207.230364 
L 164.440632 204.243038 
L 164.797357 195.196835 
L 165.510805 214.977287 
L 165.867529 209.004303 
L 166.224253 208.444235 
L 166.580977 210.555387 
L 166.937701 201.970067 
L 167.294425 247.584198 
L 168.007873 198.203477 
L 168.364597 202.569471 
L 168.721321 192.150022 
L 169.078045 203.732353 
L 169.434769 208.376104 
L 169.791493 218.185636 
L 170.148217 193.038442 
L 170.504941 192.015463 
L 170.861665 198.477126 
L 171.218389 212.512855 
L 171.229091 169.875482 
L 171.575113 198.268282 
L 171.931837 209.011434 
L 172.288561 206.095636 
L 172.645285 202.209827 
L 173.002009 192.35506 
L 173.358733 197.426902 
L 173.715457 185.730576 
L 174.072181 203.651386 
L 174.428906 209.150787 
L 174.78563 179.898509 
L 175.142354 211.047938 
L 175.499078 187.618451 
L 175.855802 182.164762 
L 176.212526 201.314652 
L 176.56925 206.907681 
L 176.925974 189.401402 
L 177.282698 203.478303 
L 177.639422 199.74757 
L 177.996146 202.956562 
L 178.35287 204.524324 
L 179.066318 186.330314 
L 179.423042 200.439456 
L 179.779766 185.23441 
L 180.13649 200.606044 
L 180.493214 199.249853 
L 180.849938 181.381684 
L 181.206662 198.446181 
L 181.563386 198.269777 
L 181.92011 170.608095 
L 182.633558 201.795144 
L 182.990282 195.813985 
L 183.347006 202.513594 
L 183.70373 192.595856 
L 184.060454 189.661976 
L 184.417179 162.864039 
L 184.773903 199.110194 
L 185.130627 192.163302 
L 185.487351 200.059713 
L 185.844075 181.268623 
L 186.200799 180.637561 
L 186.557523 191.983411 
L 186.914247 164.938025 
L 187.270971 175.439671 
L 187.627695 205.806402 
L 187.984419 179.860996 
L 188.341143 183.203284 
L 188.697867 187.97698 
L 189.054591 197.46315 
L 189.411315 201.845883 
L 190.124763 189.819506 
L 190.481487 174.408881 
L 190.838211 201.362899 
L 191.194935 171.480916 
L 191.908383 196.061181 
L 192.265107 194.653713 
L 192.621831 199.368122 
L 192.978555 185.063226 
L 193.335279 198.991319 
L 193.692003 196.894439 
L 194.048728 185.768768 
L 194.405452 190.03356 
L 194.762176 187.267848 
L 195.1189 187.96138 
L 195.475624 192.475367 
L 195.832348 170.075244 
L 196.189072 166.513013 
L 196.545796 192.389574 
L 196.90252 171.923809 
L 197.259244 180.331881 
L 197.615968 179.227754 
L 197.972692 143.051873 
L 198.329416 183.224138 
L 198.68614 182.854314 
L 199.042864 158.524291 
L 199.399588 187.691972 
L 199.756312 162.578011 
L 200.46976 171.961329 
L 200.826484 178.573134 
L 201.183208 170.752643 
L 201.539932 177.030358 
L 201.896656 180.260979 
L 202.25338 168.434404 
L 202.610104 160.552437 
L 202.966828 195.184105 
L 203.323552 188.886561 
L 203.680276 179.1349 
L 204.037001 177.79908 
L 204.393725 191.739686 
L 204.750449 171.977932 
L 205.107173 171.00762 
L 205.463897 177.912169 
L 205.820621 175.373581 
L 206.177345 166.84723 
L 206.534069 188.380356 
L 206.890793 180.452722 
L 207.247517 188.911307 
L 207.604241 172.810954 
L 207.960965 180.953221 
L 208.317689 172.966324 
L 208.674413 169.211524 
L 209.031137 187.624596 
L 209.387861 196.678595 
L 209.744585 169.679319 
L 210.101309 176.923562 
L 210.458033 171.192666 
L 210.814757 168.763627 
L 211.171481 175.822605 
L 211.528205 156.537085 
L 211.884929 158.354451 
L 212.241653 177.811516 
L 212.598377 168.713121 
L 212.955101 182.414891 
L 213.311825 166.210502 
L 213.66855 155.794375 
L 214.381998 192.939203 
L 214.738722 176.296626 
L 215.095446 169.234471 
L 215.45217 172.03335 
L 215.808894 172.046979 
L 216.165618 161.372516 
L 216.522342 190.038511 
L 216.879066 165.653952 
L 217.23579 197.250138 
L 217.592514 177.514324 
L 217.949238 217.374614 
L 218.305962 149.549418 
L 218.662686 176.288665 
L 219.01941 157.027189 
L 219.376134 159.250876 
L 219.732858 178.300222 
L 220.089582 177.736698 
L 220.446306 173.186552 
L 220.80303 186.096135 
L 221.159754 138.104581 
L 221.516478 162.204645 
L 221.873202 155.298878 
L 222.229926 192.211756 
L 222.58665 172.119502 
L 222.943374 164.256151 
L 223.300098 162.623796 
L 223.656823 156.876735 
L 224.013547 167.413106 
L 224.370271 162.294949 
L 224.726995 172.621547 
L 225.083719 162.497296 
L 225.440443 160.836631 
L 225.797167 164.611435 
L 226.153891 160.776033 
L 226.510615 153.733051 
L 226.867339 174.74365 
L 227.224063 156.325456 
L 227.580787 156.804237 
L 227.937511 156.891187 
L 228.294235 150.360747 
L 228.650959 182.183113 
L 229.007683 157.17287 
L 229.364407 185.332525 
L 230.077855 148.343711 
L 230.434579 161.421523 
L 230.791303 169.687915 
L 231.148027 153.493821 
L 231.504751 164.077201 
L 231.861475 155.368706 
L 232.218199 179.427285 
L 232.574923 151.262735 
L 233.288372 139.90354 
L 233.645096 156.722627 
L 234.00182 137.662242 
L 234.358544 157.625121 
L 234.715268 166.036846 
L 235.071992 147.350579 
L 235.428716 173.138854 
L 235.78544 171.038381 
L 236.142164 145.796767 
L 236.498888 169.632722 
L 236.855612 162.579882 
L 237.212336 173.13278 
L 237.56906 166.219418 
L 237.925784 148.383094 
L 238.282508 177.483081 
L 238.639232 155.183349 
L 239.35268 150.239692 
L 239.709404 155.762743 
L 240.066128 163.057449 
L 240.422852 159.29349 
L 240.779576 173.498582 
L 241.1363 180.465958 
L 241.493024 170.769152 
L 241.849748 157.042693 
L 242.206472 155.897411 
L 242.563196 169.523734 
L 242.91992 152.412246 
L 243.276645 159.727917 
L 243.633369 162.130354 
L 243.990093 148.788222 
L 244.346817 142.130663 
L 244.703541 145.74916 
L 245.060265 172.54335 
L 245.773713 128.702112 
L 246.130437 150.958217 
L 246.487161 158.848221 
L 246.843885 173.291147 
L 247.200609 151.102395 
L 247.557333 156.264234 
L 247.914057 154.224873 
L 248.270781 156.329217 
L 248.627505 168.807338 
L 248.984229 148.161677 
L 249.340953 169.931995 
L 249.697677 140.490419 
L 250.054401 167.664739 
L 250.767849 149.384855 
L 251.124573 146.867398 
L 251.481297 151.856197 
L 251.838021 149.659611 
L 252.194745 149.154224 
L 252.551469 152.496438 
L 252.908194 141.60246 
L 253.264918 154.252828 
L 253.621642 148.906485 
L 253.978366 150.015942 
L 254.33509 132.385452 
L 254.691814 162.585131 
L 255.048538 131.271459 
L 255.405262 158.060318 
L 255.761986 147.009742 
L 256.11871 158.795017 
L 256.475434 153.696152 
L 256.832158 163.909353 
L 257.188882 153.312729 
L 257.545606 160.420329 
L 257.90233 161.010227 
L 258.259054 128.871851 
L 258.615778 148.967871 
L 258.972502 160.966196 
L 259.329226 139.96304 
L 259.68595 145.140021 
L 260.042674 173.818104 
L 260.399398 138.057164 
L 260.756122 152.073307 
L 261.112846 156.736458 
L 261.46957 158.44221 
L 261.826294 161.653551 
L 262.183018 158.592095 
L 262.539742 131.349702 
L 262.896467 158.978339 
L 263.253191 142.23268 
L 263.609915 146.838829 
L 263.966639 143.254828 
L 264.323363 145.379334 
L 264.680087 129.697037 
L 265.036811 140.008812 
L 265.393535 142.411446 
L 265.750259 146.146133 
L 266.106983 126.634563 
L 266.463707 137.944837 
L 266.820431 170.630161 
L 267.177155 138.07554 
L 267.533879 161.695798 
L 268.247327 142.84572 
L 268.604051 150.251221 
L 269.317499 155.957163 
L 269.674223 149.321249 
L 270.030947 148.537399 
L 270.387671 165.453628 
L 270.744395 128.407066 
L 271.101119 148.599062 
L 271.457843 141.017445 
L 271.814567 154.979488 
L 272.528016 143.330743 
L 272.88474 156.034657 
L 273.241464 147.04383 
L 273.598188 162.895909 
L 273.954912 123.356286 
L 274.311636 162.059145 
L 274.66836 158.16397 
L 275.025084 129.089829 
L 275.381808 129.639412 
L 275.738532 123.310488 
L 276.095256 155.550148 
L 276.45198 145.918546 
L 276.808704 156.157255 
L 277.165428 145.331668 
L 277.522152 142.935517 
L 277.878876 161.181593 
L 278.2356 126.199049 
L 278.592324 136.394732 
L 278.949048 135.938854 
L 279.305772 146.201101 
L 279.662496 139.139233 
L 280.01922 134.86361 
L 280.375944 144.517819 
L 280.732668 119.869516 
L 281.089392 127.992948 
L 281.446116 139.550307 
L 281.80284 124.402037 
L 282.159564 126.841263 
L 282.516289 135.024797 
L 282.873013 151.239985 
L 283.229737 131.692444 
L 283.586461 138.390444 
L 283.943185 133.283968 
L 284.299909 137.434158 
L 284.656633 157.73803 
L 285.013357 149.471668 
L 285.370081 150.032422 
L 285.726805 136.283554 
L 286.083529 137.648705 
L 286.440253 155.240961 
L 286.796977 106.497499 
L 287.153701 137.233899 
L 287.510425 140.108108 
L 287.867149 154.147098 
L 288.223873 123.332297 
L 288.580597 143.923535 
L 288.937321 150.465693 
L 289.294045 165.343529 
L 289.650769 156.673964 
L 290.007493 159.295697 
L 290.364217 133.646485 
L 290.720941 129.628358 
L 291.077665 138.929163 
L 291.434389 119.725144 
L 291.791113 133.876167 
L 292.147838 142.079104 
L 292.504562 146.752843 
L 292.861286 133.721929 
L 293.21801 170.970702 
L 293.574734 124.905981 
L 293.931458 129.350819 
L 294.288182 138.670556 
L 294.644906 113.917569 
L 295.00163 123.314004 
L 295.358354 142.836616 
L 295.715078 145.525291 
L 296.071802 124.924418 
L 296.428526 130.266361 
L 296.78525 140.633114 
L 297.141974 168.472561 
L 297.498698 167.451128 
L 297.855422 152.641065 
L 298.212146 129.319207 
L 298.56887 147.969522 
L 298.925594 117.490366 
L 299.282318 158.335842 
L 299.639042 146.532837 
L 299.995766 128.508068 
L 300.35249 130.145937 
L 300.709214 123.289697 
L 301.065938 134.514706 
L 301.422662 154.686658 
L 301.779386 121.010592 
L 302.136111 147.959767 
L 302.492835 158.047666 
L 302.849559 142.244299 
L 303.206283 141.177305 
L 303.563007 132.363374 
L 303.919731 153.235689 
L 304.276455 141.133142 
L 304.633179 149.598339 
L 304.989903 139.52429 
L 305.346627 167.553688 
L 305.703351 134.405497 
L 306.060075 127.012918 
L 306.416799 126.153279 
L 306.773523 127.380434 
L 307.130247 120.724098 
L 307.843695 141.849655 
L 308.200419 139.182142 
L 308.557143 141.540164 
L 308.913867 161.418251 
L 309.270591 137.733168 
L 309.627315 135.259751 
L 309.984039 127.229919 
L 310.340763 135.834058 
L 310.697487 134.303572 
L 311.054211 129.043574 
L 311.767659 142.099711 
L 312.124384 140.999363 
L 312.481108 144.792057 
L 312.837832 143.522876 
L 313.194556 133.952215 
L 313.55128 155.86789 
L 313.908004 149.635671 
L 314.264728 124.04962 
L 314.621452 89.828702 
L 315.3349 144.329735 
L 315.691624 141.020376 
L 316.048348 127.860802 
L 316.405072 126.954402 
L 316.761796 145.156676 
L 317.11852 111.270297 
L 317.475244 130.715198 
L 317.831968 131.806004 
L 318.188692 137.851846 
L 318.545416 116.000837 
L 318.90214 155.136 
L 319.258864 139.787084 
L 319.615588 104.016162 
L 319.972312 132.758445 
L 320.329036 131.452661 
L 320.68576 125.309372 
L 321.042484 108.468581 
L 321.399208 134.049363 
L 322.112657 118.899557 
L 322.469381 157.529656 
L 322.826105 132.380573 
L 323.182829 137.698042 
L 323.539553 131.796417 
L 323.896277 139.477812 
L 324.253001 152.260271 
L 324.609725 118.983382 
L 324.966449 131.647506 
L 325.323173 114.69721 
L 325.679897 149.784923 
L 326.036621 121.382852 
L 326.393345 123.990142 
L 326.750069 132.014839 
L 327.106793 133.671122 
L 327.463517 150.924829 
L 327.820241 114.485198 
L 328.533689 129.506347 
L 328.890413 128.490295 
L 329.603861 143.09309 
L 330.317309 128.595929 
L 330.674033 142.825126 
L 331.030757 117.175346 
L 331.387481 122.517943 
L 331.744206 115.626943 
L 332.10093 102.82159 
L 332.814378 116.883463 
L 333.171102 132.215149 
L 333.527826 116.460538 
L 333.88455 125.99232 
L 334.241274 131.742362 
L 334.597998 118.578742 
L 334.954722 121.131905 
L 335.311446 113.903637 
L 335.66817 139.988257 
L 336.024894 147.758735 
L 336.381618 124.296415 
L 336.738342 130.999667 
L 337.095066 141.180572 
L 337.45179 121.294725 
L 337.808514 123.498409 
L 338.165238 106.986134 
L 338.521962 133.173964 
L 338.878686 138.152978 
L 339.23541 129.827282 
L 339.592134 130.035918 
L 339.948858 102.212027 
L 340.305582 120.780151 
L 341.01903 115.095824 
L 341.375755 116.067889 
L 341.732479 121.518643 
L 342.089203 138.810406 
L 342.445927 121.87762 
L 342.802651 130.6443 
L 343.159375 113.715133 
L 343.516099 113.968425 
L 343.872823 139.996182 
L 344.229547 132.272904 
L 344.586271 108.741948 
L 344.942995 116.585805 
L 345.299719 139.791152 
L 345.656443 133.551615 
L 346.013167 135.721874 
L 346.369891 129.16108 
L 346.726615 116.035937 
L 347.083339 136.158237 
L 347.440063 138.754608 
L 347.796787 102.904219 
L 348.153511 107.878322 
L 348.510235 127.573569 
L 348.866959 118.348399 
L 349.223683 113.408842 
L 349.580407 110.244543 
L 349.937131 129.715896 
L 350.293855 112.708484 
L 350.650579 118.19978 
L 351.364028 124.315723 
L 351.720752 112.219725 
L 352.077476 129.266963 
L 352.4342 139.610055 
L 352.790924 121.601059 
L 353.147648 128.51346 
L 353.504372 130.335856 
L 353.861096 120.038229 
L 354.21782 112.975946 
L 354.574544 143.458603 
L 354.931268 105.311592 
L 355.287992 136.811786 
L 355.644716 129.027217 
L 356.00144 117.725271 
L 356.358164 127.05673 
L 356.714888 131.077097 
L 357.071612 147.811109 
L 357.428336 116.884788 
L 357.78506 107.32657 
L 358.141784 129.438362 
L 358.498508 135.02354 
L 358.855232 116.051923 
L 359.211956 113.422998 
L 359.56868 125.350522 
L 359.925404 114.447773 
L 360.282128 143.028203 
L 360.638852 150.017606 
L 360.995577 137.911582 
L 361.352301 103.529431 
L 361.709025 134.426096 
L 362.065749 131.656267 
L 362.422473 130.5751 
L 362.779197 143.598382 
L 363.135921 110.087493 
L 363.492645 117.70829 
L 363.849369 120.527117 
L 364.206093 136.109914 
L 364.562817 117.860958 
L 364.919541 126.032633 
L 365.276265 113.339007 
L 365.632989 134.88343 
L 365.989713 100.414593 
L 366.346437 116.883792 
L 366.703161 118.943091 
L 367.059885 126.086195 
L 367.416609 140.274695 
L 367.773333 120.997242 
L 368.130057 118.227532 
L 368.486781 99.868667 
L 368.843505 122.392139 
L 369.200229 104.968898 
L 369.556953 136.579214 
L 369.913677 124.072514 
L 370.270401 117.008498 
L 370.627125 133.998419 
L 370.98385 118.25052 
L 371.340574 147.099671 
L 371.697298 111.127167 
L 372.054022 135.53396 
L 372.410746 121.886558 
L 372.76747 132.298295 
L 373.124194 150.93839 
L 373.480918 101.710162 
L 373.837642 100.275549 
L 374.194366 134.771085 
L 374.55109 133.697504 
L 374.907814 96.120752 
L 375.264538 124.003278 
L 375.621262 129.858605 
L 375.977986 131.537351 
L 376.33471 120.58865 
L 376.691434 119.53967 
L 377.048158 129.007435 
L 377.404882 112.000663 
L 377.761606 116.372265 
L 378.11833 128.851881 
L 378.475054 114.663139 
L 378.831778 113.20179 
L 379.188502 105.287943 
L 379.545226 122.740459 
L 379.90195 130.115435 
L 380.258674 108.124061 
L 380.615399 93.425625 
L 380.972123 117.680091 
L 381.328847 121.897702 
L 381.685571 104.037254 
L 382.042295 129.845082 
L 382.399019 99.947598 
L 382.755743 112.54859 
L 383.112467 118.927086 
L 383.825915 138.25514 
L 384.182639 143.515398 
L 384.539363 136.689805 
L 384.896087 127.448767 
L 385.252811 140.78368 
L 385.609535 117.421491 
L 385.966259 117.991825 
L 386.679707 107.025148 
L 387.036431 109.119208 
L 387.393155 100.119074 
L 387.749879 97.491792 
L 388.106603 116.841805 
L 388.463327 120.520993 
L 388.820051 107.614648 
L 389.176775 126.715661 
L 389.890223 92.488134 
L 390.246947 124.63575 
L 390.603672 122.843858 
L 390.960396 130.899327 
L 391.31712 116.915005 
L 391.673844 119.010601 
L 392.030568 99.496511 
L 392.387292 126.480166 
L 392.744016 113.765561 
L 393.10074 125.867846 
L 393.457464 130.066107 
L 393.814188 114.16307 
L 394.170912 105.706548 
L 394.527636 104.516827 
L 394.88436 114.645887 
L 395.241084 121.605085 
L 395.597808 119.413803 
L 395.954532 128.049902 
L 396.311256 90.552831 
L 396.66798 107.195534 
L 397.024704 107.690651 
L 397.381428 109.202205 
L 397.738152 143.460749 
L 398.4516 130.146043 
L 398.487273 100.59737 
L 398.487273 100.59737 
" clip-path="url(#p1c204807fd)" style="fill: none; stroke: #1f77b4; stroke-linecap: square"/>
   </g>
   <g id="line2d_13">
    <path d="M 109.544411 346.6 
L 109.861855 321.276483 
L 110.218579 327.786486 
L 110.575303 324.344658 
L 110.932027 328.343663 
L 111.288751 338.787385 
L 111.645475 331.060613 
L 112.002199 338.163111 
L 112.358923 319.22011 
L 112.715647 322.79569 
L 113.072371 322.40584 
L 113.429095 313.008741 
L 113.785819 285.239453 
L 114.142543 305.459891 
L 114.855991 302.003913 
L 115.212715 319.680271 
L 115.56944 311.627748 
L 115.926164 315.800151 
L 116.282888 304.631508 
L 116.639612 272.875823 
L 116.996336 291.862556 
L 117.35306 321.498158 
L 117.709784 280.539165 
L 118.066508 271.816839 
L 118.423232 304.389241 
L 118.779956 310.968829 
L 119.13668 292.43357 
L 119.493404 291.007236 
L 119.850128 294.518141 
L 120.206852 266.961795 
L 120.563576 289.769474 
L 120.9203 280.123047 
L 121.277024 275.033858 
L 121.633748 281.523062 
L 121.990472 290.057388 
L 122.347196 279.377758 
L 122.70392 303.758734 
L 123.060644 266.808434 
L 123.417368 270.678396 
L 123.774092 281.363772 
L 124.130816 266.636782 
L 124.48754 261.705929 
L 124.844264 275.783393 
L 125.200989 256.411142 
L 125.557713 260.556434 
L 125.914437 274.675058 
L 126.271161 281.251461 
L 126.627885 251.105163 
L 126.984609 253.466321 
L 127.341333 247.676114 
L 127.698057 266.388396 
L 128.411505 257.532286 
L 128.768229 249.817961 
L 129.124953 273.306664 
L 129.481677 261.691903 
L 129.838401 262.420798 
L 130.195125 239.348148 
L 130.551849 266.675906 
L 130.908573 266.892407 
L 131.265297 254.452864 
L 131.622021 259.769903 
L 131.978745 259.496693 
L 132.335469 239.400176 
L 132.692193 251.94985 
L 133.048917 238.917708 
L 133.405641 267.085428 
L 133.762365 238.18015 
L 134.119089 245.810666 
L 134.475813 227.110578 
L 134.832537 244.322637 
L 135.189262 241.401265 
L 135.545986 243.547319 
L 135.90271 244.899197 
L 136.259434 271.667409 
L 136.616158 257.360785 
L 136.972882 220.678636 
L 137.329606 244.972608 
L 137.68633 226.188407 
L 138.043054 235.094924 
L 138.399778 234.886016 
L 138.756502 228.010554 
L 139.113226 234.199688 
L 139.826674 253.163212 
L 140.183398 245.328027 
L 140.540122 233.682886 
L 140.896846 248.534243 
L 141.25357 254.959604 
L 141.610294 252.639734 
L 141.967018 245.968924 
L 142.323742 242.309433 
L 142.680466 249.952982 
L 143.03719 235.227281 
L 143.393914 232.22139 
L 143.750638 218.784272 
L 144.107362 225.26589 
L 144.464086 250.826728 
L 144.820811 233.567199 
L 145.177535 230.044592 
L 145.534259 243.532971 
L 145.890983 224.011735 
L 146.247707 236.75987 
L 146.604431 207.192996 
L 146.961155 217.342531 
L 147.674603 230.211569 
L 148.031327 219.985035 
L 148.388051 228.871959 
L 148.744775 203.187598 
L 149.101499 246.746575 
L 149.458223 228.377268 
L 149.814947 202.758582 
L 150.171671 210.826884 
L 150.528395 214.438209 
L 150.885119 220.710608 
L 151.241843 219.047118 
L 151.598567 203.798655 
L 151.955291 211.636418 
L 152.312015 206.68635 
L 152.668739 229.13998 
L 153.025463 201.311394 
L 153.738911 232.397486 
L 154.809084 200.157701 
L 155.165808 210.37499 
L 155.522532 225.722642 
L 155.879256 217.098112 
L 156.23598 185.298756 
L 156.592704 198.697432 
L 156.949428 194.342296 
L 157.662876 244.152204 
L 158.0196 206.735644 
L 158.376324 202.263439 
L 158.733048 205.39752 
L 159.446496 232.013388 
L 159.80322 167.633797 
L 160.159944 195.783704 
L 160.516668 207.452747 
L 160.873392 187.820463 
L 161.230116 211.005618 
L 161.58684 195.83484 
L 161.943564 216.557927 
L 162.300288 219.889564 
L 162.657012 196.419641 
L 163.013736 181.430791 
L 163.727184 204.189401 
L 164.083908 204.830851 
L 164.440632 193.175089 
L 164.797357 193.159316 
L 165.510805 212.107059 
L 165.867529 196.575026 
L 166.224253 202.480941 
L 166.937701 194.154384 
L 167.294425 237.926042 
L 167.651149 212.26503 
L 168.007873 202.272559 
L 168.364597 201.24959 
L 168.721321 188.676523 
L 169.434769 206.698676 
L 169.791493 202.652753 
L 170.148217 186.673132 
L 170.504941 192.852612 
L 170.861665 196.330292 
L 171.218389 206.659383 
L 171.229091 177.491138 
L 171.575113 188.906594 
L 171.931837 208.0591 
L 172.288561 202.622058 
L 172.645285 182.809196 
L 173.002009 179.775481 
L 173.358733 192.2676 
L 173.715457 176.644175 
L 174.072181 208.173558 
L 174.78563 179.301122 
L 175.142354 210.567689 
L 175.499078 181.666893 
L 175.855802 173.709668 
L 176.212526 193.570572 
L 176.56925 201.344785 
L 176.925974 181.11505 
L 177.282698 199.872286 
L 177.639422 192.699827 
L 177.996146 201.274932 
L 178.35287 197.684478 
L 178.709594 191.47844 
L 179.066318 173.600268 
L 179.423042 197.329483 
L 179.779766 181.296694 
L 180.13649 196.900248 
L 180.493214 197.68841 
L 180.849938 174.800233 
L 181.206662 195.069355 
L 181.563386 188.424893 
L 181.92011 160.942577 
L 182.276834 173.464905 
L 182.633558 204.069401 
L 182.990282 184.033062 
L 183.347006 193.159078 
L 183.70373 184.818302 
L 184.060454 184.862301 
L 184.417179 165.0352 
L 184.773903 190.585965 
L 185.130627 178.710867 
L 185.487351 196.114745 
L 185.844075 176.824916 
L 186.200799 175.822143 
L 186.557523 182.081345 
L 186.914247 170.36802 
L 187.270971 174.719931 
L 187.627695 191.071651 
L 187.984419 168.985867 
L 188.341143 180.804311 
L 188.697867 178.997024 
L 189.054591 190.798896 
L 189.411315 191.990774 
L 189.768039 185.756872 
L 190.124763 188.394001 
L 190.481487 155.945425 
L 190.838211 189.40039 
L 191.194935 165.267255 
L 191.908383 186.56169 
L 192.265107 188.875996 
L 192.621831 177.154599 
L 192.978555 172.336913 
L 193.335279 189.113234 
L 193.692003 188.063619 
L 194.048728 188.034211 
L 194.405452 181.183491 
L 194.762176 181.783215 
L 195.1189 182.694562 
L 195.475624 176.429014 
L 195.832348 165.167637 
L 196.189072 158.696446 
L 196.545796 188.676523 
L 196.90252 164.171798 
L 197.259244 173.231228 
L 197.615968 175.518209 
L 197.972692 142.214742 
L 198.329416 176.029815 
L 198.68614 174.21295 
L 199.042864 143.251413 
L 199.399588 177.31584 
L 199.756312 152.509815 
L 200.113036 164.269938 
L 200.826484 167.737954 
L 201.183208 165.265551 
L 201.539932 175.114677 
L 201.896656 179.06349 
L 202.25338 165.200455 
L 202.610104 160.072178 
L 202.966828 179.603568 
L 203.323552 183.621755 
L 203.680276 168.611676 
L 204.037001 173.71023 
L 204.393725 182.758114 
L 204.750449 168.741654 
L 205.107173 162.625762 
L 205.463897 165.031454 
L 205.820621 177.412569 
L 206.177345 163.954512 
L 206.534069 176.230222 
L 206.890793 165.228854 
L 207.247517 169.987469 
L 207.604241 158.472114 
L 207.960965 168.181098 
L 208.317689 170.433876 
L 208.674413 157.083594 
L 209.387861 186.635956 
L 209.744585 161.497921 
L 210.101309 175.238242 
L 210.458033 158.804283 
L 210.814757 161.632443 
L 211.171481 168.493517 
L 211.528205 148.859681 
L 212.241653 168.31846 
L 212.598377 158.211134 
L 212.955101 177.489338 
L 213.66855 143.030343 
L 214.381998 181.361331 
L 214.738722 176.537255 
L 215.095446 170.071865 
L 215.45217 166.15653 
L 215.808894 166.880689 
L 216.165618 167.148535 
L 216.522342 179.648409 
L 216.879066 162.249041 
L 217.23579 187.904887 
L 217.592514 188.286636 
L 217.949238 208.270419 
L 218.305962 138.569822 
L 218.662686 172.216378 
L 219.01941 148.020082 
L 219.376134 151.291214 
L 220.089582 178.936211 
L 220.446306 164.163359 
L 220.80303 174.123938 
L 221.159754 140.747441 
L 221.516478 155.907823 
L 221.873202 147.559603 
L 222.229926 181.397093 
L 222.58665 161.06804 
L 222.943374 166.646343 
L 223.300098 153.607737 
L 223.656823 148.123051 
L 224.013547 165.016511 
L 224.370271 149.338389 
L 224.726995 170.703105 
L 225.083719 148.491401 
L 225.440443 164.894217 
L 225.797167 154.049768 
L 226.153891 155.361872 
L 226.510615 145.605121 
L 226.867339 163.961154 
L 227.224063 145.877683 
L 227.580787 146.461617 
L 227.937511 149.466421 
L 228.294235 135.72126 
L 228.650959 173.366329 
L 229.007683 151.297903 
L 229.364407 177.899731 
L 229.721131 156.710025 
L 230.077855 143.906712 
L 230.434579 162.610319 
L 230.791303 159.64302 
L 231.148027 153.132771 
L 231.504751 156.797741 
L 231.861475 146.342657 
L 232.218199 162.370735 
L 232.574923 140.365094 
L 232.931647 145.655181 
L 233.288372 133.923495 
L 233.645096 140.22067 
L 234.00182 138.37901 
L 234.358544 147.512287 
L 234.715268 166.515389 
L 235.071992 138.833267 
L 235.428716 166.253523 
L 235.78544 179.206853 
L 236.142164 149.270267 
L 236.498888 162.901339 
L 236.855612 151.775253 
L 237.212336 168.332022 
L 237.56906 158.385613 
L 237.925784 142.854867 
L 238.282508 172.840658 
L 238.639232 149.45602 
L 239.35268 146.419931 
L 240.066128 159.221945 
L 241.1363 174.049755 
L 241.849748 148.659327 
L 242.206472 150.398488 
L 242.563196 164.734963 
L 243.276645 151.525753 
L 243.633369 155.011511 
L 243.990093 142.103341 
L 244.346817 145.842796 
L 244.703541 144.308868 
L 245.060265 160.719904 
L 245.773713 124.851955 
L 246.130437 151.197322 
L 246.487161 143.22509 
L 246.843885 164.067161 
L 247.200609 141.894781 
L 247.557333 151.577365 
L 247.914057 150.359336 
L 248.270781 149.700522 
L 248.627505 162.521561 
L 248.984229 147.681526 
L 249.340953 160.685949 
L 249.697677 137.135487 
L 250.054401 154.814888 
L 250.411125 159.874308 
L 250.767849 147.229472 
L 251.124573 141.955815 
L 251.481297 148.279263 
L 251.838021 146.088277 
L 252.194745 135.03275 
L 252.551469 144.939675 
L 252.908194 134.310247 
L 253.264918 137.811085 
L 253.621642 149.025724 
L 253.978366 136.655577 
L 254.33509 128.546404 
L 254.691814 146.514488 
L 255.048538 126.929825 
L 255.405262 155.55073 
L 255.761986 148.200107 
L 256.11871 147.909623 
L 256.475434 160.66212 
L 256.832158 150.812522 
L 257.188882 136.316741 
L 257.545606 152.11993 
L 257.90233 160.769804 
L 258.259054 120.389909 
L 258.615778 131.649092 
L 258.972502 159.176646 
L 259.329226 130.056646 
L 259.68595 136.395203 
L 260.042674 164.233016 
L 260.399398 134.106606 
L 260.756122 148.848431 
L 261.112846 141.038038 
L 261.46957 162.618013 
L 261.826294 150.957393 
L 262.183018 154.292356 
L 262.539742 121.084785 
L 262.896467 149.254173 
L 263.253191 136.718772 
L 263.609915 145.996665 
L 263.966639 131.831924 
L 264.323363 148.956589 
L 264.680087 128.619369 
L 265.036811 132.182696 
L 265.393535 140.979004 
L 265.750259 140.484816 
L 266.106983 120.512078 
L 266.463707 140.332187 
L 266.820431 168.476329 
L 267.177155 137.472522 
L 267.533879 148.959717 
L 267.890603 146.717374 
L 268.247327 130.515189 
L 268.960775 145.94703 
L 269.317499 148.996849 
L 269.674223 149.559695 
L 270.030947 149.499569 
L 270.387671 163.06799 
L 270.744395 122.859046 
L 271.101119 141.177969 
L 271.457843 133.3435 
L 271.814567 144.76982 
L 272.171291 150.956161 
L 272.528016 132.106971 
L 272.88474 147.628592 
L 273.241464 134.333001 
L 273.598188 155.155075 
L 273.954912 128.724574 
L 274.311636 157.14944 
L 274.66836 152.089985 
L 275.025084 126.7968 
L 275.381808 134.886052 
L 275.738532 119.262614 
L 276.095256 148.435337 
L 276.45198 139.801442 
L 277.165428 145.57081 
L 277.522152 140.906724 
L 277.878876 161.901723 
L 278.2356 119.004564 
L 278.592324 128.991953 
L 278.949048 130.785244 
L 279.305772 138.099191 
L 279.662496 122.933387 
L 280.01922 127.050927 
L 280.375944 135.547953 
L 280.732668 115.775023 
L 281.089392 111.890438 
L 281.446116 118.736338 
L 281.80284 119.981969 
L 282.159564 124.55802 
L 282.873013 129.348593 
L 283.229737 124.748726 
L 283.586461 125.439204 
L 283.943185 123.210554 
L 284.299909 133.037675 
L 284.656633 150.035104 
L 285.013357 145.266074 
L 285.370081 147.157284 
L 285.726805 134.848827 
L 286.083529 138.485648 
L 286.440253 145.0552 
L 286.796977 93.434876 
L 287.153701 131.676181 
L 287.510425 130.075269 
L 287.867149 146.86927 
L 288.223873 111.685995 
L 288.937321 150.227923 
L 289.294045 154.03216 
L 289.650769 146.524537 
L 290.007493 153.651879 
L 290.364217 124.498848 
L 290.720941 123.893057 
L 291.077665 136.790381 
L 291.434389 112.446337 
L 291.791113 115.035317 
L 292.147838 134.435639 
L 292.504562 143.294365 
L 292.861286 130.375209 
L 293.21801 159.815205 
L 293.574734 125.385074 
L 293.931458 115.153725 
L 294.288182 128.09243 
L 294.644906 112.596884 
L 295.00163 116.740829 
L 295.358354 141.641278 
L 295.715078 134.557254 
L 296.071802 121.105085 
L 296.428526 126.049532 
L 296.78525 137.144067 
L 297.141974 166.092044 
L 297.498698 152.084892 
L 297.855422 143.278954 
L 298.212146 124.417553 
L 298.56887 131.434128 
L 298.925594 107.349812 
L 299.282318 149.591417 
L 299.995766 130.905096 
L 300.709214 118.959446 
L 301.065938 125.737093 
L 301.422662 148.571483 
L 301.779386 119.095729 
L 302.136111 143.543664 
L 302.492835 139.593048 
L 302.849559 129.97553 
L 303.206283 138.666138 
L 303.563007 126.397808 
L 303.919731 147.25134 
L 304.276455 136.826058 
L 304.633179 144.807629 
L 304.989903 140.482066 
L 305.346627 163.48808 
L 305.703351 134.405497 
L 306.060075 131.203752 
L 306.416799 120.509461 
L 306.773523 129.648722 
L 307.130247 120.724098 
L 307.486971 136.237617 
L 307.843695 133.685984 
L 308.200419 135.823581 
L 308.557143 139.039055 
L 308.913867 138.623905 
L 309.270591 123.256905 
L 309.627315 138.124958 
L 309.984039 104.819731 
L 310.340763 123.760878 
L 310.697487 129.29081 
L 311.054211 129.76512 
L 311.410935 124.532139 
L 311.767659 139.216395 
L 312.124384 132.435823 
L 312.481108 132.460694 
L 312.837832 138.340793 
L 313.194556 128.783708 
L 313.55128 144.59145 
L 313.908004 141.811679 
L 314.264728 103.488893 
L 314.621452 84.303595 
L 314.978176 110.245215 
L 315.3349 149.915953 
L 315.691624 128.666783 
L 316.048348 119.717694 
L 316.405072 127.914878 
L 316.761796 130.756026 
L 317.11852 105.997074 
L 317.475244 119.931245 
L 317.831968 117.374508 
L 318.188692 125.378596 
L 318.545416 112.289957 
L 318.90214 148.176 
L 319.258864 131.026096 
L 319.615588 97.311581 
L 319.972312 128.674578 
L 320.329036 127.742365 
L 320.68576 118.860343 
L 321.042484 102.480327 
L 321.399208 128.059627 
L 321.755933 117.110141 
L 322.112657 102.376854 
L 322.469381 149.7542 
L 322.826105 126.368101 
L 323.182829 126.880725 
L 323.539553 123.733854 
L 323.896277 124.803402 
L 324.253001 141.90734 
L 324.609725 124.629747 
L 324.966449 120.193618 
L 325.323173 107.0671 
L 325.679897 140.587641 
L 326.036621 110.244199 
L 326.393345 108.015014 
L 326.750069 130.455823 
L 327.106793 127.54214 
L 327.463517 132.891081 
L 327.820241 116.044284 
L 328.176965 116.261725 
L 328.533689 125.428462 
L 328.890413 127.293344 
L 329.247137 140.159534 
L 329.603861 130.884196 
L 329.960585 129.92724 
L 330.317309 123.195685 
L 330.674033 138.261834 
L 331.030757 105.312999 
L 331.387481 113.794331 
L 331.744206 113.937765 
L 332.10093 99.438784 
L 332.457654 105.248321 
L 332.814378 108.387408 
L 333.171102 116.544839 
L 333.527826 108.892006 
L 333.88455 122.158112 
L 334.241274 122.164605 
L 334.597998 107.642468 
L 334.954722 107.955079 
L 335.311446 108.469453 
L 335.66817 126.626886 
L 336.024894 129.677057 
L 336.381618 113.175031 
L 336.738342 135.167622 
L 337.095066 143.087501 
L 337.45179 104.136343 
L 337.808514 129.016418 
L 338.165238 110.240147 
L 338.521962 110.06383 
L 338.878686 132.170245 
L 339.23541 118.588585 
L 339.592134 116.227823 
L 339.948858 92.747604 
L 340.305582 118.984765 
L 340.662306 103.424507 
L 341.01903 113.785367 
L 341.375755 108.188042 
L 341.732479 123.912382 
L 342.089203 130.99737 
L 342.445927 113.509506 
L 342.802651 120.481193 
L 343.159375 107.331528 
L 343.516099 103.176698 
L 343.872823 127.937357 
L 344.229547 126.66791 
L 344.586271 101.787123 
L 344.942995 111.309612 
L 345.299719 132.751309 
L 345.656443 115.03054 
L 346.013167 124.570171 
L 346.369891 137.996853 
L 346.726615 117.828339 
L 347.440063 143.173288 
L 347.796787 98.811947 
L 348.153511 107.759612 
L 348.510235 122.18923 
L 348.866959 113.53309 
L 349.223683 100.976804 
L 349.580407 114.090613 
L 349.937131 106.6707 
L 350.293855 105.201126 
L 351.007303 132.889637 
L 351.364028 111.842837 
L 351.720752 106.593425 
L 352.077476 131.424677 
L 352.4342 132.086695 
L 352.790924 116.907408 
L 353.147648 121.465084 
L 353.504372 118.706344 
L 353.861096 122.789483 
L 354.21782 98.008881 
L 354.574544 125.021557 
L 354.931268 104.832855 
L 355.287992 142.439732 
L 356.00144 114.38919 
L 356.358164 124.279573 
L 356.714888 130.236073 
L 357.071612 138.082774 
L 357.428336 110.244213 
L 357.78506 92.381535 
L 358.498508 136.459848 
L 358.855232 120.127328 
L 359.211956 112.703728 
L 359.56868 115.053476 
L 359.925404 113.487881 
L 360.638852 141.671612 
L 361.352301 110.123633 
L 361.709025 125.785901 
L 362.065749 115.333323 
L 362.422473 116.566685 
L 362.779197 137.343291 
L 363.135921 109.370757 
L 363.492645 110.017366 
L 363.849369 111.923779 
L 364.206093 138.996683 
L 364.562817 112.506592 
L 364.919541 122.19877 
L 365.276265 104.627132 
L 365.632989 135.844947 
L 365.989713 99.934408 
L 366.346437 111.726815 
L 366.703161 114.266044 
L 367.059885 129.668506 
L 367.416609 138.015124 
L 367.773333 113.438264 
L 368.130057 109.905216 
L 368.486781 96.145309 
L 368.843505 103.542789 
L 369.200229 94.612261 
L 369.556953 128.667598 
L 369.913677 122.277371 
L 370.270401 113.756768 
L 370.627125 127.309186 
L 370.98385 116.452709 
L 371.340574 141.228805 
L 371.697298 107.169487 
L 372.054022 131.128526 
L 372.410746 111.377973 
L 373.124194 149.854088 
L 373.480918 110.126672 
L 373.837642 105.463388 
L 374.194366 127.863571 
L 374.55109 126.27541 
L 374.907814 92.392514 
L 375.264538 121.255422 
L 375.621262 119.741636 
L 375.977986 122.888771 
L 376.33471 114.824231 
L 376.691434 115.105368 
L 377.048158 130.43348 
L 377.404882 104.837969 
L 377.761606 115.772103 
L 378.11833 119.294334 
L 378.475054 110.947244 
L 379.188502 102.404692 
L 379.545226 110.562247 
L 379.90195 110.007741 
L 380.615399 97.634831 
L 380.972123 117.799765 
L 381.328847 121.301426 
L 381.685571 102.958956 
L 382.042295 120.459052 
L 382.399019 89.261092 
L 382.755743 105.12232 
L 383.112467 108.460183 
L 383.469191 130.43445 
L 383.825915 139.563663 
L 384.182639 126.356172 
L 384.539363 128.15171 
L 384.896087 118.937403 
L 385.252811 128.173429 
L 385.966259 99.595324 
L 386.322983 110.16676 
L 386.679707 103.910416 
L 387.036431 104.775113 
L 387.393155 98.916797 
L 387.749879 99.769995 
L 388.106603 110.340257 
L 388.463327 97.589101 
L 388.820051 104.975659 
L 389.176775 107.146847 
L 389.533499 103.097183 
L 389.890223 97.323786 
L 390.246947 106.034911 
L 390.603672 119.620501 
L 390.960396 125.715484 
L 391.673844 113.377967 
L 392.030568 93.484855 
L 392.387292 117.610166 
L 392.744016 114.363028 
L 393.10074 123.708771 
L 393.457464 121.314591 
L 394.170912 91.400412 
L 394.527636 101.878968 
L 394.88436 116.68985 
L 395.241084 121.724402 
L 395.597808 108.542092 
L 395.954532 120.419792 
L 396.311256 75.462092 
L 396.66798 101.323081 
L 397.024704 93.51467 
L 397.381428 108.484471 
L 397.738152 141.196981 
L 398.094876 124.846018 
L 398.487273 95.454993 
L 398.487273 95.454993 
" clip-path="url(#p1c204807fd)" style="fill: none; stroke: #ff7f0e; stroke-linecap: square"/>
   </g>
   <g id="patch_3">
    <path d="M 57.6 307.584 
L 57.6 41.472 
" style="fill: none; stroke: #808080; stroke-width: 0.8; stroke-linejoin: miter; stroke-linecap: square"/>
   </g>
   <g id="patch_4">
    <path d="M 57.6 307.584 
L 414.72 307.584 
" style="fill: none; stroke: #808080; stroke-width: 0.8; stroke-linejoin: miter; stroke-linecap: square"/>
   </g>
   <g id="legend_1"/>
  </g>
 </g>
 <defs>
  <clipPath id="p1c204807fd">
   <rect x="57.6" y="41.472" width="357.12" height="266.112"/>
  </clipPath>
 </defs>
</svg>
