<?xml version="1.0" encoding="utf-8" standalone="no"?>
<!DOCTYPE svg PUBLIC "-//W3C//DTD SVG 1.1//EN"
  "http://www.w3.org/Graphics/SVG/1.1/DTD/svg11.dtd">
<svg xmlns:xlink="http://www.w3.org/1999/xlink" width="460.8pt" height="345.6pt" viewBox="0 0 460.8 345.6" xmlns="http://www.w3.org/2000/svg" version="1.1">
 <metadata>
  <rdf:RDF xmlns:dc="http://purl.org/dc/elements/1.1/" xmlns:cc="http://creativecommons.org/ns#" xmlns:rdf="http://www.w3.org/1999/02/22-rdf-syntax-ns#">
   <cc:Work>
    <dc:type rdf:resource="http://purl.org/dc/dcmitype/StillImage"/>
    <dc:date>2025-03-06T15:00:49.985163</dc:date>
    <dc:format>image/svg+xml</dc:format>
    <dc:creator>
     <cc:Agent>
      <dc:title>Matplotlib v3.10.0, https://matplotlib.org/</dc:title>
     </cc:Agent>
    </dc:creator>
   </cc:Work>
  </rdf:RDF>
 </metadata>
 <defs>
  <style type="text/css">*{stroke-linejoin: round; stroke-linecap: butt}</style>
 </defs>
 <g id="figure_1">
  <g id="patch_1">
   <path d="M 0 345.6 
L 460.8 345.6 
L 460.8 0 
L 0 0 
L 0 345.6 
z
" style="fill: none"/>
  </g>
  <g id="axes_1">
   <g id="patch_2">
    <path d="M 57.6 307.584 
L 414.72 307.584 
L 414.72 41.472 
L 57.6 41.472 
L 57.6 307.584 
z
" style="fill: none"/>
   </g>
   <g id="FillBetweenPolyCollection_1">
    <defs>
     <path id="mb457e4ad9d" d="M 73.832727 -50.112 
L 73.832727 -50.112 
L 73.832727 -50.112 
L 73.832727 -50.112 
z
" style="stroke: #1f77b4; stroke-opacity: 0.2"/>
    </defs>
    <g clip-path="url(#pe2c9c501fd)">
     <use xlink:href="#mb457e4ad9d" x="0" y="345.6" style="fill: #1f77b4; fill-opacity: 0.2; stroke: #1f77b4; stroke-opacity: 0.2"/>
    </g>
   </g>
   <g id="FillBetweenPolyCollection_2">
    <defs>
     <path id="m771f15e18f" d="M 171.229091 -283.585505 
L 171.229091 -281.695675 
L 171.229091 -283.585505 
L 171.229091 -283.585505 
z
" style="stroke: #ff7f0e; stroke-opacity: 0.2"/>
    </defs>
    <g clip-path="url(#pe2c9c501fd)">
     <use xlink:href="#m771f15e18f" x="0" y="345.6" style="fill: #ff7f0e; fill-opacity: 0.2; stroke: #ff7f0e; stroke-opacity: 0.2"/>
    </g>
   </g>
   <g id="matplotlib.axis_1">
    <g id="xtick_1">
     <g id="line2d_1">
      <defs>
       <path id="m8286675c2a" d="M 0 0 
L 0 3.5 
" style="stroke: #808080; stroke-width: 0.8"/>
      </defs>
      <g>
       <use xlink:href="#m8286675c2a" x="73.832727" y="307.584" style="fill: #808080; stroke: #808080; stroke-width: 0.8"/>
      </g>
     </g>
     <g id="text_1">
      <!-- 0 -->
      <g style="fill: #808080" transform="translate(70.015227 323.702125) scale(0.12 -0.12)">
       <defs>
        <path id="DejaVuSerif-30" d="M 2034 219 
Q 2513 219 2750 744 
Q 2988 1269 2988 2328 
Q 2988 3391 2750 3916 
Q 2513 4441 2034 4441 
Q 1556 4441 1318 3916 
Q 1081 3391 1081 2328 
Q 1081 1269 1318 744 
Q 1556 219 2034 219 
z
M 2034 -91 
Q 1275 -91 848 546 
Q 422 1184 422 2328 
Q 422 3475 848 4112 
Q 1275 4750 2034 4750 
Q 2797 4750 3222 4112 
Q 3647 3475 3647 2328 
Q 3647 1184 3222 546 
Q 2797 -91 2034 -91 
z
" transform="scale(0.015625)"/>
       </defs>
       <use xlink:href="#DejaVuSerif-30"/>
      </g>
     </g>
    </g>
    <g id="xtick_2">
     <g id="line2d_2">
      <g>
       <use xlink:href="#m8286675c2a" x="145.177535" y="307.584" style="fill: #808080; stroke: #808080; stroke-width: 0.8"/>
      </g>
     </g>
     <g id="text_2">
      <!-- 200000 -->
      <g style="fill: #808080" transform="translate(122.272535 323.702125) scale(0.12 -0.12)">
       <defs>
        <path id="DejaVuSerif-32" d="M 819 3553 
L 469 3553 
L 469 4384 
Q 803 4563 1142 4656 
Q 1481 4750 1806 4750 
Q 2534 4750 2956 4397 
Q 3378 4044 3378 3438 
Q 3378 2753 2422 1800 
Q 2347 1728 2309 1691 
L 1131 513 
L 3078 513 
L 3078 1088 
L 3444 1088 
L 3444 0 
L 434 0 
L 434 341 
L 1850 1753 
Q 2319 2222 2519 2614 
Q 2719 3006 2719 3438 
Q 2719 3909 2473 4175 
Q 2228 4441 1797 4441 
Q 1350 4441 1106 4219 
Q 863 3997 819 3553 
z
" transform="scale(0.015625)"/>
       </defs>
       <use xlink:href="#DejaVuSerif-32"/>
       <use xlink:href="#DejaVuSerif-30" transform="translate(63.623047 0)"/>
       <use xlink:href="#DejaVuSerif-30" transform="translate(127.246094 0)"/>
       <use xlink:href="#DejaVuSerif-30" transform="translate(190.869141 0)"/>
       <use xlink:href="#DejaVuSerif-30" transform="translate(254.492188 0)"/>
       <use xlink:href="#DejaVuSerif-30" transform="translate(318.115234 0)"/>
      </g>
     </g>
    </g>
    <g id="xtick_3">
     <g id="line2d_3">
      <g>
       <use xlink:href="#m8286675c2a" x="216.522342" y="307.584" style="fill: #808080; stroke: #808080; stroke-width: 0.8"/>
      </g>
     </g>
     <g id="text_3">
      <!-- 400000 -->
      <g style="fill: #808080" transform="translate(193.617342 323.702125) scale(0.12 -0.12)">
       <defs>
        <path id="DejaVuSerif-34" d="M 2234 1581 
L 2234 4063 
L 641 1581 
L 2234 1581 
z
M 3609 0 
L 1484 0 
L 1484 331 
L 2234 331 
L 2234 1247 
L 197 1247 
L 197 1588 
L 2241 4750 
L 2859 4750 
L 2859 1581 
L 3750 1581 
L 3750 1247 
L 2859 1247 
L 2859 331 
L 3609 331 
L 3609 0 
z
" transform="scale(0.015625)"/>
       </defs>
       <use xlink:href="#DejaVuSerif-34"/>
       <use xlink:href="#DejaVuSerif-30" transform="translate(63.623047 0)"/>
       <use xlink:href="#DejaVuSerif-30" transform="translate(127.246094 0)"/>
       <use xlink:href="#DejaVuSerif-30" transform="translate(190.869141 0)"/>
       <use xlink:href="#DejaVuSerif-30" transform="translate(254.492188 0)"/>
       <use xlink:href="#DejaVuSerif-30" transform="translate(318.115234 0)"/>
      </g>
     </g>
    </g>
    <g id="xtick_4">
     <g id="line2d_4">
      <g>
       <use xlink:href="#m8286675c2a" x="287.867149" y="307.584" style="fill: #808080; stroke: #808080; stroke-width: 0.8"/>
      </g>
     </g>
     <g id="text_4">
      <!-- 600000 -->
      <g style="fill: #808080" transform="translate(264.962149 323.702125) scale(0.12 -0.12)">
       <defs>
        <path id="DejaVuSerif-36" d="M 2094 219 
Q 2534 219 2771 542 
Q 3009 866 3009 1472 
Q 3009 2078 2771 2401 
Q 2534 2725 2094 2725 
Q 1647 2725 1412 2412 
Q 1178 2100 1178 1509 
Q 1178 888 1415 553 
Q 1653 219 2094 219 
z
M 1075 2569 
Q 1288 2803 1556 2918 
Q 1825 3034 2163 3034 
Q 2859 3034 3264 2615 
Q 3669 2197 3669 1472 
Q 3669 763 3233 336 
Q 2797 -91 2069 -91 
Q 1278 -91 853 498 
Q 428 1088 428 2181 
Q 428 3406 931 4078 
Q 1434 4750 2350 4750 
Q 2597 4750 2869 4703 
Q 3141 4656 3425 4563 
L 3425 3794 
L 3072 3794 
Q 3034 4109 2831 4275 
Q 2628 4441 2284 4441 
Q 1678 4441 1381 3981 
Q 1084 3522 1075 2569 
z
" transform="scale(0.015625)"/>
       </defs>
       <use xlink:href="#DejaVuSerif-36"/>
       <use xlink:href="#DejaVuSerif-30" transform="translate(63.623047 0)"/>
       <use xlink:href="#DejaVuSerif-30" transform="translate(127.246094 0)"/>
       <use xlink:href="#DejaVuSerif-30" transform="translate(190.869141 0)"/>
       <use xlink:href="#DejaVuSerif-30" transform="translate(254.492188 0)"/>
       <use xlink:href="#DejaVuSerif-30" transform="translate(318.115234 0)"/>
      </g>
     </g>
    </g>
    <g id="xtick_5">
     <g id="line2d_5">
      <g>
       <use xlink:href="#m8286675c2a" x="359.211956" y="307.584" style="fill: #808080; stroke: #808080; stroke-width: 0.8"/>
      </g>
     </g>
     <g id="text_5">
      <!-- 800000 -->
      <g style="fill: #808080" transform="translate(336.306956 323.702125) scale(0.12 -0.12)">
       <defs>
        <path id="DejaVuSerif-38" d="M 2981 1275 
Q 2981 1775 2732 2051 
Q 2484 2328 2034 2328 
Q 1584 2328 1336 2051 
Q 1088 1775 1088 1275 
Q 1088 772 1336 495 
Q 1584 219 2034 219 
Q 2484 219 2732 495 
Q 2981 772 2981 1275 
z
M 2853 3541 
Q 2853 3966 2637 4203 
Q 2422 4441 2034 4441 
Q 1650 4441 1433 4203 
Q 1216 3966 1216 3541 
Q 1216 3113 1433 2875 
Q 1650 2638 2034 2638 
Q 2422 2638 2637 2875 
Q 2853 3113 2853 3541 
z
M 2516 2484 
Q 3047 2413 3344 2092 
Q 3641 1772 3641 1275 
Q 3641 619 3225 264 
Q 2809 -91 2034 -91 
Q 1263 -91 845 264 
Q 428 619 428 1275 
Q 428 1772 725 2092 
Q 1022 2413 1556 2484 
Q 1084 2569 832 2842 
Q 581 3116 581 3541 
Q 581 4103 968 4426 
Q 1356 4750 2034 4750 
Q 2713 4750 3100 4426 
Q 3488 4103 3488 3541 
Q 3488 3116 3236 2842 
Q 2984 2569 2516 2484 
z
" transform="scale(0.015625)"/>
       </defs>
       <use xlink:href="#DejaVuSerif-38"/>
       <use xlink:href="#DejaVuSerif-30" transform="translate(63.623047 0)"/>
       <use xlink:href="#DejaVuSerif-30" transform="translate(127.246094 0)"/>
       <use xlink:href="#DejaVuSerif-30" transform="translate(190.869141 0)"/>
       <use xlink:href="#DejaVuSerif-30" transform="translate(254.492188 0)"/>
       <use xlink:href="#DejaVuSerif-30" transform="translate(318.115234 0)"/>
      </g>
     </g>
    </g>
    <g id="text_6">
     <!-- step -->
     <g style="fill: #808080" transform="translate(223.277813 339.315875) scale(0.12 -0.12)">
      <defs>
       <path id="DejaVuSerif-73" d="M 359 184 
L 359 959 
L 691 959 
Q 703 588 923 403 
Q 1144 219 1575 219 
Q 1963 219 2166 364 
Q 2369 509 2369 788 
Q 2369 1006 2220 1140 
Q 2072 1275 1594 1428 
L 1178 1569 
Q 750 1706 558 1912 
Q 366 2119 366 2438 
Q 366 2894 700 3153 
Q 1034 3413 1625 3413 
Q 1888 3413 2178 3344 
Q 2469 3275 2778 3144 
L 2778 2419 
L 2447 2419 
Q 2434 2741 2221 2922 
Q 2009 3103 1644 3103 
Q 1281 3103 1095 2975 
Q 909 2847 909 2591 
Q 909 2381 1050 2254 
Q 1191 2128 1613 1997 
L 2069 1856 
Q 2541 1709 2748 1489 
Q 2956 1269 2956 922 
Q 2956 450 2595 179 
Q 2234 -91 1600 -91 
Q 1278 -91 972 -22 
Q 666 47 359 184 
z
" transform="scale(0.015625)"/>
       <path id="DejaVuSerif-74" d="M 691 2988 
L 184 2988 
L 184 3322 
L 691 3322 
L 691 4353 
L 1269 4353 
L 1269 3322 
L 2350 3322 
L 2350 2988 
L 1269 2988 
L 1269 878 
Q 1269 456 1350 337 
Q 1431 219 1650 219 
Q 1875 219 1978 351 
Q 2081 484 2088 781 
L 2522 781 
Q 2497 328 2275 118 
Q 2053 -91 1600 -91 
Q 1103 -91 897 129 
Q 691 350 691 878 
L 691 2988 
z
" transform="scale(0.015625)"/>
       <path id="DejaVuSerif-65" d="M 3469 1600 
L 991 1600 
L 991 1575 
Q 991 903 1244 561 
Q 1497 219 1991 219 
Q 2369 219 2611 417 
Q 2853 616 2950 1006 
L 3413 1006 
Q 3275 459 2904 184 
Q 2534 -91 1931 -91 
Q 1203 -91 761 389 
Q 319 869 319 1663 
Q 319 2450 753 2931 
Q 1188 3413 1894 3413 
Q 2647 3413 3050 2948 
Q 3453 2484 3469 1600 
z
M 2791 1931 
Q 2772 2513 2545 2808 
Q 2319 3103 1894 3103 
Q 1497 3103 1269 2806 
Q 1041 2509 991 1931 
L 2791 1931 
z
" transform="scale(0.015625)"/>
       <path id="DejaVuSerif-70" d="M 1313 1825 
L 1313 1497 
Q 1313 897 1542 583 
Q 1772 269 2209 269 
Q 2650 269 2876 622 
Q 3103 975 3103 1663 
Q 3103 2353 2876 2703 
Q 2650 3053 2209 3053 
Q 1772 3053 1542 2737 
Q 1313 2422 1313 1825 
z
M 738 2988 
L 184 2988 
L 184 3322 
L 1313 3322 
L 1313 2803 
Q 1481 3116 1742 3264 
Q 2003 3413 2388 3413 
Q 3000 3413 3387 2928 
Q 3775 2444 3775 1663 
Q 3775 881 3387 395 
Q 3000 -91 2388 -91 
Q 2003 -91 1742 57 
Q 1481 206 1313 519 
L 1313 -997 
L 1856 -997 
L 1856 -1331 
L 184 -1331 
L 184 -997 
L 738 -997 
L 738 2988 
z
" transform="scale(0.015625)"/>
      </defs>
      <use xlink:href="#DejaVuSerif-73"/>
      <use xlink:href="#DejaVuSerif-74" transform="translate(51.318359 0)"/>
      <use xlink:href="#DejaVuSerif-65" transform="translate(91.503906 0)"/>
      <use xlink:href="#DejaVuSerif-70" transform="translate(150.683594 0)"/>
     </g>
    </g>
   </g>
   <g id="matplotlib.axis_2">
    <g id="ytick_1">
     <g id="line2d_6">
      <defs>
       <path id="m5533aa8447" d="M 0 0 
L -3.5 0 
" style="stroke: #808080; stroke-width: 0.8"/>
      </defs>
      <g>
       <use xlink:href="#m5533aa8447" x="57.6" y="295.385944" style="fill: #808080; stroke: #808080; stroke-width: 0.8"/>
      </g>
     </g>
     <g id="text_7">
      <!-- 0.1 -->
      <g style="fill: #808080" transform="translate(31.51625 299.945006) scale(0.12 -0.12)">
       <defs>
        <path id="DejaVuSerif-2e" d="M 603 325 
Q 603 500 722 622 
Q 841 744 1019 744 
Q 1191 744 1312 622 
Q 1434 500 1434 325 
Q 1434 153 1312 31 
Q 1191 -91 1019 -91 
Q 841 -91 722 29 
Q 603 150 603 325 
z
" transform="scale(0.015625)"/>
        <path id="DejaVuSerif-31" d="M 909 0 
L 909 331 
L 1722 331 
L 1722 4213 
L 781 3603 
L 781 4013 
L 1919 4750 
L 2350 4750 
L 2350 331 
L 3163 331 
L 3163 0 
L 909 0 
z
" transform="scale(0.015625)"/>
       </defs>
       <use xlink:href="#DejaVuSerif-30"/>
       <use xlink:href="#DejaVuSerif-2e" transform="translate(63.623047 0)"/>
       <use xlink:href="#DejaVuSerif-31" transform="translate(95.410156 0)"/>
      </g>
     </g>
    </g>
    <g id="ytick_2">
     <g id="line2d_7">
      <g>
       <use xlink:href="#m5533aa8447" x="57.6" y="246.396621" style="fill: #808080; stroke: #808080; stroke-width: 0.8"/>
      </g>
     </g>
     <g id="text_8">
      <!-- 0.2 -->
      <g style="fill: #808080" transform="translate(31.51625 250.955684) scale(0.12 -0.12)">
       <use xlink:href="#DejaVuSerif-30"/>
       <use xlink:href="#DejaVuSerif-2e" transform="translate(63.623047 0)"/>
       <use xlink:href="#DejaVuSerif-32" transform="translate(95.410156 0)"/>
      </g>
     </g>
    </g>
    <g id="ytick_3">
     <g id="line2d_8">
      <g>
       <use xlink:href="#m5533aa8447" x="57.6" y="197.407299" style="fill: #808080; stroke: #808080; stroke-width: 0.8"/>
      </g>
     </g>
     <g id="text_9">
      <!-- 0.3 -->
      <g style="fill: #808080" transform="translate(31.51625 201.966362) scale(0.12 -0.12)">
       <defs>
        <path id="DejaVuSerif-33" d="M 622 4469 
Q 988 4606 1323 4678 
Q 1659 4750 1953 4750 
Q 2638 4750 3022 4454 
Q 3406 4159 3406 3634 
Q 3406 3213 3140 2930 
Q 2875 2647 2388 2547 
Q 2963 2466 3280 2130 
Q 3597 1794 3597 1259 
Q 3597 606 3158 257 
Q 2719 -91 1894 -91 
Q 1528 -91 1179 -12 
Q 831 66 488 225 
L 488 1131 
L 838 1131 
Q 869 681 1141 450 
Q 1413 219 1906 219 
Q 2384 219 2661 495 
Q 2938 772 2938 1253 
Q 2938 1803 2653 2086 
Q 2369 2369 1819 2369 
L 1522 2369 
L 1522 2688 
L 1678 2688 
Q 2225 2688 2498 2914 
Q 2772 3141 2772 3597 
Q 2772 4006 2547 4223 
Q 2322 4441 1900 4441 
Q 1478 4441 1245 4241 
Q 1013 4041 972 3647 
L 622 3647 
L 622 4469 
z
" transform="scale(0.015625)"/>
       </defs>
       <use xlink:href="#DejaVuSerif-30"/>
       <use xlink:href="#DejaVuSerif-2e" transform="translate(63.623047 0)"/>
       <use xlink:href="#DejaVuSerif-33" transform="translate(95.410156 0)"/>
      </g>
     </g>
    </g>
    <g id="ytick_4">
     <g id="line2d_9">
      <g>
       <use xlink:href="#m5533aa8447" x="57.6" y="148.417977" style="fill: #808080; stroke: #808080; stroke-width: 0.8"/>
      </g>
     </g>
     <g id="text_10">
      <!-- 0.4 -->
      <g style="fill: #808080" transform="translate(31.51625 152.97704) scale(0.12 -0.12)">
       <use xlink:href="#DejaVuSerif-30"/>
       <use xlink:href="#DejaVuSerif-2e" transform="translate(63.623047 0)"/>
       <use xlink:href="#DejaVuSerif-34" transform="translate(95.410156 0)"/>
      </g>
     </g>
    </g>
    <g id="ytick_5">
     <g id="line2d_10">
      <g>
       <use xlink:href="#m5533aa8447" x="57.6" y="99.428655" style="fill: #808080; stroke: #808080; stroke-width: 0.8"/>
      </g>
     </g>
     <g id="text_11">
      <!-- 0.5 -->
      <g style="fill: #808080" transform="translate(31.51625 103.987718) scale(0.12 -0.12)">
       <defs>
        <path id="DejaVuSerif-35" d="M 3219 4666 
L 3219 4153 
L 1081 4153 
L 1081 2816 
Q 1244 2928 1461 2984 
Q 1678 3041 1947 3041 
Q 2703 3041 3140 2622 
Q 3578 2203 3578 1478 
Q 3578 738 3136 323 
Q 2694 -91 1894 -91 
Q 1572 -91 1234 -12 
Q 897 66 544 225 
L 544 1131 
L 897 1131 
Q 925 688 1179 453 
Q 1434 219 1894 219 
Q 2388 219 2653 544 
Q 2919 869 2919 1478 
Q 2919 2084 2655 2407 
Q 2391 2731 1894 2731 
Q 1613 2731 1398 2631 
Q 1184 2531 1019 2322 
L 750 2322 
L 750 4666 
L 3219 4666 
z
" transform="scale(0.015625)"/>
       </defs>
       <use xlink:href="#DejaVuSerif-30"/>
       <use xlink:href="#DejaVuSerif-2e" transform="translate(63.623047 0)"/>
       <use xlink:href="#DejaVuSerif-35" transform="translate(95.410156 0)"/>
      </g>
     </g>
    </g>
    <g id="ytick_6">
     <g id="line2d_11">
      <g>
       <use xlink:href="#m5533aa8447" x="57.6" y="50.439333" style="fill: #808080; stroke: #808080; stroke-width: 0.8"/>
      </g>
     </g>
     <g id="text_12">
      <!-- 0.6 -->
      <g style="fill: #808080" transform="translate(31.51625 54.998396) scale(0.12 -0.12)">
       <use xlink:href="#DejaVuSerif-30"/>
       <use xlink:href="#DejaVuSerif-2e" transform="translate(63.623047 0)"/>
       <use xlink:href="#DejaVuSerif-36" transform="translate(95.410156 0)"/>
      </g>
     </g>
    </g>
    <g id="text_13">
     <!-- acc -->
     <g style="fill: #808080" transform="translate(25.020625 184.8255) rotate(-90) scale(0.12 -0.12)">
      <defs>
       <path id="DejaVuSerif-61" d="M 2547 1044 
L 2547 1747 
L 1806 1747 
Q 1378 1747 1168 1562 
Q 959 1378 959 997 
Q 959 650 1171 447 
Q 1384 244 1747 244 
Q 2106 244 2326 466 
Q 2547 688 2547 1044 
z
M 3122 2075 
L 3122 331 
L 3634 331 
L 3634 0 
L 2547 0 
L 2547 359 
Q 2356 128 2106 18 
Q 1856 -91 1522 -91 
Q 969 -91 644 203 
Q 319 497 319 997 
Q 319 1513 691 1797 
Q 1063 2081 1741 2081 
L 2547 2081 
L 2547 2309 
Q 2547 2688 2317 2895 
Q 2088 3103 1672 3103 
Q 1328 3103 1125 2947 
Q 922 2791 872 2484 
L 575 2484 
L 575 3156 
Q 875 3284 1158 3348 
Q 1441 3413 1709 3413 
Q 2400 3413 2761 3070 
Q 3122 2728 3122 2075 
z
" transform="scale(0.015625)"/>
       <path id="DejaVuSerif-63" d="M 3291 997 
Q 3169 466 2822 187 
Q 2475 -91 1925 -91 
Q 1200 -91 759 389 
Q 319 869 319 1663 
Q 319 2459 759 2936 
Q 1200 3413 1925 3413 
Q 2241 3413 2553 3339 
Q 2866 3266 3181 3116 
L 3181 2266 
L 2847 2266 
Q 2781 2703 2561 2903 
Q 2341 3103 1931 3103 
Q 1466 3103 1228 2742 
Q 991 2381 991 1663 
Q 991 944 1227 581 
Q 1463 219 1931 219 
Q 2303 219 2525 412 
Q 2747 606 2828 997 
L 3291 997 
z
" transform="scale(0.015625)"/>
      </defs>
      <use xlink:href="#DejaVuSerif-61"/>
      <use xlink:href="#DejaVuSerif-63" transform="translate(59.619141 0)"/>
      <use xlink:href="#DejaVuSerif-63" transform="translate(115.625 0)"/>
     </g>
    </g>
   </g>
   <g id="line2d_12">
    <path d="M 73.832727 295.488 
L 74.189451 193.7733 
L 74.546175 175.451495 
L 74.902899 165.467646 
L 75.616347 153.849615 
L 76.68652 138.106164 
L 77.043244 136.332535 
L 77.399968 133.30384 
L 77.756692 128.837771 
L 78.113416 127.006952 
L 78.47014 123.997198 
L 79.183588 121.784198 
L 79.540312 117.221467 
L 79.897036 117.818207 
L 80.25376 113.278051 
L 80.610484 113.71762 
L 80.967208 111.181186 
L 81.680656 108.750358 
L 82.03738 108.291201 
L 82.394104 105.415614 
L 82.750828 105.940415 
L 83.107552 103.986419 
L 83.464276 103.406219 
L 83.821 103.837174 
L 84.177724 102.81695 
L 84.534448 100.119206 
L 84.891172 98.351736 
L 85.247896 97.948632 
L 85.60462 100.168909 
L 86.318069 95.525014 
L 86.674793 95.962248 
L 87.031517 94.511984 
L 87.388241 95.443899 
L 87.744965 93.344985 
L 88.101689 93.630253 
L 88.458413 91.892427 
L 88.815137 93.066837 
L 89.171861 91.757011 
L 89.528585 91.268191 
L 89.885309 90.514056 
L 90.242033 90.824361 
L 90.598757 88.550645 
L 90.955481 89.556779 
L 91.312205 89.623783 
L 91.668929 87.367582 
L 92.382377 89.666808 
L 92.739101 88.300206 
L 93.095825 88.603688 
L 93.809273 84.759074 
L 94.879445 88.687212 
L 95.236169 85.835186 
L 95.592893 86.549518 
L 95.949618 83.135077 
L 96.663066 84.788739 
L 97.01979 83.373516 
L 97.376514 81.395265 
L 97.733238 84.649538 
L 98.089962 82.379527 
L 98.446686 82.726997 
L 98.80341 83.542552 
L 99.160134 81.240119 
L 99.516858 80.844439 
L 99.873582 83.55223 
L 100.230306 81.149057 
L 100.58703 83.944286 
L 100.943754 81.492529 
L 101.300478 79.85233 
L 101.657202 79.940981 
L 102.013926 81.12836 
L 102.37065 81.821198 
L 102.727374 79.651182 
L 103.084098 80.179185 
L 103.440822 79.88595 
L 103.797546 81.647869 
L 104.15427 79.681899 
L 104.510994 81.033978 
L 104.867718 78.861543 
L 105.224442 77.500396 
L 105.937891 78.820665 
L 106.294615 78.45967 
L 106.651339 79.118 
L 107.008063 76.035344 
L 107.364787 80.550753 
L 107.721511 77.607982 
L 108.078235 76.449168 
L 108.434959 78.669344 
L 109.148407 76.226924 
L 109.505131 79.509482 
L 109.861855 75.520239 
L 110.218579 76.40833 
L 110.575303 75.707845 
L 110.932027 76.382943 
L 111.288751 77.40931 
L 111.645475 76.535218 
L 112.002199 77.583154 
L 112.358923 76.104897 
L 112.715647 76.279202 
L 113.072371 75.932112 
L 113.429095 75.356078 
L 113.785819 72.844014 
L 114.142543 74.892688 
L 114.499267 73.960843 
L 115.212715 75.762343 
L 115.926164 75.292226 
L 116.282888 74.651247 
L 116.639612 71.73923 
L 116.996336 72.978554 
L 117.35306 76.654296 
L 117.709784 72.133302 
L 118.066508 71.597578 
L 118.423232 74.408206 
L 118.779956 75.311495 
L 119.13668 73.098315 
L 119.493404 73.397169 
L 119.850128 74.614019 
L 120.206852 71.625157 
L 120.563576 73.526586 
L 121.277024 71.616599 
L 121.990472 73.464182 
L 122.347196 73.038669 
L 122.70392 74.814779 
L 123.060644 71.425079 
L 123.417368 71.51478 
L 123.774092 72.575543 
L 124.48754 70.953936 
L 124.844264 72.826415 
L 125.200989 70.124771 
L 125.914437 71.904843 
L 126.271161 72.76283 
L 126.627885 70.220198 
L 126.984609 70.734862 
L 127.341333 69.985371 
L 127.698057 72.099833 
L 128.054781 70.326251 
L 128.411505 71.026554 
L 128.768229 70.013886 
L 129.124953 71.72394 
L 129.481677 71.314977 
L 129.838401 71.698126 
L 130.195125 69.240383 
L 130.551849 71.587055 
L 130.908573 72.45609 
L 131.265297 69.789237 
L 131.978745 71.383449 
L 132.335469 68.469479 
L 132.692193 70.253531 
L 133.048917 69.345353 
L 133.405641 71.848292 
L 133.762365 69.549316 
L 134.119089 70.446192 
L 134.475813 68.488904 
L 134.832537 69.632009 
L 135.189262 68.974758 
L 135.90271 69.164082 
L 136.259434 72.166006 
L 136.616158 70.739729 
L 136.972882 67.631558 
L 137.329606 70.182211 
L 137.68633 67.408844 
L 138.043054 69.00973 
L 138.399778 69.003313 
L 138.756502 68.342932 
L 139.113226 68.146051 
L 139.826674 71.065484 
L 140.540122 68.680634 
L 140.896846 69.234877 
L 141.25357 70.596513 
L 141.967018 69.844458 
L 142.323742 69.036241 
L 142.680466 70.429027 
L 143.03719 68.779416 
L 143.393914 67.974988 
L 143.750638 67.553324 
L 144.107362 68.238603 
L 144.464086 70.240188 
L 144.820811 68.593372 
L 145.177535 68.005523 
L 145.534259 69.060367 
L 145.890983 68.343389 
L 146.247707 69.559264 
L 146.604431 66.63895 
L 146.961155 66.770945 
L 147.317879 67.56237 
L 147.674603 69.169733 
L 148.031327 67.851247 
L 148.388051 68.040458 
L 148.744775 66.449348 
L 149.101499 69.400377 
L 149.458223 68.407474 
L 149.814947 66.595835 
L 150.171671 66.666991 
L 150.528395 67.121337 
L 150.885119 68.62632 
L 151.241843 66.861403 
L 151.598567 66.223906 
L 151.955291 67.268617 
L 152.312015 66.088608 
L 152.668739 68.164611 
L 153.025463 64.586705 
L 153.738911 69.1736 
L 154.452359 66.249408 
L 154.809084 65.457957 
L 155.165808 65.986251 
L 155.522532 68.057318 
L 155.879256 68.186283 
L 156.23598 64.154526 
L 156.592704 66.530146 
L 156.949428 65.383729 
L 157.306152 66.850911 
L 157.662876 69.75618 
L 158.0196 66.355417 
L 158.376324 65.161973 
L 158.733048 65.682714 
L 159.446496 68.394844 
L 159.80322 63.050116 
L 160.159944 64.709005 
L 160.516668 65.606975 
L 160.873392 64.965518 
L 161.230116 66.428279 
L 161.58684 65.306194 
L 161.943564 67.400807 
L 162.300288 67.357889 
L 163.013736 63.399157 
L 163.37046 65.462076 
L 163.727184 65.07423 
L 164.083908 65.6968 
L 164.440632 65.421827 
L 164.797357 64.589156 
L 165.510805 66.409876 
L 165.867529 65.860084 
L 166.224253 65.808532 
L 166.580977 66.002856 
L 166.937701 65.212608 
L 167.294425 69.411226 
L 168.007873 64.865907 
L 168.364597 65.267781 
L 168.721321 64.308708 
L 169.078045 65.37482 
L 169.434769 65.802261 
L 169.791493 66.705193 
L 170.148217 64.390484 
L 170.504941 64.296322 
L 170.861665 64.891095 
L 171.218389 66.183034 
L 171.229091 62.258416 
L 171.575113 64.871872 
L 171.931837 65.860741 
L 172.645285 65.234677 
L 173.002009 64.327581 
L 173.358733 64.794426 
L 173.715457 63.717821 
L 174.072181 65.367368 
L 174.428906 65.873568 
L 174.78563 63.181 
L 175.142354 66.048194 
L 175.499078 63.891593 
L 175.855802 63.3896 
L 176.212526 65.15228 
L 176.56925 65.667098 
L 176.925974 64.055707 
L 177.282698 65.351436 
L 177.639422 65.008035 
L 177.996146 65.303411 
L 178.35287 65.447718 
L 179.066318 63.773025 
L 179.423042 65.071721 
L 179.779766 63.672151 
L 180.13649 65.087055 
L 180.493214 64.962222 
L 180.849938 63.317521 
L 181.206662 64.888247 
L 181.563386 64.87201 
L 181.92011 62.32585 
L 182.633558 65.196507 
L 182.990282 64.645963 
L 183.347006 65.262638 
L 183.70373 64.349745 
L 184.060454 64.079692 
L 184.417179 61.613038 
L 184.773903 64.949367 
L 185.130627 64.30993 
L 185.487351 65.036767 
L 185.844075 63.307114 
L 186.200799 63.249027 
L 186.557523 64.293372 
L 186.914247 61.803941 
L 187.270971 62.77058 
L 187.627695 65.565729 
L 187.984419 63.177547 
L 188.697867 63.924594 
L 189.054591 64.797762 
L 189.411315 65.201177 
L 190.124763 64.094192 
L 190.481487 62.675699 
L 190.838211 65.15672 
L 191.194935 62.40619 
L 191.908383 64.668716 
L 192.265107 64.539164 
L 192.621831 64.973108 
L 192.978555 63.656394 
L 193.335279 64.938425 
L 193.692003 64.745415 
L 194.048728 63.721336 
L 194.405452 64.113895 
L 194.762176 63.859321 
L 195.1189 63.923158 
L 195.475624 64.338655 
L 195.832348 62.276803 
L 196.189072 61.948913 
L 196.545796 64.330758 
L 196.90252 62.446957 
L 197.259244 63.22089 
L 197.615968 63.119259 
L 197.972692 59.789398 
L 198.329416 63.487112 
L 198.68614 63.453071 
L 199.042864 61.213579 
L 199.399588 63.89836 
L 199.756312 61.58671 
L 200.46976 62.450411 
L 200.826484 63.059004 
L 201.183208 62.339156 
L 201.539932 62.916997 
L 201.896656 63.214364 
L 202.25338 62.12577 
L 202.610104 61.400263 
L 202.966828 64.587985 
L 203.323552 64.008318 
L 203.680276 63.110712 
L 204.037001 62.987755 
L 204.393725 64.270938 
L 204.750449 62.451939 
L 205.107173 62.362625 
L 205.463897 62.998164 
L 205.820621 62.764496 
L 206.177345 61.979676 
L 206.534069 63.961724 
L 206.890793 63.232013 
L 207.247517 64.010596 
L 207.604241 62.528616 
L 207.960965 63.278082 
L 208.317689 62.542917 
L 208.674413 62.197301 
L 209.031137 63.892159 
L 209.387861 64.725547 
L 209.744585 62.24036 
L 210.101309 62.907167 
L 210.458033 62.379658 
L 210.814757 62.156074 
L 211.171481 62.805828 
L 211.528205 61.030664 
L 211.884929 61.197946 
L 212.241653 62.9889 
L 212.598377 62.151425 
L 212.955101 63.412624 
L 213.311825 61.921068 
L 213.66855 60.9623 
L 214.381998 64.381349 
L 214.738722 62.849459 
L 215.095446 62.199413 
L 215.45217 62.45704 
L 215.808894 62.458295 
L 216.165618 61.475748 
L 216.522342 64.114351 
L 216.879066 61.869839 
L 217.23579 64.778156 
L 217.592514 62.961544 
L 217.949238 66.630542 
L 218.305962 60.387474 
L 218.662686 62.848727 
L 219.01941 61.075776 
L 219.376134 61.280459 
L 219.732858 63.033883 
L 220.089582 62.982013 
L 220.446306 62.563188 
L 220.80303 63.751469 
L 221.159754 59.334018 
L 221.516478 61.552343 
L 221.873202 60.916692 
L 222.229926 64.31439 
L 222.58665 62.46497 
L 222.943374 61.741177 
L 223.300098 61.590924 
L 223.656823 61.061928 
L 224.013547 62.031763 
L 224.370271 61.560655 
L 224.726995 62.511182 
L 225.083719 61.57928 
L 225.440443 61.426422 
L 225.797167 61.773879 
L 226.153891 61.420844 
L 226.510615 60.772563 
L 226.867339 62.706514 
L 227.224063 61.011184 
L 227.937511 61.063258 
L 228.294235 60.462154 
L 228.650959 63.39129 
L 229.007683 61.089186 
L 229.364407 63.681182 
L 230.077855 60.276493 
L 230.434579 61.480259 
L 230.791303 62.241151 
L 231.148027 60.750543 
L 231.504751 61.724705 
L 231.861475 60.923119 
L 232.218199 63.137625 
L 232.574923 60.545179 
L 233.288372 59.499606 
L 233.645096 61.047743 
L 234.00182 59.293302 
L 234.358544 61.130814 
L 234.715268 61.905083 
L 235.071992 60.185079 
L 235.428716 62.558798 
L 235.78544 62.365457 
L 236.142164 60.042056 
L 236.498888 62.236071 
L 236.855612 61.586882 
L 237.212336 62.558239 
L 237.56906 61.921888 
L 237.925784 60.280118 
L 238.282508 62.958668 
L 238.639232 60.906058 
L 239.35268 60.451012 
L 240.066128 61.63084 
L 240.422852 61.284381 
L 240.779576 62.591909 
L 241.1363 63.233232 
L 241.493024 62.340675 
L 241.849748 61.077204 
L 242.206472 60.971784 
L 242.563196 62.226039 
L 242.91992 60.650987 
L 243.276645 61.324369 
L 243.633369 61.545505 
L 243.990093 60.317409 
L 244.346817 59.704604 
L 244.703541 60.037674 
L 245.060265 62.503984 
L 245.773713 58.468554 
L 246.130437 60.517149 
L 246.487161 61.243396 
L 246.843885 62.572816 
L 247.200609 60.53042 
L 247.557333 61.005549 
L 247.914057 60.817833 
L 248.270781 61.011531 
L 248.627505 62.160097 
L 248.984229 60.259738 
L 249.340953 62.263618 
L 249.697677 59.553626 
L 250.054401 62.054925 
L 250.767849 60.372327 
L 251.124573 60.140604 
L 251.481297 60.599805 
L 251.838021 60.397617 
L 252.194745 60.351098 
L 252.551469 60.658737 
L 252.908194 59.655985 
L 253.264918 60.820406 
L 253.621642 60.328295 
L 253.978366 60.430416 
L 254.33509 58.807592 
L 254.691814 61.587365 
L 255.048538 58.705053 
L 255.405262 61.170872 
L 255.761986 60.153706 
L 256.11871 61.238499 
L 256.475434 60.769166 
L 256.832158 61.709255 
L 257.188882 60.733874 
L 257.545606 61.388103 
L 257.90233 61.442401 
L 258.259054 58.484178 
L 258.615778 60.333945 
L 258.972502 61.438348 
L 259.329226 59.505082 
L 259.68595 59.981605 
L 260.042674 62.62132 
L 260.399398 59.329653 
L 260.756122 60.619789 
L 261.112846 61.049016 
L 261.46957 61.206024 
L 261.826294 61.501617 
L 262.183018 61.21982 
L 262.539742 58.712255 
L 262.896467 61.255373 
L 263.253191 59.713995 
L 263.609915 60.137974 
L 263.966639 59.80808 
L 264.323363 60.003633 
L 264.680087 58.560133 
L 265.036811 59.509295 
L 265.750259 60.074214 
L 266.106983 58.278244 
L 266.463707 59.319314 
L 266.820431 62.327882 
L 267.177155 59.331345 
L 267.533879 61.505505 
L 268.247327 59.770423 
L 268.604051 60.452073 
L 269.317499 60.977284 
L 269.674223 60.366472 
L 270.030947 60.294322 
L 270.387671 61.8514 
L 270.744395 58.441396 
L 271.101119 60.299997 
L 271.457843 59.602137 
L 271.814567 60.887293 
L 272.528016 59.815067 
L 272.88474 60.984417 
L 273.241464 60.156844 
L 273.598188 61.615971 
L 273.954912 57.97649 
L 274.311636 61.53895 
L 274.66836 61.180413 
L 275.025084 58.504242 
L 275.381808 58.554829 
L 275.738532 57.972274 
L 276.095256 60.93982 
L 276.45198 60.053265 
L 276.808704 60.995702 
L 277.165428 59.999245 
L 277.522152 59.778688 
L 277.878876 61.458174 
L 278.2356 58.238156 
L 278.592324 59.176632 
L 278.949048 59.13467 
L 279.305772 60.079274 
L 279.662496 59.429254 
L 280.01922 59.035698 
L 280.375944 59.924333 
L 280.732668 57.655545 
L 281.089392 58.403278 
L 281.446116 59.467092 
L 281.80284 58.072747 
L 282.159564 58.29727 
L 282.516289 59.050535 
L 282.873013 60.543085 
L 283.229737 58.743803 
L 283.586461 59.36033 
L 283.943185 58.890298 
L 284.299909 59.272308 
L 284.656633 61.141207 
L 285.013357 60.380318 
L 285.370081 60.431933 
L 285.726805 59.166399 
L 286.083529 59.292056 
L 286.440253 60.911361 
L 286.796977 56.424699 
L 287.153701 59.253875 
L 287.510425 59.518435 
L 287.867149 60.810674 
L 288.223873 57.974282 
L 288.580597 59.869632 
L 288.937321 60.471814 
L 289.294045 61.841266 
L 289.650769 61.043263 
L 290.007493 61.284584 
L 290.364217 58.923666 
L 290.720941 58.553812 
L 291.077665 59.409918 
L 291.434389 57.642256 
L 291.791113 58.944807 
L 292.147838 59.699858 
L 292.504562 60.13006 
L 292.861286 58.93061 
L 293.21801 62.359227 
L 293.574734 58.119134 
L 293.931458 58.528265 
L 294.288182 59.386114 
L 294.644906 57.10769 
L 295.00163 57.972598 
L 295.358354 59.769585 
L 295.715078 60.017068 
L 296.071802 58.120831 
L 296.428526 58.612538 
L 296.78525 59.56676 
L 297.141974 62.129282 
L 297.498698 62.035263 
L 297.855422 60.672049 
L 298.212146 58.525355 
L 298.56887 60.24205 
L 298.925594 57.436553 
L 299.282318 61.196233 
L 299.639042 60.109809 
L 299.995766 58.450693 
L 300.35249 58.601453 
L 300.709214 57.970361 
L 301.065938 59.003583 
L 301.422662 60.860339 
L 301.779386 57.760577 
L 302.136111 60.241153 
L 302.492835 61.169708 
L 302.849559 59.715064 
L 303.206283 59.616851 
L 303.563007 58.80556 
L 303.919731 60.726782 
L 304.276455 59.612786 
L 304.633179 60.391977 
L 304.989903 59.464697 
L 305.346627 62.044703 
L 305.703351 58.99353 
L 306.060075 58.31307 
L 306.416799 58.233943 
L 306.773523 58.346898 
L 307.130247 57.734206 
L 307.843695 59.678738 
L 308.200419 59.433203 
L 308.557143 59.650251 
L 308.913867 61.479958 
L 309.270591 59.299831 
L 309.627315 59.072161 
L 309.984039 58.333044 
L 310.340763 59.125024 
L 310.697487 58.984148 
L 311.054211 58.499984 
L 311.767659 59.701755 
L 312.124384 59.600472 
L 312.481108 59.949576 
L 312.837832 59.832753 
L 313.194556 58.951807 
L 313.55128 60.969067 
L 313.908004 60.395414 
L 314.264728 58.040309 
L 314.621452 54.890395 
L 315.3349 59.907021 
L 315.691624 59.602406 
L 316.048348 58.391115 
L 316.405072 58.307684 
L 316.761796 59.983138 
L 317.11852 56.864018 
L 317.475244 58.653851 
L 317.831968 58.754256 
L 318.188692 59.310754 
L 318.545416 57.299447 
L 318.90214 60.901699 
L 319.258864 59.488886 
L 319.615588 56.1963 
L 319.972312 58.841925 
L 320.329036 58.721732 
L 320.68576 58.156264 
L 321.042484 56.60613 
L 321.399208 58.960749 
L 322.112657 57.566264 
L 322.469381 61.122027 
L 322.826105 58.807143 
L 323.182829 59.296597 
L 323.539553 58.753374 
L 323.896277 59.460419 
L 324.253001 60.636999 
L 324.609725 57.57398 
L 324.966449 58.739667 
L 325.323173 57.179453 
L 325.679897 60.409152 
L 326.036621 57.794842 
L 326.393345 58.034834 
L 326.750069 58.773479 
L 327.106793 58.925934 
L 327.463517 60.514076 
L 327.820241 57.159938 
L 328.533689 58.542581 
L 328.890413 58.449057 
L 329.603861 59.793192 
L 330.317309 58.45878 
L 330.674033 59.768527 
L 331.030757 57.407556 
L 331.387481 57.899323 
L 331.744206 57.265031 
L 332.10093 56.086344 
L 332.814378 57.38069 
L 333.171102 58.791917 
L 333.527826 57.341761 
L 333.88455 58.219127 
L 334.241274 58.748398 
L 334.597998 57.536734 
L 334.954722 57.771744 
L 335.311446 57.106407 
L 335.66817 59.507404 
L 336.024894 60.222648 
L 336.381618 58.063025 
L 336.738342 58.680036 
L 337.095066 59.617152 
L 337.45179 57.78673 
L 337.808514 57.989572 
L 338.165238 56.469676 
L 338.521962 58.880172 
L 338.878686 59.338473 
L 339.23541 58.572122 
L 339.592134 58.591326 
L 339.948858 56.030236 
L 340.305582 57.739366 
L 341.01903 57.216144 
L 341.375755 57.305619 
L 341.732479 57.807341 
L 342.089203 59.398987 
L 342.445927 57.840384 
L 342.802651 58.647326 
L 343.159375 57.089056 
L 343.516099 57.112371 
L 343.872823 59.508133 
L 344.229547 58.797233 
L 344.586271 56.631292 
L 344.942995 57.353291 
L 345.299719 59.489261 
L 345.656443 58.914934 
L 346.013167 59.114698 
L 346.369891 58.5108 
L 346.726615 57.302678 
L 347.083339 59.154864 
L 347.440063 59.39385 
L 347.796787 56.09395 
L 348.153511 56.551798 
L 348.510235 58.364676 
L 348.866959 57.515532 
L 349.580407 56.769601 
L 349.937131 58.561869 
L 350.293855 56.996398 
L 350.650579 57.501852 
L 351.364028 58.064803 
L 351.720752 56.951409 
L 352.077476 58.520547 
L 352.4342 59.472591 
L 352.790924 57.814927 
L 353.147648 58.451189 
L 353.504372 58.618934 
L 354.21782 57.021016 
L 354.574544 59.826836 
L 354.931268 56.31554 
L 355.287992 59.215021 
L 355.644716 58.498479 
L 356.00144 57.458175 
L 356.358164 58.317102 
L 356.714888 58.687163 
L 357.071612 60.227469 
L 357.428336 57.380811 
L 357.78506 56.501012 
L 358.141784 58.536323 
L 358.498508 59.050419 
L 358.855232 57.304149 
L 359.211956 57.062166 
L 359.56868 58.160052 
L 359.925404 57.156493 
L 360.282128 59.78722 
L 360.638852 60.430569 
L 360.995577 59.316253 
L 361.352301 56.151499 
L 361.709025 58.995426 
L 362.065749 58.740473 
L 362.422473 58.640956 
L 362.779197 59.839703 
L 363.135921 56.755145 
L 363.492645 57.456612 
L 363.849369 57.716075 
L 364.206093 59.150416 
L 364.562817 57.470664 
L 364.919541 58.222838 
L 365.276265 57.054435 
L 365.632989 59.037522 
L 365.989713 55.864789 
L 366.346437 57.38072 
L 366.703161 57.570271 
L 367.059885 58.227768 
L 367.416609 59.533769 
L 367.773333 57.759348 
L 368.130057 57.504406 
L 368.486781 55.814538 
L 368.843505 57.887744 
L 369.200229 56.283996 
L 369.556953 59.193613 
L 369.913677 58.042416 
L 370.270401 57.392199 
L 370.627125 58.95606 
L 370.98385 57.506522 
L 371.340574 60.161984 
L 371.697298 56.850843 
L 372.054022 59.097401 
L 372.410746 57.841207 
L 372.76747 58.79957 
L 373.124194 60.515324 
L 373.480918 55.984041 
L 373.837642 55.85199 
L 374.194366 59.027181 
L 374.55109 58.928362 
L 374.907814 55.469556 
L 375.264538 58.036043 
L 375.621262 58.575005 
L 375.977986 58.729528 
L 376.33471 57.721739 
L 376.691434 57.625184 
L 377.048158 58.496658 
L 377.404882 56.931245 
L 377.761606 57.333636 
L 378.11833 58.48234 
L 378.475054 57.176317 
L 378.831778 57.041805 
L 379.188502 56.313363 
L 379.545226 57.919805 
L 379.90195 58.598645 
L 380.258674 56.574418 
L 380.615399 55.221479 
L 380.972123 57.454016 
L 381.328847 57.842232 
L 381.685571 56.198242 
L 382.042295 58.57376 
L 382.399019 55.821804 
L 382.755743 56.98168 
L 383.112467 57.568798 
L 383.825915 59.347876 
L 384.182639 59.832064 
L 384.896087 58.353188 
L 385.252811 59.580619 
L 385.609535 57.430213 
L 385.966259 57.48271 
L 386.679707 56.473267 
L 387.036431 56.666018 
L 387.393155 55.837587 
L 387.749879 55.595755 
L 388.106603 57.376855 
L 388.463327 57.715511 
L 388.820051 56.527528 
L 389.176775 58.285708 
L 389.890223 55.135186 
L 390.246947 58.09426 
L 390.603672 57.929323 
L 390.960396 58.6708 
L 391.31712 57.383593 
L 391.673844 57.576485 
L 392.030568 55.780283 
L 392.387292 58.264032 
L 392.744016 57.093698 
L 393.10074 58.20767 
L 393.457464 58.594105 
L 393.814188 57.130287 
L 394.170912 56.351894 
L 394.527636 56.242385 
L 395.241084 57.815298 
L 395.597808 57.613598 
L 395.954532 58.40852 
L 396.311256 54.957049 
L 396.66798 56.48895 
L 397.381428 56.673657 
L 397.738152 59.827034 
L 398.4516 58.601463 
L 398.487273 55.881613 
L 398.487273 55.881613 
" clip-path="url(#pe2c9c501fd)" style="fill: none; stroke: #1f77b4; stroke-linecap: square"/>
   </g>
   <g id="line2d_13">
    <path d="M 109.505131 78.813708 
L 109.861855 76.194338 
L 110.218579 76.793561 
L 110.575303 76.476753 
L 110.932027 76.844847 
L 111.288751 77.806155 
L 111.645475 77.094933 
L 112.002199 77.748692 
L 112.358923 76.005057 
L 112.715647 76.334176 
L 113.072371 76.298292 
L 113.429095 75.433322 
L 113.785819 72.877258 
L 114.142543 74.738478 
L 114.855991 74.420367 
L 115.212715 76.047413 
L 115.56944 75.306207 
L 115.926164 75.690262 
L 116.282888 74.662228 
L 116.639612 71.73923 
L 116.996336 73.486891 
L 117.35306 76.214743 
L 117.709784 72.444614 
L 118.066508 71.641755 
L 118.423232 74.639928 
L 118.779956 75.245556 
L 119.13668 73.539451 
L 119.493404 73.408162 
L 119.850128 73.731328 
L 120.206852 71.194865 
L 120.563576 73.294231 
L 120.9203 72.406311 
L 121.277024 71.93787 
L 121.990472 73.320732 
L 122.347196 72.33771 
L 122.70392 74.581892 
L 123.060644 71.180749 
L 123.417368 71.536965 
L 123.774092 72.520516 
L 124.130816 71.164949 
L 124.48754 70.711081 
L 124.844264 72.006862 
L 125.200989 70.223715 
L 125.557713 70.605274 
L 125.914437 71.904843 
L 126.271161 72.510178 
L 126.627885 69.735319 
L 126.984609 69.952655 
L 127.341333 69.419687 
L 127.698057 71.142086 
L 128.411505 70.326912 
L 128.768229 69.616836 
L 129.124953 71.778888 
L 129.481677 70.70979 
L 129.838401 70.776882 
L 130.195125 68.653127 
L 130.551849 71.16855 
L 130.908573 71.188478 
L 131.265297 70.043463 
L 131.622021 70.532877 
L 131.978745 70.507729 
L 132.335469 68.657916 
L 132.692193 69.813069 
L 133.048917 68.613507 
L 133.405641 71.206245 
L 133.762365 68.545617 
L 134.119089 69.247979 
L 134.475813 67.526703 
L 134.832537 69.111011 
L 135.189262 68.842109 
L 135.90271 69.164082 
L 136.259434 71.628 
L 136.616158 70.311126 
L 136.972882 66.934665 
L 137.329606 69.170839 
L 137.68633 67.44182 
L 138.043054 68.261633 
L 138.399778 68.242404 
L 138.756502 67.609542 
L 139.113226 68.17923 
L 139.826674 69.924755 
L 140.183398 69.203554 
L 140.540122 68.13166 
L 140.896846 69.498675 
L 141.25357 70.090106 
L 141.610294 69.87657 
L 141.967018 69.262546 
L 142.323742 68.925703 
L 142.680466 69.629264 
L 143.03719 68.273816 
L 143.393914 67.997135 
L 143.750638 66.760296 
L 144.107362 67.356906 
L 144.464086 69.70969 
L 144.820811 68.121012 
L 145.177535 67.796768 
L 145.534259 69.038325 
L 145.890983 67.241465 
L 146.247707 68.414886 
L 146.604431 65.69336 
L 146.961155 66.627589 
L 147.674603 67.812138 
L 148.031327 66.870822 
L 148.388051 67.688831 
L 148.744775 65.324677 
L 149.101499 69.334126 
L 149.458223 67.643297 
L 149.814947 65.285188 
L 150.171671 66.027847 
L 150.528395 66.360256 
L 150.885119 66.937608 
L 151.241843 66.78449 
L 151.598567 65.380923 
L 151.955291 66.102361 
L 152.312015 65.646725 
L 152.668739 67.713502 
L 153.025463 65.15198 
L 153.738911 68.013344 
L 154.809084 65.045786 
L 155.165808 65.986251 
L 155.522532 67.398948 
L 155.879256 66.605091 
L 156.23598 63.678073 
L 156.592704 64.911374 
L 156.949428 64.510499 
L 157.662876 69.095323 
L 158.0196 65.651263 
L 158.376324 65.239612 
L 158.733048 65.528093 
L 159.446496 67.977989 
L 159.80322 62.052077 
L 160.159944 64.643176 
L 160.516668 65.717269 
L 160.873392 63.910188 
L 161.230116 66.044298 
L 161.58684 64.647882 
L 161.943564 66.555369 
L 162.300288 66.862034 
L 162.657012 64.701711 
L 163.013736 63.322041 
L 163.727184 65.41689 
L 164.083908 65.475933 
L 164.440632 64.403062 
L 164.797357 64.40161 
L 165.510805 66.145682 
L 165.867529 64.716014 
L 166.224253 65.259632 
L 166.937701 64.493202 
L 167.294425 68.522227 
L 167.651149 66.160223 
L 168.007873 65.240451 
L 168.364597 65.146291 
L 168.721321 63.988985 
L 169.434769 65.64786 
L 169.791493 65.275447 
L 170.148217 63.80458 
L 170.504941 64.373379 
L 170.861665 64.693487 
L 171.218389 65.644243 
L 171.229091 62.95941 
L 171.575113 64.010162 
L 171.931837 65.773082 
L 172.288561 65.272622 
L 172.645285 63.448918 
L 173.002009 63.169676 
L 173.358733 64.319531 
L 173.715457 62.88145 
L 174.072181 65.783617 
L 174.78563 63.126013 
L 175.142354 66.003989 
L 175.499078 63.343773 
L 175.855802 62.611339 
L 176.212526 64.439465 
L 176.56925 65.155053 
L 176.925974 63.292978 
L 177.282698 65.019515 
L 177.639422 64.359316 
L 177.996146 65.148623 
L 178.35287 64.818135 
L 178.709594 64.246891 
L 179.066318 62.601269 
L 179.423042 64.785459 
L 179.779766 63.309698 
L 180.13649 64.745949 
L 180.493214 64.818497 
L 180.849938 62.711722 
L 181.206662 64.577422 
L 181.563386 63.965823 
L 181.92011 61.436174 
L 182.276834 62.58881 
L 182.633558 65.405844 
L 182.990282 63.561571 
L 183.347006 64.401588 
L 183.70373 63.633849 
L 184.060454 63.637899 
L 184.417179 61.812885 
L 184.773903 64.164742 
L 185.130627 63.071682 
L 185.487351 64.673647 
L 185.844075 62.898087 
L 186.200799 62.805785 
L 186.557523 63.381922 
L 186.914247 62.303752 
L 187.270971 62.70433 
L 187.627695 64.209448 
L 187.984419 62.17653 
L 188.341143 63.264376 
L 188.697867 63.098021 
L 189.054591 64.184342 
L 189.411315 64.29405 
L 189.768039 63.720241 
L 190.124763 63.96298 
L 190.481487 60.976204 
L 190.838211 64.055614 
L 191.194935 61.834245 
L 191.908383 63.794322 
L 192.265107 64.007346 
L 192.621831 62.928433 
L 192.978555 62.484982 
L 193.335279 64.029182 
L 194.048728 63.929862 
L 194.405452 63.299278 
L 195.1189 63.438367 
L 195.475624 62.861645 
L 195.832348 61.825076 
L 196.189072 61.229426 
L 196.545796 63.988985 
L 196.90252 61.733412 
L 197.259244 62.5673 
L 197.615968 62.777809 
L 197.972692 59.712343 
L 198.329416 62.8249 
L 198.68614 62.657664 
L 199.042864 59.807765 
L 199.399588 62.943274 
L 199.756312 60.659968 
L 200.113036 61.742446 
L 200.826484 62.061664 
L 201.183208 61.834088 
L 201.539932 62.740665 
L 201.896656 63.104139 
L 202.25338 61.828096 
L 202.610104 61.356057 
L 202.966828 63.153852 
L 203.323552 63.523711 
L 203.680276 62.142087 
L 204.037001 62.611391 
L 204.393725 63.444216 
L 204.750449 62.154051 
L 205.107173 61.591105 
L 205.463897 61.812541 
L 205.820621 62.952178 
L 206.177345 61.713412 
L 206.534069 62.843347 
L 206.890793 61.83071 
L 207.247517 62.268724 
L 207.604241 61.208777 
L 207.960965 62.102454 
L 208.317689 62.309814 
L 208.674413 61.080968 
L 209.387861 63.801158 
L 209.744585 61.487291 
L 210.101309 62.752039 
L 210.458033 61.239352 
L 210.814757 61.499674 
L 211.171481 62.131211 
L 211.528205 60.323986 
L 212.241653 62.115098 
L 212.598377 61.184754 
L 212.955101 62.959244 
L 213.66855 59.787417 
L 214.381998 63.315647 
L 215.45217 61.9161 
L 216.165618 62.00741 
L 216.522342 63.157979 
L 216.879066 61.556429 
L 217.23579 63.917959 
L 217.592514 63.953097 
L 217.949238 65.792533 
L 218.305962 59.376842 
L 218.662686 62.473887 
L 219.01941 60.246704 
L 219.376134 60.5478 
L 220.089582 63.092424 
L 220.446306 61.732635 
L 220.80303 62.649471 
L 221.159754 59.577284 
L 221.516478 60.972743 
L 221.873202 60.204319 
L 222.229926 63.318939 
L 222.58665 61.447722 
L 222.943374 61.961185 
L 223.300098 60.761028 
L 223.656823 60.256182 
L 224.013547 61.811165 
L 224.370271 60.36805 
L 224.726995 62.334596 
L 225.083719 60.290088 
L 225.440443 61.799908 
L 225.797167 60.801715 
L 226.153891 60.92249 
L 226.510615 60.024416 
L 226.867339 61.714023 
L 227.224063 60.049504 
L 227.580787 60.103253 
L 227.937511 60.379835 
L 228.294235 59.114642 
L 228.650959 62.579736 
L 229.007683 60.548416 
L 229.364407 62.99702 
L 229.721131 61.046583 
L 230.077855 59.868083 
L 230.434579 61.589684 
L 230.791303 61.316554 
L 231.148027 60.717309 
L 231.504751 61.054657 
L 231.861475 60.092303 
L 232.218199 61.567631 
L 232.574923 59.54209 
L 232.931647 60.029024 
L 233.288372 58.949164 
L 233.645096 59.528796 
L 234.00182 59.359278 
L 234.358544 60.199964 
L 234.715268 61.949131 
L 235.071992 59.401091 
L 235.428716 61.925028 
L 235.78544 63.117335 
L 236.142164 60.361779 
L 236.498888 61.616471 
L 236.855612 60.592354 
L 237.212336 62.116346 
L 237.56906 61.200815 
L 237.925784 59.771265 
L 238.282508 62.53135 
L 238.639232 60.378877 
L 239.35268 60.099416 
L 240.066128 61.277796 
L 241.1363 62.642643 
L 241.849748 60.305545 
L 242.206472 60.465628 
L 242.563196 61.78525 
L 243.276645 60.569389 
L 243.633369 60.89024 
L 243.990093 59.702089 
L 244.346817 60.046293 
L 244.703541 59.9051 
L 245.060265 61.415678 
L 245.773713 58.114161 
L 246.130437 60.539158 
L 246.487161 59.805342 
L 246.843885 61.723781 
L 247.200609 59.682892 
L 247.557333 60.57414 
L 248.270781 60.401383 
L 248.627505 61.581514 
L 248.984229 60.215541 
L 249.340953 61.412552 
L 249.697677 59.244816 
L 250.054401 60.872142 
L 250.411125 61.337844 
L 250.767849 60.173932 
L 251.124573 59.68851 
L 251.481297 60.270561 
L 251.838021 60.068889 
L 252.194745 59.051267 
L 252.551469 59.963164 
L 252.908194 58.984763 
L 253.264918 59.307003 
L 253.621642 60.33927 
L 253.978366 59.200642 
L 254.33509 58.454222 
L 254.691814 60.10812 
L 255.048538 58.305421 
L 255.405262 60.939874 
L 255.761986 60.263275 
L 256.11871 60.236537 
L 256.475434 61.410359 
L 256.832158 60.503738 
L 257.188882 59.169454 
L 257.545606 60.624081 
L 257.90233 61.420271 
L 258.259054 57.703445 
L 258.615778 58.739813 
L 258.972502 61.273626 
L 259.329226 58.593234 
L 259.68595 59.176676 
L 260.042674 61.739047 
L 260.399398 58.966018 
L 260.756122 60.322951 
L 261.112846 59.604032 
L 261.46957 61.590392 
L 261.826294 60.517073 
L 262.183018 60.824045 
L 262.539742 57.767406 
L 262.896467 60.360298 
L 263.253191 59.206459 
L 263.609915 60.060456 
L 263.966639 58.756642 
L 264.323363 60.332906 
L 264.680087 58.460938 
L 265.036811 58.788929 
L 265.393535 59.598598 
L 265.750259 59.55311 
L 266.106983 57.714691 
L 266.463707 59.539061 
L 266.820431 62.129629 
L 267.177155 59.275839 
L 267.533879 60.333194 
L 267.890603 60.126795 
L 268.247327 58.635441 
L 268.960775 60.055887 
L 269.317499 60.336612 
L 270.030947 60.382886 
L 270.387671 61.631811 
L 270.744395 57.930721 
L 271.101119 59.616912 
L 271.457843 58.895777 
L 271.814567 59.947529 
L 272.171291 60.51696 
L 272.528016 58.781959 
L 272.88474 60.210669 
L 273.241464 58.986857 
L 273.598188 60.903455 
L 273.954912 58.470622 
L 274.311636 61.087029 
L 274.66836 60.621324 
L 275.025084 58.293177 
L 275.381808 59.037764 
L 275.738532 57.599682 
L 276.095256 60.284927 
L 276.45198 59.490208 
L 277.165428 60.021258 
L 277.522152 59.591945 
L 277.878876 61.52446 
L 278.2356 57.575929 
L 278.592324 58.495233 
L 278.949048 58.660299 
L 279.305772 59.333522 
L 279.662496 57.937564 
L 280.01922 58.316568 
L 280.375944 59.098689 
L 280.732668 57.278662 
L 281.089392 56.921099 
L 281.446116 57.55124 
L 281.80284 57.665896 
L 282.159564 58.087105 
L 282.873013 58.52806 
L 283.229737 58.104659 
L 283.586461 58.168215 
L 283.943185 57.963076 
L 284.299909 58.867627 
L 284.656633 60.43218 
L 285.013357 59.993208 
L 285.370081 60.167287 
L 285.726805 59.034337 
L 286.083529 59.369094 
L 286.440253 59.973798 
L 286.796977 55.222331 
L 287.153701 58.742307 
L 287.510425 58.594948 
L 287.867149 60.140776 
L 288.223873 56.902281 
L 288.937321 60.449928 
L 289.294045 60.800095 
L 289.650769 60.109045 
L 290.007493 60.765091 
L 290.364217 58.081659 
L 290.720941 58.025898 
L 291.077665 59.21305 
L 291.434389 56.972268 
L 291.791113 57.210574 
L 292.147838 58.996305 
L 292.504562 59.811719 
L 292.861286 58.622557 
L 293.21801 61.332403 
L 293.574734 58.163233 
L 293.931458 57.221473 
L 294.288182 58.412435 
L 294.644906 56.986125 
L 295.00163 57.367561 
L 295.358354 59.659558 
L 295.715078 59.007499 
L 296.071802 57.769275 
L 296.428526 58.224394 
L 296.78525 59.245606 
L 297.141974 61.910164 
L 297.498698 60.620856 
L 297.855422 59.8103 
L 298.212146 58.074176 
L 298.56887 58.720026 
L 298.925594 56.503151 
L 299.282318 60.39134 
L 299.995766 58.671331 
L 300.709214 57.571776 
L 301.065938 58.195635 
L 301.422662 60.297459 
L 301.779386 57.584321 
L 302.136111 59.834666 
L 302.492835 59.471026 
L 302.849559 58.585768 
L 303.206283 59.385707 
L 303.563007 58.256451 
L 303.919731 60.175944 
L 304.276455 59.216334 
L 304.633179 59.951009 
L 304.989903 59.552857 
L 305.346627 61.670478 
L 305.703351 58.99353 
L 306.060075 58.698821 
L 306.416799 57.71445 
L 306.773523 58.555686 
L 307.130247 57.734206 
L 307.486971 59.16217 
L 307.843695 58.927302 
L 308.557143 59.420033 
L 308.913867 59.38182 
L 309.270591 57.967342 
L 309.627315 59.335893 
L 309.984039 56.270266 
L 310.340763 58.013731 
L 310.697487 58.522742 
L 311.054211 58.5664 
L 311.410935 58.084723 
L 311.767659 59.436356 
L 312.124384 58.812229 
L 312.481108 58.814518 
L 312.837832 59.35576 
L 313.194556 58.476065 
L 313.55128 59.931111 
L 313.908004 59.675243 
L 314.264728 56.147767 
L 314.621452 54.381829 
L 314.978176 56.769662 
L 315.3349 60.421213 
L 315.691624 58.465302 
L 316.048348 57.64157 
L 316.405072 58.396092 
L 316.761796 58.65761 
L 317.11852 56.378636 
L 317.475244 57.661227 
L 317.831968 57.425889 
L 318.188692 58.162636 
L 318.545416 56.957874 
L 318.90214 60.261056 
L 319.258864 58.682468 
L 319.615588 55.579168 
L 319.972312 58.46602 
L 320.329036 58.380213 
L 320.68576 57.562654 
L 321.042484 56.054932 
L 321.399208 58.409416 
L 321.755933 57.401554 
L 322.112657 56.045408 
L 322.469381 60.406324 
L 322.826105 58.253717 
L 323.182829 58.300902 
L 323.539553 58.011244 
L 323.896277 58.109692 
L 324.253001 59.684048 
L 324.609725 58.093707 
L 324.966449 57.685378 
L 325.323173 56.477128 
L 325.679897 59.562575 
L 326.036621 56.769569 
L 326.393345 56.56438 
L 326.750069 58.629977 
L 327.106793 58.361783 
L 327.463517 58.854134 
L 327.820241 57.303446 
L 328.176965 57.323461 
L 328.533689 58.167226 
L 328.890413 58.338882 
L 329.247137 59.523169 
L 329.603861 58.669407 
L 329.960585 58.581323 
L 330.317309 57.961707 
L 330.674033 59.348492 
L 331.030757 56.31567 
L 331.387481 57.096346 
L 331.744206 57.109549 
L 332.10093 55.774969 
L 332.457654 56.309716 
L 332.814378 56.598658 
L 333.171102 57.34952 
L 333.527826 56.645104 
L 333.88455 57.866202 
L 334.241274 57.8668 
L 334.597998 56.530089 
L 335.311446 56.60621 
L 335.66817 58.277537 
L 336.024894 58.558294 
L 336.381618 57.039342 
L 336.738342 59.063681 
L 337.095066 59.792678 
L 337.45179 56.207363 
L 337.808514 58.497485 
L 338.165238 56.769196 
L 338.521962 56.752967 
L 338.878686 58.787783 
L 339.23541 57.53764 
L 339.592134 57.32034 
L 339.948858 55.15907 
L 340.305582 57.574107 
L 340.662306 56.141841 
L 341.01903 57.095521 
L 341.375755 56.580307 
L 341.732479 58.027676 
L 342.089203 58.679824 
L 342.445927 57.070129 
L 342.802651 57.711848 
L 343.159375 56.501468 
L 343.516099 56.119031 
L 343.872823 58.398161 
L 344.229547 58.281313 
L 344.586271 55.991125 
L 344.942995 56.867636 
L 345.299719 58.841268 
L 345.656443 57.210135 
L 346.013167 58.088224 
L 346.369891 59.324102 
L 346.726615 57.467662 
L 347.440063 59.800574 
L 347.796787 55.717271 
L 348.153511 56.540872 
L 348.510235 57.869066 
L 348.866959 57.0723 
L 349.223683 55.916538 
L 349.580407 57.123618 
L 349.937131 56.440641 
L 350.293855 56.305372 
L 351.007303 58.854001 
L 351.364028 56.916718 
L 351.720752 56.433528 
L 352.077476 58.719156 
L 352.4342 58.780093 
L 352.790924 57.382894 
L 353.147648 57.802411 
L 353.504372 57.548479 
L 353.861096 57.924318 
L 354.21782 55.643352 
L 354.574544 58.129772 
L 354.931268 56.271474 
L 355.287992 59.733053 
L 356.00144 57.151101 
L 356.358164 58.061475 
L 357.071612 59.332011 
L 357.428336 56.76957 
L 357.78506 55.125374 
L 358.498508 59.182626 
L 358.855232 57.679276 
L 359.211956 56.99596 
L 359.56868 57.212246 
L 359.925404 57.068138 
L 360.638852 59.66235 
L 361.352301 56.758471 
L 361.709025 58.200127 
L 362.065749 57.238005 
L 362.422473 57.351531 
L 362.779197 59.263944 
L 363.135921 56.689172 
L 363.492645 56.74869 
L 363.849369 56.924168 
L 364.206093 59.416133 
L 364.562817 56.977814 
L 364.919541 57.869945 
L 365.276265 56.252538 
L 365.632989 59.126027 
L 365.989713 55.820589 
L 366.346437 56.906039 
L 366.703161 57.139765 
L 367.059885 58.557507 
L 367.416609 59.325784 
L 367.773333 57.063571 
L 368.130057 56.738367 
L 368.486781 55.471816 
L 368.843505 56.152728 
L 369.200229 55.330705 
L 369.556953 58.465377 
L 370.270401 57.092888 
L 370.627125 58.34034 
L 370.98385 57.34104 
L 371.340574 59.621591 
L 371.697298 56.486553 
L 372.054022 58.691897 
L 372.410746 56.873929 
L 373.124194 60.415518 
L 373.480918 56.758751 
L 373.837642 56.329512 
L 374.194366 58.391369 
L 374.55109 58.245185 
L 374.907814 55.126385 
L 375.264538 57.783113 
L 375.621262 57.643774 
L 375.977986 57.933457 
L 376.33471 57.191145 
L 376.691434 57.217022 
L 377.048158 58.62792 
L 377.404882 56.271945 
L 377.761606 57.278393 
L 378.11833 57.602602 
L 378.475054 56.834282 
L 379.188502 56.04797 
L 379.545226 56.798844 
L 379.90195 56.747804 
L 380.615399 55.608922 
L 380.972123 57.465032 
L 381.328847 57.787347 
L 381.685571 56.098988 
L 382.042295 57.70981 
L 382.399019 54.838149 
L 382.755743 56.298118 
L 383.112467 56.605357 
L 383.469191 58.62801 
L 383.825915 59.468321 
L 384.182639 58.252619 
L 384.539363 58.417891 
L 384.896087 57.569747 
L 385.252811 58.419891 
L 385.966259 55.789378 
L 386.322983 56.762441 
L 386.679707 56.186567 
L 387.036431 56.266159 
L 387.393155 55.726922 
L 387.749879 55.805456 
L 388.106603 56.778411 
L 388.463327 55.604712 
L 388.820051 56.284619 
L 389.176775 56.484469 
L 389.890223 55.580291 
L 390.246947 56.382119 
L 390.603672 57.632624 
L 390.960396 58.193646 
L 391.673844 57.058021 
L 392.030568 55.226931 
L 392.387292 57.44758 
L 392.744016 57.148693 
L 393.10074 58.008935 
L 393.457464 57.788559 
L 394.170912 55.035066 
L 394.527636 55.999579 
L 394.88436 57.362868 
L 395.241084 57.826281 
L 395.597808 56.612896 
L 395.954532 57.706196 
L 396.311256 53.568 
L 396.66798 55.948412 
L 397.024704 55.229675 
L 397.381428 56.607592 
L 397.738152 59.618662 
L 398.094876 58.113614 
L 398.487273 55.408275 
L 398.487273 55.408275 
" clip-path="url(#pe2c9c501fd)" style="fill: none; stroke: #ff7f0e; stroke-linecap: square"/>
   </g>
   <g id="patch_3">
    <path d="M 57.6 307.584 
L 57.6 41.472 
" style="fill: none; stroke: #808080; stroke-width: 0.8; stroke-linejoin: miter; stroke-linecap: square"/>
   </g>
   <g id="patch_4">
    <path d="M 57.6 307.584 
L 414.72 307.584 
" style="fill: none; stroke: #808080; stroke-width: 0.8; stroke-linejoin: miter; stroke-linecap: square"/>
   </g>
   <g id="legend_1"/>
  </g>
 </g>
 <defs>
  <clipPath id="pe2c9c501fd">
   <rect x="57.6" y="41.472" width="357.12" height="266.112"/>
  </clipPath>
 </defs>
</svg>
